<svg width="50" height="50" fill="none" xmlns="http://www.w3.org/2000/svg"><path d="M12.245 3.254l7.912 11.148" stroke="#AA161D" stroke-width="5" stroke-linecap="round"/><path d="M19.507 2.04l4.755 6.78a3.381 3.381 0 01-.815 4.7l-2.824 1.99" stroke="#AA161D" stroke-width="2" stroke-linecap="round"/><path d="M16.326 9.184l-2.04 19.387" stroke="#AA161D" stroke-width="5"/><path d="M34.508 28.572h-7.792c-1.23 0-2.226.913-2.226 2.04v1.02c0 1.128.997 2.042 2.226 2.042h7.792c1.23 0 2.227-.914 2.227-2.041v-1.02c0-1.128-.997-2.041-2.227-2.041zm10.204 8.163H36.92c-1.23 0-2.226.913-2.226 2.04v1.02c0 1.128.997 2.042 2.226 2.042h7.792c1.23 0 2.227-.914 2.227-2.041v-1.02c0-1.128-.997-2.041-2.227-2.041z" fill="#AA161D"/><path d="M2.04 47.96h45.92" stroke="#AA161D" stroke-width="3" stroke-linecap="round"/><path d="M9.344 27.551h6.014a2.04 2.04 0 012.04 1.989l.401 15.655a2.041 2.041 0 01-2.19 2.087l-9.248-.684a2.04 2.04 0 01-1.854-2.415l2.832-14.97a2.04 2.04 0 012.005-1.662z" fill="#AA161D" stroke="#AA161D"/><path d="M27.551 46.939V37.26c0-.576.243-1.125.67-1.512l3.412-3.096m-3.572 11.226l12.755-3.062m0 .51v5.613" stroke="#AA161D" stroke-width="2"/></svg>