<svg width="50" height="50" fill="none" xmlns="http://www.w3.org/2000/svg"><path d="M0 41.211a5.867 5.867 0 015.86-5.859c.073 0 .164 0 40.073 2.942A4.41 4.41 0 0150 42.676a4.4 4.4 0 01-4.395 4.395h-1.66v1.465a1.465 1.465 0 11-2.93 0V47.07H8.595v1.465a1.465 1.465 0 01-2.93 0v-1.47A5.865 5.865 0 010 41.21zM15.654 14.77l-8.79-2.93a1.465 1.465 0 01-.929-.936L3.005 1.92a1.465 1.465 0 012.786-.908l2.7 8.282 8.089 2.696a1.465 1.465 0 01-.926 2.78zm-1.006 2.753v15.53c-8.587-.63-8.66-.63-8.789-.63a8.54 8.54 0 00-.992.056l1.952-17.565 7.829 2.61z" fill="#AA161D"/></svg>