<svg width="50" height="50" xmlns="http://www.w3.org/2000/svg" viewBox="0 0 50 50">
<style type="text/css">
	.st0{fill:#AA161D;}
	.st1{fill:none;stroke:#AA161D;stroke-width:1.8;}
</style>
<g>
	<path class="st0" d="M41,37.4l0.4,1.8l-32.8,0v-1.8H41z"/>
	<path class="st0" d="M1.8,37.4c-1.7,0-1.7,1.8,0,1.8s2.4,0,2.4,0l0.4-1.8H1.8z"/>
	<path class="st0" d="M48.2,37.4c-1.7,0-2.4,0-2.4,0v1.8c0,0,0.7,0,2.4,0C49.9,39.2,49.9,37.4,48.2,37.4z"/>
	<path class="st0" d="M8.4,36.9c3.6-4.8,8.7-7.5,16-7.5c3.6,0,6.7,0.4,9.5,1.6c2.8,1.2,5.2,3,7.8,5.8c0.3,0.3,0.3,0.8-0.1,1.1
		c-0.3,0.3-0.8,0.3-1.1-0.1c-4.6-0.1-4.6,0.1-7.8,0c-3.6,0.1-4.1,0-7.6,0c-6.9,0-1.2-0.1-15.4-0.1c-0.3,0.4-0.8,0.4-1.1,0.2
		C8.2,37.8,8.1,37.3,8.4,36.9z"/>
	<path class="st0" d="M21.2,23.8h7.2c1.9,0,3.4,1.5,3.4,3.4c0,1.9-1.5,3.4-3.4,3.4h-7.2c-1.9,0-3.4-1.5-3.4-3.4
		C17.8,25.3,19.3,23.8,21.2,23.8z"/>
	<path class="st0" d="M11.6,15.3c3.7-4.2,8.5-5.9,13-5.9c4.5,0,9.4,1.7,13.2,5.8c3.8,4.2,6.4,10.8,6.4,20.5c0,0.4-0.4,0.8-0.8,0.8
		c-0.4,0-0.8-0.4-0.8-0.8c0-9.6-2.5-15.6-6-19.4c-3.5-3.8-7.9-5.3-12-5.3c-4.1,0-8.5,1.5-11.8,5.3C9.4,20.2,7,26.4,7,35.8
		c0,0.4-0.4,0.8-0.8,0.8c-0.4,0-0.8-0.4-0.8-0.8C5.4,26.1,7.9,19.5,11.6,15.3z"/>
	<path class="st1" d="M6.6,40.5c1.3,0,2.3-1,2.3-2.3c0-1.3-1-2.3-2.3-2.3s-2.3,1-2.3,2.3C4.3,39.5,5.3,40.5,6.6,40.5z"/>
	<path class="st1" d="M43.4,40.5c1.3,0,2.3-1,2.3-2.3c0-1.3-1-2.3-2.3-2.3c-1.3,0-2.3,1-2.3,2.3C41.1,39.5,42.1,40.5,43.4,40.5z"/>
</g>
</svg>
