<svg width="50" height="50" xmlns="http://www.w3.org/2000/svg"><style>.st0{fill:#aa161d}</style><path class="st0" d="M17.3 15.4c-.8 0-1.5-.4-2-1.1L8.7 4.1C8 3 8.3 1.6 9.4.9c1.1-.7 2.5-.4 3.2.7l6.7 10.2c.7 1.1.4 2.5-.7 3.2-.4.2-.8.4-1.3.4z"/><path class="st0" d="M17.7 15c-.3 0-.6-.1-.7-.4-.3-.4-.2-1 .2-1.3l2.4-1.8c.9-.7 1.1-2.1.5-3l-4-6.2c-.3-.4-.2-1 .3-1.3.4-.3 1-.2 1.3.3l4 6.2c1.2 1.8.8 4.3-.9 5.5l-2.4 1.8c-.3.1-.5.2-.7.2z"/><path class="st0" d="M7.874 31.672L11.12 7.69l5.55.751-3.245 23.982z"/><path class="st0" d="M23.3 37.5l-10.4-8.1c-1.2-.9-2.7-1.2-4.1-.8-1.9.5-3.4 2.3-3.6 4.4L3.8 43.2c-.1 1 .1 2.1.6 3 .8 1.4 2.1 2.2 3.6 2.2h15c1 0 1.9-.9 1.9-2.1v-5.6c-.1-1.3-.7-2.5-1.6-3.2z"/><path class="st0" d="M22.9 48.9h-15c-1.6 0-3.2-.9-4-2.4-.5-1-.8-2.1-.6-3.3L4.6 33c.3-2.3 1.9-4.2 4-4.8 1.6-.4 3.2-.1 4.5.9l10.4 8.1c1.1.8 1.7 2.2 1.7 3.6v5.6c.1 1.4-1 2.5-2.3 2.5zM10 28.8c-.4 0-.8.1-1.1.2-1.8.5-3.1 2.1-3.3 4.1L4.2 43.3c-.1.9.1 1.9.5 2.7.7 1.2 1.9 2 3.2 2h15c.8 0 1.4-.7 1.4-1.6v-5.6c0-1.1-.5-2.2-1.4-2.9l-10.4-8.1c-.7-.7-1.6-1-2.5-1z"/><path class="st0" d="M21.787 39.57l6.633-7.213 1.399 1.286-6.634 7.213zm1.883 4.392l12.734-3.077.446 1.847-12.733 3.077z"/><path class="st0" d="M31.9 30h-6.6c-1 0-1.9.9-1.9 2.1v1c0 1.1.8 2.1 1.9 2.1h6.6c1 0 1.9-.9 1.9-2.1v-1c0-1.2-.9-2.1-1.9-2.1zm8.5 8.2h-6.6c-1 0-1.9.9-1.9 2.1v1c0 1.1.8 2.1 1.9 2.1h6.6c1 0 1.9-.9 1.9-2.1v-1c0-1.2-.9-2.1-1.9-2.1zm6.2 11.3H3.4c-.8 0-1.4-.6-1.4-1.4s.6-1.4 1.4-1.4h43.2c.8 0 1.4.6 1.4 1.4s-.6 1.4-1.4 1.4z"/><path class="st0" d="M38 48.9h-2.8v-20c0-3.8-2.8-6.8-6.2-6.8H13v-2.8h16.1c4.9 0 9 4.3 9 9.6v20z"/></svg>