<svg width="50" height="50" xmlns="http://www.w3.org/2000/svg" viewBox="0 0 50 50">
<style type="text/css">
	.st0{fill:#AA161D;}
</style>
<g>
	<path class="st0" d="M17.3,15.4c-0.8,0-1.5-0.4-2-1.1L8.7,4.1C8,3,8.3,1.6,9.4,0.9c1.1-0.7,2.5-0.4,3.2,0.7l6.7,10.2
		c0.7,1.1,0.4,2.5-0.7,3.2C18.2,15.2,17.8,15.4,17.3,15.4z"/>
	<path class="st0" d="M17.7,15c-0.3,0-0.6-0.1-0.7-0.4c-0.3-0.4-0.2-1,0.2-1.3l2.4-1.8c0.9-0.7,1.1-2.1,0.5-3l-4-6.2
		c-0.3-0.4-0.2-1,0.3-1.3c0.4-0.3,1-0.2,1.3,0.3l4,6.2c1.2,1.8,0.8,4.3-0.9,5.5l-2.4,1.8C18.1,14.9,17.9,15,17.7,15z"/>
	<rect x="0.1" y="17.2" transform="matrix(0.1341 -0.991 0.991 0.1341 -9.1845 29.4649)" class="st0" width="24.2" height="5.6"/>
	<g>
		<path class="st0" d="M23.3,37.5l-10.4-8.1c-1.2-0.9-2.7-1.2-4.1-0.8c-1.9,0.5-3.4,2.3-3.6,4.4L3.8,43.2c-0.1,1,0.1,2.1,0.6,3
			c0.8,1.4,2.1,2.2,3.6,2.2h15c1,0,1.9-0.9,1.9-2.1v-5.6C24.8,39.4,24.2,38.2,23.3,37.5z"/>
		<path class="st0" d="M22.9,48.9h-15c-1.6,0-3.2-0.9-4-2.4c-0.5-1-0.8-2.1-0.6-3.3l1.3-10.2c0.3-2.3,1.9-4.2,4-4.8
			c1.6-0.4,3.2-0.1,4.5,0.9l10.4,8.1c1.1,0.8,1.7,2.2,1.7,3.6v5.6C25.3,47.8,24.2,48.9,22.9,48.9z M10,28.8c-0.4,0-0.8,0.1-1.1,0.2
			c-1.8,0.5-3.1,2.1-3.3,4.1L4.2,43.3c-0.1,0.9,0.1,1.9,0.5,2.7c0.7,1.2,1.9,2,3.2,2h15c0.8,0,1.4-0.7,1.4-1.6v-5.6
			c0-1.1-0.5-2.2-1.4-2.9l-10.4-8.1C11.8,29.1,10.9,28.8,10,28.8z"/>
	</g>
	<rect x="20.9" y="35.7" transform="matrix(0.6769 -0.736 0.736 0.6769 -18.6359 30.7868)" class="st0" width="9.8" height="1.9"/>
	<rect x="23.7" y="42.4" transform="matrix(0.972 -0.2349 0.2349 0.972 -9.3254 8.3163)" class="st0" width="13.1" height="1.9"/>
	<path class="st0" d="M31.9,30h-6.6c-1,0-1.9,0.9-1.9,2.1v1c0,1.1,0.8,2.1,1.9,2.1h6.6c1,0,1.9-0.9,1.9-2.1v-1
		C33.8,30.9,32.9,30,31.9,30z"/>
	<path class="st0" d="M40.4,38.2h-6.6c-1,0-1.9,0.9-1.9,2.1v1c0,1.1,0.8,2.1,1.9,2.1h6.6c1,0,1.9-0.9,1.9-2.1v-1
		C42.3,39.1,41.4,38.2,40.4,38.2z"/>
	<path class="st0" d="M46.6,49.5H3.4c-0.8,0-1.4-0.6-1.4-1.4s0.6-1.4,1.4-1.4h43.2c0.8,0,1.4,0.6,1.4,1.4S47.4,49.5,46.6,49.5z"/>
	<path class="st0" d="M38,48.9h-2.8v-20c0-3.8-2.8-6.8-6.2-6.8H13v-2.8h16.1c4.9,0,9,4.3,9,9.6V48.9z"/>
</g>
</svg>
