<svg width="50" height="50" fill="none" xmlns="http://www.w3.org/2000/svg"><path d="M7.759 29.741a3.448 3.448 0 110-6.897 3.448 3.448 0 010 6.897z" fill="#AA161D"/><path d="M0 25.43c.021-.196.053-.392.095-.585.384-1.927 2.213-8.163 9.861-12.525L6.54 8.904a1.724 1.724 0 010-2.439l1.219-1.219a1.725 1.725 0 012.438 0l8.294 8.294a1.726 1.726 0 010 2.439l-1.22 1.219a1.726 1.726 0 01-2.437 0l-2.605-2.605a22.962 22.962 0 00-5.444 4.002l-.009.008a7.686 7.686 0 018.175 4.79 2.587 2.587 0 11.557 3.082 7.753 7.753 0 01-7.689 7.577h33.56v-6.035h-3.448a1.724 1.724 0 110-3.448h10.345a1.724 1.724 0 110 3.448h-3.448v6.034h3.448c.457-.002.896.181 1.216.509.327.32.51.758.508 1.215a1.729 1.729 0 01-1.724 1.725h-1.724l1.724 4.31h.862c.476 0 .862.386.862.862v1.724a.862.862 0 01-.862.862h-5.172a.862.862 0 01-.863-.862v-1.724c0-.476.386-.862.863-.862h.862l-1.724-4.31H6.897l-1.724 4.31h.862c.476 0 .862.386.862.862v1.724a.862.862 0 01-.862.862H.862A.862.862 0 010 44.396v-1.724c0-.476.386-.862.862-.862h.862l1.724-4.31H1.724A1.737 1.737 0 010 35.776v-9.483a7.9 7.9 0 01.06-.922l-.06.06zm17.241 0a.862.862 0 100-1.723.862.862 0 000 1.724zM7.76 31.466a5.172 5.172 0 100-10.345 5.172 5.172 0 000 10.345z" fill="#AA161D"/></svg>