<svg width="50" height="50" xmlns="http://www.w3.org/2000/svg"><style>.st0{fill:#aa161d}</style><path class="st0" d="M9.9 2.7c-1.3 0-2.4 1.1-2.4 2.4v2.5c0 1.3 1.1 2.4 2.4 2.4h1.7V8.6H9.9c-.5 0-.9-.4-.9-.9V5.2c0-.5.4-.9.9-.9h11V2.7h-11zm10.9 5.9l1.7 1.5h-6.7V8.6h5zm9.3 0L28 10.1h6.3V8.6h-4.2zm12.6-3.4c0-1.3-1.1-2.4-2.4-2.4H30.1v1.5h10.1c.5 0 .9.4.9.9v2.5c0 .5-.4.9-.9.9h-1.7v1.5h1.7c1.3 0 2.4-1.1 2.4-2.4V5.2z"/><path class="st0" d="M20.1 3.5c0-1.3 1.1-2.4 2.4-2.4h5.9c1.3 0 2.4 1.1 2.4 2.4v4.2c0 1.3-1.1 2.4-2.4 2.4h-5.9c-1.3 0-2.4-1.1-2.4-2.4V3.5zm-1.7 32.9c0-1.3 1.1-2.4 2.4-2.4h7.6c1.3 0 2.4 1.1 2.4 2.4V38c0 1.3-1.1 2.4-2.4 2.4h-7.6c-1.3 0-2.4-1.1-2.4-2.4v-1.6zm2.4-1c-.5 0-.9.4-.9.9V38c0 .5.4.9.9.9h7.6c.5 0 .9-.4.9-.9v-1.7c0-.5-.4-.9-.9-.9h-7.6z"/><path class="st0" d="M22.5 9.8h1.7v2.9l-1.7.8V9.8zm3.8 0H28v3.8l-1.7-.8v-3zm-3.8 24.1h1.7v-11l-1.7-.9v11.9zm1.7 0H28V22l-3.8.8v11.1z"/><path class="st0" d="M22.2 15c-.6.6-1 1.6-1 2.8 0 1.2.4 2.2 1 2.8.6.6 1.6 1 2.8 1 1.2 0 2.2-.4 2.8-1 .6-.6 1-1.6 1-2.8 0-1.2-.4-2.2-1-2.8-.6-.6-1.6-1-2.8-1-1.2-.1-2.1.3-2.8 1zm-1-1.1c1-1 2.3-1.5 3.9-1.5s2.9.5 3.9 1.5 1.5 2.3 1.5 3.9-.5 2.9-1.5 3.9-2.3 1.5-3.9 1.5-2.9-.5-3.9-1.5-1.5-2.3-1.5-3.9.5-2.9 1.5-3.9zm12.4-6.2c0-.9.7-1.6 1.6-1.6h2.5c.9 0 1.6.7 1.6 1.6v5.1c0 .9-.7 1.6-1.6 1.6h-2.5c-.9 0-1.6-.7-1.6-1.6V7.7zm-22.8 0c0-.9.7-1.6 1.6-1.6h2.5c.9 0 1.6.7 1.6 1.6v3.4c0 .9-.7 1.6-1.6 1.6h-2.5c-.9 0-1.6-.7-1.6-1.6V7.7z"/><path class="st0" d="M34.5 12.8c-2.8 0-5.1 2.4-5 5.2l.3 6.6v19.3c0 2.8 2.2 5 5 5h3.5c2.7 0 4.9-2.1 5-4.8l1-26.1c.1-2.8-2.2-5.2-5-5.2h-4.8zm-23.6-1.5c-3-.1-5.4 2.5-5.1 5.5l2.5 23.9c.3 2.6 2.4 4.5 5 4.5h1.1c2.6 0 4.8-2 5-4.6l1.4-18 .5-5.7c.2-2.9-2-5.3-4.9-5.4l-5.5-.2z"/></svg>