<svg width="50" height="50" xmlns="http://www.w3.org/2000/svg" viewBox="0 0 50 50">
<style type="text/css">
	.st0{fill:#AA161D;}
</style>
<g>
	<path class="st0" d="M5.5,1C3,1.1,1,3.1,1,5.6v33.1c1.3-1,2.8-1.6,4.6-1.6c1.7,0,3.3,0.6,4.6,1.6v-33C10.1,3.1,8,0.9,5.5,1L5.5,1z"
		/>
	<path class="st0" d="M5.6,49c2.5,0,4.6-2,4.6-4.6c0-2.5-2-4.6-4.6-4.6S1,41.9,1,44.4C1,47,3,49,5.6,49z"/>
	<path class="st0" d="M44.4,39.9h-8.1V7H12.9v37.5c0,1.7-0.6,3.3-1.6,4.6h33.1c2.5,0,4.6-2.1,4.6-4.7C49,41.8,46.9,39.9,44.4,39.9z"
		/>
	<path class="st0" d="M44.3,1h-5.3v36.1h5.4c1.7,0,3.3,0.6,4.6,1.6v-33C49,3.1,46.9,1,44.3,1z"/>
</g>
</svg>
