<svg width="1211" height="698" fill="none" xmlns="http://www.w3.org/2000/svg"><path fill-rule="evenodd" clip-rule="evenodd" d="M953.084 173.872l-.875 3.009 2.744 1.513 2.66-1.893-1.176-3.484-3.353.855zm-237.145 94.045l4.892 3.379 1.769-3.536.577-2.832-2.733-1.359-3.121-.246-1.384 4.594zm-8.339 11.598l1.674 1.743 4.867-3.599-1.452-2.999-3.099.062-1.646 3.062-.344 1.731zm111.023-56.186l7.95.527.58 3.836-3.023 1.143-3.714-2.065-1.793-3.441zm19.634-14.251l1.823 6.075 3.243-.227.227-5.599-3.427-2.396-1.866 2.147zm7.472 4.748l.499 7.099 7.909-2.262 7.14-4.378-2.882-5.691-4.984-.27-3.76-.512-2.497 4.208-1.425 1.806zm-.161-39.846l2.674 4.93 15.296-.919 3.903-8.494-3.368-5.967-2.992 3.777-6.374-.172-1.492 3.051-3.397.239-.225 3.427-4.025.128zm-7.81-25.04l-.666 3.769 3.142.554.853-3.316-3.329-1.007zm-5.72 33.435l3.93 5.152 6.737.923-.377-7.573-2.576-3.541-7.763-.075-3.963 3.225-6.251-.647-.16 4.354 3.976 3.598-1.844 2.455-6.358-4.361-7.058 1.116-.062 5.743 1.04 5.975 3.524 3.785 1.56 4.543 6.615 1.396 6.143-.897-.918-6.449 4.355.16 3.007-5.794 4.223.478 2.418-3.116-2.82-2.594-6.14-1.274-5.177-5.22 3.939-1.362zm-28.955 16.302l1.406 4.553 4.35 4.502 2.549-1.264-3.478-5.339-4.827-2.452zm175.304-22.395l-1.725 4.154-10.683 6.954-8.56-6.998-8.083-.208-11.059 8.221-7.191 10.275-2.085 10.072-5.141 1.912-6.712-2.785-6.133 1.051-2.949 4.395-2.942-2.12-2.43 2.962-3.459-2.859 4.307-4.955-11.016-.001-5.797 5.835 4.221 11.49-5.753 6.452-.629-8.951-4.323.304-3.908 3.997-1.406-4.554 5.94-6-6.618.775-19.046 11.573 4.03 4.37-5.179 5.791 2.444 3.861 3.873-2.288.875 5.831 5.177 5.22-7.281 2.372-1.945 3.239 2.343 4.643-5.945 1.503-8.357-1.894-1.676 9.267-13.914-1.504 1.409 20.062-9.835-.86-15.765-12.385 5.133-4.237-10.064-12.941-6.062-2.366-8.583 3.705-10.152-3.164-.317 15.376-17.368 8.974-7.272-4.142.82-3.78-18.384 1.137-4.33 6.817-.943 4.254-1.669-6.086-3.613-2.848-3.722 4.449-5.517 3.179-.038 3.879 2.874 3.365.155-.01.01.154 1.669 6.086 9.348 11.595.165.144.011.154.553 7.871 4.692 4.943.33.287-.287.33-9.472 8.73-.292 4.673.01.154-2.22 3.723-1.103 8.607-.121.474-.32-.132-4.973-.116-7.419 7.034-.154.011-2.528 1.574 7.003 9.123.011.154 4.058 26.855.011.154.011.155-5.125 6.563 3.746 2.529.32.132-.133.32-.891 7.196 3.492 3.322.011.154.011.155.346 4.938 4.045 2.352.319.133-.133.319-1.505 5.069.01.154-5.379 7.357-.116 4.971 9.418-.662.165.144 4.231 2.804 4.283-3.092.287-.33.176.297 2.687 2.913.176.298 3.578 4.556.176.298-.287.331-3.388 2.564.303 4.321 4.036.027 3.223-2.708.298-.176.176.298 4.733 7.732.011.154.363 9.59 5.61 2.552.165.144.022.308-1.777 10.051 3.554 6.419 6.945 1.683.309-.022-.122.474-4.25 12.395-.018 15.2 5.64 5.187 5.254-4.712.144-.165.154-.011 8.47-.905 2.554-5.607.277-.485.341.442 4.946 4.15 5.379-7.357 8.009-20.724-.011-.154.309-.022 6.1-1.514.154-.011 12.544 4.082.155-.011.165.144 3.188 7.84 7.018-3.905.155-.011.154-.01 4.705 2.926.154-.011.011.154 9.484 17.944 12.03 18.851 6.335-4.787.155-.011 6.752-3.266.144-.165.165.143 5.707 3.942 2.595-2.819.298-.176.176.298 4.594 3.554 3.589-4.129.144-.165.154-.011 9.748-.374.155-.011.165.143 6.347 4.207 11.584-5.156.298-.176.166.143 4.241 2.959 15.846-8.557.143-.165.155-.011 4.707.755 5.109-2.375-.889-3.815-.165-.143.298-.176 12.194-7.525-3.716-8.734-.166-.144.133-.319 4.009-4.779-2.013-4.356-8.551-4.673-.331-.286.133-.32 3.748-8.483-8.418-4.991-.32-.133.287-.33 3.402-4.582-1.29-18.364-.011-.155.144-.165 15.336-6.97.119-7.143-.022-.308.309-.022 9.22-1.268 1.606-5.851-.731-5.997-.011-.154.298-.176 4.326-2.475-4.232-11.645-6.479-3.887-.32-.132.133-.32 2.995-14.788-6.609-14.579-.176-.298.143-.165 2.806-4.23.133-.319.32.132 11.222 2.934 6.993-2.042 2.178-4.34-.011-.154.144-.166 8.25-1.82 1.176-5.355-15.912-27.728-.011-.155-.011-.154.902-7.042-.011-.155.144-.165 8.808-7.132-3.874-6.552-.165-.143.133-.32 8.369-8.962.144-.165.154-.011 7.978-1.336 4.12-5.407.29-9.016-5.571-4.261-.165-.143-.011-.155-.72-5.842-3.59-4.711-.176-.298.144-.165 3.754-3.986-4.681-4.789-.165-.143.133-.32 9.828-10.305 4.64-2.342 3.04-5.332-7.44-13.125-8.179.575-.154.011-6.68-2.322-.165-.144-.011-.154-4.003-8.404-.166-.143.144-.165 12.039-16.355-.531-7.562-18.037-11.605zM991.721 74.54l9.359 9.578 1.73-1.982 1.63-12.056 2.39-5.75-3.38-3.95-7.986 1.18-4.133 7.425.39 5.555z" fill="#F2F3F5"/><path fill-rule="evenodd" clip-rule="evenodd" d="M1133.16 168.667l-3.53-21.618-6.26-2.972 13.51-10.875-2.48-6.495-26.71-.449-2.94 4.549-7.23.972-.37 5.764-5.9-.05-.54-7.717 6.48-2.781 2.24-5.586-2.4-14.254-2.69-.742-3.1 2.234-.52-5.236-6.17 2.76-4.5-4.492.99-7.978 5.57 4.26 2.93-2.531 4.81 4.47 2.2-6.204-1.12-7.21 4.5-4.348 8.55.175 13.3-11.635-3.68-3.774 7.17.427-.79-6.769-7.47 1.92-2.65-4.62-10.33-1.291 3.66-5.375-5.52-3.49 4.55-3.73-6.58-7.448-16.43 11.235-.34 8.398-4.21 6.344 11.75 3.827-5.98 3.212-18.88-3.637-20.61 15.716-31.04 19.86-7.66 14.651 1.08 4.266-5.76 1.956-7.662 7.982 6.372 6.841 5.15-1.912 8.03 3.933-.22 7.925-7.2 1.281-4.59 3.114-10.802-5.755.921 13.118-9.946 8.608-3.461 8.152 18.357 11.738.165.144.011.154.553 7.87.01.155-.143.165-11.896 16.189 3.828 8.106 6.36 2.189 8.333-.585.31-.022.02.309 3.88 6.551 5.46.392.15-.01.17.143 3.83 5.934 7.01-3.904.15-.166.16.144 6.95 1.683 4.92-4.998-.01-.154.16-.011 7.98-1.182 5.43-6.585-1.5-5.942-.02-.309.31-.022 5.88-2.429 1.14-5.818.14-.165.16-.011 5.05-.975 1.36-4.904-.01-.154.3-.176 9.11-2.811 2.17-4.495.14-.165.16-.011 13.98-1.913.31-.021.02.308 4.03 8.712 9.51-3.769.15-.011 10.68-.44 6.91-25.299-.03-.463.47.122 5.44 2.409 6.5-2.473zm73.7 106.02l3.3 2.87 5.83-5.372-2.66-.433-6.47 2.935zm-16.96 134.099l.63 2.282 3.23 1.79 1.13-3.802-1.9-2.658-3.09 2.388zm9.26-5.148l-.31 2.193 3.34 1.161 1.71-2.136-3.45-2.704-1.29 1.486zm-1.67 4.925l-.26 9.479 4.03 4.37 3.28-1.782-1.42-9.205-2.79-2.131-2.84-.731zm6.55 20.321l-.22 3.582 1.79 3.287 4.18-2.31.46-2.204-6.21-2.355zm7.48 26.926l-1.33 3.195 2.55 3.232 2.74-2.984-2.09-3.265-1.87-.178zm1.79 45.469l-2.74 2.983.57 5.854.59 6.162.35 2.767 2.93-.206 1.98-7.118-1.09-6.747-2.59-3.695zm-6.87 23.59l2.93-.206 1.21 3.947-1.94 3.393-2.49 4.207v4.497l-.39 5.456-.17 4.199-1.43-.519-1.59-7.178-.94-8.929 3.44-3.964 1.89-1.838-.52-3.065zm-7.3 48.589l1.49-.88-.26-10.372 1.7-2.291.13-2.645-1.94-1.105-2.84 1.595-1.61 1.354 1.87 4.521-.21 5.908 1.67 3.915zm10.38-11.275l1.08 2.095 2.86-1.286-.84-3.043-1.86-2.196-1.42 1.806.18 2.624zm-78.38-303.113l-1.98 7.272 9.66 9.402.22-14.593-4.94-1.825-2.96-.256zm60.66 22.103l2.73 3.53 8.9.771 3.57-2.112-2.43-3.707-6.69-.305-6.08 1.823z" fill="#F2F3F5"/><path fill-rule="evenodd" clip-rule="evenodd" d="M1035.12 372.047l5.15-3.929 3.34-3.335 5-1.593-2.41-10.066 8.75-3.561 6.37-6.496 6.32-.599-4.17 6.961 4.6 3.555 5.97-7.709.89-11.694 5.56-2.561 4.21-6.344-5.05-3.368-3.8 5.54-4.77-3.852-2.69-20.593-4.72-12.075.59-9.192 6.82-11.179 4.16-.447 1.58-6.16 9.48 11.276 5.95-1.504.15-4.508-2.02-8.853-2-6.373-6.1-2.829-.16-.143-.01-.154-1.48-5.634-4.11-3.279-5.98 1.04-.31.022-.02-.308-4.37-9.154-5.17-.722-.15.011-.17-.144-9.03-11.462-5.43 6.585-.15.01-.16.011-7.98 1.182-4.93 4.998-.14.165-.16.011-7.11-1.827-7.15 4.224-.3.176-.17-.297-4-6.078-4.84-.436 3.55 6.265.16.144-.14.165-3.33 5.661-.15.011-4.49 2.332-9.543 9.975 4.68 4.789.177.298-.144.165-3.754 3.986 3.578 4.556.011.154.725 5.843 5.57 4.261.17.143-.15.166-.12 9.313.01.155-.15.01-4.26 5.727-.14.165-.15.011-7.978 1.336-8.071 8.786 4.028 6.541.165.143-.287.331-8.952 7.297-.923 6.734 15.581 27.441 6.037-4.611.14-.166.17.144 14.68 3.621.17.143.01.155 2.25 7.751.01.154-.14.166-2.97 6.411 2.99 4.908 5.42-4.568.15-.01 7.26-.51.31-.022.16.144 4 6.077zm28.12 243.525l.87 23.512 4.68 6.96-16.42 2.549-4.57 12.263 16.39 14.667.88 5.832 7.92-8.621 14.53-.865 9.9-9.226 5.3-12.934.68-34.476 2.91-18.195-4.25-20.793-4.26-.941-.15.01-.17-.143-1.28-5.028-7.3-4.45-7.3 6.407 4.97 4.613 7.3.107.47-.032-.13.473-.75 11.374-.13.32-.31.022-5.08.512 1.28 7.199.02.308-.14.166-7.07 5.459-.15.01-.16.011-12.13 1.783-2.8 4.229 2.79 4.456.19.453-.45.186-6.08 1.823z" fill="#F2F3F5"/><path fill-rule="evenodd" clip-rule="evenodd" d="M1054.66 590.586l6.02 8.417-1.55 6.622 3.9 9.186 5.63-1.635-2.65-4.468-.01-.154.15-.165 2.94-4.549.14-.165.15-.011 12.14-1.783 6.92-5.293-1.3-7.354-.17-.297.46-.033 5.23-.677.79-10.757-6.98.025-.15.011-.17-.144-5.32-5.054-.33-.287.29-.33 7.91-6.759.14-.165.32.133 7.47 4.748.15-.011.01.154 1.43 4.863 3.78.82.19-23.896-3.15-7.224-13.4-22.941-4.19-4.359-4.57-16.582-2.71-5.393-.84-.872-9.05-2.931-3.33-3.333 2.25-5.431-6.51-2.179-13.76-1.515-10.12 6.139-2.44 16.144-4.86-5.241-4.64 6.84-5.04-12.053-8.42 6.019-7.653-.703-.025-6.977 8.028-24.912.61-24.392 1.97-11.769-3-9.56 2.63-8.87-2.04-9.162 18.83-21.328 6.56.625.46-2.359-2.05-2.647 2.79-2.212-3.97-5.77-6.95.488-5.56 4.734-.45.341-.18-.452-3.18-5.515-.17-.144.15-.165 2.96-6.411-2.09-7.608-14.21-3.499-6.035 4.611-1.153 5.664-.133.32-.154.01-8.405 1.831-2.013 4.484-.143.165-.155.011-7.148 2.053-.154.011-.154.011-11.068-2.945-2.519 3.899 6.62 14.733.011.155-3.006 14.634 6.325 3.898.154-.011.011.154 4.419 12.097.176.298-.298.176-4.48 2.486.709 5.688.011.154-1.738 6.171-.144.165-.154.011-9.221 1.268-.119 7.142.011.154-.143.166-15.182 6.959 1.268 18.056.011.154-.144.165-3.258 4.417 8.254 4.848.319.133-.133.319-3.737 8.637 8.386 4.529.165.143.011.155 2.178 4.499.176.298-.143.165-3.998 4.934 3.695 8.425 12.194-7.525.143-.165.331.286 4.483 4.183.165.144-.133.319-5.232 13.86 1.072 6.438.011.155-.143.165-4.448 2.949.688 5.379 10.345-.726.309-.022.01.154 5.285 6.763 5.228-.677 7.939-8.467.988-5.808-.022-.309.309-.021 6.33-.445 1.73-4.153.14-.166.31-.021 4.52.303.16.143.17.144 5.07 12.516.02.308-.14.165-2.59 2.973-.15.011-10.23 2.424 3.01 5.217.17.298-.14.165-3.86 4.769-.68 5.786.02.154.01.154-5.537 7.368 2.698 3.067.33.287-.298.176-3.634 5.683.466 6.636 11.345 4.632.01.154 9.65 11.573 5.19-5.637.16-.011.15-.011 11.75-.67.15-.011 5.55 3.953 15.37-6.508.61-.197-.11.628-1.23 6.755z" fill="#F2F3F5"/><path fill-rule="evenodd" clip-rule="evenodd" d="M1010.96 604.666l6.69 9.145 6.72 5.111 13.28-7.601 1.46-5.686 9.38-12.29 5.54-2.871.97-6.116-14.92 6.321-.16.011-.16-.144-5.54-3.798-11.6.505-5.18 5.792-6.48 11.621zm-112.289-28.092l13.254-7.91 10.748 2.812 12.519-2.896 19.817 17.063 24.674 22.15 8.849-4.343 5.743 2.233 4.027-2.299 7.738 1.938 4.13-.91 6.48-11.467-9.65-11.574-11.51-4.774-.165-.144-.011-.154-.488-6.945-.011-.154.144-.165 3.491-5.518-2.698-3.068-.33-.287.298-.176 5.67-7.687.51-5.929.15-.011-.01-.154 3.71-4.603-3.02-5.526-.34-.441.46-.033 10.53-2.446 2.44-2.807-4.88-12.064-4.05-.336-1.74 3.999-.13.32-.16.011-6.327.444-1 5.654.011.154-8.237 8.643.011.154-.154.011-5.537.699-.154.011-.165-.143-5.285-6.763-10.499.737-.463.033-.033-.463-.72-5.843-.011-.154.143-.165 4.448-2.949-1.062-6.284-.011-.154-.011-.155 5.244-13.705-4.153-3.896-24.542 15.061.899 3.969.022.309-.309.022-5.252 2.54-.155.011-.154.01-4.862-.744-15.989 8.723-.143.165-.166-.144-4.242-2.958-11.739 5.166-.143.166-.166-.144-6.511-4.35-9.44.353-3.732 4.294-.288.331-.33-.287-4.44-3.566-2.76 2.676-.143.165-.32-.133-5.707-3.941-6.455 3.089-6.181 4.777 8.563 4.827.33.286-.133.32-2.232 3.569 3.977 3.597 6.677-4.346.298-.176.176.298 3.654 5.637 5.317-1.615.298-.175.187.452 1.498 10.285 5.466 2.718.474.122-.287.33-2.63 4.527 9.391 12.213zm175.499-81.496l-.35-.595 12.34 5.646 4.57 9.76 6.38 6.995 7.74 10.778 5.68 7.976 6.18 4.063 2.21 4.962 1.88 4.676 7.5 2.885 1.59 7.178 8.07 8.893.04-8.223-1.52-6.251 5.83-.875 2.1-1.078 5.75 2.388-5.12-8.945-6.49.455-7-2.455-8.27-5.157-6.01-12.605-3.35-7.984 5.78-3.818 11.23-1.409-26.53-15.351-19.04-14.946-9.43-14.847-11.82-7.079-5.71-6.267-3.45 1.793-.65 3.923 6.96 4.163 4.09 5.141-1.83 2.765-3.29-.544-.76 4.705 6.83 4.483 7.52 14.206-.49-.277.84.872zm-970.289-21.329l1.771 3.132.366 7.419 5.29 2.42 3.869 2.054 3.234-2.553.143-.165.155-.011 5.116-.049 5.32-3.786.336-4.056-.033-.463.309-.021 6.241.492 3.166-1.308.309-.022.165.144 2.663 4.775 5.534 1.473 1.159-1.167.04-6.052-3.735-2.374-.165-.143-.011-.154-.58-3.837-2.313-2.009-3.57-2.23-.155.011-.021-.309.051-5.897-7.162-4.77-.165-.143-.011-.154-.899-3.969-2.701-.896-.165-.144-.022-.308-.173-2.47-1.211-1.776-3.871.117-.509 1.587.011.154-.309.022-1.522.417-.155.011-.165-.144-1.167-1.158-1.699.119-2.307 2.488.292 4.167.011.154.011.155-1.403 2.114 1.3.84.166.143.01.154.306 2.15.022.309-.309.021-2.79.041-1.094 2.093 1.032 3.65.011.154.011.154-8.028 9.404z" fill="#F2F3F5"/><path fill-rule="evenodd" clip-rule="evenodd" d="M87.739 433.94l-2.519 3.899-1.392 2.269.834 3.043 3.186 1.172-.138 4.662 8.056 4.242.783 8.94 6.823 10.997 7.741-9.073-1.032-3.65-.011-.154.144-.165 1.083-2.248.133-.319.154-.011 2.636-.03-.263-1.532-1.465-.983-.32-.133.287-.33 1.381-2.423-.292-4.167-5.949-5.165-5.49-.855-.155.011-4.198-2.342-.011-.154-.165-.144-1.154-3.176-2.029-.167-1.931 1.221-.144.165-.165-.143-4.418-3.257z" fill="#F2F3F5"/><path fill-rule="evenodd" clip-rule="evenodd" d="M91.77 413.961l-3.289 1.782-1.47 3.36-2.273.78-.027 4.034 3.692 1.757-.406 7.473 4.418 3.256 1.777-1.21.154-.011 2.349.3.308-.021.011.154 1.32 3.319 3.878 2.209 5.645.844.155-.011.01.155 5.949 5.165 2.318-2.334-.01-.155.154-.01 2.007-.141.154-.011.166.143 1.167 1.159 1.07-.23.509-1.587-2.698-3.067-.011-.155-.01-.154-.537-3.219-2.679-.587-.165-.144-.154.011-.892-1.643-.01-.154-.011-.155-.184-2.623-1.355-1.611-.011-.154-.412-5.865-9.613-10.956-10.995.307zm10.462-27.72l-5.59-.072-4.286-3.576.214-3.582-3.914-.501-1.782 5.553-7.552 7.354.932 4.432 4.158-.447 3.426 2.396 1.626 5.469 3.518-.712 4.388.622.196 2.778-4.916 7.324 10.057-.396 11.866-9.984-1.189-1.467-.011-.155-.141-2.006-.011-.154.144-.165 1.281-1.641.155-.011 1.92-1.376-.274-1.686-2.635.03-1.16 1.167-.297.176-.166-.144-2.248-1.082-.154.01-.011-.154-1.574-2.526-.165-.143-.174-2.47-.011-.154 1.073-2.401-5.889.103-.154.011-.011-.154-.639-.266z" fill="#F2F3F5"/><path fill-rule="evenodd" clip-rule="evenodd" d="M117.438 350.9l-.818 1.608-6.368 4.324-3.007 5.795-3.185 7.667.114 6.041 1.176 3.484-2.397 3.425.03 2.635.154-.011 6.363.018 2.538-1.419.154-.011 4.952-.192 2.595-2.819.154-.011.154-.011 3.717-.106.154-.011.176.298 1.923 5.293 1.325-1.023.154-.011 2.812.268.154-.011.166.143 1.519 1.754 7.059-1.116 4.128-3.081 4.298-7.281.046-1.554-3.524-3.785-.165-.143-.724-3.671-8.126-.825-.154.01-.011-.154-4.055-2.507-.154.011-.011-.154-5.932-9.354-1.815-3.749-1.609-.818-3.177 1.154-.155.011-.628-.111zm-14.079 62.402l9.603 10.802.165.143.011.155.412 5.864 1.343 1.457.011.154.011.154.195 2.778.726 1.5 2.833.576 4.025-.127 1.084-2.248-.011-.154.154-.011 7.286-6.715.328-6.381-3.613-2.848-.011-.155-1.959-3.584-.154.011-.011-.155-.136-6.349-10.569-4.685-11.723 9.818z" fill="#F2F3F5"/><path fill-rule="evenodd" clip-rule="evenodd" d="M131.559 428.226l-7.132 6.704-1.227 2.413.011.154-.309.022-3.87.117.36 2.921 2.709 3.221 4.179-.138.155-.011.176.298 1.221 1.93.166.144.173 2.469 2.557 1.061.155-.011.01.154 1.065 4.113 6.842 4.637 3.134-1.771.786-2.071-.846-3.197-1.056-1.787-.011-.155.144-.165 1.061-2.556.144-.165.154-.011 5.374-3.014 3.18-3.325-.26-3.704-.946-2.415-3.096-2.108-.154.011-.011-.155-1.11-2.558-2.956-.103-4.171 2.464-.154.011-.155.011-3.109-.092-.155.011-.165-.143-2.863-3.211z" fill="#F2F3F5"/><path fill-rule="evenodd" clip-rule="evenodd" d="M151.613 439.844l-.122.474.011.154.011.155-3.323 3.49-5.529 3.025-1.083 2.247 1.056 1.787.856 3.352.011.154-.143.165-.775 2.226.011.154-.154.011-3.289 1.782.093 5.731 3.415 2.242 2.468 1.998.165.143.011.154.58 3.837 3.57 2.23 4.886-1.118 9.524-5.787 1.105-1.939-.42-8.19.525-5.775-.011-.154 4.12-5.407-3.822-3.609-1.91 1.53-.154.011-1.82.593-.144.165-.011-.154-2.887-1.348-.165-.144-2.785-4.302-3.871.117zm-25.192-31.728l.135 6.349 1.948 3.43 3.613 2.848.166.143.01.154-.471 6.547 3.018 3.2 2.955.103 4.326-2.475.154-.011 2.955.102.035-1.708.144-.165 1.812-2.919 3.711-4.603-.185-2.624-.011-.154.144-.165 2.142-2.632-.81-4.906-3.052-1.491-.011-.155-.155.011-1.419-2.537-6.154.743-1.27 1.795-.287.33-.166-.143-5.631-2.861-1.577-.355-6.069 4.149z" fill="#F2F3F5"/><path fill-rule="evenodd" clip-rule="evenodd" d="M151.428 419.541l-3.556 4.592-1.812 2.919-.19 1.719 1.122 2.713 3.25 2.098.166.144.956 2.569.011.154.184 2.624 4.179-.139.155-.011.165.144 2.795 4.456 2.568 1.215 1.512-.571 2.218-1.552.298-.176.165.144 4.164 4.05 2.689.741 2.305-.317 7.232-7.486 3.974-3.071-1.111-2.558-2.002-4.202-8.806-12.719-4.808.028-1.59 1.662-.143.165-.32-.132-1.939-1.105-2.105-1.248-.872.837.011.154-.155.011-3.188.999-.143.166-.166-.144-1.907-.641-1.302 1.332-.155.011-3.849.425zm-3.904-15.854l1.137-1.476 1.658-2.908-.434-6.173-3.042-1.337-.165-.143-2.411-3.398-.867-3.506-3.84 2.751-.155.011-7.356 1.292-.309.022-.165-.144-1.531-1.908-2.337-.146-1.634 1.045-.441.341-.187-.452-1.934-5.447-3.408.084-2.451 2.654-.144.165-.154.011-5.106.203-2.394 1.254-1.206 2.721.152 2.161 1.563 2.371 1.929.95 1.17-1.012.143-.166.155-.01 2.944-.052.32.132.011.155.471 2.293.165.143-.298.176-2.218 1.552-1.138 1.476.12 1.697 1.2 1.622 10.569 4.686 6.379-4.171.143-.165.166.144 1.73.343 5.312 2.729 1.281-1.641.144-.165.154-.011 6.309-.753z" fill="#F2F3F5"/><path fill-rule="evenodd" clip-rule="evenodd" d="M143.973 384.085l.889 3.815 2.4 3.243 3.052 1.492.309-.022.022.309.455 6.481.011.155-.144.165-1.668 2.753-1.127 1.63 1.409 2.383 3.218 1.635.165.143.011.155.831 5.214.011.154-.143.166-2.143 2.632.163 2.314 3.375-.547 1.303-1.332.143-.165.165.143 2.062.631 3.188-.999 1.026-.848.133-.32.32.133 2.115 1.402 1.774.961 1.447-1.497.143-.165.155-.011 4.962-.038 1.647-3.063 1.14-3.647-1.311-.993-.011-.155-2.511-2.615-.011-.154-2.232-5.271-.011-.155-.011-.154.965-3.945.143-.165 3.833-5.077 2.307-2.488.412-2.976-3.513-3.63-7.709.697-.154.01-.166-.143-8.871-4.805-.165-.143-.011-.155-.073-3.251-.97-.553-.861.991-.144.166-7.345 1.446.054.772-.144.165-4.309 7.126z" fill="#F2F3F5"/><path fill-rule="evenodd" clip-rule="evenodd" d="M178.008 389.294l-1.877 1.992-3.678 5.066-.975 3.791 2.067 5.128 2.357 2.626 1.476 1.137.165.143.022.309-1.119 3.955.011.155-1.812 2.919 8.641 12.575 5.176-3.621.144-.165 6.937-.642 7.096-4.996-1.858-4.367-7.918-8.904-3.813-1.283-.155.011-.011-.154-2.985-2.737-.176-.298.144-.165 1.812-2.919.688-3.46-1.818-1.579-3.499 3.193-.288.33-.33-.287-3.657-3.465-.165-.143-.011-.155-.591-3.99z" fill="#F2F3F5"/><path fill-rule="evenodd" clip-rule="evenodd" d="M188.456 394.453l.496.43.165.144.011.154-.656 3.923-.154.011-1.668 2.754 2.665 2.604 3.814 1.283.154-.011.011.154 8.072 8.894.011.154.154-.011 1.859 4.367 2.283-.626 1.669-2.753.143-.165.155-.011 4.455-.624.155-.01.165.143 1.807 1.424 2.67-1.738.244-9.788-4.651-2.155-.165-.143-.011-.154-.591-3.991-2.137-1.711-3.166 1.308-.155.011-.154.011-11.22-5.105-6.43 1.227z" fill="#F2F3F5"/><path fill-rule="evenodd" clip-rule="evenodd" d="M199.483 394.609l6.723 2.94 3.321-1.319.143-.165.165.143 2.468 1.998.154-.011.011.154.436 4.002 4.651 2.155.32.132.011.155-.233 9.941 13.443-.789 1.468-1.188.144-.166.154-.01 4.334-.15.309-.021.022.308 1.473 3.309 3.66 1.293.154-.01 3.305 2.869 4.439-5.274.144-.166.154-.01 12.064-.538-.376-7.572-.011-.155.143-.165 2.143-2.632-2.809-2.439-6.222 1.988-.154.011-.155.011-9.962-4.884-.011-.154-.155.011-6.46-10.247-9.015-4.64-13.321.315-4.261 3.401-.143.166-.155.01-5.084.513-1.37 2.577-.155.011-5.904 4.292zm-20.709-9.867l5.539-2.87-.967-2.724-.011-.154 1.027-9.688.132-.319.309-.022 4.962-.038 5.753-6.453-1.281-7.199-6.021.423-.122.474-.496-.43-7.216-5.542-4.003.437-.144.165-.165-.144-5.068-3.676-.165-.143-1.022-3.496-3.724-2.219-1.325 1.023-.39 3.284.033.463-.32-.132-8.998.011-.165-.143-3.118-2.418-8.809-1.707-.154.011-4.859-2.916-.011-.154-2.633-2.141-2.153 2.477-.989 5.808.011.154-2.354 4.043.011.154-.154.011-5.935 1.657 1.793 3.441 5.767 9.21 3.901 2.518 8.446.958.308-.022.022.309.723 3.671 3.679 3.774.011.154.011.154.032.463 6.883-1.414.861-.991.298-.176.154-.011 1.599.664.165.143.011.154.084 3.406 8.551 4.673 7.863-.708.155-.011.165.144 3.513 3.63z" fill="#F2F3F5"/><path fill-rule="evenodd" clip-rule="evenodd" d="M215.752 383.231l-5.112-4.294-.165-.143-.022-.309 1.376-6.92-3.865-4.226-3.077.371-.155.011-.154.01-8.551-4.672-5.753 6.453-.144.165-.154.011-4.808.027-1.048 9.379.967 2.724.176.297-.298.176-5.826 3.201-.412 2.976.634 4.608 3.327 3.178 3.488-3.347.298-.176.331.287.991.861 7.037-1.425.154-.011.011.155 3.681 1.602 6.203-4.468 1.371-2.577.143-.166.155-.01 5.238-.523 3.963-3.225zm1.169 144.767l.016 4.651 2.871 5.537 2.747-.658 1.877-1.993 4.464 1.702-.114 2.8-.896 2.699 1.509 1.6 4.111 1.107 1.935 5.447 2.197 6.98-1.539 4.606 2.102 3.419 4.437-3.103 2.05.476 1.596 2.835 1.295 5.181 3.25 2.098 3.378-2.718 3.562-.095 6.536 2.487.051 2.943 1.563 2.372 3.286.389 2.419-3.116 2.985 2.737 3.857 1.9-.371 5.764 1 3.187 3.833 3.763 3.153.709 2.957-2.069 2.381.763 2.102 3.42 7.585 1.948 3.068-2.697 2.918-4.857-6.591-12.099-.485-.276-.154.011-.011-.155-1.495-3.617-.177-.297.298-.177 2.915-2.686.466-2.203-1.628-3.298-8.202-1.905-3.63 1.34-1.693 4.617.022.308-.309.022-4.818-.127-.166-.143-.154.011-4.637-4.172-8.313-1.277-.155.011-.165-.144-1.937-3.276-.176-.298.144-.165 3.003-3.623-2.148-1.865-.165-.143-.011-.155.003-2.171-.022-.309.309-.021 2.869-1.132-.039-4.96-4.147.601-1.92 1.376-.585.506-.043-.617-1.184-5.81-.022-.309.298-.176 1.799-.902-.085-3.406-2.004-2.03-.165-.144-.011-.154-.266-8.201-2.543-3.078-.011-.154-.77-10.957-2.663-4.776-.01-.154.766-4.552-3.161-3.034-.122.474.011.154-1.043 5.036-.154.011-.929 2.236.011.154-.155.011-8.31 5.392-1.725 4.153-.144.165-.154.011-5.737 2.264-3.055.68-5.653 5.67-.154.011.01.154-8.757 1.235-.132.32zm-42.708-.567l4.12 3.433-.027 4.034-.853 3.316 2.443 3.861 4.337-2.321 2.001-4.638 2.43-2.962 6.262.801 3.191-3.171 2.46-.328 1.95 1.259 6.154-.742 4.545-1.56 3.034-.989.143-.165-.04-2.789-.472-2.293-3.402-4.258-.011-.155.084-5.434-3.855-4.071-.011-.154-1.747-4.996-.36-2.921-2.999-.72-8.817-4.033-.319-.133-.011-.154-.325-4.63-8.589-.792-.011-.154-9.313-4.464-.165-.144-.022-.308-.195-2.778-1.387-2.074-4.355-.159-.155.011-.165-.144-7.035-9.586-8.033 4.906-.155.011-4.875 1.273.125 6.195.01.154-.154.011-1.303 1.332.799 4.752 2.709 3.221 3.914.501.155-.011.01.154 7.249 6.005.165.143.011.155.347 4.938.011.154-.144.165-2.695 3.602.073 3.251 2.327-.008 2.693-1.43.606-.198.033.463.544 5.545 1.872 2.35 4.069.49.308-.022.022.309.794 9.094z" fill="#F2F3F5"/><path fill-rule="evenodd" clip-rule="evenodd" d="M207.36 500.134l.35 2.767 1.582 4.851 3.865 4.226.155-.01.011.154-.084 5.434 3.248 4.269.154-.011.011.155.482 2.447.019 2.48 8.294-1.203 5.653-5.67.143-.165.155-.011 3.055-.68 5.593-2.098 1.726-4.154.154-.011-.011-.154 8.31-5.391.94-2.083 1.197-5.046.312-2.193-4.757-5.87-1.818-1.578-1.909 1.53-.154.011-1.677.428-.298.176-.176-.298-3.744-4.7-1.026.848-3.998 4.933-.154.011-2.362 1.717-.144.165-.165-.144-3.297-.544-.154.011-5.255-4.128-3.57-2.231-3.055.68-5.052.975-1.801 3.074-.068 1.245 1.753.652.165.144.022.308-.39 3.285.021.308-.154.011-2.097 1.078z" fill="#F2F3F5"/><path fill-rule="evenodd" clip-rule="evenodd" d="M194.725 490.321l.479 4.618 8.652 3.89 2.998.72 2.097-1.078.268-2.81-1.609-.817-.309.021-.022-.308.046-1.555-.01-.154-.011-.154 2.099-3.249-.011-.155.154-.011 5.361-.996 3.21-.691.154-.011.011.154 3.724 2.22.011.154 5.244 3.974 2.977.412 2.373-1.563 4.008-4.779-.01-.154 1.026-.848-3.524-3.784-.165-.144.133-.319 1.281-1.641-.548-3.374-6.517-.007-.154.011-.165-.144-4.074-4.986-4.654.016-.154.011-.165-.143-2.002-4.202-5.518-5.661-.718.826-.446 4.684-.155.011.011.154-.962 1.774-.143.165-.309.021-8.069-2.224.574 8.179.011.154-1.557 2.126 1.585 2.68.165.143.011.155-.631 2.06.01.154-6.061 6.475z" fill="#F2F3F5"/><path fill-rule="evenodd" clip-rule="evenodd" d="M174.673 447.84l-2.151.306-.154.011-.011-.154-2.525-.598-3.965 5.396-.547 5.467.431 8.344.011.154-.144.165-1.105 1.939-.154.011.011.154-1.049.539 7.013 9.278 4.356.159.154-.011.011.155 1.563 2.371.155-.011.01.155.195 2.778 9.004 4.485 8.435.803 5.918-6.309.499-1.741-1.761-2.978-.165-.143.143-.165 1.558-2.126-.575-8.179-2.944.052-.155.011-.176-.298-2.476-4.324-4.851-.59-1.446 1.498-.442.341-.176-.298-3.291-4.886-.154.01-.011-.154-.854-5.523-5.095.358-.154.011-.165-.144-2.771-6.319z" fill="#F2F3F5"/><path fill-rule="evenodd" clip-rule="evenodd" d="M186.33 437.096l-3.819 3.06-7.088 7.321 2.606 6.176 5.249-.369.309-.022.022.309.864 5.677 3.104 4.435 1.303-1.332.144-.166.154-.01 5.16.568.309-.022.022.309 2.475 4.323 2.636-.03-.011-.154.629.111 8.234 2.368.818-1.608.612-4.541-.011-.154.994-1.311 1.503-2.897-.141-2.006-2.248-1.083-.165-.143-.011-.155-.471-2.293-1.444-.674-.696 1.135-.144.165-.154.011-5.382.688-.509 1.587-.144.165-.309.021-2.811-.267-.155.011-.01-.155-3.313-5.195-.011-.154-1.336-7.971-6.764-5.728zm26.85 19.98l.152 2.161-.155.011.011.154-1.359 2.732 5.683 5.804.01.155.903 1.797 3.783-1.351.155-.011 5.041-1.129.181-4.045.144-.166.154-.01 2.516-1.728 5.306-1.769.16-4.353-1.942-7.773-10.263-2.536-5.748 2.11-.051 5.897.01.154-.143.165-4.548 3.731z" fill="#F2F3F5"/><path fill-rule="evenodd" clip-rule="evenodd" d="M183.793 429.674l1.672 3.915 1.276 2.702 6.95 6.181.011.154 1.49 7.96 2.993 5.062 2.338.146.52-1.432.133-.32.154-.01 5.547-.545.675-1.443.132-.32.32.133 1.929.95.154-.011.022.309.471 2.293 2.248 1.083 4.25-3.556.184-6.216-.011-.154.144-.165 5.758-1.956-.309-8.818-.021-.309.308-.021 5.383-.688 2.616-2.51.144-.166.319.133 5.962 3.148 4.044-6.487.133-.32.319.133 5.675 3.478 3.586-1.957 1.568-1.972-3.534-3.939-6.951-6.18-3.814-1.283-.165-.143-.011-.155-1.463-3.154-4.025.128-1.468 1.189-.144.165-.154.011-13.752.81-2.958 2.069-.308.022-.166-.144-1.972-1.567-4.147.601-1.524 2.589-.144.165-.154.011-2.736.812-7.395 5.172-.143.166-.155.01-6.782.632-5.022 3.609z" fill="#F2F3F5"/><path fill-rule="evenodd" clip-rule="evenodd" d="M237.301 435.997l-5.807-3.159-2.628 2.355-.143.166-5.085.512.288 8.509 10.418 2.525.154-.01.022.308 2.107 7.917.011.154-.181 4.045 2.549-1.265.154-.011 8.416-1.676-.011-.155.165.144 6.152 1.429.154-.011.011.154 2.069 2.957 2.893-2.995-.631-6.78-1.618-3.143-4.493-4.337-10.629-1.114-.155.011-2.611-1.833-.165-.143-1.406-4.554z" fill="#F2F3F5"/><path fill-rule="evenodd" clip-rule="evenodd" d="M259.073 458.816l-2.738 2.983-.287.331-.187-.452-2.4-3.244-5.843-1.45-8.25 1.82-3.002 1.451-.154.011-5.461 1.78-2.372 1.562-.325 4.21.022.309-.309.022-5.361.996-3.629 1.341.726 1.5 4.653-.017.155-.011.165.144 4.074 4.986 6.671-.003.309-.022.022.309.59 3.991.011.154-1.281 1.641 3.348 3.487.176.298 3.909 4.843 1.522-.417 1.91-1.53.298-.176.165.143 2.292 1.7.01.155 4.922 6.013.011.154.011.154-.244.948 3.668 3.619.165.144.011.154-.767 4.551 2.487 4.478.927-.065 1.029-3.019 1.438-3.823.143-.165.155-.011 2.779-.195.154-.011.166.144 3.868 2.054.685-1.289-.91-4.123-2.809-2.439-.166-.144-.01-.154.335-4.056.122-.474.309-.021 6.858.449 5.428-2.243.458-4.529-2.029-.168-.165-.143-1.498-1.446-.176-.298.287-.33 2.782-2.367.089-.937-2.646-.124-.155.011-.176-.298-.428-1.676-.011-.154 1.36-2.732-.98-.707-4.757 2.971-.143.165-.155.011-5.953-.822-.155.01-.165-.143-2.752-3.839-1.891-4.83-.935-11.1z" fill="#F2F3F5"/><path fill-rule="evenodd" clip-rule="evenodd" d="M261.714 472.123l.935 2.261 2.587 3.695 5.634.69 4.9-3.136.143-.165.165.143 1.466.983.32.133-.133.319-1.349 2.886.395 1.213 2.658.279.309-.022.021.309-.046 1.554-.143.165.01.155-2.638 2.201 1.003 1.015 2.183.157 3.551-.249 3.323-3.491-.563-8.025-.033-.463.474.122 3.253-.073 3.137-3.943 1.627-5.542-.01-.154.154-.011 2.993-3.777 3.033-9.829-1.961-1.413-.154.011-2.335-2.317-2.901.669-.155.011-.165-.144-4.263-3.267-6.043.114-.003 2.171-.103 2.954.011.155-.144.165-4.073 3.853-.144.165-.154.011-3.671-1.448-2.635.03-2.085 10.072.021.308-.309.022-5.801 1.338-2.292 7.14z" fill="#F2F3F5"/><path fill-rule="evenodd" clip-rule="evenodd" d="M287.515 483.803l-3.478 3.501.011.154-.154.011-3.397.238-.436 4.839.022.308-.309.022-5.737 2.264.011.154-.154.011-6.539-.316-.368 3.593 2.798 2.285.165.143.011.154.921 4.278.011.154.011.155-1.127 1.63-.133.319-.319-.132-4.034-2.198-2.47.173-1.305 3.504-1.173 3.184-.133.319-.309.022-.926.065.737 10.494 2.389 3.089.155-.011.011.154.265 8.201 2.159 2.02.011.154.011.155.116 3.868.022.309-.309.022-1.798.902.964 4.895 1.623-1.2.154-.011 4.61-.634.463-.032.033.463-.073 5.588.022.308-.144.166-2.879.977-.035 1.709 2.324 2.163.319.132-.287.331-3.004 3.623 1.761 2.978 8.159 1.287.154-.01.155-.011 4.637 4.172 4.355.159 1.693-4.616-.011-.155.144-.165 3.795-1.197.224-3.428.214-3.582.133-.319.154-.011 4.711-1.417.346-3.901-.011-.154 3.538-7.073-.011-.154.154-.011 6.368-4.324.309-.022.154-.011 3.373 1.625 1.698-.12.932-4.408-.022-.308.154-.011 3.321-1.319 1.755-1.519-2.819-2.593-1.49.88-2.384 1.408.011.154-.165-.143-11.046-2.636-.011-.155-2.611-1.832-.155.01-.01-.154-3.224-6.132-.165-.143-.011-.155 1.129-3.801-.011-.155.155-.01 4.878-3.445-.011-.154.165.143 2.79-.04.155-.011.165.143 2.522 2.77.011.154.011.154.49 4.774 2.126 1.556 2.538-1.419.155-.011 2.481-.019.154-.011.011.155 1.774.961.011.154 4.109 3.278 1.634-1.045 1.061-2.556-2.532-2.924-.011-.154-.483-2.448-.01-.154-.011-.154 2.156-4.649.203-3.736-2.029-.168-7.165-2.599-.154.011-3.107-2.263-.165-.143-1.308-3.165-2.725.967-.309.021-.165-.143-1.366-1.765-.01-.155-.68-3.054-.594-1.819-3.296-.544-.155.011-.176-.298-.601-4.145-7.433.212-.308.022-.022-.309-.39-5.556-3.232.383zm18.372-65.341l-4.789 2.508-.144.165-.165-.144-14.429-4.414-4.407 5.737-.287.331-.331-.287-2.291-1.7-.155.01-.01-.154-.597-8.488-1.43-2.691-.022-.308.144-.166 10.382-13.446-.843-5.369-3.524-3.784-4.423 1.086-6.038 4.611-.154.011-.154.011-5.724.247-.631 2.06 4.285 3.576.32.133-.287.33-4.583 5.44-2.275 2.951.233 7.738.033.463-.32-.132-12.208.702-4.439 5.275 3.304 2.869 3.701 4.083.176.298-.133.319-1.855 2.302.01.154-3.895 1.979-.297.176-.166-.143-5.52-3.489-3.889 6.476 1.24 4.41 2.446 1.69 10.783 1.103.155-.011.011.155 4.648 4.326.011.154 1.628 3.298.154-.011.011.154.642 6.934.011.154.967 11.564.561 1.356 2.026-6.501-.022-.308.309-.022 5.802-1.338 2.085-10.072-.021-.309.308-.021 3.099-.063.165.143 3.351 1.316 3.776-3.677.268-2.811-.174-2.469-.032-.463.463-.032 6.661-.158.165.144 4.109 3.278 2.89-.823.309-.022.165.143 2.511 2.616 1.951 1.258 2.838-3.766 2.088-3.404-2.941-2.119-.011-.154-.011-.155-.282-4.012-.011-.155.144-.165 10.184-5.213-.853-5.523-6.75-7.745zm225.111-128.404l2.801.114.476-2.05-1.993-1.876-2.262.934.978 2.878zm9.964 13.723l3.483.996 3.353-.856-1.747-4.995-4.006 2.608-1.083 2.247z" fill="#F2F3F5"/><path fill-rule="evenodd" clip-rule="evenodd" d="M549.018 305.852l-4.003.436-1.498 7.394-7.061-5.552-1.419 6.303 7.489 7.228.93 6.604-13.617-10.52-.973-7.221 4.938-7.015.013-10.857-2.086 1.232-2.115 7.438-3.765 3.831-4.082 1.527-3.746 6.312 1.437 16.028-8.798 16.126 1.279 9.371 10.036-.705 9.031 9.291.672 9.568-5.379 7.357 1.771 3.132 4.816 2.298-8.505 2.614-3.099-8.778 5.683-11.875-3.365-8.138-9.989-.85-5.036 5.627.217 11.926-8.458 9.9-8.121 3.672-5.135 6.409-19.804-10.241-.401-5.71 13.072 4.975 6.609-3.1 10.166-7.693 6.237-15.016-1.777-7.63 10.138-30.178 1.197-5.047-2.01-6.527 7.641-8.291.796-10.757-6.762-7.9 6.276-1.216-1.479-7.805-6.362-.019-.063 5.743 1.628 3.297-4.122-1.261-5.851 5.063-6.606 9.77-5.179 5.791-8.35 2.603-4.174 4.636 4.878 5.395-4.168 9.133-6.498 2.472-.103 2.954 6.29 5.607-1.606 5.851 1.33 3.473 2.389 3.089-6.923 7.465-2.741-3.684-2.615-8.501-8.762-12.102-4.218 4.018 2.961 4.6.165.143-.143.166-4.865 10.267 2.65 6.793.01.154.011.154-3.028 5.486-.143.165-.155.011-5.273 2.231-3.402 4.582-.144.165-.154.011-13.852 1.593-6.547 6.198-.144.165-.154.011-4.477.314.371 11.916.011.154-5.016 8.107 4.071 7.158 13.497-.018.155-.01.011.154 6.677 4.494.165.143.011.154.753 6.306 2.313 2.009 15.339-.302.155-.011.165.143 5.209 5.683.011.154 1.146 9.69 2.863 3.211.011.154.011.154.29 6.338 10.19-.715.154-.011.011.154 9.849 7.683 13.051 4.666.154-.01.011.154 5.328 7.38 8.541 4.518 8.545.175 6.436-5.57.298-.176.176.298 6.731 5.265 6.474-.61.154-.01.166.143 5.284 6.763 2.482-.019.154-.011.165.143 4.957 4.305 8.716-12.864.065-7.914-.011-.155 5.712-9.241-1.579-7.023-7.636-4.891-.165-.144-.011-.154 1.126-10.47-5.252-6.3-.154.011-.011-.154.536-14.461-6.574-7.447-.166-.144-.011-.154 1.961-7.427-2.717-5.547-.33-.287.452-.187 7.722-2.714 2.657-8.561-2.392-9.757-8.323-1.432-.155.011-.011-.154-8.259-9.346-.165-.143.144-.165.966-6.116.144-.166.154-.01 10.759-5.874.921-4.562-5.491-9.695-.011-.154-.011-.155.78-6.568-.022-.309.309-.021 4.732-1.108-5.171-9.562-.154.011-.055-.772zM397.886 557.47l5.701-.556 5.185 7.545 3.749.357.143-.165 1.008-3.328-.011-.154.154-.011 6.051-6.628.745-4.86-.011-.154.155-.011 3.699-4.758-.01-.154.319.133 5.006.579 1.094-2.093.677-3.615-1.65-3.606-4.442-1.394-.154.011-.022-.309-.769-2.117-.176-.298.143-.165 1.845-2.456.184-6.216-.011-.154.143-.166 6.615-7.443.298-.176.319.133 4.142 3.741.331.287-.144.165-1.945 3.238 2.823.422.154-.01 7.46 4.593 5.504-1.162.154-.01 5.456 2.563 4.951-.193 6.623-5.117-12.837-8.249-.155.011-.01-.154-6.669-11.008-5.006-9.419-3.451-.533-7.308-2.433-.166-.144-3.789-3.145-.886 2.853-.132.32-.309.022-5.569.236-1.281 1.64-.155.011-3.421 2.102-.143.165-.155.011-2.668-.433-1.755 1.519-.154.011-3.551.249-.155.011-4.772-1.681-1.593 3.834-.144.165-.154.011-6.243 1.679-3.67 7.392.021.309-.308.021-11.304.329-2.776 6.864.753 6.305.022.309-.309.022-3.023 1.142-.568 5.158 2.882 5.691.011.154 1.352 3.782 4.894 1.207.155-.01 4.759 3.698.165.143.011.154.447 4.156 6.886 5.255.154-.011.011.154.58 3.837z" fill="#F2F3F5"/><path fill-rule="evenodd" clip-rule="evenodd" d="M343.667 554.3l11.455 1.832 6.767 3.557 3.643-3.358 5.775 2.696 19.239 2.216 6.577-3.564.143-.165-.712-3.517-6.886-5.255-.165-.143-.011-.154-.447-4.156-4.594-3.555-4.884-1.053-.319-.132-.011-.154-1.374-4.091-3.047-5.835-.011-.154-.011-.154.723-5.169-5.577-2.089-3.873 2.288-.309.021-.165-.143-3.535-3.939-7.276-1.97-7.7 3.022.615 2.128.01.154.345 7.11.021.309-.154.01-10.244 8.784-.027 4.035 8.519 4.209.32.132-.133.32-2.687 5.927z" fill="#F2F3F5"/><path fill-rule="evenodd" clip-rule="evenodd" d="M300.436 577.187l2.099-3.249 7.522-1.149.238-5.444 3.564-2.267 3.871-.117 4.892 3.379 2.595-2.819-3.798-5.471-2.088-5.437 3.567-4.438 3.331-1.164 5.64 5.187 11.016.001-.011-.154 2.554-5.607-8.21-4.231-.319-.133-.011-.154.005-4.343-.011-.154.144-.166 10.244-8.784-.334-6.955-1.273-4.873-3.129-2.572-1.478 1.034-.155.011-.154.011-2.823-.422-.165-.143-12.108-8.92-1.975.604-.346 3.901.011.154-2.002 4.638.461 2.139 2.543 3.078.166.144-.133.319-1.195 2.876.011.154-.154.011-1.921 1.376-.308.021-.166-.143-4.285-3.576-1.62-.972-2.326.008-2.538 1.419-.309.022-.165-.144-2.446-1.689-.166-.143-.01-.155-.502-4.927-2.191-2.483-2.646-.124-4.581 3.268-.986 3.637 3.213 5.977 2.446 1.69 10.737 2.657 2.24-1.243 1.788-1.056.144-.165.33.287 3.15 2.88.331.287-.287.331-2.043 1.849-.143.165-3.177 1.154-.921 4.562-.144.165-.154.011-2.007.141-.155.011-3.361-1.47-6.224 4.159-3.394 6.907-.336 4.056.022.309-.309.022-4.71 1.416-.225 3.428-.236 3.273 8.048 1.916.154-.011.166.144 1.793 3.441.165.143-.144.165-.598 2.524.011.154-.144.165-2.771 2.521 1.309 3.165z" fill="#F2F3F5"/><path fill-rule="evenodd" clip-rule="evenodd" d="M370.619 425.547l-1.768 3.536-1.162 3.338-5.878 9.098-9.054 10.251-.155.011-7.923 4.279.106 3.714 2.983 4.909.165.143-.298.176-3.104 4.405-.238 5.445.011.154-.155.011-1.955 3.084-.155.011-.143.165-7.698.851-.745 4.86.011.154-.144.166-3.101 2.234-.287.33-.176-.298-3.327-3.178-3.846 7.094-.143.165-.155.011-7.048 1.27-5.522 7.522 1.319 3.319 2.942 2.12 6.999 2.455 2.338.146 2.272-.78.155-.011.165.144 12.273 9.063 2.514.444 1.633-1.046.298-.176.165.144 3.459 2.859.165.143.461 2.139 7.855-3.033.154-.011 7.43 1.959.166.144 3.369 3.795 3.884-2.133.144-.166.165.144 5.743 2.233 2.879-.978-.588-6.162-.011-.154 2.765-7.018-.021-.309.308-.021 11.458-.34 3.527-7.226-3.237-4.115-.166-.144-.011-.154.171-4.2.55-7.637-8.221-4.386-.011-.154-.155.011-1.484-3.463-.165-.143.143-.165 4.098-5.716-1.251-4.565-2.119-8.071-.011-.154.144-.165 3.337-5.507-.577-6.008-5.05-10.036-7.714-3.801-.154.011-.011-.154-1.439-5.017-2.148-1.865z" fill="#F2F3F5"/><path fill-rule="evenodd" clip-rule="evenodd" d="M417.709 378.04l-4.323.304-5.94 6-.143.165-.155.011-5.536.699-.309.022-.165-.144-2.059-2.802-8.546 8.665-1.01 5.499-.154.011.011.154-9.12 9.325-9.385 18.805 2.479 2.152.01.154.155-.011 1.438 5.017 7.56 3.811.155-.011.011.155 5.06 10.19.154-.011.599 6.317.011.154-.144.165-3.348 5.353 2.108 7.917 1.262 4.719.011.154.011.154-4.098 5.716 1.452 3 8.232 4.539.165.144.011.154-.528 7.947-.181 4.045 3.237 4.115 5.934-1.658 1.736-3.999.133-.32.32.133 4.927 1.67 3.397-.239 1.6-1.508.155-.011.154-.01 2.977.411 3.112-2.08 1.436-1.651-.011-.155.309-.022 5.569-.236.864-3.162.276-.485.33.287 4.275 3.422 7.153 2.444 3.606.522.165.144.165.143 5.006 9.419 6.68 11.162 12.991 8.238 6.522-4.335.48-4.221-.011-.155.154-.011 3.974-3.07.154-.011 4.984.27L489.439 498l-.011-.154.143-.165 5.553-4.888.143-.165.32.133 6.46 1.407.155-.011 8.892 5.114 12.98-.757.155-.011.165.144 9.575 5.996 10.363-7.087.298-.176.166.144 5.839 3.622 6.431-1.227 6.742-3.421 1.007-3.327-8.199-4.077-.165-.143-.011-.155-.694-9.876-5.122-4.448-2.481.019-.309.022-.011-.155-5.439-6.751-6.32.599-.154.01-.154.011-6.434-5.441-6.435 5.57-.155.011-.154.01-8.7-.164-.165-.143-8.695-4.507-.155.01-.011-.154-5.173-7.391-13.04-4.512-.165-.143-9.695-7.694-10.344.727-.464.032-.021-.308-.323-6.802-2.698-3.067-.165-.143-.011-.155-.991-9.7-5.033-5.385-15.35.148-.155.011-2.633-2.142-.165-.143-.011-.155-.598-6.316-6.512-4.35-13.652.028-.165-.143-.165-.144-4.259-7.61-.011-.154.144-.165 4.862-8.096-.35-11.607zm-268.784-67.038l-1.755 1.519-.875 3.008.97 9.392.022.309-.298.176-6.796 2.649-.235 3.273.021.309-.309.021-2.294.472-.455 2.358-.143.165-.862.991 2.49 2.306 4.705 2.927 8.798 1.553.165.143 3.118 2.418 8.535.021.4-3.13-.011-.154 1.612-1.354.298-.176.165.143 4.055 2.507.155-.011.01.154 1.176 3.485 4.903 3.532 3.993-.59.154-.011.165.143 6.566 5.122.103-2.954-1.33-3.473-2.996-2.891-.165-.144.132-.319 2.332-4.351-.788-4.598-2.817-4.764-.154.01.143-.165.379-3.438-2.492-.135-.165-.144-.165-.143-.626-2.283-4.334.15-.154.011-.166-.144-1.397-2.228-.166-.144.144-.165.94-2.082-.504-2.756-3.318-.852-.829 1.453-.144.166-.319-.133-2.173-.002-.154.01-.165-.143-2.303-1.854-3.673.723-.308.021-.011-.154-2.422-3.552-2.392-.917-4.027 2.299-.453.186-.176-.297-1.33-3.474z" fill="#F2F3F5"/><path fill-rule="evenodd" clip-rule="evenodd" d="M196.28 362.266l8.551 4.673 3.232-.382.154-.011.165.143 4.196 4.513.165.144-.143.165-1.376 6.92 5.277 4.437 13.475-.326.155-.011 9.179 4.783.155-.011.011.155 6.46 10.247 9.798 4.74 6.221-1.988.144-.165.165.143 2.974 2.583 4.153-4.945-4.275-3.421-.165-.144.144-.165.742-2.689.143-.165.309-.021 5.734-.093 6.038-4.611-.304-4.321-4.464-1.703-.319-.133.132-.319 1.13-3.802-4.112-1.106-2.538 1.418-.298.177-.176-.298-3.806-7.797-7.741.233-.155.011-.154.011-5.342-5.363-4.838-2.607-.011-.154-4.77-3.852-.154.01-14.175-14.047-.165-.144-.011-.154.55-7.638-.011-.154 4.55-5.903-3.318-.852-.309.021-.022-.308-.357-5.093-3.86.271-2.595 2.819.011.154-.165-.143-5.724.247-.165-.144-2.82-2.593-2.47.173-3.619 1.495-5.707 4.898-3.285 8.451-.144.165-.154.011-6.517-.008-3.575 2.112-2.189 4.186 2.831 2.748.165.144 1.341 3.627.011.155-.081 3.262 6.33-.444.309-.022.176.298 1.303 7.507zm-49.737-69.707l-3.827.734-5.994 5.229-3.194 5.342-7.134.036-3.825 7.402-4.897.965.225 5.412-7.229 5.315.962 7.067 3.204 3.652-3.104 4.405 1.011 3.341 5.027.887 1.284 5.028-1.36 2.732.475.122 3.022-1.143.155-.011.165.144 1.752.652 6.1-1.514 2.2-4.032.988-5.807-.011-.155 3.589-4.129.599-2.523-.022-.309.309-.022 2.15-.306.236-3.273-.022-.309.309-.021 6.785-2.803-.948-9.084-.011-.154.154-.011.864-3.162-.01-.155.154-.01 2.031-2.004 1.828-7.107-3.258-4.424-.011-.154-.721-5.843z" fill="#F2F3F5"/><path fill-rule="evenodd" clip-rule="evenodd" d="M183.986 280.004l-6.617.775-7.977 3.507.003 6.668.989 3.032-2.175 2.169-2.178-4.499-3.264-.081-5.431-4.426-5.894 4.446-4.136.756.566 5.853 3.424 4.567.011.155.011.154-1.817 7.261 1.319 3.32 3.73-2.123.298-.176.165.143 2.711 1.05.155-.011.01.155 2.257 3.408 3.518-.712.155-.011.165.143 2.457 1.844 2.029.168.828-1.454.133-.32.32.133 3.792.974.32.133.01.154.526 3.065.011.154-.155.011-.785 2.071 1.222 1.931 4.323-.304.308-.022.022.309.78 2.271 2.492.136.474.121-.132.32-.512 3.758 2.806 4.61.165.144.767 4.288 3.112-2.079.155-.011 6.362.018 3.296-8.296.144-.165 5.707-4.898.154-.011-.01-.154 3.773-1.506 5.414-.225 2.617-2.51-5.716-6.268-3.285-.389-.155.011-.176-.298-1.901-4.984-1.997.295-.092 3.108-.122.474-.308.022-1.731-.344-.155.011-.01-.155-1.542-2.062-1.511.571-.049 3.725.033.463-.32-.132-2.348-.301-.155.011-.165-.143-1.43-2.691-6.32.599-.308.021-.011-.154-2.896-3.674-6.021.423-.155.011-.165-.143-1.685-1.898-.319-.133.287-.33 9.323-13.062-1.518-12.765zm87.163-31.401l.817-10.448 2.72 3.375-.417 7.319 3.378 6.121 1.531 10.748 4.767 6.024 1.393 6.571 16.42 8.462 9.597-2.535 6.562-10.387 1.27-10.635-4.12-12.272-.805-18.089-2.473-6.495-5.659-7.667-1.216-6.273 2.064-1.54 3.38 3.95 2.793-2.213-3.159-5.206-11.162-6.505-15.383-.315-2.936 2.377-7.405 5.018.731 5.997-4.653 8.856-10.333.881-3.094 4.56 8.27 9.5.011.154.011.154-.812 6.106 6.547 2.642.165.143 1.2 1.622z" fill="#F2F3F5"/><path fill-rule="evenodd" clip-rule="evenodd" d="M255.263 291.902l-.691-3.209.412-2.975-2.874-3.365 2.001-4.638 6.915-9.791 6.035-2.44 3.272-6.433.595-9.192-1.563-2.372-6.558-2.796-.319-.133-.022-.308.813-6.106-7.94-9.212-7.887 11.41-4.488.16-5.288 4.248-4.035-.026-1.417 4.131-1.449 3.669-3.08 2.543 1.937 3.275-1.999 2.467-7.497-.714-1.509 7.24-.641 10.746-4.348 2.166-19.946-1.235-8.933.938.709 5.688 4.722-1.262.154-.011 6.395.481.155-.011.165.144 2.719 3.376.155-.011.011.154.16 4.487.01.154-.154.011-1.977 2.775.655 4.917-.314 4.364-.143.165.011.155-3.069 2.697-.764 2.379 1.42 2.537 1.73.344-.095-3.56-.021-.309.309-.022 2.118-.769.298-.176.176.298 1.397 2.228 1.092.078.103-2.953.133-.32.308-.022 2.603-.493.309-.021.022.308 2.067 5.128 3.12.246.165.144.155-.011 5.406 6.289.621-2.215-.897-6.14-.011-.155 2.002-4.638-.011-.154 7.719-9.382.144-.165.154-.011 4.862.744.165.143.166.144 1.739 2.669.011.154-.436 4.839.01.154-.143.165-3.313 3.645-5.544 7.213-1.143 5.818 4.014-.282.309-.021.022.308.368 5.247 3.318.853 2.143-2.632.143-.165.155-.011 2.933-.206.856-5.488-.011-.154.144-.166 5.003-6.089-1.387-2.074-.011-.154-2.059-2.802-.011-.155-.011-.154.921-4.562.144-.165 5.024-5.781.268-2.81-.032-.463.474.121 3.77.666 2.349.3 2.562-3.281.154-.011-.011-.155.453-.186zm87.778 34.776l-6.882 10.254 2.906 3.828.166.144-.144.165-1.481 3.206 1.592 5.006.177.297-.298.176-4.437 3.104-.309.021-.154.011-6.458-3.578-5.845.72-.309.022-.022-.309-1.229-4.256-15.624-10.379-1.525 2.589 4.645 6.497.011.155.011.154-.834 5.797-.144.165-3.147 3.788 1.739 2.669.011.155.515 2.91.021.309-.298.176-5.856.566-4.209 6.344.095 3.561 5.567 1.935 2.12-2.941.155-.011.143-.165 4.976-2.055.298-.176.176.298 3.698 6.253.176.298-.144.165-11.514 10.58.214 5.257.011.155-.144.165-4.095 3.544-.144.166-.165-.144-5.401-1.792-3.643 3.358-10.238 13.281 1.265 2.548.011.154.585 8.333 1.961 1.413 4.263-5.572.133-.319.32.132 14.594 4.558 4.778-2.662 2.291-7.139.144-.166.154-.011 9.638.254.154-.011 7.501 7.383 8.001 3.47 10.74.486 4.161-2.618.143-.166.32.133 12.24 8.601 7.178.581 11.265-22.969.144-.165 8.976-9.16 1.164-5.51-.011-.154 8.977-9.16.287-.331.341.442 2.224 2.945 5.228-.677 5.94-6 .143-.166.155-.01 9.561-.827 6.69-6.363.155-.011 13.852-1.593 3.258-4.417.144-.165.154-.011 5.274-2.231 2.884-5.321-2.649-6.792-.011-.155-.011-.154 2.311-4.66-2.658-.278-1.668 2.753.011.155-.309.021-3.242.228-3.898 4.151-.143.165-.155.011-5.182-.877-3.545 4.747-.144.165-.154.011-11.514 1.739-.155.011-52.527-32.135-4.689 1.725.011.154-.155.011-21.634-.962zm-80.109-49.273l1.663 1.589 2.064-1.541-.791-2.425-1.785-1.116-1.116 1.785-.035 1.708zm150.307-4.974l2.34-2.026-.303-4.321-2.977-.411.94 6.758z" fill="#F2F3F5"/><path fill-rule="evenodd" clip-rule="evenodd" d="M459.02 330.008l-4.359-6.828-10.959-10.241-7.566.531-.766 4.552.312 6.647-5.176 3.62-3.132-.4-1.79 3.227-4.077-2.815 4.196-4.327-.314-4.476-14.37.855-7.316-4.759-10.886 1.85-4.228-4.976 6.441-1.073 2.93-6.874-8.787-1.399-3.678 5.066-2.256-3.409-22.623-3.994-2.573 3.128-3.459-2.859-11.103 7.604-6.588-5.431 1.495-5.223-2.221-5.117 7.083-2.979 6.964 4.164 2.874-5.475-.816-9.403-9.483-9.104-1.964 9.598-11.644 8.727-.503 6.084-5.499 5.659 3.172 12.029 6.992 8.969 5.921.36.154-.011.166.143 3.413 4.413 21.623.808 4.832-1.891.144-.165.165.144 52.528 32.135 11.051-1.707 3.7-4.758.143-.165.155-.011 5.181.877 4.052-4.162-.01-.154.154-.011 3.242-.227 1.669-2.754-.011-.154.309-.022 3.131.4 2.299-4.814-2.96-4.599-.176-.298.143-.165 4.659-4.36z" fill="#F2F3F5"/><path fill-rule="evenodd" clip-rule="evenodd" d="M439.789 310.267l-4.445.777-3.963-5.614.547-5.467 5.615-1.79 1.978 6.064.268 6.03zm-71.109-22.765l3.711 4.237 8.204-.266.71-3.152-.789-4.597-4.648-4.326-6.024 2.594-1.164 5.51zm61.098 1.756l.595-18.031.913-6.888 5.422-6.739 6.929-2.969 2.652-4.218-2.045-4.819 5.333 3.037 4.754-.799.986-3.636 2.944-.052.059-3.571 3.814 1.283.523-3.604 2.985 2.737 1.966-2.929.48-4.221 4.055 2.506 2.462-2.499 5.479.701 4.12-5.407 34.376-3.19 8.022-5.061.504-6.084-3.855-4.072-8.185 2.746-1.173 3.184-14.136-.247-6.545-4.813-5.187 3.466-5.566-1.936-6.479 4.953-5.713.401-2.616 2.51-4.142-3.741-1.267 8.463-4.312.458-.225 3.428-10.271 3.978-3.979-1.426-2.11 3.095 3.294 2.715-4.041 4.316-6.989-2.301-.558 5.313-4.962.038.128 4.023-6.699 4.038-4.266-1.096-4.537 3.885.203 5.104 4.792 4.161.642 6.933-3.876 4.46 3.752 7.025 3.893.192.392 3.384 4.388.623 2.877 1.193zm-107.173 11.561l-5.631 5.978-3.148-5.051 3.949-1.208-5.756-9.056-7.633 1.777-7.75-2.092-9.32 2.05-4.328 13.486-4.012-1.889-6.303-12.429.078-9.931-8.879 1.709-1.72 8.65 4.031 4.37-3.215 5.033-6.094-2.828-1.404-6.726-.298.176-2.716 3.293-.144.165-.154.011-2.503-.29-3.462-.687-.279 2.656.011.154-5.024 5.781-.932 4.408 1.893 2.659 1.718 2.36.022.309-.144.165-5.146 6.255-.834 5.797-.133.319-.309.022-3.088.217-2.131 2.786-4.838 6.233-.427 7.164 14.164 13.893 4.781 4.007 4.837 2.607.155-.011 5.187 5.374 7.885-.399.309-.022.021.309 3.641 7.653 2.394-1.253.144-.166.011.155 4.729 1.063.32.133-.133.319-1.129 3.802 4.32 1.868.309-.022.022.309.303 4.321 4.115-1.065.308-.022.166.144 3.7 4.082.154-.01.011.154.821 5.06 3.191-3.171.154-.011.154-.01 5.556 1.781 3.654-3.204-.071-5.423-.011-.154.144-.165 11.227-10.249-3.356-5.813-4.667 2.034-2.265 3.106-.143.165-.32-.133-6.195-2.046-.154.011-.022-.309.027-4.034-.011-.154 4.342-6.664-.011-.154.309-.022 5.547-.544-.493-2.602-1.893-2.659-.176-.297.298-.176 3.291-3.954.845-5.642-4.646-6.498-.165-.143.133-.32 1.801-3.073.287-.33.33.287 15.944 10.511.165.144.011.154 1.219 4.102 5.691-.71.154-.011.011.155 6.292 3.435 4.15-2.773-1.428-4.863-.165-.143.144-.165 1.327-3.195-2.907-3.828-.176-.298.298-.176 6.728-10.243-3.237-4.115-5.921-.36-.154.011-.011-.154-7.168-9.267-.011-.154-.154.011-2.985-11.577zm191.98-151.666l2.633 2.141 3.191-3.171-1.872-2.349-2.427.79-1.525 2.589zm5.543 1.627l1.972 1.567 3.266-2.09.656-3.924-2.668-.433-3.226 4.88zm8.924-1.092l3.459 2.858 6.4-3.861-1.495-3.617-4.762-1.527-3.632 3.512.03 2.635zm6.459-7.433l3.031 1.183 1.701-2.291-2.468-1.998-2.264 3.106zm11.798-8.738l1.132 2.867 2.858-1.286-1.33-3.474-2.66 1.893zm-9.773-6.602l1.641 1.28 1.899-1.684-3.139-2.726-1.458 1.343 1.057 1.787zm-8.361 2.448l.626 2.282 3.229 1.789 1.657-2.907-1.937-3.276-3.575 2.112zm-6.002 2.902l6.39 4.825-.447 4.683-6.162-1.583-4.185-4.358 4.404-3.567zm17.868 15.805l1.021 3.495 6.474-.61 2.465-4.67-2.566-3.387-2.497 4.207-4.244-.787-.653 1.752zm-17.513 9.14l1.871 2.349 1.558-2.125-1.883-2.504-1.546 2.28zm-17.414-15.992l2.939 4.291 2.882-3.149-1.815-3.75-4.006 2.608zm7.61-2.085l.813 2.734 1.612-1.354-1.607-2.989-.818 1.609zm-3.974-14.609l2.357 2.626 1.723-1.982-3.438-2.55-.642 1.906zm-18.763-4.265l1.187 3.638 2.931 1.966 4.147-.602 2.611 1.833 1.414-1.96-3.283-2.561-2.869 1.132-6.138-3.446zm1.444 9.513l-.081 3.263 3.14 2.726 3.193 3.498.807-1.763-1.021-3.495 4.104-1.219 5.214 1.34 3.015-3.469-3.183-3.343-2.536-.753-2.483 2.191-3.662.877-2.097 1.078-4.41-.931zm7.199 11.901l-.466 2.204 2.568 1.215-.051-2.943-2.051-.476zM105.919 485.082l.141 2.006-6.34.29-2.067 3.712-3.21.691-3.383 7.061-6.311 2.925-5.109-6.465-10.905-.63-4.727 5.605 11.407 5.558-3.08 2.542-5.95-2.994-3.07 2.697 2.279 3.717 3.86-.271.308-.021.01.154 5.199 5.528.165.144-.143.165-2.92 7.029 4.879 5.395.165.143.021.309-.929 2.237.006 4.497 2.863 3.21 2.419-3.116.144-.165.154-.011 4.277 1.25 1.37-2.577.133-.32.32.133 3.494 1.15.32.133.01.154.358 5.093 3.99 1.581.32.132.021.309.336 4.784 2.246 3.254 4.908-.81 1.338-3.041.144-.165.154-.011 8.028-.564 4.407-5.737-.493-2.602-4.51-.148-.319-.133-.022-.309-.415-3.693-4.58-5.571-.165-.144-.011-.154 1.763-8.033-3.072-3.972-.176-.297.298-.176 5.628-3.808.298-.176.176.298 2.303 1.855 4.003-.437 2.135-4.957-1.491-7.96-.01-.154.143-.166 6.038-4.611-1.764-9.646-4.962.038-3.378 2.719-.143.165-.166-.144-4.187-2.187-4.971-2.287z" fill="#F2F3F5"/><path fill-rule="evenodd" clip-rule="evenodd" d="M152.262 541.845l6.631-2.792.712-5.323 5.485-3.642 6.222-1.988 2.118-.769-.761-8.631-3.914-.501-.155.011-.011-.154-2.037-2.494-.165-.143-.011-.154-.501-4.928-2.24 1.243-.154.011-2.956-.103-.463.033.133-.32-.106-3.714-.011-.155.144-.165 2.695-3.601-.325-4.63-7.084-5.861-3.924-.654-.155.01-2.874-3.365-.165-.143-.656-4.917-5.699-1.616-.154.011-.165-.143-2.642-4.467-2.868 1.132-.154.011-5.922-.36-.346 3.902.011.154-.144.165-5.165 3.775 1.785 9.955.022.309-.144.165-6.048 4.457 1.325 7.816.165.144-.154.01-2.113 5.267-.143.165-.155.011-4.456.623-.154.011-.154.01-2.159-2.019-5.033 3.455 2.741 3.685.166.143.011.154-1.764 8.034 4.416 5.428 9.957.386.875-3.008.143-.165.155-.011 3.418.07.309-.022.021.309 1.428 4.862 3.903.346 3.245-2.399.144-.165.165.144 12.062 1.634.154-.011.165.143 3.478 5.339z" fill="#F2F3F5"/><path fill-rule="evenodd" clip-rule="evenodd" d="M126.157 589.894l6.492 1.87 16.797-1.645-1.856-6.538 4.269-1.076 1.974-18.283-3.205-3.652-4.244-.788.379-3.438 4.913-5.153-5.087-6.156 2.075-1.387 2.847-1.44-3.313-5.196-11.753-1.655-3.101 2.234 2.551 5.403.166.144-.144.165-1.424 10.646 3.126 4.743.01.154.011.155-2.226 8.065 1.428 4.863.197.606-.628-.111-4.973-.116-2.394 1.254-.298.176-.176-.298-2.037-2.493-1.414 1.96 3.058 5.989.022.309-.144.165-3.345 3.181-3.123 1.926 4.57 5.417z" fill="#F2F3F5"/><path fill-rule="evenodd" clip-rule="evenodd" d="M113.064 593.45l6.341-.29 5.827-3.201-4.416-5.428-.33-.287.452-.187 3.267-2.09 3.058-2.852-2.904-5.999-.165-.143.132-.32 1.834-2.61.287-.33.341.441 2.203 2.637 2.24-1.243.154-.011 4.664.138-1.395-4.4-.011-.154 2.216-8.22-3.126-4.743-.011-.155 1.413-10.8-2.397-5.415-4.047-.181-.308.022-.022-.309-1.439-5.016-2.789.041-.886 2.853.022.309-.309.022-9.957-.387.371 3.076 4.521.303.308-.022.022.309.526 3.065.011.154-.155.011-4.539 6.057-.144.165-.154.011-7.874.553-1.504 2.897.011.154-.143.165-5.372.843-.154.011-.165-.144-2.576-3.541-.011-.154-.336-4.784-4.144-1.57-.166-.143-.01-.155-.358-5.092-3.02-1.029-1.206 2.721-.143.165-.309.022-4.442-1.394-2.121 2.941 2.863 3.21 2.901-.669.154-.011.166.144 2.037 2.493 3.935.809.166.144.165.143 1.858 4.367 4.48 6.354.011.155.011.154-.625 6.557 4.689 7.115.011.155 1.801 5.766.011.155.114 6.04 6.774 5.882.155-.01 1.66 3.76z" fill="#F2F3F5"/><path fill-rule="evenodd" clip-rule="evenodd" d="M75.621 617.016l-2.01 2.313.886 5.986 6.133 7.788.133 8.521-.644 4.077 5.528 5.815 2.251-1.088 1.216-2.567 3.196 1.326 3.319.853 3.686-2.74-.748-10.649 1.562-15.308 8.922-9.932.244-9.787-1.374-4.091 4.383-3.875-1.639-3.452-6.455-5.75-2.197 1.861-.143.165-.155.011-6.506.146-3.356 3.028 1.409 2.382.176.298-.287.33-3.112 2.08 4.426 5.582 4.531.457.155-.01.022.308 1.912 5.139.022.308-.298.176-3.3 1.628-.154.011-3.407.084-3.738 8.637-.122.474-.485-.276-3.591-2.539-1.701 2.29-.144.165-.154.011-8.392-.186z" fill="#F2F3F5"/><path fill-rule="evenodd" clip-rule="evenodd" d="M73.237 609.585l1.815 3.75.835 3.043 7.917.064 1.845-2.456.287-.33.32.133 3.437 2.55 3.748-8.483-.01-.154.308-.022 3.562-.095 2.847-1.441-1.571-4.697-4.223-.479-.154.011-.166-.144-6.287-7.778-4.499.006-2.096 1.078 3.12 9.086.022.309-.298.176-10.758 5.873z" fill="#F2F3F5"/><path fill-rule="evenodd" clip-rule="evenodd" d="M70.342 605.911l.273 1.687 2.127 1.557 10.593-6.017-2.934-8.634-1.942 1.067-1.43 6.148.011.155-.154.011-2.617 2.51-.154.011-3.773 1.505z" fill="#F2F3F5"/><path fill-rule="evenodd" clip-rule="evenodd" d="M60.96 593.853l.796 6.923 8.3 3.294.23 1.069 3.619-1.494 2.483-2.191 1.43-6.149-.01-.154.143-.165 4.491-2.332-3.746-2.528-1.227 2.412-.144.165-.154.011-9.426-1.664-6.642 2.638-.143.165z" fill="#F2F3F5"/><path fill-rule="evenodd" clip-rule="evenodd" d="M54.119 580.376l4.504 4.491.6 6.317 1.53 1.908 6.939-2.814.154-.01 9.118 1.685 2.432-5.133-1.528-4.08-4.168.293-.155.011-.154.01-8.714-6.987-6.032.269-4.526 4.04z" fill="#F2F3F5"/><path fill-rule="evenodd" clip-rule="evenodd" d="M42.264 561.823l5.526 7.986.347 4.939 5.33 5.208 4.814-4.37.154-.011.154-.011 5.724-.247-.732-5.997-.01-.154.143-.165 2.947-2.223-4.909-8.03-1.338 3.04-.132.32-.155.011-5.447-.238-.154.011-.01-.154-3.216-3.807-9.036 3.892z" fill="#F2F3F5"/><path fill-rule="evenodd" clip-rule="evenodd" d="M29.282 509.541l.962 7.066-1.977 2.775 1.297 3.011 3.416 2.241.203 5.104 2.417 7.894-.098 7.451-.522 12.444 1.696 2.052 3.145-1.617 2.41 3.398 9.334-4.068.298-.176.166.144 3.215 3.806 4.973.116 3.052-7.348-.01-.154.154-.011 3.597-1.804-1.541-2.063-.166-.143.144-.165 1.89-4.01-2.456-1.844-.33-.287.286-.33 2.584-2.973.146-2.337-.01-.154.143-.165 2.99-1.606.298-.176.177.298 2.256 3.408 2.473-2.345-.017-4.651.94-2.082-5.033-5.385-.165-.143.144-.165 3.074-7.04-4.868-5.241-4.014.282-.309.021-.165-.143-2.806-4.611-7.877-6.115-.398 9.798-4.155-1.724-7.688 1.005-2.519 3.899-6.373-9.012-4.383 3.875zM39.96 553.3l-.645-4.762-.022-.309-.022-.309.31-.021.308-.022 4.908-.81-.206-2.932-.01-.154-.012-.155.144-.165.143-.165 5.266-4.557-3.703-1.911-4.846-4.933-.165-.143-.165-.144-.011-.154-.01-.154.324-4.211-.033-.463-.032-.463.474.122.474.122 3.957 1.118.155-.011.154-.011.011.155.01.154 3.436 4.721 4.323-.303.617-.044.309-.021.022.308.021.309.623 4.454 3.273 2.406.165.144.165.143.01.154.012.155.125 6.194.01.155.011.154.011.154.01.155-4.065 6.179-.563.815-.563.815-.22-.916-.22-.915-.974-5.049-6.406 8.204-.144.165-.143.166-.32-.133-.32-.133-5.422-2.1-.166-.144-.165-.143-.01-.154-.198-.607z" fill="#F2F3F5"/><path fill-rule="evenodd" clip-rule="evenodd" d="M75.793 537.756l-2.617 2.51-.287.33-.341-.441-2.257-3.408-2.538 1.419.008 2.325-.143.165-2.297 2.643 2.302 1.854.166.144.021.309-1.88 4.164 1.707 2.206.187.452-.298.176-4.06 1.836-1.306 3.504 5.426 8.769.165.143-.287.331-3.101 2.234.742 6.151 8.693 6.678 4.323-.303.309-.022.021.309 1.704 4.378.165.143-.143.165-1.227 2.413 4.242 2.958 4.653-.016.155-.011.165.143 1.52 1.755 2.66-1.893-1.41-2.383-.021-.308.144-.165 3.643-3.358.143-.165.155-.011 6.66-.158 2.032-2.003-.104-5.886-1.79-5.613-4.7-7.269-.01-.154-.012-.154.626-6.558-4.326-6.365-.01-.154-1.992-4.048-3.781-.82-.165-.143-2.038-2.493-2.746.658-.298.176-.176-.298-6.376-6.841zm-35.706 10.728l.645 4.762 5.422 2.101 6.98-8.865.575-.661.054.772 1.194 5.964 4.066-6.179-.125-6.194-3.437-2.551-.155.011-.01-.154-.635-4.608-4.477.314-.309.022-.01-.154-3.611-5.019-4.112-1.107-.16 4.353 4.846 4.933 4.188 2.187.485.276-.442.341-5.707 4.899.228 3.24.032.463-.308.022-5.217.832zM679.593 651.67l17.625 5.741 15.998 2.443 4.12 12.273 11.848 5.216 8.017-.719 11.103-7.603 8.995 2.159 9.221-1.268 2.763 3.994 5.271-.06 1.397-6.612-.011-.154.144-.166 4.911-2.981-5.827-5.639-.33-.287.298-.176 4.945-4.69-2.44-6.032-.187-.452.617-.043 10.036-.705 5.962-5.692.154-.011.154-.011 5.613.382 9.523-14.627-.011-.154.154-.011 6.761-.94 1.78-3.382-.011-.154.154-.011 5.55-2.716 3.944-5.705.062-5.743-4.694-2.772-.166-.143-.01-.155-.391-5.555-.01-.155.143-.165 9.35-8.256 2.844-8.109-.011-.154.155-.011 8.583-3.705-.951-6.912-5.75-4.558-6.087-.503-.165-.144-.165-.143-5.992-14.623-3.283-2.561-.331-.287.287-.33 2.785-4.538-.767-4.288-3.413 4.427-.143.165-.155.011-3.12-.247-1.222 6.91-.143.165-.154.011-16.35 5.801-.309.022-.165-.144-3.05-3.663-3.705.261-.155.01-3.846-1.745-1.528 4.759-.143.166-.144.165-7.69 3.176-.154.011-.154.011-4.123-1.261-.601 4.694-.133.32-.154.011-8.107 1.655 1.043 3.804 5.233 3.819.33.287-.287.331-3.821 5.231-.252 7.462 3.224 6.132.211-1.411.983-10.305-.011-.154 2.454-4.825-.022-.308.309-.022 3.583.213.155-.01.176.297.888 3.815.011.154-1.048 9.379 1.247 8.908 1.736 4.84.154-.011-.143.166-1.517 4.914.011.154-2.749 2.83-.807 1.762 1.297 3.011.011.154.011.155-1.018 3.173-.144.165-.154.011-3.034.988.084 3.406.011.155-3.559 6.763-.144.165-5.747 2.11-3.492 5.518-.143.165-.155.011-4.344-.005-.769 6.723.011.154-3.137 3.943.011.154-.154.011-10.174 5.367-1.054 4.881.011.155-.298.176-6.641 2.638-.298.176-.187-.453-1.197-3.793-7.2-.89-.309.022-.022-.309-.986-5.203-5.385-5.98-6.639.466-.154.011-.165-.144-14.5-9.837-.011-.155-4.735-5.56-6.601 5.426-.143.165-.155.011-3.87.117.219.915.165.144-.143.165-2.01 2.312.989 3.032.011.155-.144.165-2.706 3.447 2.983 4.908z" fill="#F2F3F5"/><path fill-rule="evenodd" clip-rule="evenodd" d="M584.219 687.68l25.255-11.544 9.221-1.268 1.706 2.207 14.112 2.11 1.515 6.097 5.433 2.255 14.787.667 5.921.36 3.129 2.571 4.523-1.868 4.063-4.008 2.413-7.613-5.363-5.672-.033-9.303 3.166-1.308-.138-4.177 4.158-.447.91-4.717-3.148-5.052-.011-.154.133-.319 2.706-3.447-.989-3.032-.176-.298.144-.165 2.009-2.313-.615-2.128-5.988.886-.155.011-.154.011-15.879-9.586-.633 4.232.021.309-.309.021-18.408 2.999-.744 4.86-.133.32-.154.011-3.486 1.175.547 3.373.011.155-.144.165-4.713 3.588-.081 3.262.022.309-.298.176-3.343 1.01-5.663 5.516-.155.011-.154.01-14.334-.854-.155.011-9.234-5.555-4.036-.026-1.993 6.963-.133.32-.308.022-9.993 1.322 1.106 6.901 6.78 10.38.176.298-.144.165-4.117 3.235 1.547 6.56z" fill="#F2F3F5"/><path fill-rule="evenodd" clip-rule="evenodd" d="M526.731 671.092l1.26 6.89 6.745 3.248.631 6.78 6.582.933 2.852 3.057 6.986-4.368 1.747 4.995 5.109 6.465 7.311.262 1.825-4.936 9.694-1.146 6.149-5.24-1.579-7.023-.011-.154.143-.165 3.974-3.071-6.604-10.082-.011-.154-1.095-6.747-4.967 4.381-.298.176-.176-.298-5.209-5.682-.165-.144-.011-.154 1.189-7.372-2.842-2.903-8.05.256.011.154-.309.022-5.019 1.438-.155.011-.319-.133-4.396-2.948-.071 3.417.011.154.011.155-3.592 6.3-.143.165-.155.011-7.454-.097-5.726 2.419-2.088 3.403 3.835 1.592.155-.011.011.154 1.384 4.245.187.453-.463.032-6.894 1.26zm42.336-20.188l4.369-1.858 3.123-1.925 5.168-5.947-1.485-3.462-.01-.155-.011-.154.644-4.077-1.758-5.15-.011-.154.144-.165 3.38-4.89 1.452-5.84-5.534-1.473-.154.011-.011-.154-1.32-3.319-.01-.155.143-.165 3.933-5.859-2.706-5.393-.011-.154-.011-.155.777-4.397-.01-.154.143-.165 5.528-3.025 2.584-2.973-6.834-11.151-.011-.155-.011-.154.645-4.077-6.29 3.233-.154.011-.154.011-8.598-3.119-9.475 2.062-3.247 4.57-.144.165-.154.011-9.881.694 1.699 26.4 3.519-.712.308-.022.022.309.986 5.204 5.309 4.9 2.024 4.51 4.859 2.915.331.287-.287.331-3.259 4.416 2.996 2.891.165.144.011.154-1.01 5.499.011.154-.144.165-3.388 2.565.136 6.349 8.204-.266.154-.011.166.143 3.15 2.881z" fill="#F2F3F5"/><path fill-rule="evenodd" clip-rule="evenodd" d="M471.575 614.793l13 45.923 5.195-1.141 3.337-5.507 3.494 1.15 1.306 5.337 11.55 5.392 8.418-3.848 4.773 1.68 3.874 6.552 6.276-1.216-1.187-3.639-4.001-1.735-.319-.133.122-.473 2.519-3.899.154-.011 5.87-2.584.154-.011 7.311.262 3.448-6.135.027-4.034.111-.628.495.43 4.881 3.224 4.567-1.251-.168-6.812-.011-.154.144-.165 3.388-2.565 1.032-5.19-3.161-3.035-.32-.132.287-.331 3.115-4.251-4.55-2.937-.155.011-.011-.154-2.023-4.511-5.475-5.043-.01-.155-.976-5.049-3.518.713-4.185 4.481-.144.165-.154.011-8.711-.319-2.484 2.191-.298.176-.165-.144-2.766-1.822-7.055 7.785-.288.33-.176-.297-6.422-5.287-.011-.155-1.384-4.245-5.231-5.991-19.44 8.189-.154.011-4.453-1.548-1.755 1.519-.298.176-.165-.143-3.229-1.79-3.995 2.762z" fill="#F2F3F5"/><path fill-rule="evenodd" clip-rule="evenodd" d="M455.047 595.948l10.366-.418-3.854 4.768 9.654 13.745 3.995-2.762.298-.176.165.144 3.229 1.789 1.91-1.53.143-.165.165.143 4.453 1.549L505 604.691l.309-.022.165.144 5.418 6.443.154-.011.011.155 1.219 4.101 5.938 5.011 7.056-7.784.132-.32.331.287 2.765 1.822 2.495-2.036-.011-.155.154-.011 8.712.319 4.195-4.327-1.721-26.709-3.551.25-4.493 4.503-.298.176-.331-.287-2.346-2.472-.01-.154-.011-.155-.087-10.074-14.546.556-.154.011-.165-.143-2.972-4.754-7.544.84-.308.022-.022-.309-1.923-5.293-5.066-5.848-26.32-10.247.574 8.179.022.308-.154.011-4.591 3.114 1.768 5.304.187.452-.463.033-6.197.125-4.8 2.353-2.432 5.134 1.647 14.617.011.154-2.7 7.944z" fill="#F2F3F5"/><path fill-rule="evenodd" clip-rule="evenodd" d="M413.302 564.917l2.988.565.677 5.225-1.712 2.137 1.496 3.617-3.689 4.912 1.01 3.34 8.787 1.399.789 4.597 4.19.016 3.296.544 3.492 3.322-4.361 4.183.228 3.241 4.534-1.714 4.166 1.878 3.497-1.021 2.903-2.84 8.538-2.151 2.822-8.417-1.636-14.463-.011-.155.143-.165 2.565-5.453.144-.165 4.799-2.353.155-.011 5.888-.104-1.747-4.995-.021-.308.143-.166 4.746-3.124-1.431-20.371-3.812-3.454-.176-.298.144-.165 3.391-4.736-.504-2.756-6.468 5.107-.154.011-.155.01-5.26.215-.154.011-5.301-2.575-5.504 1.162-.144.166-.165-.144-7.625-4.737-3.286-.39-.617.044.276-.485 2.232-3.569-3.801-3.3-6.327 7.113-.184 6.217.011.154-1.844 2.456.604 1.974 4.431 1.239.165.144.011.154 1.672 3.915.154-.011.011.154-.666 3.769.01.154-1.381 2.424-.133.319-.165-.143-5.16-.568-3.413 4.427-.755 4.705.011.155-.144.165-6.205 6.639-1.008 3.328z" fill="#F2F3F5"/><path fill-rule="evenodd" clip-rule="evenodd" d="M550.369 501.785l-5.829-3.468-10.363 7.086-.309.022-.154.011-9.587-6.151-13.134.768-.154.011-.011-.154-9.047-5.103-6.295-1.264-5.409 4.722-3.215 13.874-.133.319-.308.022-5.139-.259-3.686 2.74-.479 4.221.01.154-.143.165-6.666 4.501.691 3.208.011.154-.144.165-3.247 4.571 3.646 3.311.01.154.011.154.824 11.729 26.64 10.381.155-.011.01.154 5.375 5.826.01.154 1.758 5.15 7.39-.83.308-.021.177.298 2.96 4.599 14.7-.567.309-.022.022.309.108 10.383 1.861 2.196 4.515-4.195.144-.165.154-.011 3.86-.271.463-.032 9.573-.673 3.413-4.427-.011-.154.154-.011 9.784-2.083.154-.011 8.598 3.118 6.433-3.398-.169-6.812-.01-.154.143-.166 6.734-5.745.544-3.295-6.162-1.584-.155.011-4.637-4.172-.154.011-.011-.154-1.184-5.81-.011-.154.144-.166 7.253-7.178.038-3.88-5.138-.259-.155.011-.165-.144-6.382-11.338L552 520.59l-.319-.132-.022-.309-.379-5.401-.011-.154 2.397-3.426-3.297-9.383zm31.68 93.152l-2.24 1.243-.789 4.242 2.861 5.383.022.308-.144.165-3.933 5.86 1.133 2.867 5.699 1.616.474.121-.133.32-1.573 6.314-.155.011-3.226 4.879 1.604 5.16.154-.011-.143.165-.645 4.078 1.639 3.452.011.154-.144.165-5.3 6.266-.155.011-3.277 1.936-4.358 2.012-1.211 7.064 4.879 5.395 5.111-4.546.585-.507.022.309 9.837-1.311 2.148-6.975-.022-.309.309-.021 4.191.016 2.5-6.379-.011-.155.154-.011 5.109-2.375 1.449-3.668-.271-3.858-.022-.309.154-.011 4.602-2.96-.601-4.145-2.43-5.877-1.328-5.645-4.943-6.322-.011-.154-.022-.309 1.571-4.142-3.394-1.933-5.515 1.008-.154.011-6.021.423-.309.021-.011-.154-3.727-8.888zm-30.261-298.275l3.711 4.237 2.394-1.254-1.205-6.119-2.557-1.061-2.343 4.197zm7.577-29.068l1.861 2.196 1.712-2.137-.989-3.032-2.262.934-.322 2.039zm57.889-114.642l7.662.858-2.099-5.591-5.238.523-.325 4.21zm7.326 13.754l3.779-5.849-1.274-4.873 3.83-2.905 3.733-4.295 4.759 3.698 2.969 6.926 1.771 3.132-4.016 2.453.281 4.013-10.019 5.356-5.585-4.415-.228-3.241zm-3.281 6.278l8.091 2.534-.821 3.779-3.564 2.267-5.499-3.181-1.176-3.484 2.969-1.915zm7.836 12.167l2.944-8.891 9.391-5.468 2.165 6.517 2.57-.956.103-2.954 4.626 4.018.093 5.731-2.874 5.475 3.007 3.046-.425 4.992-3.421 2.101-7.449-4.439-6.875-5.1-3.659-1.294-.196-2.778zm25.667 3.16l-.135 11.33-3.626 8.009 1.966 5.91 6.701-6.208 7.379-.984 3.578-4.283-.166-8.984-4.537-4.954-3.158 3.634-2.148-1.865-.071-5.424-5.783 3.819zm21.827 14.751l.834 3.043 5.645.844-.306-2.15-5.797-3.005-.376 1.268zm-40.402 25.635l3.085 1.954 2.075-1.386-1.771-3.132-3.389 2.564zm-25.768-2.378l3.847 1.746-.052-2.943-2.5-2.46-1.601 1.508.306 2.149zm23.389 10.454l1.498 1.446 1.579-1.817-2.148-1.865-.929 2.236zm-58.784 42.281l2.964 2.428 1.722-1.982-.823-2.889-2.514-.444-1.349 2.887zm7.033 2.917l1.619.972.94-2.082-1.993-1.876-.566 2.986zm3.473-7.998l1.62.972.807-1.763-2.425-1.38-.002 2.171zm2.485-4.362l1.95 1.259 1.536-2.434-2.92-1.811-1.314 1.178.748 1.808zm-13.503-13.319l2.093 1.093 2.815-1.903-1.905-2.813-2.524-.598-2.319 2.334 1.84 1.887zm5.458-10.619l-.498 1.741 1.696 2.052 1.424-1.806.014-2.017-2.636.03zm-9.66-71.281l-.301 2.347 2.644 2.296 3.407-.085-.371-3.075-2.533-2.924-2.846 1.441zm13.841-19.427l3.318.852 3.486-1.175-2.332-4.489-2.766-1.822-1.734 1.828-.257 2.965.285 1.841zm151.222 286.366l-2.275 2.951-.143.165-.155.011-5.78 1.647-5.087 2.683.721 5.843 1.815 3.75.011.154.011.154-2.468 6.842 3.27 4.578.011.154.01.155 1.117 7.055.01.155.011.154-4.003 9.276.011.154-.154.011-7.384 5.327 3.28 4.732.166.143-.144.165-2.928 4.704 2.1 5.59 6.636 1.705.154-.011.011.155 1.23 4.256.011.154-.144.165-4.428 5.429-.06 3.571 3.142.555.155-.011.011.154 1.869 4.522.011.154-.144.165-3.302 3.799-1.164 5.51-.122.474-.485-.276-7.075-3.536-.155.011-.01-.154-3.73-6.717-5.981 3.212-.514 5.929.01.154-.143.166-12.69 15.934 1.106 6.901.021.309-.298.176-3.597 1.804-.298.176-.176-.298-6.051-11.052-3.215 5.034-.144.165-.154.011-14.161 1.615-4.832 10.73 7.024 9.432.165.144.011.154-.845 5.642.022.309-.309.022-6.111 1.359-3.074 7.04.055 18.451.022.309-.309.022-6.065-.195-4.182 2.31.249 3.55 10.995 8.533 16.198 9.718 6.144-.897.308-.022.022.309.385 1.059 4.025-.128 6.744-5.592.298-.176.176.298 4.911 5.859 14.346 9.848 6.639-.466.154-.011.165.143 5.561 6.278.011.155.011.154.975 5.049 7.2.89.309-.021.011.154 1.186 3.639 6.035-2.44.931-4.408-6.484.455-.309.022-.165-.144-1.606-2.988-.176-.298.297-.176 2.958-2.069 4.126-.91 8.079-6.461 2.763-4.847 5.929-6.154 1.097-4.264 3.261-6.588 3.989-7.259 3.112-10.92 2.338-8.693-3.587-6.882-.011-.155-.011-.154.23-7.77-.01-.155-.011-.154 3.678-5.066-5.068-3.676-.165-.144-.011-.154-1.087-4.421-.032-.463.463-.033 8.107-1.655.59-4.849.122-.474.474.122 4.432 1.24 7.392-3.001 1.66-5.079.133-.32.319.133 4.001 1.735 3.86-.271.154-.011.165.143 3.04 3.509 15.907-5.46 1.365-7.075.133-.319.309-.022 3.275.236 3.689-4.912.574-.661.219.915.81 4.906 9.99.849 5.585-4.424-.222-7.584-6.48-3.887-.165-.144-.011-.154-1.135-9.535-.011-.155.144-.165 3.212-2.862.155-.011.154-.011 8.47-.905-9.132-17.348-4.529-2.629-7.172 3.916-.298.176-.187-.452-3.353-7.984-12.225-3.949-5.956 1.349-7.865 20.558-5.667 7.687-.287.331-.33-.287-4.792-4.161-2.576 5.298-.143.166-.155.01-8.47.906-5.552 4.887-.298.176-.176-.298-5.97-5.474-.165-.143-.011-.154.007-15.354 4.271-12.087-6.625-1.551-.154.011-.011-.154-3.576-6.728-.011-.154-.011-.154 1.633-9.885-5.455-2.564-.165-.143-.011-.155-.363-9.59-4.391-7.29-2.936 2.377-.144.165-.154.011-4.499.006-.309.022-.022-.309-.379-5.401-.011-.155.143-.165 3.4-2.41-2.631-4.312zm-23.396 188.21l-1.032-3.649-.022-.309.298-.176 3.475-1.329-1.923-5.293-.176-.298.298-.176 4.214-1.847.298-.176.177.298 3.862 6.397 7.991-5.524.298-.176.176.298 3.215 3.806 2.633 2.142 3.155-1.463 4.478-.314.154-.011.165.143 2.411 3.398.166.144-.144.165-7.876 11.564-.133.32-.32-.133-5.509-3.335-6.441 1.073-.155.01-.154.011-4.023-2.043-4.705-2.927-4.664-.137-.309.021.122-.474z" fill="#F2F3F5"/><path d="M711.766 625.992l.834 3.043 4.345.005.155-.011.165.144.154-.011 4.716 3.081 3.868 2.054 6.287-1.062.154-.011.155-.01.165.143 5.179 3.048 7.6-11.08-2.224-2.945-4.168.293-3.012 1.297-.298.176-.144.165-.165-.143-.165-.144-2.633-2.141-.155.011-.011-.155-2.884-3.519-7.693 5.348-.452.187-.298.176-.176-.298-.176-.298-3.698-6.254-3.608 1.649 1.902 4.985.033.463.176.297-.298.176-.309.022-3.321 1.319z" fill="#F2F3F5"/><path fill-rule="evenodd" clip-rule="evenodd" d="M775.326 673.791l3.407-.084 3.852 6.243 26.575.615 17.007-11.896 5.702-.555 1.441-5.995 8.082-8.632 11.999-1.463 3.79 3.146 4.77-4.988 21.544 1.899 2.503-8.551 6.899-5.602-3.609-7.191 1.823-20.444 5.024-5.781-4.388-9.462-7.774-.229 4.699-10.411 9.106-7.308-9.556-12.356-.166-.144.144-.165 2.641-4.373-5.456-2.563-.165-.144-.011-.154-1.487-10.131-5.008 1.592-.309.022.133-.319-3.644-5.483-6.522 4.336-.298.176-.165-.144-4.462-3.874-.165-.143.133-.32 2.232-3.568-8.728-4.97-.154.01-.011-.154-12.052-19.159-8.8.618-3.069 2.697 1.103 9.072 6.479 3.888.165.143.011.154.244 7.893.011.154-.143.165-5.729 4.59-.144.165-.154.011-10.144-.839-2.497 4.208 3.118 2.417.01.155 5.982 14.468 5.942.668.155-.011.154-.011 5.905 4.548.166.144.01.154.984 7.375.022.309-.298.176-8.584 3.704-2.855 7.955.011.155-9.35 8.255.358 5.093 4.848 2.761.166.144.011.154-.041 6.051.011.155.011.154-4.087 5.87-.155.011-5.55 2.716-1.768 3.536-.144.165-.154.011-6.607.929-9.523 14.627-.143.165-.155.011-5.767-.37-5.807 5.681-.143.165-.155.011-9.726.683 2.419 5.723.176.298-.144.165-4.957 4.536 5.981 5.628.331.287-.453.187-5.208 3.157-1.706 6.633zm43.887-26.81l1.517-4.915.143-.165.144-.165.154-.011.155-.011 10.412-1.972 2.5-6.379.121-.473.122-.474.331.287.33.287 2.468 1.997 2.058-6.037-.011-.155.144-.165.154-.011.155-.011 5.173-1.449.155-.01.154-.011.165.143.166.144 6.612 3.568.165.143.165.143.022.309.021.309-.479 4.221.022.308.021.309-.308.022-.309.021-3.034.989 5.586 4.415.484.276.485.276-.441.342-.442.341-21.186 12.034-.144.165-.144.165-.165-.143-.165-.144-13.213-6.981-.32-.133-.319-.132.132-.32.244-.947z" fill="#F2F3F5"/><path d="M821.523 642.321l-1.517 4.914 13.214 6.981 21.186-12.034-6.246-4.989-.496-.431.607-.197 3.795-1.198.479-4.22-6.612-3.568-5.173 1.449-2.324 6.677-.122.473-.341-.441-2.953-2.274-2.643 6.544-.133.32-.154.011-10.567 1.983zm-92.926-200.822l-.298.176-.166-.144-4.396-2.948-10.19.716.122-.474.238-5.444-.011-.155-.01-.154 5.379-7.357 1.373-4.749-4.044-2.352-.155.011-.368-5.247-3.503-3.476-.154.011.133-.32.891-7.196-3.912-2.672-.474-.122.287-.33 5.268-6.729-3.893-26.711-7.509-9.708 3.278-1.937 7.562-7.199.144-.166.165.144 4.819.127 1.113-8.453-.011-.154 2.066-3.713.293-4.673-.011-.154.143-.165 9.34-8.41-4.527-4.8-.165-.144-.575-8.179-9.502-11.584-1.679-6.241-2.864-3.21-.165-.144.144-.165-.095-3.56-5.065 2.992-5.697 5.052-8.163 3.055-2.852 5.784-.255-8.047 15.46-18.455 8.093-17.318 3.272-15.273-13.999-13.75-12.075.383-3.901 6.322-4.721 1.262 2.825-10.589-9.968-.54 2.917-4.858-6.379-4.669-5.252 2.54-7.746 13.416 2.549 7.575-9.221 1.268.317 2.304 3.755 4.854-6.737-.922-3.169 3.479-7.817-.847-1.176-3.484-10.94 1.079.743 6.151-12.994 2.774-8.456 7.727-6.782.632-4.781 4.833-1.533 9.103 4.711 7.423-6.222 1.988-17.333-1.574-9.892.54-2.708 5.618.677 14.065 6.61 5.739 3.575 6.728-8.646.607-8.541-13.357-5.382.688.055.771 5.49 9.695.187.452-.452.187-5.041 1.13-.636 6.403 5.336 9.706.165.143-.899 4.871.022.309-.309.021-10.758 5.874-1 5.653 7.94 9.213 8.324 1.431.308-.022.022.309 2.579 10.21-.376 1.267-2.414 7.613-.132.32-.155.011-7.424 2.537 2.695 5.239.011.154.011.155-1.972 7.272 6.574 7.448.166.143.011.154-.547 14.307 5.252 6.299.165.144.011.154-1.137 10.316 7.636 4.891.011.155.165.143 1.59 7.177.165.144-.143.165-5.712 9.241-.065 7.914.011.154-.155.011-8.848 13.184.693 9.876 8.343 3.912.176.298.011.154-1.284 3.812.011.155-.143.165-7.04 3.596-6.122 1.205 3.286 9.23.011.154.011.154-2.397 3.426.347 4.938 19.516 1.731.154-.011.011.154 6.526 11.173 5.303.403.309-.022.022.309.005 4.497.011.155-.154.01-7.254 7.178 1.151 5.348 4.473 4.028 6.471 1.561.308-.021.033.463-.821 3.779.011.155-.154.011-6.579 5.735.179 6.966.021.309-.623 4.386 6.846 11.305.021.309-.143.165-2.871 3.304-2.538 1.418 3.716 8.734 5.713-.401 5.658-1.173.155-.011.165.144 3.868 2.054.32.133-.133.32-1.715 4.307 4.79 6.333.01.154 1.482 5.634 2.43 5.878.011.154.612 4.299.022.309-.154.011-4.757 2.97.271 3.858.011.155-1.438 3.823.011.154-.155.011-5.108 2.375-2.511 6.225 8.915 5.422 14.169.71 5.674-5.361-.011-.154.155-.011 3.188-.999-.074-3.252-.01-.154.154-.011 4.713-3.588-.547-3.374-.187-.452.309-.021 3.64-1.187.888-5.025-.021-.308.308-.022 18.408-2.999.634-4.232-10.995-8.533-.165-.143-.304-4.321.144-.165 4.48-2.486.154-.011 5.911.205-.188-18.132.155-.011-.011-.154 3.207-7.359-.011-.154.154-.011 6.111-1.36.877-5.179-7.024-9.432-.176-.298.144-.165 4.965-11.05.132-.32.155-.01 14.315-1.626 3.502-5.364.276-.485.352.596 6.217 11.195 3.001-1.452-1.094-6.747-.011-.154.143-.165 12.536-15.924.514-5.929-.011-.155 7.173-3.915.176.297 3.751 7.026 6.436 3.27 1.187-5.201-.011-.155 3.301-3.798-1.682-4.07-3.307-.698-.309.022-.022-.309.027-4.034.144-.165-.011-.154 4.439-5.275-1.053-3.958-6.78-1.54-.155.011-.021-.309-2.276-5.888-.176-.298.144-.165 2.938-4.549-3.28-4.732-.176-.298.287-.33 7.538-5.338 3.86-9.111-1.095-6.746-3.269-4.578-.166-.144.133-.319 2.478-6.688-1.815-3.75-.01-.154-.743-6.151-.011-.155.298-.176 5.231-2.848.154-.011 5.626-1.636 2.275-2.951-2.181-2.329-4.127 3.082zm471.653-42.28l-3.12-20.097-2.81-9.107-7.11-6.17-.07-9.92 3.2-3.016-12.53-12.613-.34-9.281 4.42-5.584-1.59-5.006-9.78-2.259-11.11-16.745 2.2-1.86 3.39 4.104 4.57-3.423-7.91-6.578-3.85 2.597-6.78-3.711-.14.165-3.8-7.643-6.64.466-.6 4.695-4.2-.17-15.66-26.35.32-8.707 5.32-1.614-5.15-15.923 9.13 6.338-1.21-19.456 6.3-7.422 10.33-1.035-6.87-13.786-4.94-30.669-6.5 2.472-.16.011-.15.011-5.13-2.276-6.76 25.134-.14.319-.31.022-10.83.45-9.81 3.792-.3.176-.19-.452-3.87-8.724-13.53 1.726-2.17 4.495.01.154-.3.176-9.11 2.812-1.36 4.903.02.309-.31.021-5.06.821-1.14 5.819.01.154-.3.176-5.74 2.264 1.49 5.634 9.34 11.595 5.33.712.16.143.01.154 4.37 9.154 5.82-1.03.16-.01.16.143 4.28 3.422.01.154 1.64 5.623 5.62 2.707 3.45-3.809-11.04-11.476 1.9-8.199 9.48-4.232-4.54 8.228 1.5 5.943 8.27 5.002 3.71-.105.08 5.577 3.62.676-2.12 16.278 3.98 5.769 2.56 18.741 3.62 11.842 4.71 11.766-4.13 5.253 1.86 4.521-2.24 3.414 6.69 6.82 1.88 11.344 9.18 9.126 10.99 10.704 58.36 33.431zm-839.337 29.49l-.154.011-12.087-8.611-4.017 2.453-.143.165-11.523-.586.155-.011-7.848-3.481-.154.011-7.501-7.382-9.009-.143-2.169 6.666 6.926 8.043.011.154.886 5.986.022.309-.309.022-10.184 5.213.249 3.549 3.107 2.263.319.133-3.082 4.714-2.562 3.282-3.155 10.302-.155.011-2.993 3.777-1.627 5.542.01.154-.154.011-3.126 4.097-.143.165-.155.011-3.098.062.366 7.419 3.385-.393.464-.033.412 5.865 7.443-.058.309-.022.021.309.602 4.145 3.296.544.155-.011.021.309.605 1.973.01.155.67 2.899 1.178 1.313 2.89-.823 5.655-7.841.144-.165.154-.011 6.894-1.26 3.979-7.413.287-.331.33.287 3.492 3.322 2.649-2.047.888-5.025-.022-.309.309-.022 7.698-.85 1.977-2.776.239-5.444-.011-.155-.011-.154 3.269-4.262-2.971-4.754-.011-.154-.128-4.024-.011-.154.298-.176 8.077-4.289 8.912-10.086 5.877-9.098.886-2.854-7.013-.438zM25.761 503.585l3.976-5.242-10.78-12.115 4.706-16.925-4.407-3.102-3.377 2.718-15.042-8.713-1.492 3.051L.62 474.799l-5.003 6.089 1.953 7.928 9.375-1.279 11.42 12.38 7.395 3.668z" fill="#F2F3F5"/><circle cx="495" cy="438" r="20" fill="#AA161D"/><path d="M495 428.833c-4.043 0-7.333 3.29-7.333 7.329-.027 5.908 7.055 10.807 7.333 11.005 0 0 7.36-5.097 7.334-11 0-4.044-3.29-7.334-7.334-7.334zm0 11a3.666 3.666 0 113.667-3.666 3.666 3.666 0 01-3.667 3.666z" fill="#fff"/><circle cx="687" cy="595" r="20" fill="#AA161D"/><path d="M687 585.833c-4.043 0-7.333 3.29-7.333 7.329-.027 5.908 7.055 10.807 7.333 11.005 0 0 7.36-5.097 7.334-11 0-4.044-3.29-7.334-7.334-7.334zm0 11a3.666 3.666 0 113.667-3.666 3.666 3.666 0 01-3.667 3.666z" fill="#fff"/><circle cx="755" cy="347" r="20" fill="#AA161D"/><path d="M755 337.833c-4.043 0-7.333 3.29-7.333 7.329-.027 5.908 7.055 10.807 7.333 11.005 0 0 7.36-5.097 7.334-11 0-4.044-3.29-7.334-7.334-7.334zm0 11a3.666 3.666 0 113.667-3.666 3.666 3.666 0 01-3.667 3.666z" fill="#fff"/><circle cx="960" cy="228" r="20" fill="#AA161D"/><path d="M960 218.833c-4.043 0-7.333 3.29-7.333 7.329-.027 5.908 7.055 10.807 7.333 11.005 0 0 7.36-5.097 7.334-11 0-4.044-3.29-7.334-7.334-7.334zm0 11a3.666 3.666 0 113.667-3.666 3.665 3.665 0 01-3.667 3.666z" fill="#fff"/><circle cx="828" cy="396" r="20" fill="#AA161D"/><path d="M828 386.833c-4.043 0-7.333 3.29-7.333 7.329-.027 5.908 7.055 10.807 7.333 11.005 0 0 7.36-5.097 7.334-11 0-4.044-3.29-7.334-7.334-7.334zm0 11a3.666 3.666 0 113.667-3.666 3.666 3.666 0 01-3.667 3.666z" fill="#fff"/><circle cx="464" cy="340" r="20" fill="#AA161D"/><path d="M464 330.833c-4.043 0-7.333 3.29-7.333 7.329-.027 5.908 7.055 10.807 7.333 11.005 0 0 7.36-5.097 7.334-11 0-4.044-3.29-7.334-7.334-7.334zm0 11a3.666 3.666 0 113.667-3.666 3.666 3.666 0 01-3.667 3.666z" fill="#fff"/><circle cx="870" cy="286" r="20" fill="#AA161D"/><path d="M870 276.833c-4.043 0-7.333 3.29-7.333 7.329-.027 5.908 7.055 10.807 7.333 11.005 0 0 7.36-5.097 7.334-11 0-4.044-3.29-7.334-7.334-7.334zm0 11a3.666 3.666 0 113.667-3.666 3.666 3.666 0 01-3.667 3.666z" fill="#fff"/><circle cx="567" cy="377" r="20" fill="#AA161D"/><path d="M567 367.833c-4.043 0-7.333 3.29-7.333 7.329-.027 5.908 7.055 10.807 7.333 11.005 0 0 7.36-5.097 7.334-11 0-4.044-3.29-7.334-7.334-7.334zm0 11a3.666 3.666 0 113.667-3.666 3.666 3.666 0 01-3.667 3.666z" fill="#fff"/><circle cx="400" cy="423" r="20" fill="#AA161D"/><path d="M400 413.833c-4.043 0-7.333 3.29-7.333 7.329-.027 5.908 7.055 10.807 7.333 11.005 0 0 7.36-5.097 7.334-11 0-4.044-3.29-7.334-7.334-7.334zm0 11a3.666 3.666 0 113.667-3.666 3.666 3.666 0 01-3.667 3.666z" fill="#fff"/><circle cx="907" cy="482" r="20" fill="#AA161D"/><path d="M907 472.833c-4.043 0-7.333 3.29-7.333 7.329-.027 5.908 7.055 10.807 7.333 11.005 0 0 7.36-5.097 7.334-11 0-4.044-3.29-7.334-7.334-7.334zm0 11a3.666 3.666 0 113.667-3.666 3.666 3.666 0 01-3.667 3.666z" fill="#fff"/><circle cx="1038" cy="473" r="20" fill="#AA161D"/><path d="M1038 463.833c-4.04 0-7.33 3.29-7.33 7.329-.03 5.908 7.05 10.807 7.33 11.005 0 0 7.36-5.097 7.33-11 0-4.044-3.29-7.334-7.33-7.334zm0 11a3.666 3.666 0 110-7.333 3.666 3.666 0 110 7.333z" fill="#fff"/><circle cx="677" cy="402" r="20" fill="#AA161D"/><path d="M677 392.833c-4.043 0-7.333 3.29-7.333 7.329-.027 5.908 7.055 10.807 7.333 11.005 0 0 7.36-5.097 7.334-11 0-4.044-3.29-7.334-7.334-7.334zm0 11a3.666 3.666 0 113.667-3.666 3.666 3.666 0 01-3.667 3.666z" fill="#fff"/><circle cx="740" cy="475" r="20" fill="#AA161D"/><path d="M740 465.833c-4.043 0-7.333 3.29-7.333 7.329-.027 5.908 7.055 10.807 7.333 11.005 0 0 7.36-5.097 7.334-11 0-4.044-3.29-7.334-7.334-7.334zm0 11a3.666 3.666 0 113.667-3.666 3.666 3.666 0 01-3.667 3.666z" fill="#fff"/><circle cx="606" cy="478" r="20" fill="#AA161D"/><path d="M606 468.833c-4.043 0-7.333 3.29-7.333 7.329-.027 5.908 7.055 10.807 7.333 11.005 0 0 7.36-5.097 7.334-11 0-4.044-3.29-7.334-7.334-7.334zm0 11a3.666 3.666 0 113.667-3.666 3.666 3.666 0 01-3.667 3.666z" fill="#fff"/><circle cx="932" cy="344" r="20" fill="#AA161D"/><path d="M932 334.833c-4.043 0-7.333 3.29-7.333 7.329-.027 5.908 7.055 10.807 7.333 11.005 0 0 7.36-5.097 7.334-11 0-4.044-3.29-7.334-7.334-7.334zm0 11a3.666 3.666 0 113.667-3.666 3.666 3.666 0 01-3.667 3.666z" fill="#fff"/><circle cx="940" cy="528" r="20" fill="#AA161D"/><path d="M940 518.833c-4.043 0-7.333 3.29-7.333 7.329-.027 5.908 7.055 10.807 7.333 11.005 0 0 7.36-5.097 7.334-11 0-4.044-3.29-7.334-7.334-7.334zm0 11a3.666 3.666 0 113.667-3.666 3.666 3.666 0 01-3.667 3.666z" fill="#fff"/><circle cx="610" cy="552" r="20" fill="#AA161D"/><path d="M610 542.833c-4.043 0-7.333 3.29-7.333 7.329-.027 5.908 7.055 10.807 7.333 11.005 0 0 7.36-5.097 7.334-11 0-4.044-3.29-7.334-7.334-7.334zm0 11a3.666 3.666 0 113.667-3.666 3.666 3.666 0 01-3.667 3.666z" fill="#fff"/><circle cx="534" cy="615" r="20" fill="#AA161D"/><path d="M534 605.833c-4.043 0-7.333 3.29-7.333 7.329-.027 5.908 7.055 10.807 7.333 11.005 0 0 7.36-5.097 7.334-11 0-4.044-3.29-7.334-7.334-7.334zm0 11a3.666 3.666 0 113.667-3.666 3.666 3.666 0 01-3.667 3.666z" fill="#fff"/><circle cx="222" cy="499" r="20" fill="#AA161D"/><path d="M222 489.833c-4.043 0-7.333 3.29-7.333 7.329-.027 5.908 7.055 10.807 7.333 11.005 0 0 7.36-5.097 7.334-11 0-4.044-3.29-7.334-7.334-7.334zm0 11a3.666 3.666 0 113.667-3.666 3.666 3.666 0 01-3.667 3.666z" fill="#fff"/><circle cx="488" cy="517" r="20" fill="#AA161D"/><path d="M488 507.833c-4.043 0-7.333 3.29-7.333 7.329-.027 5.908 7.055 10.807 7.333 11.005 0 0 7.36-5.097 7.334-11 0-4.044-3.29-7.334-7.334-7.334zm0 11a3.666 3.666 0 113.667-3.666 3.666 3.666 0 01-3.667 3.666z" fill="#fff"/><circle cx="352" cy="491" r="20" fill="#AA161D"/><path d="M352 481.833c-4.043 0-7.333 3.29-7.333 7.329-.027 5.908 7.055 10.807 7.333 11.005 0 0 7.36-5.097 7.334-11 0-4.044-3.29-7.334-7.334-7.334zm0 11a3.666 3.666 0 113.667-3.666 3.666 3.666 0 01-3.667 3.666z" fill="#fff"/><circle cx="308" cy="404" r="20" fill="#AA161D"/><path d="M308 394.833c-4.043 0-7.333 3.29-7.333 7.329-.027 5.908 7.055 10.807 7.333 11.005 0 0 7.36-5.097 7.334-11 0-4.044-3.29-7.334-7.334-7.334zm0 11a3.666 3.666 0 113.667-3.666 3.666 3.666 0 01-3.667 3.666z" fill="#fff"/><circle cx="269" cy="318" r="20" fill="#AA161D"/><path d="M269 308.833c-4.043 0-7.333 3.29-7.333 7.329-.027 5.908 7.055 10.807 7.333 11.005 0 0 7.36-5.097 7.334-11 0-4.044-3.29-7.334-7.334-7.334zm0 11a3.666 3.666 0 113.667-3.666 3.666 3.666 0 01-3.667 3.666z" fill="#fff"/><circle cx="805" cy="539" r="20" fill="#AA161D"/><path d="M805 529.833c-4.043 0-7.333 3.29-7.333 7.329-.027 5.908 7.055 10.807 7.333 11.005 0 0 7.36-5.097 7.334-11 0-4.044-3.29-7.334-7.334-7.334zm0 11a3.666 3.666 0 113.667-3.666 3.666 3.666 0 01-3.667 3.666z" fill="#fff"/><circle cx="186" cy="398" r="20" fill="#AA161D"/><path d="M186 388.833c-4.043 0-7.333 3.29-7.333 7.329-.027 5.908 7.055 10.807 7.333 11.005 0 0 7.36-5.097 7.334-11 0-4.044-3.29-7.334-7.334-7.334zm0 11a3.666 3.666 0 113.667-3.666 3.666 3.666 0 01-3.667 3.666z" fill="#fff"/></svg>