<svg width="1221" height="662" xmlns="http://www.w3.org/2000/svg" viewBox="0 0 1221.4 662.8">
<style type="text/css">
	.st0{fill:#F2F3F5;}
	.st1{fill:#AA161D;}
	.st2{fill:#FFFFFF;}
</style>
<g>
	<path class="st0" d="M957.5,137.3l-0.9,3l2.7,1.5l2.7-1.9l-1.2-3.5L957.5,137.3z"/>
	<path class="st0" d="M720.3,231.4l4.9,3.4l1.8-3.5l0.6-2.8l-2.7-1.4l-3.1-0.2L720.3,231.4z"/>
	<path class="st0" d="M712,243l1.7,1.7l4.9-3.6l-1.5-3l-3.1,0.1l-1.6,3.1L712,243z"/>
	<path class="st0" d="M823,186.8l8,0.5l0.6,3.8l-3,1.1l-3.7-2.1L823,186.8z"/>
	<path class="st0" d="M842.6,172.6l1.8,6.1l3.2-0.2l0.2-5.6l-3.4-2.4L842.6,172.6z"/>
	<path class="st0" d="M850.1,177.3l0.5,7.1l7.9-2.3l7.1-4.4l-2.9-5.7l-5-0.3l-3.8-0.5l-2.5,4.2L850.1,177.3z"/>
	<path class="st0" d="M849.9,137.5l2.7,4.9l15.3-0.9l3.9-8.5l-3.4-6l-3,3.8l-6.4-0.2l-1.5,3.1l-3.4,0.2l-0.2,3.4L849.9,137.5z"/>
	<path class="st0" d="M842.1,112.4l-0.7,3.8l3.1,0.6l0.9-3.3L842.1,112.4z"/>
	<path class="st0" d="M836.4,145.8l3.9,5.2l6.7,0.9l-0.4-7.6l-2.6-3.5l-7.8-0.1l-4,3.2l-6.3-0.6l-0.2,4.4l4,3.6l-1.8,2.5l-6.4-4.4
		l-7.1,1.1l-0.1,5.7l1,6l3.5,3.8l1.6,4.5l6.6,1.4l6.1-0.9l-0.9-6.4l4.4,0.2l3-5.8l4.2,0.5l2.4-3.1l-2.8-2.6l-6.1-1.3l-5.2-5.2
		L836.4,145.8z"/>
	<path class="st0" d="M807.5,162.1l1.4,4.6l4.3,4.5l2.5-1.3l-3.5-5.3L807.5,162.1z"/>
	<path class="st0" d="M982.8,139.8l-1.7,4.2l-10.7,7l-8.6-7l-8.1-0.2l-11.1,8.2l-7.2,10.3l-2.1,10.1l-5.1,1.9l-6.7-2.8l-6.1,1.1
		l-2.9,4.4l-2.9-2.1l-2.4,3l-3.5-2.9l4.3-5l-11,0l-5.8,5.8l4.2,11.5l-5.8,6.5l-0.6-9l-4.3,0.3l-3.9,4l-1.4-4.6l5.9-6l-6.6,0.8
		l-19,11.6l4,4.4l-5.2,5.8l2.4,3.9l3.9-2.3l0.9,5.8l5.2,5.2l-7.3,2.4l-1.9,3.2l2.3,4.6l-5.9,1.5l-8.4-1.9l-1.7,9.3l-13.9-1.5
		l1.4,20.1l-9.8-0.9L809.8,238l5.1-4.2l-10.1-12.9l-6.1-2.4l-8.6,3.7l-10.2-3.2l-0.3,15.4l-17.4,9l-7.3-4.1l0.8-3.8l-18.4,1.1
		l-4.3,6.8l-0.9,4.3l-1.7-6.1l-3.6-2.8l-3.7,4.4l-5.5,3.2l0,3.9l2.9,3.4l0.2,0l0,0.2l1.7,6.1l9.3,11.6l0.2,0.1l0,0.2l0.6,7.9
		l4.7,4.9l0.3,0.3l-0.3,0.3l-9.5,8.7l-0.3,4.7l0,0.2l-2.2,3.7l-1.1,8.6l-0.1,0.5l-0.3-0.1l-5-0.1l-7.4,7l-0.2,0l-2.5,1.6l7,9.1
		l0,0.2l4.1,26.9l0,0.2l0,0.2l-5.1,6.6l3.7,2.5l0.3,0.1l-0.1,0.3l-0.9,7.2l3.5,3.3l0,0.2l0,0.2l0.3,4.9l4,2.4l0.3,0.1l-0.1,0.3
		l-1.5,5.1l0,0.2l-5.4,7.4l-0.1,5l9.4-0.7l0.2,0.1l4.2,2.8l4.3-3.1l0.3-0.3l0.2,0.3l2.7,2.9l0.2,0.3l3.6,4.6l0.2,0.3l-0.3,0.3
		l-3.4,2.6l0.3,4.3l4,0l3.2-2.7l0.3-0.2l0.2,0.3l4.7,7.7l0,0.2l0.4,9.6l5.6,2.6l0.2,0.1l0,0.3l-1.8,10.1l3.6,6.4l6.9,1.7l0.3,0
		l-0.1,0.5l-4.3,12.4l0,15.2l5.6,5.2l5.3-4.7l0.1-0.2l0.2,0l8.5-0.9l2.6-5.6l0.3-0.5l0.3,0.4l4.9,4.1l5.4-7.4l8-20.7l0-0.2l0.3,0
		l6.1-1.5l0.2,0l12.5,4.1l0.2,0l0.2,0.1l3.2,7.8l7-3.9l0.2,0l0.2,0l4.7,2.9l0.2,0l0,0.2l9.5,17.9l12,18.9l6.3-4.8l0.2,0l6.8-3.3
		l0.1-0.2l0.2,0.1l5.7,3.9l2.6-2.8l0.3-0.2l0.2,0.3l4.6,3.6l3.6-4.1l0.1-0.2l0.2,0l9.7-0.4l0.2,0l0.2,0.1l6.3,4.2l11.6-5.2l0.3-0.2
		l0.2,0.1l4.2,3l15.8-8.6l0.1-0.2l0.2,0l4.7,0.8l5.1-2.4l-0.9-3.8l-0.2-0.1l0.3-0.2l12.2-7.5l-3.7-8.7l-0.2-0.1l0.1-0.3l4-4.8
		l-2-4.4l-8.6-4.7l-0.3-0.3l0.1-0.3l3.7-8.5l-8.4-5l-0.3-0.1l0.3-0.3l3.4-4.6l-1.3-18.4l0-0.2l0.1-0.2l15.3-7l0.1-7.1l0-0.3l0.3,0
		l9.2-1.3l1.6-5.9l-0.7-6l0-0.2l0.3-0.2l4.3-2.5l-4.2-11.6l-6.5-3.9l-0.3-0.1l0.1-0.3l3-14.8l-6.6-14.6l-0.2-0.3l0.1-0.2l2.8-4.2
		l0.1-0.3l0.3,0.1l11.2,2.9l7-2l2.2-4.3l0-0.2l0.1-0.2l8.3-1.8l1.2-5.4l-15.9-27.7l0-0.2l0-0.2l0.9-7l0-0.2l0.1-0.2l8.8-7.1
		l-3.9-6.6l-0.2-0.1l0.1-0.3l8.4-9l0.1-0.2l0.2,0l8-1.3l4.1-5.4l0.3-9l-5.6-4.3l-0.2-0.1l0-0.2l-0.7-5.8l-3.6-4.7l-0.2-0.3l0.1-0.2
		l3.8-4l-4.7-4.8l-0.2-0.1l0.1-0.3l9.8-10.3l4.6-2.3l3-5.3l-7.4-13.1l-8.2,0.6l-0.2,0l-6.7-2.3l-0.2-0.1l0-0.2l-4-8.4l-0.2-0.1
		l0.1-0.2l12-16.4l-0.5-7.6L982.8,139.8z"/>
	<path class="st0" d="M996.1,38l9.4,9.6l1.7-2l1.6-12.1l2.4-5.8l-3.4-3.9l-8,1.2l-4.1,7.4L996.1,38z"/>
	<path class="st0" d="M1137.5,132.1l-3.5-21.6l-6.3-3l13.5-10.9l-2.5-6.5l-26.7-0.4l-2.9,4.5l-7.2,1l-0.4,5.8l-5.9-0.1l-0.5-7.7
		l6.5-2.8l2.2-5.6l-2.4-14.3l-2.7-0.7l-3.1,2.2l-0.5-5.2l-6.2,2.8l-4.5-4.5l1-8l5.6,4.3l2.9-2.5l4.8,4.5l2.2-6.2l-1.1-7.2l4.5-4.3
		l8.5,0.2l13.3-11.6l-3.7-3.8l7.2,0.4l-0.8-6.8l-7.5,1.9l-2.7-4.6l-10.3-1.3l3.7-5.4l-5.5-3.5l4.5-3.7l-6.6-7.4l-16.4,11.2l-0.3,8.4
		l-4.2,6.3l11.8,3.8l-6,3.2l-18.9-3.6l-20.6,15.7l-31,19.9l-7.7,14.7l1.1,4.3l-5.8,2l-7.7,8l6.4,6.8l5.1-1.9l8,3.9l-0.2,7.9
		l-7.2,1.3l-4.6,3.1l-10.8-5.8l0.9,13.1l-9.9,8.6l-3.5,8.2l18.4,11.7l0.2,0.1l0,0.2l0.6,7.9l0,0.2l-0.1,0.2l-11.9,16.2l3.8,8.1
		l6.4,2.2l8.3-0.6l0.3,0l0,0.3l3.9,6.6l5.5,0.4l0.1,0l0.2,0.1l3.8,5.9l7-3.9l0.1-0.2l0.2,0.1l6.9,1.7l4.9-5l0-0.2l0.2,0l8-1.2
		l5.4-6.6l-1.5-5.9l0-0.3l0.3,0l5.9-2.4l1.1-5.8l0.1-0.2l0.2,0l5-1l1.4-4.9l0-0.2l0.3-0.2l9.1-2.8l2.2-4.5l0.1-0.2l0.2,0l14-1.9
		l0.3,0l0,0.3l4,8.7l9.5-3.8l0.1,0l10.7-0.4l6.9-25.3l0-0.5l0.5,0.1l5.4,2.4L1137.5,132.1z"/>
	<path class="st0" d="M1211.2,238.2l3.3,2.9l5.8-5.4l-2.7-0.4L1211.2,238.2z"/>
	<path class="st0" d="M1194.3,372.3l0.6,2.3l3.2,1.8l1.1-3.8l-1.9-2.7L1194.3,372.3z"/>
	<path class="st0" d="M1203.5,367.1l-0.3,2.2l3.3,1.2l1.7-2.1l-3.5-2.7L1203.5,367.1z"/>
	<path class="st0" d="M1201.9,372l-0.3,9.5l4,4.4l3.3-1.8l-1.4-9.2l-2.8-2.1L1201.9,372z"/>
	<path class="st0" d="M1208.4,392.4l-0.2,3.6l1.8,3.3l4.2-2.3l0.5-2.2L1208.4,392.4z"/>
	<path class="st0" d="M1215.9,419.3l-1.3,3.2l2.6,3.2l2.7-3l-2.1-3.3L1215.9,419.3z"/>
	<path class="st0" d="M1217.7,464.8l-2.7,3l0.6,5.9l0.6,6.2l0.3,2.8l2.9-0.2l2-7.1l-1.1-6.7L1217.7,464.8z"/>
	<path class="st0" d="M1210.8,488.3l2.9-0.2l1.2,3.9l-1.9,3.4l-2.5,4.2v4.5l-0.4,5.5l-0.2,4.2l-1.4-0.5l-1.6-7.2l-0.9-8.9l3.4-4
		l1.9-1.8L1210.8,488.3z"/>
	<path class="st0" d="M1203.5,536.9l1.5-0.9l-0.3-10.4l1.7-2.3l0.1-2.6l-1.9-1.1l-2.8,1.6l-1.6,1.4l1.9,4.5l-0.2,5.9L1203.5,536.9z"
		/>
	<path class="st0" d="M1213.9,525.7l1.1,2.1l2.9-1.3l-0.8-3l-1.9-2.2l-1.4,1.8L1213.9,525.7z"/>
	<path class="st0" d="M1135.5,222.5l-2,7.3l9.7,9.4l0.2-14.6l-4.9-1.8L1135.5,222.5z"/>
	<path class="st0" d="M1196.2,244.6l2.7,3.5l8.9,0.8l3.6-2.1l-2.4-3.7l-6.7-0.3L1196.2,244.6z"/>
	<path class="st0" d="M1039.5,335.5l5.2-3.9l3.3-3.3l5-1.6l-2.4-10.1l8.8-3.6l6.4-6.5l6.3-0.6l-4.2,7l4.6,3.6l6-7.7l0.9-11.7
		l5.6-2.6l4.2-6.3l-5-3.4l-3.8,5.5l-4.8-3.9l-2.7-20.6l-4.7-12.1l0.6-9.2l6.8-11.2l4.2-0.4l1.6-6.2l9.5,11.3l5.9-1.5l0.2-4.5l-2-8.9
		l-2-6.4l-6.1-2.8l-0.2-0.1l0-0.2l-1.5-5.6l-4.1-3.3l-6,1l-0.3,0l0-0.3l-4.4-9.2l-5.2-0.7l-0.2,0l-0.2-0.1l-9-11.5l-5.4,6.6l-0.2,0
		l-0.2,0l-8,1.2l-4.9,5l-0.1,0.2l-0.2,0l-7.1-1.8l-7.2,4.2l-0.3,0.2l-0.2-0.3l-4-6.1l-4.8-0.4l3.5,6.3l0.2,0.1l-0.1,0.2l-3.3,5.7
		l-0.1,0l-4.5,2.3l-9.5,10l4.7,4.8l0.2,0.3l-0.1,0.2l-3.8,4l3.6,4.6l0,0.2l0.7,5.8l5.6,4.3l0.2,0.1l-0.2,0.2l-0.1,9.3l0,0.2l-0.1,0
		l-4.3,5.7l-0.1,0.2l-0.2,0l-8,1.3l-8.1,8.8l4,6.5l0.2,0.1l-0.3,0.3l-9,7.3l-0.9,6.7l15.6,27.4l6-4.6l0.1-0.2l0.2,0.1l14.7,3.6
		l0.2,0.1l0,0.2l2.3,7.8l0,0.2l-0.1,0.2l-3,6.4l3,4.9l5.4-4.6l0.2,0l7.3-0.5l0.3,0l0.2,0.1L1039.5,335.5z"/>
	<path class="st0" d="M1067.6,579l0.9,23.5l4.7,7l-16.4,2.5l-4.6,12.3l16.4,14.7l0.9,5.8l7.9-8.6l14.5-0.9l9.9-9.2l5.3-12.9
		l0.7-34.5l2.9-18.2l-4.3-20.8l-4.3-0.9l-0.2,0l-0.2-0.1l-1.3-5l-7.3-4.5l-7.3,6.4l5,4.6l7.3,0.1l0.5,0l-0.1,0.5l-0.8,11.4l-0.1,0.3
		l-0.3,0l-5.1,0.5l1.3,7.2l0,0.3l-0.1,0.2l-7.1,5.5l-0.2,0l-0.2,0l-12.1,1.8l-2.8,4.2l2.8,4.5l0.2,0.5l-0.5,0.2L1067.6,579z"/>
	<path class="st0" d="M1059,554.1l6,8.4l-1.6,6.6l3.9,9.2l5.6-1.6l-2.7-4.5l0-0.2l0.2-0.2l2.9-4.5l0.1-0.2l0.2,0l12.1-1.8l6.9-5.3
		l-1.3-7.4l-0.2-0.3l0.5,0l5.2-0.7l0.8-10.8l-7,0l-0.2,0l-0.2-0.1l-5.3-5.1l-0.3-0.3l0.3-0.3l7.9-6.8l0.1-0.2l0.3,0.1l7.5,4.7l0.2,0
		l0,0.2l1.4,4.9l3.8,0.8l0.2-23.9l-3.1-7.2l-13.4-22.9l-4.2-4.4l-4.6-16.6l-2.7-5.4l-0.8-0.9l-9-2.9l-3.3-3.3l2.3-5.4l-6.5-2.2
		l-13.8-1.5l-10.1,6.1l-2.4,16.1l-4.9-5.2l-4.6,6.8l-5-12.1l-8.4,6l-7.7-0.7l0-7l8-24.9l0.6-24.4l2-11.8l-3-9.6l2.6-8.9l-2-9.2
		l18.8-21.3l6.6,0.6l0.5-2.4l-2.1-2.6l2.8-2.2l-4-5.8l-7,0.5l-5.6,4.7l-0.4,0.3l-0.2-0.5l-3.2-5.5l-0.2-0.1l0.2-0.2l3-6.4l-2.1-7.6
		l-14.2-3.5l-6,4.6l-1.2,5.7l-0.1,0.3l-0.2,0l-8.4,1.8l-2,4.5l-0.1,0.2l-0.2,0l-7.1,2.1l-0.2,0l-0.2,0l-11.1-2.9L966,332l6.6,14.7
		l0,0.2l-3,14.6l6.3,3.9l0.2,0l0,0.2l4.4,12.1l0.2,0.3l-0.3,0.2l-4.5,2.5l0.7,5.7l0,0.2l-1.7,6.2l-0.1,0.2l-0.2,0l-9.2,1.3l-0.1,7.1
		l0,0.2l-0.1,0.2l-15.2,7l1.3,18.1l0,0.2l-0.1,0.2l-3.3,4.4l8.3,4.8l0.3,0.1l-0.1,0.3l-3.7,8.6l8.4,4.5l0.2,0.1l0,0.2l2.2,4.5
		l0.2,0.3l-0.1,0.2l-4,4.9l3.7,8.4l12.2-7.5l0.1-0.2l0.3,0.3l4.5,4.2l0.2,0.1l-0.1,0.3l-5.2,13.9l1.1,6.4l0,0.2l-0.1,0.2l-4.4,2.9
		l0.7,5.4l10.3-0.7l0.3,0l0,0.2l5.3,6.8l5.2-0.7l7.9-8.5l1-5.8l0-0.3l0.3,0l6.3-0.4l1.7-4.2l0.1-0.2l0.3,0l4.5,0.3l0.2,0.1l0.2,0.1
		l5.1,12.5l0,0.3l-0.1,0.2l-2.6,3l-0.2,0l-10.2,2.4l3,5.2l0.2,0.3l-0.1,0.2l-3.9,4.8l-0.7,5.8l0,0.2l0,0.2l-5.5,7.4l2.7,3.1l0.3,0.3
		l-0.3,0.2l-3.6,5.7l0.5,6.6l11.3,4.6l0,0.2l9.7,11.6l5.2-5.6l0.2,0l0.2,0l11.7-0.7l0.2,0l5.6,4l15.4-6.5l0.6-0.2l-0.1,0.6
		L1059,554.1z"/>
	<path class="st0" d="M1015.3,568.1l6.7,9.1l6.7,5.1l13.3-7.6l1.5-5.7l9.4-12.3l5.5-2.9l1-6.1l-14.9,6.3l-0.2,0l-0.2-0.1l-5.5-3.8
		l-11.6,0.5l-5.2,5.8L1015.3,568.1z"/>
	<path class="st0" d="M903.1,540l13.3-7.9l10.7,2.8l12.5-2.9l19.8,17.1l24.7,22.2l8.8-4.3l5.7,2.2l4-2.3l7.7,1.9l4.1-0.9l6.5-11.5
		l-9.7-11.6l-11.5-4.8l-0.2-0.1l0-0.2l-0.5-6.9l0-0.2l0.1-0.2l3.5-5.5l-2.7-3.1l-0.3-0.3l0.3-0.2l5.7-7.7l0.5-5.9l0.1,0l0-0.2
		l3.7-4.6l-3-5.5l-0.3-0.4l0.5,0l10.5-2.4l2.4-2.8l-4.9-12.1l-4-0.3l-1.7,4l-0.1,0.3l-0.2,0l-6.3,0.4l-1,5.7l0,0.2l-8.2,8.6l0,0.2
		l-0.2,0l-5.5,0.7l-0.2,0l-0.2-0.1l-5.3-6.8l-10.5,0.7l-0.5,0l0-0.5l-0.7-5.8l0-0.2l0.1-0.2l4.4-2.9l-1.1-6.3l0-0.2l0-0.2l5.2-13.7
		l-4.2-3.9l-24.5,15.1l0.9,4l0,0.3l-0.3,0l-5.3,2.5l-0.2,0l-0.2,0l-4.9-0.7l-16,8.7l-0.1,0.2l-0.2-0.1l-4.2-3l-11.7,5.2l-0.1,0.2
		l-0.2-0.1l-6.5-4.3l-9.4,0.4l-3.7,4.3l-0.3,0.3l-0.3-0.3l-4.4-3.6l-2.8,2.7l-0.1,0.2l-0.3-0.1l-5.7-3.9l-6.5,3.1l-6.2,4.8l8.6,4.8
		l0.3,0.3l-0.1,0.3l-2.2,3.6l4,3.6l6.7-4.3l0.3-0.2l0.2,0.3l3.7,5.6l5.3-1.6l0.3-0.2l0.2,0.5l1.5,10.3l5.5,2.7l0.5,0.1l-0.3,0.3
		l-2.6,4.5L903.1,540z"/>
	<path class="st0" d="M1078.6,458.5l-0.4-0.6l12.3,5.6l4.6,9.8l6.4,7l7.7,10.8l5.7,8l6.2,4.1l2.2,5l1.9,4.7l7.5,2.9l1.6,7.2l8.1,8.9
		l0-8.2l-1.5-6.3l5.8-0.9l2.1-1.1l5.8,2.4l-5.1-8.9l-6.5,0.5l-7-2.5l-8.3-5.2l-6-12.6l-3.3-8l5.8-3.8l11.2-1.4l-26.5-15.4l-19-14.9
		l-9.4-14.8l-11.8-7.1l-5.7-6.3l-3.5,1.8l-0.6,3.9l7,4.2l4.1,5.1l-1.8,2.8l-3.3-0.5l-0.8,4.7l6.8,4.5l7.5,14.2l-0.5-0.3
		L1078.6,458.5z"/>
	<path class="st0" d="M108.3,437.2l1.8,3.1l0.4,7.4l5.3,2.4l3.9,2.1l3.2-2.6l0.1-0.2l0.2,0l5.1,0l5.3-3.8l0.3-4.1l0-0.5l0.3,0
		l6.2,0.5l3.2-1.3l0.3,0l0.2,0.1l2.7,4.8l5.5,1.5l1.2-1.2l0-6.1l-3.7-2.4l-0.2-0.1l0-0.2l-0.6-3.8l-2.3-2l-3.6-2.2l-0.2,0l0-0.3
		l0.1-5.9l-7.2-4.8l-0.2-0.1l0-0.2l-0.9-4l-2.7-0.9l-0.2-0.1l0-0.3l-0.2-2.5l-1.2-1.8l-3.9,0.1l-0.5,1.6l0,0.2l-0.3,0l-1.5,0.4
		l-0.2,0l-0.2-0.1l-1.2-1.2L121,409l-2.3,2.5l0.3,4.2l0,0.2l0,0.2l-1.4,2.1l1.3,0.8l0.2,0.1l0,0.2l0.3,2.2l0,0.3l-0.3,0l-2.8,0
		l-1.1,2.1l1,3.6l0,0.2l0,0.2L108.3,437.2z"/>
	<path class="st0" d="M92.1,397.4l-2.5,3.9l-1.4,2.3l0.8,3l3.2,1.2l-0.1,4.7l8.1,4.2l0.8,8.9l6.8,11l7.7-9.1l-1-3.6l0-0.2l0.1-0.2
		l1.1-2.2l0.1-0.3l0.2,0l2.6,0l-0.3-1.5l-1.5-1l-0.3-0.1l0.3-0.3l1.4-2.4l-0.3-4.2l-5.9-5.2l-5.5-0.9l-0.2,0l-4.2-2.3l0-0.2
		l-0.2-0.1l-1.2-3.2l-2-0.2l-1.9,1.2l-0.1,0.2l-0.2-0.1L92.1,397.4z"/>
	<path class="st0" d="M96.2,377.4l-3.3,1.8l-1.5,3.4l-2.3,0.8l0,4l3.7,1.8l-0.4,7.5l4.4,3.3l1.8-1.2l0.2,0l2.3,0.3l0.3,0l0,0.2
		l1.3,3.3l3.9,2.2l5.6,0.8l0.2,0l0,0.2l5.9,5.2l2.3-2.3l0-0.2l0.2,0l2-0.1l0.2,0l0.2,0.1l1.2,1.2l1.1-0.2l0.5-1.6l-2.7-3.1l0-0.2
		l0-0.2l-0.5-3.2l-2.7-0.6l-0.2-0.1l-0.2,0l-0.9-1.6l0-0.2l0-0.2l-0.2-2.6l-1.4-1.6l0-0.2l-0.4-5.9l-9.6-11L96.2,377.4z"/>
	<path class="st0" d="M106.6,349.7l-5.6-0.1l-4.3-3.6l0.2-3.6L93,342l-1.8,5.6l-7.6,7.4l0.9,4.4l4.2-0.4l3.4,2.4l1.6,5.5l3.5-0.7
		l4.4,0.6l0.2,2.8l-4.9,7.3l10.1-0.4l11.9-10l-1.2-1.5l0-0.2l-0.1-2l0-0.2l0.1-0.2l1.3-1.6l0.2,0l1.9-1.4l-0.3-1.7l-2.6,0l-1.2,1.2
		l-0.3,0.2l-0.2-0.1l-2.2-1.1l-0.2,0l0-0.2l-1.6-2.5l-0.2-0.1l-0.2-2.5l0-0.2l1.1-2.4l-5.9,0.1l-0.2,0l0-0.2L106.6,349.7z"/>
	<path class="st0" d="M121.8,314.4L121,316l-6.4,4.3l-3,5.8l-3.2,7.7l0.1,6l1.2,3.5l-2.4,3.4l0,2.6l0.2,0l6.4,0l2.5-1.4l0.2,0l5-0.2
		l2.6-2.8l0.2,0l0.2,0l3.7-0.1l0.2,0l0.2,0.3l1.9,5.3l1.3-1l0.2,0l2.8,0.3l0.2,0l0.2,0.1l1.5,1.8l7.1-1.1l4.1-3.1l4.3-7.3l0-1.6
		l-3.5-3.8l-0.2-0.1l-0.7-3.7l-8.1-0.8l-0.2,0l0-0.2l-4.1-2.5l-0.2,0l0-0.2l-5.9-9.4l-1.8-3.7l-1.6-0.8l-3.2,1.2l-0.2,0L121.8,314.4
		z"/>
	<path class="st0" d="M107.7,376.8l9.6,10.8l0.2,0.1l0,0.2l0.4,5.9l1.3,1.5l0,0.2l0,0.2l0.2,2.8l0.7,1.5l2.8,0.6l4-0.1l1.1-2.2
		l0-0.2l0.2,0l7.3-6.7l0.3-6.4l-3.6-2.8l0-0.2l-2-3.6l-0.2,0l0-0.2l-0.1-6.3l-10.6-4.7L107.7,376.8z"/>
	<path class="st0" d="M135.9,391.7l-7.1,6.7l-1.2,2.4l0,0.2l-0.3,0l-3.9,0.1l0.4,2.9l2.7,3.2l4.2-0.1l0.2,0l0.2,0.3l1.2,1.9l0.2,0.1
		l0.2,2.5l2.6,1.1l0.2,0l0,0.2l1.1,4.1l6.8,4.6l3.1-1.8l0.8-2.1l-0.8-3.2l-1.1-1.8l0-0.2l0.1-0.2l1.1-2.6l0.1-0.2l0.2,0l5.4-3
		l3.2-3.3L155,400l-0.9-2.4l-3.1-2.1l-0.2,0l0-0.2l-1.1-2.6l-3-0.1l-4.2,2.5l-0.2,0l-0.2,0l-3.1-0.1l-0.2,0l-0.2-0.1L135.9,391.7z"
		/>
	<path class="st0" d="M156,403.3l-0.1,0.5l0,0.2l0,0.2l-3.3,3.5l-5.5,3l-1.1,2.2l1.1,1.8l0.9,3.4l0,0.2l-0.1,0.2l-0.8,2.2l0,0.2
		l-0.2,0l-3.3,1.8l0.1,5.7l3.4,2.2l2.5,2l0.2,0.1l0,0.2l0.6,3.8l3.6,2.2l4.9-1.1l9.5-5.8l1.1-1.9l-0.4-8.2l0.5-5.8l0-0.2l4.1-5.4
		l-3.8-3.6l-1.9,1.5l-0.2,0l-1.8,0.6l-0.1,0.2l0-0.2l-2.9-1.3l-0.2-0.1l-2.8-4.3L156,403.3z"/>
	<path class="st0" d="M130.8,371.6l0.1,6.3l1.9,3.4l3.6,2.8l0.2,0.1l0,0.2l-0.5,6.5l3,3.2l3,0.1l4.3-2.5l0.2,0l3,0.1l0-1.7l0.1-0.2
		l1.8-2.9l3.7-4.6l-0.2-2.6l0-0.2l0.1-0.2l2.1-2.6l-0.8-4.9l-3.1-1.5l0-0.2l-0.2,0l-1.4-2.5l-6.2,0.7l-1.3,1.8l-0.3,0.3l-0.2-0.1
		l-5.6-2.9l-1.6-0.4L130.8,371.6z"/>
	<path class="st0" d="M155.8,383l-3.6,4.6l-1.8,2.9l-0.2,1.7l1.1,2.7l3.3,2.1l0.2,0.1l1,2.6l0,0.2l0.2,2.6l4.2-0.1l0.2,0l0.2,0.1
		l2.8,4.5l2.6,1.2l1.5-0.6l2.2-1.6l0.3-0.2l0.2,0.1l4.2,4l2.7,0.7l2.3-0.3l7.2-7.5l4-3.1l-1.1-2.6l-2-4.2l-8.8-12.7l-4.8,0l-1.6,1.7
		l-0.1,0.2l-0.3-0.1l-1.9-1.1l-2.1-1.2l-0.9,0.8l0,0.2l-0.2,0l-3.2,1l-0.1,0.2l-0.2-0.1l-1.9-0.6l-1.3,1.3l-0.2,0L155.8,383z"/>
	<path class="st0" d="M151.9,367.2l1.1-1.5l1.7-2.9l-0.4-6.2l-3-1.3l-0.2-0.1l-2.4-3.4l-0.9-3.5l-3.8,2.8l-0.2,0l-7.4,1.3l-0.3,0
		l-0.2-0.1l-1.5-1.9l-2.3-0.1l-1.6,1l-0.4,0.3l-0.2-0.5l-1.9-5.4l-3.4,0.1l-2.5,2.7l-0.1,0.2l-0.2,0l-5.1,0.2l-2.4,1.3l-1.2,2.7
		l0.2,2.2l1.6,2.4l1.9,1l1.2-1l0.1-0.2l0.2,0l2.9-0.1l0.3,0.1l0,0.2l0.5,2.3l0.2,0.1l-0.3,0.2l-2.2,1.6l-1.1,1.5l0.1,1.7l1.2,1.6
		l10.6,4.7l6.4-4.2l0.1-0.2l0.2,0.1l1.7,0.3l5.3,2.7l1.3-1.6l0.1-0.2l0.2,0L151.9,367.2z"/>
	<path class="st0" d="M148.4,347.6l0.9,3.8l2.4,3.2l3.1,1.5l0.3,0l0,0.3l0.5,6.5l0,0.2l-0.1,0.2l-1.7,2.8l-1.1,1.6l1.4,2.4l3.2,1.6
		l0.2,0.1l0,0.2l0.8,5.2l0,0.2l-0.1,0.2l-2.1,2.6l0.2,2.3l3.4-0.5l1.3-1.3l0.1-0.2l0.2,0.1l2.1,0.6l3.2-1l1-0.8l0.1-0.3l0.3,0.1
		l2.1,1.4l1.8,1l1.4-1.5l0.1-0.2l0.2,0l5,0l1.6-3.1l1.1-3.6l-1.3-1l0-0.2l-2.5-2.6l0-0.2l-2.2-5.3l0-0.2l0-0.2l1-3.9l0.1-0.2
		l3.8-5.1l2.3-2.5l0.4-3l-3.5-3.6l-7.7,0.7l-0.2,0l-0.2-0.1l-8.9-4.8l-0.2-0.1l0-0.2l-0.1-3.3l-1-0.6l-0.9,1l-0.1,0.2l-7.3,1.4
		l0.1,0.8l-0.1,0.2L148.4,347.6z"/>
	<path class="st0" d="M182.4,352.8l-1.9,2l-3.7,5.1l-1,3.8l2.1,5.1l2.4,2.6l1.5,1.1l0.2,0.1l0,0.3l-1.1,4l0,0.2L179,380l8.6,12.6
		l5.2-3.6l0.1-0.2l6.9-0.6l7.1-5l-1.9-4.4l-7.9-8.9l-3.8-1.3l-0.2,0l0-0.2l-3-2.7l-0.2-0.3l0.1-0.2l1.8-2.9l0.7-3.5l-1.8-1.6
		l-3.5,3.2l-0.3,0.3l-0.3-0.3l-3.7-3.5l-0.2-0.1l0-0.2L182.4,352.8z"/>
	<path class="st0" d="M192.8,357.9l0.5,0.4l0.2,0.1l0,0.2l-0.7,3.9l-0.2,0l-1.7,2.8l2.7,2.6l3.8,1.3l0.2,0l0,0.2l8.1,8.9l0,0.2
		l0.2,0l1.9,4.4l2.3-0.6l1.7-2.8l0.1-0.2l0.2,0l4.5-0.6l0.2,0l0.2,0.1l1.8,1.4l2.7-1.7l0.2-9.8l-4.7-2.2l-0.2-0.1l0-0.2l-0.6-4
		l-2.1-1.7l-3.2,1.3l-0.2,0l-0.2,0l-11.2-5.1L192.8,357.9z"/>
	<path class="st0" d="M203.9,358.1l6.7,2.9l3.3-1.3l0.1-0.2l0.2,0.1l2.5,2l0.2,0l0,0.2l0.4,4l4.7,2.2l0.3,0.1l0,0.2l-0.2,9.9
		l13.4-0.8l1.5-1.2l0.1-0.2l0.2,0l4.3-0.1l0.3,0l0,0.3l1.5,3.3l3.7,1.3l0.2,0l3.3,2.9l4.4-5.3l0.1-0.2l0.2,0l12.1-0.5l-0.4-7.6
		l0-0.2l0.1-0.2l2.1-2.6l-2.8-2.4l-6.2,2l-0.2,0l-0.2,0l-10-4.9l0-0.2l-0.2,0l-6.5-10.2l-9-4.6l-13.3,0.3l-4.3,3.4l-0.1,0.2l-0.2,0
		l-5.1,0.5l-1.4,2.6l-0.2,0L203.9,358.1z"/>
	<path class="st0" d="M183.2,348.2l5.5-2.9l-1-2.7l0-0.2l1-9.7l0.1-0.3l0.3,0l5,0l5.8-6.5l-1.3-7.2l-6,0.4l-0.1,0.5l-0.5-0.4
		l-7.2-5.5l-4,0.4l-0.1,0.2l-0.2-0.1l-5.1-3.7l-0.2-0.1l-1-3.5l-3.7-2.2l-1.3,1l-0.4,3.3l0,0.5l-0.3-0.1l-9,0l-0.2-0.1l-3.1-2.4
		l-8.8-1.7l-0.2,0l-4.9-2.9l0-0.2l-2.6-2.1l-2.2,2.5l-1,5.8l0,0.2l-2.4,4l0,0.2l-0.2,0l-5.9,1.7l1.8,3.4l5.8,9.2l3.9,2.5l8.4,1
		l0.3,0l0,0.3l0.7,3.7l3.7,3.8l0,0.2l0,0.2l0,0.5l6.9-1.4l0.9-1l0.3-0.2l0.2,0l1.6,0.7l0.2,0.1l0,0.2l0.1,3.4l8.6,4.7l7.9-0.7l0.2,0
		l0.2,0.1L183.2,348.2z"/>
	<path class="st0" d="M220.1,346.7l-5.1-4.3l-0.2-0.1l0-0.3l1.4-6.9l-3.9-4.2l-3.1,0.4l-0.2,0l-0.2,0l-8.6-4.7l-5.8,6.5l-0.1,0.2
		l-0.2,0l-4.8,0l-1,9.4l1,2.7l0.2,0.3l-0.3,0.2l-5.8,3.2l-0.4,3l0.6,4.6l3.3,3.2l3.5-3.3l0.3-0.2l0.3,0.3l1,0.9l7-1.4l0.2,0l0,0.2
		l3.7,1.6l6.2-4.5l1.4-2.6l0.1-0.2l0.2,0l5.2-0.5L220.1,346.7z"/>
	<path class="st0" d="M221.3,491.5l0,4.7l2.9,5.5l2.7-0.7l1.9-2l4.5,1.7l-0.1,2.8l-0.9,2.7l1.5,1.6l4.1,1.1l1.9,5.4l2.2,7l-1.5,4.6
		l2.1,3.4l4.4-3.1l2.1,0.5l1.6,2.8l1.3,5.2l3.3,2.1l3.4-2.7l3.6-0.1l6.5,2.5l0.1,2.9l1.6,2.4l3.3,0.4l2.4-3.1l3,2.7l3.9,1.9
		l-0.4,5.8l1,3.2l3.8,3.8l3.2,0.7l3-2.1l2.4,0.8l2.1,3.4l7.6,1.9l3.1-2.7l2.9-4.9l-6.6-12.1l-0.5-0.3l-0.2,0l0-0.2l-1.5-3.6
		l-0.2-0.3l0.3-0.2l2.9-2.7l0.5-2.2l-1.6-3.3l-8.2-1.9l-3.6,1.3l-1.7,4.6l0,0.3l-0.3,0l-4.8-0.1l-0.2-0.1l-0.2,0l-4.6-4.2l-8.3-1.3
		l-0.2,0l-0.2-0.1l-1.9-3.3l-0.2-0.3l0.1-0.2l3-3.6l-2.1-1.9l-0.2-0.1l0-0.2l0-2.2l0-0.3l0.3,0l2.9-1.1l0-5l-4.1,0.6l-1.9,1.4
		l-0.6,0.5l0-0.6l-1.2-5.8l0-0.3l0.3-0.2l1.8-0.9l-0.1-3.4l-2-2l-0.2-0.1l0-0.2l-0.3-8.2l-2.5-3.1l0-0.2l-0.8-11l-2.7-4.8l0-0.2
		l0.8-4.6l-3.2-3l-0.1,0.5l0,0.2l-1,5l-0.2,0l-0.9,2.2l0,0.2l-0.2,0l-8.3,5.4l-1.7,4.2l-0.1,0.2l-0.2,0l-5.7,2.3l-3.1,0.7l-5.7,5.7
		l-0.2,0l0,0.2l-8.8,1.2L221.3,491.5z"/>
	<path class="st0" d="M178.6,490.9l4.1,3.4l0,4l-0.9,3.3l2.4,3.9l4.3-2.3l2-4.6l2.4-3l6.3,0.8l3.2-3.2l2.5-0.3l1.9,1.3l6.2-0.7
		l4.5-1.6l3-1l0.1-0.2l0-2.8l-0.5-2.3l-3.4-4.3l0-0.2l0.1-5.4l-3.9-4.1l0-0.2l-1.7-5l-0.4-2.9l-3-0.7l-8.8-4l-0.3-0.1l0-0.2
		l-0.3-4.6l-8.6-0.8l0-0.2l-9.3-4.5l-0.2-0.1l0-0.3l-0.2-2.8l-1.4-2.1l-4.4-0.2l-0.2,0l-0.2-0.1l-7-9.6l-8,4.9l-0.2,0l-4.9,1.3
		l0.1,6.2l0,0.2l-0.2,0l-1.3,1.3l0.8,4.8l2.7,3.2l3.9,0.5l0.2,0l0,0.2l7.2,6l0.2,0.1l0,0.2l0.3,4.9l0,0.2l-0.1,0.2l-2.7,3.6l0.1,3.3
		l2.3,0l2.7-1.4l0.6-0.2l0,0.5l0.5,5.5l1.9,2.3l4.1,0.5l0.3,0l0,0.3L178.6,490.9z"/>
	<path class="st0" d="M211.7,463.6l0.4,2.8l1.6,4.9l3.9,4.2l0.2,0l0,0.2l-0.1,5.4l3.2,4.3l0.2,0l0,0.2l0.5,2.4l0,2.5l8.3-1.2
		l5.7-5.7l0.1-0.2l0.2,0l3.1-0.7l5.6-2.1l1.7-4.2l0.2,0l0-0.2l8.3-5.4l0.9-2.1l1.2-5l0.3-2.2l-4.8-5.9l-1.8-1.6l-1.9,1.5l-0.2,0
		l-1.7,0.4l-0.3,0.2l-0.2-0.3l-3.7-4.7l-1,0.8l-4,4.9l-0.2,0l-2.4,1.7l-0.1,0.2l-0.2-0.1l-3.3-0.5l-0.2,0l-5.3-4.1l-3.6-2.2
		l-3.1,0.7l-5.1,1l-1.8,3.1l-0.1,1.2l1.8,0.7l0.2,0.1l0,0.3l-0.4,3.3l0,0.3l-0.2,0L211.7,463.6z"/>
	<path class="st0" d="M199.1,453.8l0.5,4.6l8.7,3.9l3,0.7l2.1-1.1l0.3-2.8l-1.6-0.8l-0.3,0l0-0.3l0-1.6l0-0.2l0-0.2l2.1-3.2l0-0.2
		l0.2,0l5.4-1l3.2-0.7l0.2,0l0,0.2l3.7,2.2l0,0.2l5.2,4l3,0.4l2.4-1.6l4-4.8l0-0.2l1-0.8l-3.5-3.8l-0.2-0.1l0.1-0.3l1.3-1.6
		l-0.5-3.4l-6.5,0l-0.2,0l-0.2-0.1l-4.1-5l-4.7,0l-0.2,0l-0.2-0.1l-2-4.2l-5.5-5.7l-0.7,0.8l-0.4,4.7l-0.2,0l0,0.2l-1,1.8l-0.1,0.2
		l-0.3,0l-8.1-2.2l0.6,8.2l0,0.2l-1.6,2.1l1.6,2.7l0.2,0.1l0,0.2l-0.6,2.1l0,0.2L199.1,453.8z"/>
	<path class="st0" d="M179.1,411.3l-2.2,0.3l-0.2,0l0-0.2l-2.5-0.6l-4,5.4l-0.5,5.5l0.4,8.3l0,0.2l-0.1,0.2l-1.1,1.9l-0.2,0l0,0.2
		l-1,0.5l7,9.3l4.4,0.2l0.2,0l0,0.2l1.6,2.4l0.2,0l0,0.2l0.2,2.8l9,4.5l8.4,0.8l5.9-6.3l0.5-1.7l-1.8-3l-0.2-0.1l0.1-0.2l1.6-2.1
		l-0.6-8.2l-2.9,0.1l-0.2,0l-0.2-0.3l-2.5-4.3l-4.9-0.6l-1.4,1.5l-0.4,0.3l-0.2-0.3l-3.3-4.9l-0.2,0l0-0.2l-0.9-5.5l-5.1,0.4l-0.2,0
		l-0.2-0.1L179.1,411.3z"/>
	<path class="st0" d="M190.7,400.6l-3.8,3.1l-7.1,7.3l2.6,6.2l5.2-0.4l0.3,0l0,0.3l0.9,5.7l3.1,4.4l1.3-1.3l0.1-0.2l0.2,0l5.2,0.6
		l0.3,0l0,0.3l2.5,4.3l2.6,0l0-0.2l0.6,0.1l8.2,2.4l0.8-1.6l0.6-4.5l0-0.2l1-1.3l1.5-2.9l-0.1-2l-2.2-1.1l-0.2-0.1l0-0.2l-0.5-2.3
		l-1.4-0.7l-0.7,1.1l-0.1,0.2l-0.2,0l-5.4,0.7l-0.5,1.6l-0.1,0.2l-0.3,0l-2.8-0.3l-0.2,0l0-0.2l-3.3-5.2l0-0.2l-1.3-8L190.7,400.6z"
		/>
	<path class="st0" d="M217.6,420.5l0.2,2.2l-0.2,0l0,0.2l-1.4,2.7l5.7,5.8l0,0.2l0.9,1.8l3.8-1.4l0.2,0l5-1.1l0.2-4l0.1-0.2l0.2,0
		l2.5-1.7l5.3-1.8l0.2-4.4l-1.9-7.8l-10.3-2.5l-5.7,2.1l-0.1,5.9l0,0.2l-0.1,0.2L217.6,420.5z"/>
	<path class="st0" d="M188.2,393.1l1.7,3.9l1.3,2.7l6.9,6.2l0,0.2l1.5,8l3,5.1l2.3,0.1l0.5-1.4l0.1-0.3l0.2,0l5.5-0.5l0.7-1.4
		l0.1-0.3l0.3,0.1l1.9,1l0.2,0l0,0.3l0.5,2.3l2.2,1.1l4.3-3.6l0.2-6.2l0-0.2l0.1-0.2l5.8-2l-0.3-8.8l0-0.3l0.3,0l5.4-0.7l2.6-2.5
		l0.1-0.2l0.3,0.1l6,3.1l4-6.5l0.1-0.3l0.3,0.1l5.7,3.5l3.6-2l1.6-2l-3.5-3.9l-7-6.2l-3.8-1.3l-0.2-0.1l0-0.2l-1.5-3.2l-4,0.1
		l-1.5,1.2l-0.1,0.2l-0.2,0l-13.8,0.8l-3,2.1l-0.3,0l-0.2-0.1l-2-1.6l-4.1,0.6l-1.5,2.6l-0.1,0.2l-0.2,0l-2.7,0.8l-7.4,5.2l-0.1,0.2
		l-0.2,0l-6.8,0.6L188.2,393.1z"/>
	<path class="st0" d="M241.7,399.5l-5.8-3.2l-2.6,2.4l-0.1,0.2l-5.1,0.5l0.3,8.5l10.4,2.5l0.2,0l0,0.3l2.1,7.9l0,0.2l-0.2,4l2.5-1.3
		l0.2,0l8.4-1.7l0-0.2l0.2,0.1l6.2,1.4l0.2,0l0,0.2l2.1,3l2.9-3l-0.6-6.8l-1.6-3.1l-4.5-4.3L246,406l-0.2,0l-2.6-1.8l-0.2-0.1
		L241.7,399.5z"/>
	<path class="st0" d="M263.5,422.3l-2.7,3l-0.3,0.3l-0.2-0.5l-2.4-3.2l-5.8-1.5l-8.3,1.8l-3,1.5l-0.2,0l-5.5,1.8l-2.4,1.6l-0.3,4.2
		l0,0.3l-0.3,0l-5.4,1l-3.6,1.3l0.7,1.5l4.7,0l0.2,0l0.2,0.1l4.1,5l6.7,0l0.3,0l0,0.3l0.6,4l0,0.2l-1.3,1.6l3.3,3.5l0.2,0.3l3.9,4.8
		l1.5-0.4l1.9-1.5l0.3-0.2l0.2,0.1l2.3,1.7l0,0.2l4.9,6l0,0.2l0,0.2l-0.2,0.9l3.7,3.6l0.2,0.1l0,0.2l-0.8,4.6l2.5,4.5l0.9-0.1l1-3
		l1.4-3.8l0.1-0.2l0.2,0l2.8-0.2l0.2,0l0.2,0.1l3.9,2.1l0.7-1.3l-0.9-4.1l-2.8-2.4l-0.2-0.1l0-0.2l0.3-4.1l0.1-0.5l0.3,0l6.9,0.4
		l5.4-2.2l0.5-4.5l-2-0.2l-0.2-0.1l-1.5-1.4l-0.2-0.3l0.3-0.3l2.8-2.4l0.1-0.9l-2.6-0.1l-0.2,0l-0.2-0.3l-0.4-1.7l0-0.2l1.4-2.7
		l-1-0.7l-4.8,3l-0.1,0.2l-0.2,0l-6-0.8l-0.2,0l-0.2-0.1l-2.8-3.8l-1.9-4.8L263.5,422.3z"/>
	<path class="st0" d="M266.1,435.6l0.9,2.3l2.6,3.7l5.6,0.7l4.9-3.1l0.1-0.2l0.2,0.1l1.5,1l0.3,0.1l-0.1,0.3l-1.3,2.9l0.4,1.2
		l2.7,0.3l0.3,0l0,0.3l0,1.6l-0.1,0.2l0,0.2l-2.6,2.2l1,1l2.2,0.2l3.6-0.2l3.3-3.5l-0.6-8l0-0.5l0.5,0.1l3.3-0.1l3.1-3.9l1.6-5.5
		l0-0.2l0.2,0l3-3.8l3-9.8l-2-1.4l-0.2,0l-2.3-2.3l-2.9,0.7l-0.2,0l-0.2-0.1l-4.3-3.3l-6,0.1l0,2.2l-0.1,3l0,0.2l-0.1,0.2l-4.1,3.9
		l-0.1,0.2l-0.2,0l-3.7-1.4l-2.6,0l-2.1,10.1l0,0.3l-0.3,0l-5.8,1.3L266.1,435.6z"/>
	<path class="st0" d="M291.9,447.3l-3.5,3.5l0,0.2l-0.2,0l-3.4,0.2l-0.4,4.8l0,0.3l-0.3,0l-5.7,2.3l0,0.2l-0.2,0l-6.5-0.3l-0.4,3.6
		l2.8,2.3l0.2,0.1l0,0.2l0.9,4.3l0,0.2l0,0.2l-1.1,1.6l-0.1,0.3l-0.3-0.1l-4-2.2l-2.5,0.2l-1.3,3.5l-1.2,3.2l-0.1,0.3l-0.3,0
		l-0.9,0.1l0.7,10.5l2.4,3.1l0.2,0l0,0.2l0.3,8.2l2.2,2l0,0.2l0,0.2l0.1,3.9l0,0.3l-0.3,0l-1.8,0.9l1,4.9l1.6-1.2l0.2,0l4.6-0.6
		l0.5,0l0,0.5l-0.1,5.6l0,0.3l-0.1,0.2l-2.9,1l0,1.7l2.3,2.2l0.3,0.1l-0.3,0.3l-3,3.6l1.8,3l8.2,1.3l0.2,0l0.2,0l4.6,4.2l4.4,0.2
		l1.7-4.6l0-0.2l0.1-0.2l3.8-1.2l0.2-3.4l0.2-3.6l0.1-0.3l0.2,0l4.7-1.4l0.3-3.9l0-0.2l3.5-7.1l0-0.2l0.2,0l6.4-4.3l0.3,0l0.2,0
		l3.4,1.6l1.7-0.1l0.9-4.4l0-0.3l0.2,0l3.3-1.3l1.8-1.5l-2.8-2.6l-1.5,0.9l-2.4,1.4l0,0.2l-0.2-0.1l-11-2.6l0-0.2L303,491l-0.2,0
		l0-0.2l-3.2-6.1l-0.2-0.1l0-0.2l1.1-3.8l0-0.2l0.2,0l4.9-3.4l0-0.2l0.2,0.1l2.8,0l0.2,0l0.2,0.1l2.5,2.8l0,0.2l0,0.2l0.5,4.8
		l2.1,1.6l2.5-1.4l0.2,0l2.5,0l0.2,0l0,0.2l1.8,1l0,0.2l4.1,3.3l1.6-1l1.1-2.6l-2.5-2.9l0-0.2l-0.5-2.4l0-0.2l0-0.2l2.2-4.6l0.2-3.7
		l-2-0.2l-7.2-2.6l-0.2,0l-3.1-2.3l-0.2-0.1l-1.3-3.2l-2.7,1l-0.3,0l-0.2-0.1l-1.4-1.8l0-0.2l-0.7-3.1l-0.6-1.8l-3.3-0.5l-0.2,0
		l-0.2-0.3l-0.6-4.1l-7.4,0.2l-0.3,0l0-0.3l-0.4-5.6L291.9,447.3z"/>
	<path class="st0" d="M310.3,381.9l-4.8,2.5l-0.1,0.2l-0.2-0.1l-14.4-4.4l-4.4,5.7l-0.3,0.3l-0.3-0.3l-2.3-1.7l-0.2,0l0-0.2
		l-0.6-8.5l-1.4-2.7l0-0.3l0.1-0.2l10.4-13.4l-0.8-5.4l-3.5-3.8l-4.4,1.1l-6,4.6l-0.2,0l-0.2,0l-5.7,0.2l-0.6,2.1l4.3,3.6l0.3,0.1
		l-0.3,0.3l-4.6,5.4l-2.3,3l0.2,7.7l0,0.5l-0.3-0.1l-12.2,0.7l-4.4,5.3l3.3,2.9l3.7,4.1l0.2,0.3l-0.1,0.3l-1.9,2.3l0,0.2l-3.9,2
		l-0.3,0.2l-0.2-0.1l-5.5-3.5l-3.9,6.5l1.2,4.4l2.4,1.7l10.8,1.1l0.2,0l0,0.2l4.6,4.3l0,0.2l1.6,3.3l0.2,0l0,0.2l0.6,6.9l0,0.2
		l1,11.6l0.6,1.4l2-6.5l0-0.3l0.3,0l5.8-1.3l2.1-10.1l0-0.3l0.3,0l3.1-0.1l0.2,0.1l3.4,1.3l3.8-3.7l0.3-2.8l-0.2-2.5l0-0.5l0.5,0
		l6.7-0.2l0.2,0.1l4.1,3.3l2.9-0.8l0.3,0l0.2,0.1l2.5,2.6l2,1.3l2.8-3.8l2.1-3.4l-2.9-2.1l0-0.2l0-0.2l-0.3-4l0-0.2l0.1-0.2
		l10.2-5.2l-0.9-5.5L310.3,381.9z"/>
	<path class="st0" d="M535.4,253.5l2.8,0.1l0.5-2l-2-1.9l-2.3,0.9L535.4,253.5z"/>
	<path class="st0" d="M545.3,267.3l3.5,1l3.4-0.9l-1.7-5l-4,2.6L545.3,267.3z"/>
	<path class="st0" d="M553.4,269.3l-4,0.4l-1.5,7.4l-7.1-5.6l-1.4,6.3l7.5,7.2l0.9,6.6l-13.6-10.5l-1-7.2l4.9-7l0-10.9l-2.1,1.2
		l-2.1,7.4l-3.8,3.8l-4.1,1.5l-3.7,6.3l1.4,16l-8.8,16.1l1.3,9.4l10-0.7l9,9.3l0.7,9.6l-5.4,7.4l1.8,3.1l4.8,2.3l-8.5,2.6l-3.1-8.8
		l5.7-11.9l-3.4-8.1l-10-0.8l-5,5.6l0.2,11.9l-8.5,9.9l-8.1,3.7l-5.1,6.4l-19.8-10.2l-0.4-5.7l13.1,5l6.6-3.1l10.2-7.7l6.2-15
		l-1.8-7.6l10.1-30.2l1.2-5l-2-6.5l7.6-8.3l0.8-10.8l-6.8-7.9l6.3-1.2l-1.5-7.8l-6.4,0l-0.1,5.7l1.6,3.3l-4.1-1.3l-5.9,5.1l-6.6,9.8
		l-5.2,5.8l-8.4,2.6l-4.2,4.6l4.9,5.4l-4.2,9.1l-6.5,2.5l-0.1,3l6.3,5.6l-1.6,5.9l1.3,3.5l2.4,3.1l-6.9,7.5l-2.7-3.7l-2.6-8.5
		l-8.8-12.1l-4.2,4l3,4.6l0.2,0.1l-0.1,0.2l-4.9,10.3l2.6,6.8l0,0.2l0,0.2l-3,5.5l-0.1,0.2l-0.2,0l-5.3,2.2l-3.4,4.6l-0.1,0.2
		l-0.2,0l-13.9,1.6l-6.5,6.2l-0.1,0.2l-0.2,0l-4.5,0.3l0.4,11.9l0,0.2l-5,8.1l4.1,7.2l13.5,0l0.2,0l0,0.2l6.7,4.5l0.2,0.1l0,0.2
		l0.8,6.3l2.3,2l15.3-0.3l0.2,0l0.2,0.1l5.2,5.7l0,0.2l1.1,9.7l2.9,3.2l0,0.2l0,0.2l0.3,6.3l10.2-0.7l0.2,0l0,0.2l9.8,7.7l13.1,4.7
		l0.2,0l0,0.2l5.3,7.4l8.5,4.5l8.5,0.2l6.4-5.6l0.3-0.2l0.2,0.3l6.7,5.3l6.5-0.6l0.2,0l0.2,0.1l5.3,6.8l2.5,0l0.2,0l0.2,0.1l5,4.3
		l8.7-12.9l0.1-7.9l0-0.2l5.7-9.2l-1.6-7l-7.6-4.9l-0.2-0.1l0-0.2l1.1-10.5l-5.3-6.3l-0.2,0l0-0.2l0.5-14.5l-6.6-7.4l-0.2-0.1l0-0.2
		l2-7.4l-2.7-5.5l-0.3-0.3l0.5-0.2l7.7-2.7l2.7-8.6l-2.4-9.8l-8.3-1.4l-0.2,0l0-0.2l-8.3-9.3l-0.2-0.1l0.1-0.2l1-6.1l0.1-0.2l0.2,0
		l10.8-5.9l0.9-4.6L553,288l0-0.2l0-0.2l0.8-6.6l0-0.3l0.3,0l4.7-1.1l-5.2-9.6l-0.2,0L553.4,269.3z"/>
	<path class="st0" d="M402.3,520.9l5.7-0.6l5.2,7.5l3.7,0.4l0.1-0.2l1-3.3l0-0.2l0.2,0l6.1-6.6l0.7-4.9l0-0.2l0.2,0l3.7-4.8l0-0.2
		l0.3,0.1l5,0.6l1.1-2.1l0.7-3.6l-1.6-3.6l-4.4-1.4l-0.2,0l0-0.3l-0.8-2.1l-0.2-0.3l0.1-0.2l1.8-2.5l0.2-6.2l0-0.2l0.1-0.2l6.6-7.4
		l0.3-0.2l0.3,0.1l4.1,3.7l0.3,0.3l-0.1,0.2l-1.9,3.2l2.8,0.4l0.2,0l7.5,4.6l5.5-1.2l0.2,0l5.5,2.6l5-0.2l6.6-5.1l-12.8-8.2l-0.2,0
		l0-0.2l-6.7-11l-5-9.4l-3.5-0.5l-7.3-2.4l-0.2-0.1l-3.8-3.1l-0.9,2.9l-0.1,0.3l-0.3,0l-5.6,0.2l-1.3,1.6l-0.2,0l-3.4,2.1l-0.1,0.2
		l-0.2,0l-2.7-0.4l-1.8,1.5l-0.2,0l-3.6,0.2l-0.2,0l-4.8-1.7l-1.6,3.8l-0.1,0.2l-0.2,0l-6.2,1.7l-3.7,7.4l0,0.3l-0.3,0l-11.3,0.3
		l-2.8,6.9l0.8,6.3l0,0.3l-0.3,0l-3,1.1l-0.6,5.2l2.9,5.7l0,0.2l1.4,3.8l4.9,1.2l0.2,0l4.8,3.7l0.2,0.1l0,0.2l0.4,4.2l6.9,5.3l0.2,0
		l0,0.2L402.3,520.9z"/>
	<path class="st0" d="M348,517.8l11.5,1.8l6.8,3.6l3.6-3.4l5.8,2.7l19.2,2.2l6.6-3.6l0.1-0.2l-0.7-3.5l-6.9-5.3l-0.2-0.1l0-0.2
		l-0.4-4.2l-4.6-3.6l-4.9-1.1l-0.3-0.1l0-0.2l-1.4-4.1l-3-5.8l0-0.2l0-0.2l0.7-5.2l-5.6-2.1l-3.9,2.3l-0.3,0l-0.2-0.1l-3.5-3.9
		l-7.3-2l-7.7,3l0.6,2.1l0,0.2l0.3,7.1l0,0.3l-0.2,0l-10.2,8.8l0,4l8.5,4.2l0.3,0.1l-0.1,0.3L348,517.8z"/>
	<path class="st0" d="M304.8,540.7l2.1-3.2l7.5-1.1l0.2-5.4l3.6-2.3l3.9-0.1l4.9,3.4l2.6-2.8l-3.8-5.5l-2.1-5.4l3.6-4.4l3.3-1.2
		l5.6,5.2l11,0l0-0.2l2.6-5.6l-8.2-4.2l-0.3-0.1l0-0.2l0-4.3l0-0.2l0.1-0.2l10.2-8.8l-0.3-7l-1.3-4.9l-3.1-2.6l-1.5,1l-0.2,0l-0.2,0
		l-2.8-0.4l-0.2-0.1l-12.1-8.9l-2,0.6l-0.3,3.9l0,0.2l-2,4.6l0.5,2.1l2.5,3.1l0.2,0.1l-0.1,0.3l-1.2,2.9l0,0.2l-0.2,0l-1.9,1.4
		l-0.3,0l-0.2-0.1l-4.3-3.6l-1.6-1l-2.3,0l-2.5,1.4l-0.3,0l-0.2-0.1l-2.4-1.7l-0.2-0.1l0-0.2l-0.5-4.9l-2.2-2.5l-2.6-0.1l-4.6,3.3
		l-1,3.6l3.2,6l2.4,1.7l10.7,2.7l2.2-1.2l1.8-1.1l0.1-0.2l0.3,0.3l3.2,2.9l0.3,0.3l-0.3,0.3l-2,1.8l-0.1,0.2l-3.2,1.2l-0.9,4.6
		l-0.1,0.2l-0.2,0l-2,0.1l-0.2,0l-3.4-1.5l-6.2,4.2l-3.4,6.9l-0.3,4.1l0,0.3l-0.3,0l-4.7,1.4l-0.2,3.4l-0.2,3.3l8,1.9l0.2,0l0.2,0.1
		l1.8,3.4l0.2,0.1l-0.1,0.2l-0.6,2.5l0,0.2l-0.1,0.2l-2.8,2.5L304.8,540.7z"/>
	<path class="st0" d="M375,389l-1.8,3.5l-1.2,3.3l-5.9,9.1l-9.1,10.3l-0.2,0l-7.9,4.3l0.1,3.7l3,4.9l0.2,0.1l-0.3,0.2l-3.1,4.4
		l-0.2,5.4l0,0.2l-0.2,0l-2,3.1l-0.2,0l-0.1,0.2l-7.7,0.9l-0.7,4.9l0,0.2l-0.1,0.2l-3.1,2.2l-0.3,0.3l-0.2-0.3l-3.3-3.2L327,454
		l-0.1,0.2l-0.2,0l-7,1.3l-5.5,7.5l1.3,3.3l2.9,2.1l7,2.5l2.3,0.1l2.3-0.8l0.2,0l0.2,0.1l12.3,9.1l2.5,0.4l1.6-1l0.3-0.2l0.2,0.1
		l3.5,2.9l0.2,0.1l0.5,2.1l7.9-3l0.2,0l7.4,2l0.2,0.1l3.4,3.8l3.9-2.1l0.1-0.2l0.2,0.1l5.7,2.2l2.9-1l-0.6-6.2l0-0.2l2.8-7l0-0.3
		l0.3,0l11.5-0.3l3.5-7.2l-3.2-4.1l-0.2-0.1l0-0.2l0.2-4.2l0.6-7.6l-8.2-4.4l0-0.2l-0.2,0l-1.5-3.5l-0.2-0.1l0.1-0.2l4.1-5.7
		l-1.3-4.6l-2.1-8.1l0-0.2l0.1-0.2l3.3-5.5l-0.6-6l-5.1-10l-7.7-3.8l-0.2,0l0-0.2l-1.4-5L375,389z"/>
	<path class="st0" d="M422.1,341.5l-4.3,0.3l-5.9,6l-0.1,0.2l-0.2,0l-5.5,0.7l-0.3,0l-0.2-0.1l-2.1-2.8l-8.5,8.7l-1,5.5l-0.2,0
		l0,0.2l-9.1,9.3l-9.4,18.8l2.5,2.2l0,0.2l0.2,0l1.4,5l7.6,3.8l0.2,0l0,0.2l5.1,10.2l0.2,0l0.6,6.3l0,0.2l-0.1,0.2l-3.3,5.4l2.1,7.9
		l1.3,4.7l0,0.2l0,0.2l-4.1,5.7l1.5,3l8.2,4.5l0.2,0.1l0,0.2l-0.5,7.9l-0.2,4l3.2,4.1l5.9-1.7l1.7-4l0.1-0.3l0.3,0.1l4.9,1.7
		l3.4-0.2l1.6-1.5l0.2,0l0.2,0l3,0.4l3.1-2.1l1.4-1.7l0-0.2l0.3,0l5.6-0.2l0.9-3.2l0.3-0.5l0.3,0.3l4.3,3.4l7.2,2.4l3.6,0.5l0.2,0.1
		l0.2,0.1l5,9.4l6.7,11.2l13,8.2l6.5-4.3l0.5-4.2l0-0.2l0.2,0l4-3.1l0.2,0l5,0.3l3.2-13.7l0-0.2l0.1-0.2l5.6-4.9l0.1-0.2l0.3,0.1
		l6.5,1.4l0.2,0l8.9,5.1l13-0.8l0.2,0l0.2,0.1l9.6,6l10.4-7.1l0.3-0.2l0.2,0.1l5.8,3.6l6.4-1.2l6.7-3.4l1-3.3l-8.2-4.1l-0.2-0.1
		l0-0.2l-0.7-9.9l-5.1-4.4l-2.5,0l-0.3,0l0-0.2l-5.4-6.8l-6.3,0.6l-0.2,0l-0.2,0l-6.4-5.4l-6.4,5.6l-0.2,0l-0.2,0l-8.7-0.2l-0.2-0.1
		l-8.7-4.5l-0.2,0l0-0.2l-5.2-7.4l-13-4.5l-0.2-0.1l-9.7-7.7l-10.3,0.7l-0.5,0l0-0.3l-0.3-6.8l-2.7-3.1l-0.2-0.1l0-0.2l-1-9.7
		l-5-5.4l-15.4,0.1l-0.2,0l-2.6-2.1l-0.2-0.1l0-0.2l-0.6-6.3l-6.5-4.3l-13.7,0l-0.2-0.1l-0.2-0.1l-4.3-7.6l0-0.2l0.1-0.2l4.9-8.1
		L422.1,341.5z"/>
	<path class="st0" d="M153.3,274.5l-1.8,1.5l-0.9,3l1,9.4l0,0.3l-0.3,0.2l-6.8,2.6l-0.2,3.3l0,0.3l-0.3,0l-2.3,0.5l-0.5,2.4
		l-0.1,0.2l-0.9,1l2.5,2.3l4.7,2.9l8.8,1.6l0.2,0.1l3.1,2.4l8.5,0l0.4-3.1l0-0.2l1.6-1.4l0.3-0.2l0.2,0.1l4.1,2.5l0.2,0l0,0.2
		l1.2,3.5l4.9,3.5l4-0.6l0.2,0l0.2,0.1l6.6,5.1l0.1-3l-1.3-3.5l-3-2.9l-0.2-0.1l0.1-0.3l2.3-4.4l-0.8-4.6l-2.8-4.8l-0.2,0l0.1-0.2
		l0.4-3.4l-2.5-0.1l-0.2-0.1l-0.2-0.1l-0.6-2.3l-4.3,0.2l-0.2,0l-0.2-0.1l-1.4-2.2l-0.2-0.1l0.1-0.2l0.9-2.1l-0.5-2.8l-3.3-0.9
		l-0.8,1.5l-0.1,0.2l-0.3-0.1l-2.2,0l-0.2,0l-0.2-0.1l-2.3-1.9l-3.7,0.7l-0.3,0l0-0.2l-2.4-3.6l-2.4-0.9l-4,2.3l-0.5,0.2l-0.2-0.3
		L153.3,274.5z"/>
	<path class="st0" d="M200.7,325.7l8.6,4.7l3.2-0.4l0.2,0l0.2,0.1l4.2,4.5l0.2,0.1L217,335l-1.4,6.9l5.3,4.4l13.5-0.3l0.2,0l9.2,4.8
		l0.2,0l0,0.2l6.5,10.2l9.8,4.7l6.2-2l0.1-0.2l0.2,0.1l3,2.6l4.2-4.9l-4.3-3.4l-0.2-0.1l0.1-0.2l0.7-2.7l0.1-0.2l0.3,0l5.7-0.1
		l6-4.6l-0.3-4.3l-4.5-1.7l-0.3-0.1l0.1-0.3l1.1-3.8l-4.1-1.1l-2.5,1.4l-0.3,0.2l-0.2-0.3l-3.8-7.8l-7.7,0.2l-0.2,0l-0.2,0l-5.3-5.4
		l-4.8-2.6l0-0.2l-4.8-3.9l-0.2,0l-14.2-14l-0.2-0.1l0-0.2l0.6-7.6l0-0.2l4.6-5.9l-3.3-0.9l-0.3,0l0-0.3l-0.4-5.1l-3.9,0.3l-2.6,2.8
		l0,0.2l-0.2-0.1l-5.7,0.2l-0.2-0.1l-2.8-2.6l-2.5,0.2l-3.6,1.5l-5.7,4.9l-3.3,8.5l-0.1,0.2l-0.2,0l-6.5,0l-3.6,2.1l-2.2,4.2
		l2.8,2.7l0.2,0.1l1.3,3.6l0,0.2l-0.1,3.3l6.3-0.4l0.3,0l0.2,0.3L200.7,325.7z"/>
	<path class="st0" d="M150.9,256l-3.8,0.7l-6,5.2l-3.2,5.3l-7.1,0l-3.8,7.4l-4.9,1l0.2,5.4l-7.2,5.3l1,7.1l3.2,3.7l-3.1,4.4l1,3.3
		l5,0.9l1.3,5l-1.4,2.7l0.5,0.1l3-1.1l0.2,0l0.2,0.1l1.8,0.7l6.1-1.5l2.2-4l1-5.8l0-0.2l3.6-4.1l0.6-2.5l0-0.3l0.3,0l2.1-0.3
		l0.2-3.3l0-0.3l0.3,0l6.8-2.8l-0.9-9.1l0-0.2l0.2,0l0.9-3.2l0-0.2l0.2,0l2-2l1.8-7.1l-3.3-4.4l0-0.2L150.9,256z"/>
	<path class="st0" d="M188.4,243.5l-6.6,0.8l-8,3.5l0,6.7l1,3l-2.2,2.2l-2.2-4.5l-3.3-0.1l-5.4-4.4l-5.9,4.4l-4.1,0.8l0.6,5.9
		l3.4,4.6l0,0.2l0,0.2l-1.8,7.3l1.3,3.3l3.7-2.1l0.3-0.2l0.2,0.1l2.7,1l0.2,0l0,0.2l2.3,3.4l3.5-0.7l0.2,0l0.2,0.1l2.5,1.8l2,0.2
		l0.8-1.5l0.1-0.3l0.3,0.1l3.8,1l0.3,0.1l0,0.2l0.5,3.1l0,0.2l-0.2,0l-0.8,2.1l1.2,1.9l4.3-0.3l0.3,0l0,0.3l0.8,2.3l2.5,0.1l0.5,0.1
		l-0.1,0.3l-0.5,3.8l2.8,4.6l0.2,0.1l0.8,4.3l3.1-2.1l0.2,0l6.4,0l3.3-8.3l0.1-0.2l5.7-4.9l0.2,0l0-0.2l3.8-1.5l5.4-0.2l2.6-2.5
		l-5.7-6.3l-3.3-0.4l-0.2,0l-0.2-0.3l-1.9-5l-2,0.3l-0.1,3.1l-0.1,0.5l-0.3,0l-1.7-0.3l-0.2,0l0-0.2l-1.5-2.1l-1.5,0.6l0,3.7l0,0.5
		l-0.3-0.1l-2.3-0.3l-0.2,0l-0.2-0.1l-1.4-2.7l-6.3,0.6l-0.3,0l0-0.2l-2.9-3.7l-6,0.4l-0.2,0l-0.2-0.1l-1.7-1.9l-0.3-0.1l0.3-0.3
		l9.3-13.1L188.4,243.5z"/>
	<path class="st0" d="M275.5,212.1l0.8-10.4l2.7,3.4l-0.4,7.3l3.4,6.1l1.5,10.7l4.8,6l1.4,6.6l16.4,8.5l9.6-2.5l6.6-10.4l1.3-10.6
		l-4.1-12.3l-0.8-18.1l-2.5-6.5l-5.7-7.7l-1.2-6.3l2.1-1.5l3.4,3.9l2.8-2.2l-3.2-5.2l-11.2-6.5l-15.4-0.3l-2.9,2.4l-7.4,5l0.7,6
		l-4.7,8.9l-10.3,0.9l-3.1,4.6l8.3,9.5l0,0.2l0,0.2l-0.8,6.1l6.5,2.6l0.2,0.1L275.5,212.1z"/>
	<path class="st0" d="M259.6,255.4l-0.7-3.2l0.4-3l-2.9-3.4l2-4.6l6.9-9.8l6-2.4l3.3-6.4l0.6-9.2l-1.6-2.4l-6.6-2.8l-0.3-0.1l0-0.3
		l0.8-6.1l-7.9-9.2l-7.9,11.4l-4.5,0.2l-5.3,4.2l-4,0l-1.4,4.1l-1.4,3.7l-3.1,2.5l1.9,3.3l-2,2.5l-7.5-0.7l-1.5,7.2l-0.6,10.7
		l-4.3,2.2l-19.9-1.2l-8.9,0.9l0.7,5.7l4.7-1.3l0.2,0l6.4,0.5l0.2,0l0.2,0.1l2.7,3.4l0.2,0l0,0.2l0.2,4.5l0,0.2l-0.2,0l-2,2.8
		l0.7,4.9l-0.3,4.4l-0.1,0.2l0,0.2l-3.1,2.7l-0.8,2.4l1.4,2.5l1.7,0.3l-0.1-3.6l0-0.3l0.3,0l2.1-0.8l0.3-0.2l0.2,0.3l1.4,2.2
		l1.1,0.1l0.1-3l0.1-0.3l0.3,0l2.6-0.5l0.3,0l0,0.3l2.1,5.1l3.1,0.2l0.2,0.1l0.2,0l5.4,6.3l0.6-2.2l-0.9-6.1l0-0.2l2-4.6l0-0.2
		l7.7-9.4l0.1-0.2l0.2,0l4.9,0.7l0.2,0.1l0.2,0.1l1.7,2.7l0,0.2l-0.4,4.8l0,0.2l-0.1,0.2l-3.3,3.6l-5.5,7.2l-1.1,5.8l4-0.3l0.3,0
		l0,0.3l0.4,5.2l3.3,0.9l2.1-2.6l0.1-0.2l0.2,0l2.9-0.2l0.9-5.5l0-0.2l0.1-0.2l5-6.1l-1.4-2.1l0-0.2l-2.1-2.8l0-0.2l0-0.2l0.9-4.6
		l0.1-0.2l5-5.8l0.3-2.8l0-0.5l0.5,0.1l3.8,0.7l2.3,0.3l2.6-3.3l0.2,0l0-0.2L259.6,255.4z"/>
	<path class="st0" d="M347.4,290.2l-6.9,10.3l2.9,3.8l0.2,0.1l-0.1,0.2l-1.5,3.2l1.6,5l0.2,0.3l-0.3,0.2l-4.4,3.1l-0.3,0l-0.2,0
		l-6.5-3.6l-5.8,0.7l-0.3,0l0-0.3l-1.2-4.3l-15.6-10.4l-1.5,2.6l4.6,6.5l0,0.2l0,0.2l-0.8,5.8l-0.1,0.2l-3.1,3.8l1.7,2.7l0,0.2
		l0.5,2.9l0,0.3l-0.3,0.2l-5.9,0.6l-4.2,6.3l0.1,3.6l5.6,1.9l2.1-2.9l0.2,0l0.1-0.2l5-2.1l0.3-0.2l0.2,0.3l3.7,6.3l0.2,0.3l-0.1,0.2
		l-11.5,10.6l0.2,5.3l0,0.2l-0.1,0.2l-4.1,3.5l-0.1,0.2l-0.2-0.1l-5.4-1.8l-3.6,3.4l-10.2,13.3l1.3,2.5l0,0.2l0.6,8.3l2,1.4l4.3-5.6
		l0.1-0.3l0.3,0.1l14.6,4.6l4.8-2.7l2.3-7.1l0.1-0.2l0.2,0l9.6,0.3l0.2,0l7.5,7.4l8,3.5l10.7,0.5l4.2-2.6l0.1-0.2l0.3,0.1l12.2,8.6
		l7.2,0.6l11.3-23l0.1-0.2l9-9.2l1.2-5.5l0-0.2l9-9.2l0.3-0.3l0.3,0.4l2.2,2.9l5.2-0.7l5.9-6l0.1-0.2l0.2,0l9.6-0.8l6.7-6.4l0.2,0
		l13.9-1.6l3.3-4.4l0.1-0.2l0.2,0l5.3-2.2l2.9-5.3l-2.6-6.8l0-0.2l0-0.2l2.3-4.7l-2.7-0.3l-1.7,2.8l0,0.2l-0.3,0l-3.2,0.2l-3.9,4.2
		l-0.1,0.2l-0.2,0l-5.2-0.9l-3.5,4.7l-0.1,0.2l-0.2,0l-11.5,1.7l-0.2,0l-52.5-32.1l-4.7,1.7l0,0.2l-0.2,0L347.4,290.2z"/>
	<path class="st0" d="M267.3,240.9l1.7,1.6l2.1-1.5l-0.8-2.4l-1.8-1.1l-1.1,1.8L267.3,240.9z"/>
	<path class="st0" d="M417.6,235.9l2.3-2l-0.3-4.3l-3-0.4L417.6,235.9z"/>
	<path class="st0" d="M463.4,293.5l-4.4-6.8l-11-10.2l-7.6,0.5l-0.8,4.6l0.3,6.6l-5.2,3.6l-3.1-0.4l-1.8,3.2l-4.1-2.8l4.2-4.3
		l-0.3-4.5l-14.4,0.9l-7.3-4.8l-10.9,1.9l-4.2-5l6.4-1.1l2.9-6.9l-8.8-1.4l-3.7,5.1l-2.3-3.4l-22.6-4l-2.6,3.1l-3.5-2.9l-11.1,7.6
		l-6.6-5.4l1.5-5.2l-2.2-5.1l7.1-3l7,4.2l2.9-5.5l-0.8-9.4l-9.5-9.1l-2,9.6l-11.6,8.7l-0.5,6.1l-5.5,5.7l3.2,12l7,9l5.9,0.4l0.2,0
		l0.2,0.1l3.4,4.4l21.6,0.8l4.8-1.9l0.1-0.2l0.2,0.1l52.5,32.1l11.1-1.7l3.7-4.8l0.1-0.2l0.2,0l5.2,0.9l4.1-4.2l0-0.2l0.2,0l3.2-0.2
		l1.7-2.8l0-0.2l0.3,0l3.1,0.4l2.3-4.8l-3-4.6l-0.2-0.3l0.1-0.2L463.4,293.5z"/>
	<path class="st0" d="M444.2,273.7l-4.4,0.8l-4-5.6l0.5-5.5l5.6-1.8l2,6.1L444.2,273.7z"/>
	<path class="st0" d="M373.1,251l3.7,4.2l8.2-0.3l0.7-3.2l-0.8-4.6l-4.6-4.3l-6,2.6L373.1,251z"/>
	<path class="st0" d="M434.2,252.7l0.6-18l0.9-6.9l5.4-6.7l6.9-3l2.7-4.2l-2-4.8l5.3,3l4.8-0.8l1-3.6l2.9-0.1l0.1-3.6l3.8,1.3
		l0.5-3.6l3,2.7l2-2.9l0.5-4.2l4.1,2.5l2.5-2.5l5.5,0.7l4.1-5.4l34.4-3.2l8-5.1l0.5-6.1l-3.9-4.1l-8.2,2.7l-1.2,3.2l-14.1-0.2
		l-6.5-4.8l-5.2,3.5l-5.6-1.9l-6.5,5l-5.7,0.4l-2.6,2.5l-4.1-3.7l-1.3,8.5l-4.3,0.5l-0.2,3.4l-10.3,4l-4-1.4l-2.1,3.1l3.3,2.7
		l-4,4.3l-7-2.3l-0.6,5.3l-5,0l0.1,4l-6.7,4l-4.3-1.1l-4.5,3.9l0.2,5.1l4.8,4.2l0.6,6.9l-3.9,4.5l3.8,7l3.9,0.2l0.4,3.4l4.4,0.6
		L434.2,252.7z"/>
	<path class="st0" d="M327,264.3l-5.6,6l-3.1-5.1l3.9-1.2l-5.8-9.1l-7.6,1.8l-7.8-2.1l-9.3,2.1l-4.3,13.5l-4-1.9l-6.3-12.4l0.1-9.9
		l-8.9,1.7l-1.7,8.6l4,4.4l-3.2,5l-6.1-2.8l-1.4-6.7l-0.3,0.2l-2.7,3.3l-0.1,0.2l-0.2,0l-2.5-0.3l-3.5-0.7l-0.3,2.7l0,0.2l-5,5.8
		l-0.9,4.4l1.9,2.7l1.7,2.4l0,0.3l-0.1,0.2l-5.1,6.3l-0.8,5.8l-0.1,0.3l-0.3,0l-3.1,0.2l-2.1,2.8l-4.8,6.2l-0.4,7.2l14.2,13.9l4.8,4
		l4.8,2.6l0.2,0l5.2,5.4l7.9-0.4l0.3,0l0,0.3l3.6,7.7l2.4-1.3l0.1-0.2l0,0.2l4.7,1.1l0.3,0.1l-0.1,0.3l-1.1,3.8l4.3,1.9l0.3,0l0,0.3
		l0.3,4.3l4.1-1.1l0.3,0l0.2,0.1l3.7,4.1l0.2,0l0,0.2l0.8,5.1l3.2-3.2l0.2,0l0.2,0l5.6,1.8l3.7-3.2l-0.1-5.4l0-0.2l0.1-0.2
		l11.2-10.2l-3.4-5.8l-4.7,2l-2.3,3.1l-0.1,0.2l-0.3-0.1l-6.2-2l-0.2,0l0-0.3l0-4l0-0.2l4.3-6.7l0-0.2l0.3,0l5.5-0.5l-0.5-2.6
		l-1.9-2.7l-0.2-0.3l0.3-0.2l3.3-4l0.8-5.6l-4.6-6.5l-0.2-0.1l0.1-0.3l1.8-3.1l0.3-0.3l0.3,0.3l15.9,10.5l0.2,0.1l0,0.2l1.2,4.1
		l5.7-0.7l0.2,0l0,0.2l6.3,3.4l4.1-2.8l-1.4-4.9l-0.2-0.1l0.1-0.2l1.3-3.2l-2.9-3.8l-0.2-0.3l0.3-0.2l6.7-10.2l-3.2-4.1l-5.9-0.4
		l-0.2,0l0-0.2l-7.2-9.3l0-0.2l-0.2,0L327,264.3z"/>
	<path class="st0" d="M519,112.6l2.6,2.1l3.2-3.2l-1.9-2.3l-2.4,0.8L519,112.6z"/>
	<path class="st0" d="M524.5,114.3l2,1.6l3.3-2.1l0.7-3.9l-2.7-0.4L524.5,114.3z"/>
	<path class="st0" d="M533.4,113.2l3.5,2.9l6.4-3.9l-1.5-3.6L537,107l-3.6,3.5L533.4,113.2z"/>
	<path class="st0" d="M539.9,105.7l3,1.2l1.7-2.3l-2.5-2L539.9,105.7z"/>
	<path class="st0" d="M551.7,97l1.1,2.9l2.9-1.3l-1.3-3.5L551.7,97z"/>
	<path class="st0" d="M541.9,90.4l1.6,1.3l1.9-1.7l-3.1-2.7l-1.5,1.3L541.9,90.4z"/>
	<path class="st0" d="M533.6,92.8l0.6,2.3l3.2,1.8l1.7-2.9l-1.9-3.3L533.6,92.8z"/>
	<path class="st0" d="M527.6,95.7l6.4,4.8l-0.4,4.7l-6.2-1.6l-4.2-4.4L527.6,95.7z"/>
	<path class="st0" d="M545.4,111.5l1,3.5l6.5-0.6l2.5-4.7l-2.6-3.4l-2.5,4.2l-4.2-0.8L545.4,111.5z"/>
	<path class="st0" d="M527.9,120.7l1.9,2.3l1.6-2.1l-1.9-2.5L527.9,120.7z"/>
	<path class="st0" d="M510.5,104.7l2.9,4.3l2.9-3.1l-1.8-3.8L510.5,104.7z"/>
	<path class="st0" d="M518.1,102.6l0.8,2.7l1.6-1.4l-1.6-3L518.1,102.6z"/>
	<path class="st0" d="M514.1,88l2.4,2.6l1.7-2l-3.4-2.6L514.1,88z"/>
	<path class="st0" d="M495.4,83.7l1.2,3.6l2.9,2l4.1-0.6l2.6,1.8l1.4-2l-3.3-2.6l-2.9,1.1L495.4,83.7z"/>
	<path class="st0" d="M496.8,93.2l-0.1,3.3l3.1,2.7l3.2,3.5l0.8-1.8l-1-3.5l4.1-1.2l5.2,1.3l3-3.5l-3.2-3.3l-2.5-0.8l-2.5,2.2
		l-3.7,0.9l-2.1,1.1L496.8,93.2z"/>
	<path class="st0" d="M504,105.1l-0.5,2.2l2.6,1.2l-0.1-2.9L504,105.1z"/>
	<path class="st0" d="M110.3,448.6l0.1,2l-6.3,0.3l-2.1,3.7l-3.2,0.7l-3.4,7.1l-6.3,2.9l-5.1-6.5l-10.9-0.6l-4.7,5.6l11.4,5.6
		l-3.1,2.5l-6-3l-3.1,2.7l2.3,3.7l3.9-0.3l0.3,0l0,0.2l5.2,5.5l0.2,0.1l-0.1,0.2l-2.9,7l4.9,5.4l0.2,0.1l0,0.3l-0.9,2.2l0,4.5
		l2.9,3.2l2.4-3.1l0.1-0.2l0.2,0l4.3,1.3l1.4-2.6l0.1-0.3l0.3,0.1l3.5,1.1l0.3,0.1l0,0.2l0.4,5.1l4,1.6l0.3,0.1l0,0.3l0.3,4.8
		l2.2,3.3l4.9-0.8l1.3-3l0.1-0.2l0.2,0l8-0.6l4.4-5.7l-0.5-2.6l-4.5-0.1l-0.3-0.1l0-0.3l-0.4-3.7l-4.6-5.6l-0.2-0.1l0-0.2l1.8-8
		l-3.1-4l-0.2-0.3l0.3-0.2l5.6-3.8l0.3-0.2l0.2,0.3l2.3,1.9l4-0.4l2.1-5l-1.5-8l0-0.2l0.1-0.2l6-4.6l-1.8-9.6l-5,0l-3.4,2.7
		l-0.1,0.2l-0.2-0.1l-4.2-2.2L110.3,448.6z"/>
	<path class="st0" d="M156.6,505.3l6.6-2.8l0.7-5.3l5.5-3.6l6.2-2l2.1-0.8l-0.8-8.6l-3.9-0.5l-0.2,0l0-0.2l-2-2.5l-0.2-0.1l0-0.2
		l-0.5-4.9l-2.2,1.2l-0.2,0l-3-0.1l-0.5,0l0.1-0.3l-0.1-3.7l0-0.2l0.1-0.2l2.7-3.6l-0.3-4.6l-7.1-5.9l-3.9-0.7l-0.2,0l-2.9-3.4
		l-0.2-0.1l-0.7-4.9l-5.7-1.6l-0.2,0l-0.2-0.1l-2.6-4.5l-2.9,1.1l-0.2,0l-5.9-0.4l-0.3,3.9l0,0.2l-0.1,0.2l-5.2,3.8l1.8,10l0,0.3
		l-0.1,0.2l-6,4.5l1.3,7.8l0.2,0.1l-0.2,0l-2.1,5.3l-0.1,0.2l-0.2,0L119,479l-0.2,0l-0.2,0l-2.2-2l-5,3.5l2.7,3.7l0.2,0.1l0,0.2
		l-1.8,8l4.4,5.4l10,0.4l0.9-3l0.1-0.2l0.2,0l3.4,0.1l0.3,0l0,0.3l1.4,4.9l3.9,0.3l3.2-2.4l0.1-0.2l0.2,0.1l12.1,1.6l0.2,0l0.2,0.1
		L156.6,505.3z"/>
	<path class="st0" d="M130.5,553.4l6.5,1.9l16.8-1.6l-1.9-6.5l4.3-1.1l2-18.3L155,524l-4.2-0.8l0.4-3.4l4.9-5.2l-5.1-6.2l2.1-1.4
		l2.8-1.4l-3.3-5.2l-11.8-1.7l-3.1,2.2l2.6,5.4l0.2,0.1l-0.1,0.2l-1.4,10.6l3.1,4.7l0,0.2l0,0.2l-2.2,8.1l1.4,4.9l0.2,0.6l-0.6-0.1
		l-5-0.1l-2.4,1.3l-0.3,0.2l-0.2-0.3l-2-2.5l-1.4,2l3.1,6l0,0.3l-0.1,0.2l-3.3,3.2l-3.1,1.9L130.5,553.4z"/>
	<path class="st0" d="M117.4,556.9l6.3-0.3l5.8-3.2l-4.4-5.4l-0.3-0.3l0.5-0.2l3.3-2.1l3.1-2.9l-2.9-6l-0.2-0.1l0.1-0.3l1.8-2.6
		l0.3-0.3l0.3,0.4l2.2,2.6l2.2-1.2l0.2,0l4.7,0.1l-1.4-4.4l0-0.2l2.2-8.2l-3.1-4.7l0-0.2l1.4-10.8l-2.4-5.4l-4-0.2l-0.3,0l0-0.3
		l-1.4-5l-2.8,0l-0.9,2.9l0,0.3l-0.3,0l-10-0.4l0.4,3.1l4.5,0.3l0.3,0l0,0.3l0.5,3.1l0,0.2l-0.2,0l-4.5,6.1l-0.1,0.2l-0.2,0
		l-7.9,0.6l-1.5,2.9l0,0.2l-0.1,0.2l-5.4,0.8l-0.2,0l-0.2-0.1l-2.6-3.5l0-0.2l-0.3-4.8l-4.1-1.6l-0.2-0.1l0-0.2l-0.4-5.1l-3-1
		l-1.2,2.7l-0.1,0.2l-0.3,0l-4.4-1.4l-2.1,2.9l2.9,3.2l2.9-0.7l0.2,0l0.2,0.1l2,2.5l3.9,0.8l0.2,0.1l0.2,0.1l1.9,4.4l4.5,6.4l0,0.2
		l0,0.2l-0.6,6.6l4.7,7.1l0,0.2l1.8,5.8l0,0.2l0.1,6l6.8,5.9l0.2,0L117.4,556.9z"/>
	<path class="st0" d="M80,580.5l-2,2.3l0.9,6l6.1,7.8l0.1,8.5l-0.6,4.1L90,615l2.3-1.1l1.2-2.6l3.2,1.3l3.3,0.9l3.7-2.7l-0.7-10.6
		l1.6-15.3l8.9-9.9l0.2-9.8l-1.4-4.1l4.4-3.9l-1.6-3.5l-6.5-5.8l-2.2,1.9l-0.1,0.2l-0.2,0l-6.5,0.1l-3.4,3l1.4,2.4l0.2,0.3l-0.3,0.3
		l-3.1,2.1l4.4,5.6l4.5,0.5l0.2,0l0,0.3l1.9,5.1l0,0.3l-0.3,0.2l-3.3,1.6l-0.2,0l-3.4,0.1l-3.7,8.6l-0.1,0.5l-0.5-0.3l-3.6-2.5
		l-1.7,2.3l-0.1,0.2l-0.2,0L80,580.5z"/>
	<path class="st0" d="M77.6,573.1l1.8,3.8l0.8,3l7.9,0.1l1.8-2.5l0.3-0.3l0.3,0.1l3.4,2.5l3.7-8.5l0-0.2l0.3,0l3.6-0.1l2.8-1.4
		l-1.6-4.7l-4.2-0.5l-0.2,0l-0.2-0.1l-6.3-7.8l-4.5,0l-2.1,1.1l3.1,9.1l0,0.3l-0.3,0.2L77.6,573.1z"/>
	<path class="st0" d="M74.7,569.4l0.3,1.7l2.1,1.6l10.6-6l-2.9-8.6l-1.9,1.1l-1.4,6.1l0,0.2l-0.2,0l-2.6,2.5l-0.2,0L74.7,569.4z"/>
	<path class="st0" d="M65.3,557.3l0.8,6.9l8.3,3.3l0.2,1.1l3.6-1.5l2.5-2.2l1.4-6.1l0-0.2l0.1-0.2l4.5-2.3l-3.7-2.5l-1.2,2.4
		l-0.1,0.2l-0.2,0l-9.4-1.7l-6.6,2.6L65.3,557.3z"/>
	<path class="st0" d="M58.5,543.8l4.5,4.5l0.6,6.3l1.5,1.9l6.9-2.8l0.2,0l9.1,1.7l2.4-5.1l-1.5-4.1l-4.2,0.3l-0.2,0l-0.2,0l-8.7-7
		l-6,0.3L58.5,543.8z"/>
	<path class="st0" d="M46.6,525.3l5.5,8l0.3,4.9l5.3,5.2l4.8-4.4l0.2,0l0.2,0l5.7-0.2l-0.7-6l0-0.2l0.1-0.2l2.9-2.2l-4.9-8l-1.3,3
		l-0.1,0.3l-0.2,0l-5.4-0.2l-0.2,0l0-0.2l-3.2-3.8L46.6,525.3z"/>
	<path class="st0" d="M33.7,473l1,7.1l-2,2.8l1.3,3l3.4,2.2l0.2,5.1l2.4,7.9l-0.1,7.5L39.4,521l1.7,2.1l3.1-1.6l2.4,3.4l9.3-4.1
		l0.3-0.2l0.2,0.1l3.2,3.8l5,0.1l3.1-7.3l0-0.2l0.2,0l3.6-1.8l-1.5-2.1l-0.2-0.1l0.1-0.2l1.9-4l-2.5-1.8l-0.3-0.3l0.3-0.3l2.6-3
		l0.1-2.3l0-0.2l0.1-0.2l3-1.6l0.3-0.2l0.2,0.3l2.3,3.4l2.5-2.3l0-4.7l0.9-2.1l-5-5.4l-0.2-0.1l0.1-0.2l3.1-7l-4.9-5.2l-4,0.3
		l-0.3,0l-0.2-0.1l-2.8-4.6l-7.9-6.1l-0.4,9.8l-4.2-1.7l-7.7,1l-2.5,3.9l-6.4-9L33.7,473z M44.3,516.8l-0.6-4.8l0-0.3l0-0.3l0.3,0
		l0.3,0l4.9-0.8l-0.2-2.9l0-0.2l0-0.2l0.1-0.2l0.1-0.2l5.3-4.6l-3.7-1.9l-4.8-4.9l-0.2-0.1l-0.2-0.1l0-0.2l0-0.2l0.3-4.2l0-0.5
		l0-0.5l0.5,0.1l0.5,0.1l4,1.1l0.2,0l0.2,0l0,0.2l0,0.2l3.4,4.7l4.3-0.3l0.6,0l0.3,0l0,0.3l0,0.3l0.6,4.5l3.3,2.4l0.2,0.1l0.2,0.1
		l0,0.2l0,0.2l0.1,6.2l0,0.2l0,0.2l0,0.2l0,0.2l-4.1,6.2l-0.6,0.8l-0.6,0.8l-0.2-0.9l-0.2-0.9l-1-5l-6.4,8.2l-0.1,0.2l-0.1,0.2
		l-0.3-0.1l-0.3-0.1l-5.4-2.1l-0.2-0.1l-0.2-0.1l0-0.2L44.3,516.8z"/>
	<path class="st0" d="M80.2,501.2l-2.6,2.5l-0.3,0.3l-0.3-0.4l-2.3-3.4l-2.5,1.4l0,2.3l-0.1,0.2l-2.3,2.6l2.3,1.9l0.2,0.1l0,0.3
		l-1.9,4.2l1.7,2.2l0.2,0.5l-0.3,0.2l-4.1,1.8l-1.3,3.5l5.4,8.8l0.2,0.1l-0.3,0.3l-3.1,2.2l0.7,6.2l8.7,6.7l4.3-0.3l0.3,0l0,0.3
		l1.7,4.4l0.2,0.1l-0.1,0.2l-1.2,2.4l4.2,3l4.7,0l0.2,0l0.2,0.1l1.5,1.8l2.7-1.9l-1.4-2.4l0-0.3l0.1-0.2l3.6-3.4l0.1-0.2l0.2,0
		l6.7-0.2l2-2l-0.1-5.9l-1.8-5.6l-4.7-7.3l0-0.2l0-0.2l0.6-6.6l-4.3-6.4l0-0.2l-2-4l-3.8-0.8l-0.2-0.1l-2-2.5l-2.7,0.7l-0.3,0.2
		l-0.2-0.3L80.2,501.2z"/>
	<path class="st0" d="M44.5,512l0.6,4.8l5.4,2.1l7-8.9l0.6-0.7l0.1,0.8l1.2,6l4.1-6.2l-0.1-6.2l-3.4-2.6l-0.2,0l0-0.2l-0.6-4.6
		l-4.5,0.3l-0.3,0l0-0.2l-3.6-5l-4.1-1.1l-0.2,4.4l4.8,4.9l4.2,2.2l0.5,0.3l-0.4,0.3l-5.7,4.9l0.2,3.2l0,0.5l-0.3,0L44.5,512z"/>
	<path class="st0" d="M684,615.1l17.6,5.7l16,2.4l4.1,12.3l11.8,5.2l8-0.7l11.1-7.6l9,2.2l9.2-1.3l2.8,4l5.3-0.1l1.4-6.6l0-0.2
		l0.1-0.2l4.9-3l-5.8-5.6l-0.3-0.3l0.3-0.2l4.9-4.7l-2.4-6l-0.2-0.5l0.6,0l10-0.7l6-5.7l0.2,0l0.2,0l5.6,0.4l9.5-14.6l0-0.2l0.2,0
		l6.8-0.9l1.8-3.4l0-0.2l0.2,0l5.5-2.7l3.9-5.7l0.1-5.7l-4.7-2.8l-0.2-0.1l0-0.2L827,562l0-0.2l0.1-0.2l9.3-8.3l2.8-8.1l0-0.2l0.2,0
		l8.6-3.7l-1-6.9l-5.8-4.6l-6.1-0.5l-0.2-0.1l-0.2-0.1l-6-14.6l-3.3-2.6l-0.3-0.3l0.3-0.3l2.8-4.5l-0.8-4.3l-3.4,4.4l-0.1,0.2
		l-0.2,0l-3.1-0.2l-1.2,6.9l-0.1,0.2l-0.2,0l-16.3,5.8l-0.3,0l-0.2-0.1l-3-3.7l-3.7,0.3l-0.2,0l-3.8-1.7l-1.5,4.8l-0.1,0.2l-0.1,0.2
		l-7.7,3.2l-0.2,0l-0.2,0l-4.1-1.3l-0.6,4.7l-0.1,0.3l-0.2,0l-8.1,1.7l1,3.8l5.2,3.8l0.3,0.3l-0.3,0.3l-3.8,5.2l-0.3,7.5l3.2,6.1
		l0.2-1.4l1-10.3l0-0.2l2.5-4.8l0-0.3l0.3,0l3.6,0.2l0.2,0l0.2,0.3l0.9,3.8l0,0.2l-1,9.4l1.2,8.9l1.7,4.8l0.2,0l-0.1,0.2l-1.5,4.9
		l0,0.2l-2.7,2.8l-0.8,1.8l1.3,3l0,0.2l0,0.2l-1,3.2l-0.1,0.2l-0.2,0l-3,1l0.1,3.4l0,0.2l-3.6,6.8l-0.1,0.2l-5.7,2.1l-3.5,5.5
		l-0.1,0.2l-0.2,0l-4.3,0l-0.8,6.7l0,0.2l-3.1,3.9l0,0.2l-0.2,0l-10.2,5.4l-1.1,4.9l0,0.2l-0.3,0.2l-6.6,2.6l-0.3,0.2l-0.2-0.5
		l-1.2-3.8l-7.2-0.9l-0.3,0l0-0.3l-1-5.2l-5.4-6l-6.6,0.5l-0.2,0l-0.2-0.1l-14.5-9.8l0-0.2l-4.7-5.6l-6.6,5.4l-0.1,0.2l-0.2,0
		l-3.9,0.1l0.2,0.9l0.2,0.1l-0.1,0.2l-2,2.3l1,3l0,0.2l-0.1,0.2l-2.7,3.4L684,615.1z"/>
	<path class="st0" d="M588.6,651.2l25.3-11.5l9.2-1.3l1.7,2.2l14.1,2.1l1.5,6.1l5.4,2.3l14.8,0.7l5.9,0.4l3.1,2.6l4.5-1.9l4.1-4
		l2.4-7.6l-5.4-5.7l0-9.3l3.2-1.3l-0.1-4.2l4.2-0.4l0.9-4.7l-3.1-5.1l0-0.2l0.1-0.3l2.7-3.4l-1-3l-0.2-0.3l0.1-0.2l2-2.3l-0.6-2.1
		l-6,0.9l-0.2,0l-0.2,0l-15.9-9.6l-0.6,4.2l0,0.3l-0.3,0l-18.4,3l-0.7,4.9l-0.1,0.3l-0.2,0l-3.5,1.2l0.5,3.4l0,0.2l-0.1,0.2
		l-4.7,3.6l-0.1,3.3l0,0.3l-0.3,0.2l-3.3,1l-5.7,5.5l-0.2,0l-0.2,0l-14.3-0.9l-0.2,0l-9.2-5.6l-4,0l-2,7l-0.1,0.3l-0.3,0l-10,1.3
		l1.1,6.9l6.8,10.4l0.2,0.3l-0.1,0.2l-4.1,3.2L588.6,651.2z"/>
	<path class="st0" d="M531.1,634.6l1.3,6.9l6.7,3.2l0.6,6.8l6.6,0.9l2.9,3.1l7-4.4l1.7,5l5.1,6.5l7.3,0.3l1.8-4.9l9.7-1.1l6.1-5.2
		l-1.6-7l0-0.2l0.1-0.2l4-3.1l-6.6-10.1l0-0.2l-1.1-6.7l-5,4.4l-0.3,0.2l-0.2-0.3l-5.2-5.7l-0.2-0.1l0-0.2l1.2-7.4l-2.8-2.9
		l-8.1,0.3l0,0.2l-0.3,0l-5,1.4l-0.2,0l-0.3-0.1l-4.4-2.9l-0.1,3.4l0,0.2l0,0.2l-3.6,6.3l-0.1,0.2l-0.2,0l-7.5-0.1l-5.7,2.4
		l-2.1,3.4l3.8,1.6l0.2,0l0,0.2l1.4,4.2l0.2,0.5l-0.5,0L531.1,634.6z M573.4,614.4l4.4-1.9l3.1-1.9l5.2-5.9l-1.5-3.5l0-0.2l0-0.2
		l0.6-4.1l-1.8-5.1l0-0.2l0.1-0.2l3.4-4.9l1.5-5.8l-5.5-1.5l-0.2,0l0-0.2l-1.3-3.3l0-0.2l0.1-0.2l3.9-5.9l-2.7-5.4l0-0.2l0-0.2
		l0.8-4.4l0-0.2l0.1-0.2l5.5-3l2.6-3l-6.8-11.2l0-0.2l0-0.2l0.6-4.1l-6.3,3.2l-0.2,0l-0.2,0l-8.6-3.1l-9.5,2.1l-3.2,4.6l-0.1,0.2
		l-0.2,0l-9.9,0.7l1.7,26.4l3.5-0.7l0.3,0l0,0.3l1,5.2l5.3,4.9l2,4.5l4.9,2.9l0.3,0.3l-0.3,0.3l-3.3,4.4l3,2.9l0.2,0.1l0,0.2l-1,5.5
		l0,0.2l-0.1,0.2l-3.4,2.6l0.1,6.3l8.2-0.3l0.2,0l0.2,0.1L573.4,614.4z"/>
	<path class="st0" d="M476,578.3l13,45.9l5.2-1.1l3.3-5.5l3.5,1.2l1.3,5.3l11.6,5.4l8.4-3.8l4.8,1.7l3.9,6.6l6.3-1.2l-1.2-3.6
		l-4-1.7l-0.3-0.1l0.1-0.5l2.5-3.9l0.2,0l5.9-2.6l0.2,0l7.3,0.3l3.4-6.1l0-4l0.1-0.6l0.5,0.4l4.9,3.2l4.6-1.3l-0.2-6.8l0-0.2
		l0.1-0.2l3.4-2.6l1-5.2l-3.2-3l-0.3-0.1l0.3-0.3l3.1-4.3l-4.5-2.9l-0.2,0l0-0.2l-2-4.5l-5.5-5l0-0.2l-1-5l-3.5,0.7l-4.2,4.5
		l-0.1,0.2l-0.2,0l-8.7-0.3l-2.5,2.2l-0.3,0.2l-0.2-0.1l-2.8-1.8l-7.1,7.8l-0.3,0.3l-0.2-0.3l-6.4-5.3l0-0.2l-1.4-4.2l-5.2-6
		l-19.4,8.2l-0.2,0l-4.5-1.5l-1.8,1.5l-0.3,0.2l-0.2-0.1l-3.2-1.8L476,578.3z"/>
	<path class="st0" d="M459.4,559.4l10.4-0.4l-3.9,4.8l9.7,13.7l4-2.8l0.3-0.2l0.2,0.1l3.2,1.8l1.9-1.5l0.1-0.2l0.2,0.1l4.5,1.5
		l19.4-8.3l0.3,0l0.2,0.1l5.4,6.4l0.2,0l0,0.2l1.2,4.1l5.9,5l7.1-7.8l0.1-0.3l0.3,0.3l2.8,1.8l2.5-2l0-0.2l0.2,0l8.7,0.3l4.2-4.3
		l-1.7-26.7l-3.6,0.3l-4.5,4.5l-0.3,0.2l-0.3-0.3l-2.3-2.5l0-0.2l0-0.2l-0.1-10.1l-14.5,0.6l-0.2,0l-0.2-0.1l-3-4.8l-7.5,0.8l-0.3,0
		l0-0.3l-1.9-5.3l-5.1-5.8l-26.3-10.2l0.6,8.2l0,0.3l-0.2,0l-4.6,3.1l1.8,5.3l0.2,0.5l-0.5,0l-6.2,0.1l-4.8,2.4l-2.4,5.1l1.6,14.6
		l0,0.2L459.4,559.4z"/>
	<path class="st0" d="M417.7,528.4l3,0.6l0.7,5.2l-1.7,2.1l1.5,3.6l-3.7,4.9l1,3.3l8.8,1.4l0.8,4.6l4.2,0l3.3,0.5l3.5,3.3l-4.4,4.2
		l0.2,3.2l4.5-1.7l4.2,1.9l3.5-1l2.9-2.8l8.5-2.2l2.8-8.4l-1.6-14.5l0-0.2l0.1-0.2l2.6-5.5l0.1-0.2l4.8-2.4l0.2,0l5.9-0.1l-1.7-5
		l0-0.3l0.1-0.2l4.7-3.1l-1.4-20.4l-3.8-3.5l-0.2-0.3l0.1-0.2l3.4-4.7l-0.5-2.8l-6.5,5.1l-0.2,0l-0.2,0l-5.3,0.2l-0.2,0l-5.3-2.6
		l-5.5,1.2l-0.1,0.2l-0.2-0.1l-7.6-4.7l-3.3-0.4l-0.6,0l0.3-0.5l2.2-3.6l-3.8-3.3l-6.3,7.1l-0.2,6.2l0,0.2l-1.8,2.5l0.6,2l4.4,1.2
		l0.2,0.1l0,0.2l1.7,3.9l0.2,0l0,0.2l-0.7,3.8l0,0.2l-1.4,2.4l-0.1,0.3l-0.2-0.1l-5.2-0.6l-3.4,4.4l-0.8,4.7l0,0.2l-0.1,0.2
		l-6.2,6.6L417.7,528.4z"/>
	<path class="st0" d="M554.8,465.3l-5.8-3.5l-10.4,7.1l-0.3,0l-0.2,0l-9.6-6.2l-13.1,0.8l-0.2,0l0-0.2l-9-5.1l-6.3-1.3l-5.4,4.7
		l-3.2,13.9l-0.1,0.3l-0.3,0l-5.1-0.3l-3.7,2.7l-0.5,4.2l0,0.2l-0.1,0.2l-6.7,4.5l0.7,3.2l0,0.2l-0.1,0.2l-3.2,4.6l3.6,3.3l0,0.2
		l0,0.2l0.8,11.7l26.6,10.4l0.2,0l0,0.2l5.4,5.8l0,0.2l1.8,5.1l7.4-0.8l0.3,0l0.2,0.3l3,4.6l14.7-0.6l0.3,0l0,0.3l0.1,10.4l1.9,2.2
		l4.5-4.2l0.1-0.2l0.2,0l3.9-0.3l0.5,0l9.6-0.7l3.4-4.4l0-0.2l0.2,0l9.8-2.1l0.2,0l8.6,3.1l6.4-3.4l-0.2-6.8l0-0.2l0.1-0.2l6.7-5.7
		l0.5-3.3l-6.2-1.6l-0.2,0l-4.6-4.2l-0.2,0l0-0.2l-1.2-5.8l0-0.2l0.1-0.2l7.3-7.2l0-3.9l-5.1-0.3l-0.2,0l-0.2-0.1l-6.4-11.3
		l-19.7-1.6l-0.3-0.1l0-0.3l-0.4-5.4l0-0.2l2.4-3.4L554.8,465.3z"/>
	<path class="st0" d="M586.4,558.4l-2.2,1.2l-0.8,4.2l2.9,5.4l0,0.3l-0.1,0.2l-3.9,5.9l1.1,2.9l5.7,1.6l0.5,0.1l-0.1,0.3l-1.6,6.3
		l-0.2,0l-3.2,4.9l1.6,5.2l0.2,0l-0.1,0.2l-0.6,4.1l1.6,3.5l0,0.2l-0.1,0.2l-5.3,6.3l-0.2,0l-3.3,1.9l-4.4,2l-1.2,7.1l4.9,5.4
		l5.1-4.5l0.6-0.5l0,0.3l9.8-1.3l2.1-7l0-0.3l0.3,0l4.2,0l2.5-6.4l0-0.2l0.2,0l5.1-2.4l1.4-3.7l-0.3-3.9l0-0.3l0.2,0l4.6-3l-0.6-4.1
		l-2.4-5.9l-1.3-5.6l-4.9-6.3l0-0.2l0-0.3l1.6-4.1l-3.4-1.9l-5.5,1l-0.2,0l-6,0.4l-0.3,0l0-0.2L586.4,558.4z"/>
	<path class="st0" d="M556.2,260.1l3.7,4.2l2.4-1.3l-1.2-6.1l-2.6-1.1L556.2,260.1z"/>
	<path class="st0" d="M563.7,231.1l1.9,2.2l1.7-2.1l-1-3l-2.3,0.9L563.7,231.1z"/>
	<path class="st0" d="M621.6,116.4l7.7,0.9l-2.1-5.6l-5.2,0.5L621.6,116.4z"/>
	<path class="st0" d="M629,130.2l3.8-5.8l-1.3-4.9l3.8-2.9l3.7-4.3l4.8,3.7l3,6.9l1.8,3.1l-4,2.5l0.3,4l-10,5.4l-5.6-4.4L629,130.2z
		"/>
	<path class="st0" d="M625.7,136.5l8.1,2.5l-0.8,3.8l-3.6,2.3l-5.5-3.2l-1.2-3.5L625.7,136.5z"/>
	<path class="st0" d="M633.5,148.6l2.9-8.9l9.4-5.5l2.2,6.5l2.6-1l0.1-3l4.6,4l0.1,5.7l-2.9,5.5l3,3l-0.4,5l-3.4,2.1l-7.4-4.4
		l-6.9-5.1l-3.7-1.3L633.5,148.6z"/>
	<path class="st0" d="M659.2,151.8l-0.1,11.3l-3.6,8l2,5.9l6.7-6.2l7.4-1l3.6-4.3l-0.2-9l-4.5-5l-3.2,3.6l-2.1-1.9L665,148
		L659.2,151.8z"/>
	<path class="st0" d="M681,166.5l0.8,3l5.6,0.8l-0.3-2.2l-5.8-3L681,166.5z"/>
	<path class="st0" d="M640.6,192.2l3.1,2l2.1-1.4l-1.8-3.1L640.6,192.2z"/>
	<path class="st0" d="M614.8,189.8l3.8,1.7l-0.1-2.9l-2.5-2.5l-1.6,1.5L614.8,189.8z"/>
	<path class="st0" d="M638.2,200.2l1.5,1.4l1.6-1.8l-2.1-1.9L638.2,200.2z"/>
	<path class="st0" d="M579.4,242.5l3,2.4l1.7-2l-0.8-2.9l-2.5-0.4L579.4,242.5z"/>
	<path class="st0" d="M586.5,245.4l1.6,1l0.9-2.1l-2-1.9L586.5,245.4z"/>
	<path class="st0" d="M590,237.4l1.6,1l0.8-1.8l-2.4-1.4L590,237.4z"/>
	<path class="st0" d="M592.4,233.1l2,1.3l1.5-2.4l-2.9-1.8l-1.3,1.2L592.4,233.1z"/>
	<path class="st0" d="M578.9,219.8l2.1,1.1l2.8-1.9l-1.9-2.8l-2.5-0.6l-2.3,2.3L578.9,219.8z"/>
	<path class="st0" d="M584.4,209.1l-0.5,1.7l1.7,2.1l1.4-1.8l0-2L584.4,209.1z"/>
	<path class="st0" d="M574.7,137.9l-0.3,2.3l2.6,2.3l3.4-0.1l-0.4-3.1l-2.5-2.9L574.7,137.9z"/>
	<path class="st0" d="M588.6,118.4l3.3,0.9l3.5-1.2l-2.3-4.5l-2.8-1.8l-1.7,1.8l-0.3,3L588.6,118.4z"/>
	<path class="st0" d="M739.8,404.8l-2.3,3l-0.1,0.2l-0.2,0l-5.8,1.6l-5.1,2.7l0.7,5.8l1.8,3.8l0,0.2l0,0.2l-2.5,6.8l3.3,4.6l0,0.2
		l0,0.2l1.1,7.1l0,0.2l0,0.2l-4,9.3l0,0.2l-0.2,0l-7.4,5.3l3.3,4.7l0.2,0.1l-0.1,0.2l-2.9,4.7l2.1,5.6l6.6,1.7l0.2,0l0,0.2l1.2,4.3
		l0,0.2l-0.1,0.2l-4.4,5.4l-0.1,3.6l3.1,0.6l0.2,0l0,0.2l1.9,4.5l0,0.2l-0.1,0.2l-3.3,3.8l-1.2,5.5l-0.1,0.5l-0.5-0.3l-7.1-3.5
		l-0.2,0l0-0.2l-3.7-6.7l-6,3.2l-0.5,5.9l0,0.2l-0.1,0.2l-12.7,15.9l1.1,6.9l0,0.3l-0.3,0.2l-3.6,1.8l-0.3,0.2l-0.2-0.3l-6.1-11.1
		l-3.2,5l-0.1,0.2l-0.2,0l-14.2,1.6l-4.8,10.7l7,9.4l0.2,0.1l0,0.2l-0.8,5.6l0,0.3l-0.3,0l-6.1,1.4l-3.1,7l0.1,18.5l0,0.3l-0.3,0
		l-6.1-0.2l-4.2,2.3l0.2,3.6l11,8.5l16.2,9.7l6.1-0.9l0.3,0l0,0.3l0.4,1.1l4-0.1l6.7-5.6l0.3-0.2l0.2,0.3l4.9,5.9l14.3,9.8l6.6-0.5
		l0.2,0l0.2,0.1l5.6,6.3l0,0.2l0,0.2l1,5l7.2,0.9l0.3,0l0,0.2l1.2,3.6l6-2.4l0.9-4.4l-6.5,0.5l-0.3,0l-0.2-0.1l-1.6-3l-0.2-0.3
		l0.3-0.2l3-2.1l4.1-0.9l8.1-6.5l2.8-4.8l5.9-6.2l1.1-4.3l3.3-6.6l4-7.3l3.1-10.9l2.3-8.7l-3.6-6.9l0-0.2l0-0.2l0.2-7.8l0-0.2l0-0.2
		l3.7-5.1l-5.1-3.7l-0.2-0.1l0-0.2l-1.1-4.4l0-0.5l0.5,0l8.1-1.7l0.6-4.8l0.1-0.5l0.5,0.1l4.4,1.2l7.4-3l1.7-5.1l0.1-0.3l0.3,0.1
		l4,1.7l3.9-0.3l0.2,0l0.2,0.1l3,3.5l15.9-5.5l1.4-7.1l0.1-0.3l0.3,0l3.3,0.2l3.7-4.9l0.6-0.7l0.2,0.9l0.8,4.9l10,0.8l5.6-4.4
		l-0.2-7.6l-6.5-3.9l-0.2-0.1l0-0.2l-1.1-9.5l0-0.2l0.1-0.2l3.2-2.9l0.2,0l0.2,0l8.5-0.9l-9.1-17.3l-4.5-2.6l-7.2,3.9l-0.3,0.2
		l-0.2-0.5l-3.4-8l-12.2-3.9l-6,1.3l-7.9,20.6l-5.7,7.7l-0.3,0.3l-0.3-0.3l-4.8-4.2l-2.6,5.3l-0.1,0.2l-0.2,0l-8.5,0.9l-5.6,4.9
		l-0.3,0.2l-0.2-0.3l-6-5.5l-0.2-0.1l0-0.2l0-15.4l4.3-12.1l-6.6-1.6l-0.2,0l0-0.2l-3.6-6.7l0-0.2l0-0.2l1.6-9.9l-5.5-2.6l-0.2-0.1
		l0-0.2l-0.4-9.6l-4.4-7.3l-2.9,2.4l-0.1,0.2l-0.2,0l-4.5,0l-0.3,0l0-0.3l-0.4-5.4l0-0.2l0.1-0.2l3.4-2.4L739.8,404.8z M716.4,593
		l-1-3.6l0-0.3l0.3-0.2l3.5-1.3l-1.9-5.3L717,582l0.3-0.2l4.2-1.8l0.3-0.2l0.2,0.3l3.9,6.4l8-5.5l0.3-0.2l0.2,0.3l3.2,3.8l2.6,2.1
		l3.2-1.5l4.5-0.3l0.2,0l0.2,0.1l2.4,3.4l0.2,0.1l-0.1,0.2l-7.9,11.6l-0.1,0.3l-0.3-0.1l-5.5-3.3l-6.4,1.1l-0.2,0l-0.2,0l-4-2
		l-4.7-2.9l-4.7-0.1l-0.3,0L716.4,593z"/>
	<path class="st0" d="M716.1,589.5l0.8,3l4.3,0l0.2,0l0.2,0.1l0.2,0l4.7,3.1l3.9,2.1l6.3-1.1l0.2,0l0.2,0l0.2,0.1l5.2,3l7.6-11.1
		l-2.2-2.9l-4.2,0.3l-3,1.3l-0.3,0.2l-0.1,0.2l-0.2-0.1l-0.2-0.1l-2.6-2.1l-0.2,0l0-0.2l-2.9-3.5l-7.7,5.3l-0.5,0.2l-0.3,0.2
		l-0.2-0.3l-0.2-0.3l-3.7-6.3l-3.6,1.6l1.9,5l0,0.5l0.2,0.3l-0.3,0.2l-0.3,0L716.1,589.5z"/>
	<path class="st0" d="M779.7,637.3l3.4-0.1l3.9,6.2l26.6,0.6l17-11.9l5.7-0.6l1.4-6l8.1-8.6l12-1.5l3.8,3.1l4.8-5l21.5,1.9l2.5-8.6
		l6.9-5.6l-3.6-7.2l1.8-20.4l5-5.8l-4.4-9.5l-7.8-0.2l4.7-10.4l9.1-7.3l-9.6-12.4l-0.2-0.1l0.1-0.2l2.6-4.4l-5.5-2.6l-0.2-0.1l0-0.2
		l-1.5-10.1l-5,1.6l-0.3,0l0.1-0.3l-3.6-5.5l-6.5,4.3l-0.3,0.2l-0.2-0.1l-4.5-3.9l-0.2-0.1l0.1-0.3l2.2-3.6l-8.7-5l-0.2,0l0-0.2
		l-12.1-19.2l-8.8,0.6l-3.1,2.7l1.1,9.1l6.5,3.9l0.2,0.1l0,0.2l0.2,7.9l0,0.2l-0.1,0.2l-5.7,4.6l-0.1,0.2l-0.2,0l-10.1-0.8l-2.5,4.2
		l3.1,2.4l0,0.2l6,14.5l5.9,0.7l0.2,0l0.2,0l5.9,4.5l0.2,0.1l0,0.2l1,7.4l0,0.3l-0.3,0.2l-8.6,3.7l-2.9,8l0,0.2l-9.4,8.3l0.4,5.1
		l4.8,2.8l0.2,0.1l0,0.2l0,6.1l0,0.2l0,0.2l-4.1,5.9l-0.2,0l-5.5,2.7l-1.8,3.5l-0.1,0.2l-0.2,0l-6.6,0.9l-9.5,14.6l-0.1,0.2l-0.2,0
		l-5.8-0.4l-5.8,5.7l-0.1,0.2l-0.2,0l-9.7,0.7l2.4,5.7l0.2,0.3l-0.1,0.2l-5,4.5l6,5.6l0.3,0.3l-0.5,0.2l-5.2,3.2L779.7,637.3z
		 M823.6,610.5l1.5-4.9l0.1-0.2l0.1-0.2l0.2,0l0.2,0l10.4-2l2.5-6.4l0.1-0.5l0.1-0.5l0.3,0.3l0.3,0.3l2.5,2l2.1-6l0-0.2l0.1-0.2
		l0.2,0l0.2,0l5.2-1.4l0.2,0l0.2,0l0.2,0.1l0.2,0.1l6.6,3.6l0.2,0.1l0.2,0.1l0,0.3l0,0.3l-0.5,4.2l0,0.3l0,0.3l-0.3,0l-0.3,0l-3,1
		l5.6,4.4l0.5,0.3l0.5,0.3l-0.4,0.3l-0.4,0.3l-21.2,12l-0.1,0.2l-0.1,0.2l-0.2-0.1l-0.2-0.1l-13.2-7l-0.3-0.1l-0.3-0.1l0.1-0.3
		L823.6,610.5z"/>
	<path class="st0" d="M825.9,605.8l-1.5,4.9l13.2,7l21.2-12l-6.2-5l-0.5-0.4l0.6-0.2l3.8-1.2l0.5-4.2l-6.6-3.6l-5.2,1.4l-2.3,6.7
		l-0.1,0.5l-0.3-0.4l-3-2.3l-2.6,6.5l-0.1,0.3l-0.2,0L825.9,605.8z"/>
	<path class="st0" d="M733,405l-0.3,0.2l-0.2-0.1l-4.4-2.9l-10.2,0.7l0.1-0.5l0.2-5.4l0-0.2l0-0.2l5.4-7.4l1.4-4.7l-4-2.4l-0.2,0
		l-0.4-5.2l-3.5-3.5l-0.2,0l0.1-0.3l0.9-7.2l-3.9-2.7l-0.5-0.1l0.3-0.3l5.3-6.7l-3.9-26.7l-7.5-9.7l3.3-1.9l7.6-7.2l0.1-0.2l0.2,0.1
		l4.8,0.1l1.1-8.5l0-0.2l2.1-3.7l0.3-4.7l0-0.2l0.1-0.2l9.3-8.4L732,280l-0.2-0.1l-0.6-8.2l-9.5-11.6l-1.7-6.2l-2.9-3.2l-0.2-0.1
		l0.1-0.2l-0.1-3.6l-5.1,3l-5.7,5.1l-8.2,3.1l-2.9,5.8l-0.3-8l15.5-18.5l8.1-17.3l3.3-15.3l-14-13.8l-12.1,0.4l-3.9,6.3l-4.7,1.3
		l2.8-10.6l-10-0.5l2.9-4.9l-6.4-4.7l-5.3,2.5l-7.7,13.4l2.5,7.6l-9.2,1.3l0.3,2.3l3.8,4.9l-6.7-0.9l-3.2,3.5l-7.8-0.8l-1.2-3.5
		l-10.9,1.1l0.7,6.2l-13,2.8l-8.5,7.7l-6.8,0.6l-4.8,4.8l-1.5,9.1l4.7,7.4l-6.2,2l-17.3-1.6l-9.9,0.5l-2.7,5.6l0.7,14.1l6.6,5.7
		l3.6,6.7l-8.6,0.6l-8.5-13.4l-5.4,0.7l0.1,0.8l5.5,9.7l0.2,0.5l-0.5,0.2l-5,1.1l-0.6,6.4l5.3,9.7l0.2,0.1l-0.9,4.9l0,0.3l-0.3,0
		l-10.8,5.9l-1,5.7l7.9,9.2l8.3,1.4l0.3,0l0,0.3l2.6,10.2l-0.4,1.3l-2.4,7.6l-0.1,0.3l-0.2,0l-7.4,2.5l2.7,5.2l0,0.2l0,0.2l-2,7.3
		l6.6,7.4l0.2,0.1l0,0.2l-0.5,14.3l5.3,6.3l0.2,0.1l0,0.2l-1.1,10.3l7.6,4.9l0,0.2l0.2,0.1l1.6,7.2l0.2,0.1l-0.1,0.2l-5.7,9.2
		l-0.1,7.9l0,0.2l-0.2,0l-8.8,13.2l0.7,9.9l8.3,3.9l0.2,0.3l0,0.2l-1.3,3.8l0,0.2l-0.1,0.2l-7,3.6l-6.1,1.2l3.3,9.2l0,0.2l0,0.2
		l-2.4,3.4l0.3,4.9l19.5,1.7l0.2,0l0,0.2l6.5,11.2l5.3,0.4l0.3,0l0,0.3l0,4.5l0,0.2l-0.2,0l-7.3,7.2l1.2,5.3l4.5,4l6.5,1.6l0.3,0
		l0,0.5l-0.8,3.8l0,0.2l-0.2,0l-6.6,5.7l0.2,7l0,0.3l-0.6,4.4l6.8,11.3l0,0.3l-0.1,0.2l-2.9,3.3l-2.5,1.4l3.7,8.7l5.7-0.4l5.7-1.2
		l0.2,0l0.2,0.1l3.9,2.1l0.3,0.1l-0.1,0.3l-1.7,4.3l4.8,6.3l0,0.2l1.5,5.6l2.4,5.9l0,0.2l0.6,4.3l0,0.3l-0.2,0l-4.8,3l0.3,3.9l0,0.2
		l-1.4,3.8l0,0.2l-0.2,0l-5.1,2.4l-2.5,6.2l8.9,5.4l14.2,0.7l5.7-5.4l0-0.2l0.2,0l3.2-1l-0.1-3.3l0-0.2l0.2,0l4.7-3.6l-0.5-3.4
		l-0.2-0.5l0.3,0l3.6-1.2l0.9-5l0-0.3l0.3,0l18.4-3l0.6-4.2l-11-8.5l-0.2-0.1l-0.3-4.3l0.1-0.2l4.5-2.5l0.2,0l5.9,0.2l-0.2-18.1
		l0.2,0l0-0.2l3.2-7.4l0-0.2l0.2,0l6.1-1.4l0.9-5.2l-7-9.4l-0.2-0.3l0.1-0.2l5-11l0.1-0.3l0.2,0l14.3-1.6l3.5-5.4l0.3-0.5l0.4,0.6
		l6.2,11.2l3-1.5l-1.1-6.7l0-0.2l0.1-0.2l12.5-15.9l0.5-5.9l0-0.2l7.2-3.9l0.2,0.3l3.8,7l6.4,3.3l1.2-5.2l0-0.2l3.3-3.8l-1.7-4.1
		l-3.3-0.7l-0.3,0l0-0.3l0-4l0.1-0.2l0-0.2l4.4-5.3l-1.1-4l-6.8-1.5l-0.2,0l0-0.3l-2.3-5.9l-0.2-0.3l0.1-0.2l2.9-4.5l-3.3-4.7
		l-0.2-0.3l0.3-0.3l7.5-5.3l3.9-9.1l-1.1-6.7l-3.3-4.6l-0.2-0.1l0.1-0.3l2.5-6.7l-1.8-3.8l0-0.2l-0.7-6.2l0-0.2l0.3-0.2l5.2-2.8
		l0.2,0l5.6-1.6l2.3-3l-2.2-2.3L733,405z"/>
	<path class="st0" d="M1204.6,362.7l-3.1-20.1l-2.8-9.1l-7.1-6.2l-0.1-9.9l3.2-3l-12.5-12.6l-0.3-9.3l4.4-5.6l-1.6-5l-9.8-2.3
		l-11.1-16.7l2.2-1.9l3.4,4.1l4.6-3.4l-7.9-6.6l-3.8,2.6l-6.8-3.7l-0.1,0.2l-3.8-7.6l-6.6,0.5l-0.6,4.7l-4.2-0.2l-15.7-26.3l0.3-8.7
		l5.3-1.6l-5.2-15.9l9.1,6.3l-1.2-19.5l6.3-7.4l10.3-1l-6.9-13.8l-4.9-30.7l-6.5,2.5l-0.2,0l-0.2,0l-5.1-2.3l-6.8,25.1l-0.1,0.3
		l-0.3,0l-10.8,0.4l-9.8,3.8l-0.3,0.2l-0.2-0.5l-3.9-8.7l-13.5,1.7l-2.2,4.5l0,0.2l-0.3,0.2l-9.1,2.8l-1.4,4.9l0,0.3l-0.3,0
		l-5.1,0.8l-1.1,5.8l0,0.2l-0.3,0.2l-5.7,2.3l1.5,5.6l9.3,11.6l5.3,0.7l0.2,0.1l0,0.2l4.4,9.2l5.8-1l0.2,0l0.2,0.1l4.3,3.4l0,0.2
		l1.6,5.6l5.6,2.7l3.5-3.8l-11-11.5l1.9-8.2l9.5-4.2l-4.5,8.2l1.5,5.9l8.3,5l3.7-0.1l0.1,5.6l3.6,0.7l-2.1,16.3l4,5.8l2.6,18.7
		l3.6,11.8l4.7,11.8l-4.1,5.3l1.9,4.5l-2.2,3.4l6.7,6.8l1.9,11.3l9.2,9.1l11,10.7L1204.6,362.7z"/>
	<path class="st0" d="M365.3,392.2l-0.2,0l-12.1-8.6l-4,2.5l-0.1,0.2l-11.5-0.6l0.2,0l-7.8-3.5l-0.2,0l-7.5-7.4l-9-0.1l-2.2,6.7
		l6.9,8l0,0.2l0.9,6l0,0.3l-0.3,0l-10.2,5.2l0.2,3.5l3.1,2.3l0.3,0.1l-3.1,4.7l-2.6,3.3l-3.2,10.3l-0.2,0l-3,3.8l-1.6,5.5l0,0.2
		l-0.2,0l-3.1,4.1l-0.1,0.2l-0.2,0l-3.1,0.1l0.4,7.4l3.4-0.4l0.5,0l0.4,5.9l7.4-0.1l0.3,0l0,0.3l0.6,4.1l3.3,0.5l0.2,0l0,0.3l0.6,2
		l0,0.2l0.7,2.9l1.2,1.3l2.9-0.8l5.7-7.8l0.1-0.2l0.2,0l6.9-1.3l4-7.4l0.3-0.3l0.3,0.3l3.5,3.3l2.6-2l0.9-5l0-0.3l0.3,0l7.7-0.8
		l2-2.8l0.2-5.4l0-0.2l0-0.2l3.3-4.3l-3-4.8l0-0.2l-0.1-4l0-0.2l0.3-0.2l8.1-4.3l8.9-10.1l5.9-9.1l0.9-2.9L365.3,392.2z"/>
	<path class="st0" d="M30.1,467.1l4-5.2l-10.8-12.1l4.7-16.9l-4.4-3.1l-3.4,2.7l-15-8.7l-1.5,3.1L5,438.3l-5,6.1l2,7.9l9.4-1.3
		l11.4,12.4L30.1,467.1z"/>
	<circle class="st1" cx="499.4" cy="401.5" r="20"/>
	<path class="st2" d="M499.4,392.3c-4,0-7.3,3.3-7.3,7.3c0,5.9,7.1,10.8,7.3,11c0,0,7.4-5.1,7.3-11
		C506.7,395.6,503.4,392.3,499.4,392.3z M499.4,403.3c-2,0-3.7-1.6-3.7-3.7c0-2,1.6-3.7,3.7-3.7c2,0,3.7,1.6,3.7,3.7
		C503,401.7,501.4,403.3,499.4,403.3z"/>
	<circle class="st1" cx="691.4" cy="558.5" r="20"/>
	<path class="st2" d="M691.4,549.3c-4,0-7.3,3.3-7.3,7.3c0,5.9,7.1,10.8,7.3,11c0,0,7.4-5.1,7.3-11
		C698.7,552.6,695.4,549.3,691.4,549.3z M691.4,560.3c-2,0-3.7-1.6-3.7-3.7c0-2,1.6-3.7,3.7-3.7c2,0,3.7,1.6,3.7,3.7
		C695,558.7,693.4,560.3,691.4,560.3z"/>
	<circle class="st1" cx="759.4" cy="310.5" r="20"/>
	<path class="st2" d="M759.4,301.3c-4,0-7.3,3.3-7.3,7.3c0,5.9,7.1,10.8,7.3,11c0,0,7.4-5.1,7.3-11
		C766.7,304.6,763.4,301.3,759.4,301.3z M759.4,312.3c-2,0-3.7-1.6-3.7-3.7c0-2,1.6-3.7,3.7-3.7c2,0,3.7,1.6,3.7,3.7
		C763,310.7,761.4,312.3,759.4,312.3z"/>
	<circle class="st1" cx="964.4" cy="191.5" r="20"/>
	<path class="st2" d="M964.4,182.3c-4,0-7.3,3.3-7.3,7.3c0,5.9,7.1,10.8,7.3,11c0,0,7.4-5.1,7.3-11
		C971.7,185.6,968.4,182.3,964.4,182.3z M964.4,193.3c-2,0-3.7-1.6-3.7-3.7c0-2,1.6-3.7,3.7-3.7c2,0,3.7,1.6,3.7,3.7
		C968,191.7,966.4,193.3,964.4,193.3z"/>
	<circle class="st1" cx="832.4" cy="359.5" r="20"/>
	<path class="st2" d="M832.4,350.3c-4,0-7.3,3.3-7.3,7.3c0,5.9,7.1,10.8,7.3,11c0,0,7.4-5.1,7.3-11
		C839.7,353.6,836.4,350.3,832.4,350.3z M832.4,361.3c-2,0-3.7-1.6-3.7-3.7c0-2,1.6-3.7,3.7-3.7c2,0,3.7,1.6,3.7,3.7
		C836,359.7,834.4,361.3,832.4,361.3z"/>
	<circle class="st1" cx="468.4" cy="303.5" r="20"/>
	<path class="st2" d="M468.4,294.3c-4,0-7.3,3.3-7.3,7.3c0,5.9,7.1,10.8,7.3,11c0,0,7.4-5.1,7.3-11
		C475.7,297.6,472.4,294.3,468.4,294.3z M468.4,305.3c-2,0-3.7-1.6-3.7-3.7c0-2,1.6-3.7,3.7-3.7c2,0,3.7,1.6,3.7,3.7
		C472,303.7,470.4,305.3,468.4,305.3z"/>
	<circle class="st1" cx="874.4" cy="249.5" r="20"/>
	<path class="st2" d="M874.4,240.3c-4,0-7.3,3.3-7.3,7.3c0,5.9,7.1,10.8,7.3,11c0,0,7.4-5.1,7.3-11
		C881.7,243.6,878.4,240.3,874.4,240.3z M874.4,251.3c-2,0-3.7-1.6-3.7-3.7c0-2,1.6-3.7,3.7-3.7c2,0,3.7,1.6,3.7,3.7
		C878,249.7,876.4,251.3,874.4,251.3z"/>
	<circle class="st1" cx="571.4" cy="340.5" r="20"/>
	<path class="st2" d="M571.4,331.3c-4,0-7.3,3.3-7.3,7.3c0,5.9,7.1,10.8,7.3,11c0,0,7.4-5.1,7.3-11
		C578.7,334.6,575.4,331.3,571.4,331.3z M571.4,342.3c-2,0-3.7-1.6-3.7-3.7c0-2,1.6-3.7,3.7-3.7c2,0,3.7,1.6,3.7,3.7
		C575,340.7,573.4,342.3,571.4,342.3z"/>
	<circle class="st1" cx="404.4" cy="386.5" r="20"/>
	<path class="st2" d="M404.4,377.3c-4,0-7.3,3.3-7.3,7.3c0,5.9,7.1,10.8,7.3,11c0,0,7.4-5.1,7.3-11
		C411.7,380.6,408.4,377.3,404.4,377.3z M404.4,388.3c-2,0-3.7-1.6-3.7-3.7c0-2,1.6-3.7,3.7-3.7c2,0,3.7,1.6,3.7,3.7
		C408,386.7,406.4,388.3,404.4,388.3z"/>
	<circle class="st1" cx="911.4" cy="445.5" r="20"/>
	<path class="st2" d="M911.4,436.3c-4,0-7.3,3.3-7.3,7.3c0,5.9,7.1,10.8,7.3,11c0,0,7.4-5.1,7.3-11
		C918.7,439.6,915.4,436.3,911.4,436.3z M911.4,447.3c-2,0-3.7-1.6-3.7-3.7c0-2,1.6-3.7,3.7-3.7c2,0,3.7,1.6,3.7,3.7
		C915,445.7,913.4,447.3,911.4,447.3z"/>
	<circle class="st1" cx="1042.4" cy="436.5" r="20"/>
	<path class="st2" d="M1042.4,427.3c-4,0-7.3,3.3-7.3,7.3c0,5.9,7,10.8,7.3,11c0,0,7.4-5.1,7.3-11
		C1049.7,430.6,1046.4,427.3,1042.4,427.3z M1042.4,438.3c-2,0-3.7-1.6-3.7-3.7c0-2,1.6-3.7,3.7-3.7s3.7,1.6,3.7,3.7
		C1046.1,436.7,1044.4,438.3,1042.4,438.3z"/>
	<circle class="st1" cx="681.4" cy="365.5" r="20"/>
	<path class="st2" d="M681.4,356.3c-4,0-7.3,3.3-7.3,7.3c0,5.9,7.1,10.8,7.3,11c0,0,7.4-5.1,7.3-11
		C688.7,359.6,685.4,356.3,681.4,356.3z M681.4,367.3c-2,0-3.7-1.6-3.7-3.7c0-2,1.6-3.7,3.7-3.7c2,0,3.7,1.6,3.7,3.7
		C685,365.7,683.4,367.3,681.4,367.3z"/>
	<circle class="st1" cx="744.4" cy="438.5" r="20"/>
	<path class="st2" d="M744.4,429.3c-4,0-7.3,3.3-7.3,7.3c0,5.9,7.1,10.8,7.3,11c0,0,7.4-5.1,7.3-11
		C751.7,432.6,748.4,429.3,744.4,429.3z M744.4,440.3c-2,0-3.7-1.6-3.7-3.7c0-2,1.6-3.7,3.7-3.7c2,0,3.7,1.6,3.7,3.7
		C748,438.7,746.4,440.3,744.4,440.3z"/>
	<circle class="st1" cx="610.4" cy="441.5" r="20"/>
	<path class="st2" d="M610.4,432.3c-4,0-7.3,3.3-7.3,7.3c0,5.9,7.1,10.8,7.3,11c0,0,7.4-5.1,7.3-11
		C617.7,435.6,614.4,432.3,610.4,432.3z M610.4,443.3c-2,0-3.7-1.6-3.7-3.7c0-2,1.6-3.7,3.7-3.7c2,0,3.7,1.6,3.7,3.7
		C614,441.7,612.4,443.3,610.4,443.3z"/>
	<circle class="st1" cx="936.4" cy="307.5" r="20"/>
	<path class="st2" d="M936.4,298.3c-4,0-7.3,3.3-7.3,7.3c0,5.9,7.1,10.8,7.3,11c0,0,7.4-5.1,7.3-11
		C943.7,301.6,940.4,298.3,936.4,298.3z M936.4,309.3c-2,0-3.7-1.6-3.7-3.7c0-2,1.6-3.7,3.7-3.7c2,0,3.7,1.6,3.7,3.7
		C940,307.7,938.4,309.3,936.4,309.3z"/>
	<circle class="st1" cx="944.4" cy="491.5" r="20"/>
	<path class="st2" d="M944.4,482.3c-4,0-7.3,3.3-7.3,7.3c0,5.9,7.1,10.8,7.3,11c0,0,7.4-5.1,7.3-11
		C951.7,485.6,948.4,482.3,944.4,482.3z M944.4,493.3c-2,0-3.7-1.6-3.7-3.7c0-2,1.6-3.7,3.7-3.7c2,0,3.7,1.6,3.7,3.7
		C948,491.7,946.4,493.3,944.4,493.3z"/>
	<circle class="st1" cx="614.4" cy="515.5" r="20"/>
	<path class="st2" d="M614.4,506.3c-4,0-7.3,3.3-7.3,7.3c0,5.9,7.1,10.8,7.3,11c0,0,7.4-5.1,7.3-11
		C621.7,509.6,618.4,506.3,614.4,506.3z M614.4,517.3c-2,0-3.7-1.6-3.7-3.7c0-2,1.6-3.7,3.7-3.7c2,0,3.7,1.6,3.7,3.7
		C618,515.7,616.4,517.3,614.4,517.3z"/>
	<circle class="st1" cx="538.4" cy="578.5" r="20"/>
	<path class="st2" d="M538.4,569.3c-4,0-7.3,3.3-7.3,7.3c0,5.9,7.1,10.8,7.3,11c0,0,7.4-5.1,7.3-11
		C545.7,572.6,542.4,569.3,538.4,569.3z M538.4,580.3c-2,0-3.7-1.6-3.7-3.7c0-2,1.6-3.7,3.7-3.7c2,0,3.7,1.6,3.7,3.7
		C542,578.7,540.4,580.3,538.4,580.3z"/>
	<circle class="st1" cx="226.4" cy="462.5" r="20"/>
	<path class="st2" d="M226.4,453.3c-4,0-7.3,3.3-7.3,7.3c0,5.9,7.1,10.8,7.3,11c0,0,7.4-5.1,7.3-11
		C233.7,456.6,230.4,453.3,226.4,453.3z M226.4,464.3c-2,0-3.7-1.6-3.7-3.7c0-2,1.6-3.7,3.7-3.7c2,0,3.7,1.6,3.7,3.7
		C230,462.7,228.4,464.3,226.4,464.3z"/>
	<circle class="st1" cx="492.4" cy="480.5" r="20"/>
	<path class="st2" d="M492.4,471.3c-4,0-7.3,3.3-7.3,7.3c0,5.9,7.1,10.8,7.3,11c0,0,7.4-5.1,7.3-11
		C499.7,474.6,496.4,471.3,492.4,471.3z M492.4,482.3c-2,0-3.7-1.6-3.7-3.7c0-2,1.6-3.7,3.7-3.7c2,0,3.7,1.6,3.7,3.7
		C496,480.7,494.4,482.3,492.4,482.3z"/>
	<circle class="st1" cx="356.4" cy="454.5" r="20"/>
	<path class="st2" d="M356.4,445.3c-4,0-7.3,3.3-7.3,7.3c0,5.9,7.1,10.8,7.3,11c0,0,7.4-5.1,7.3-11
		C363.7,448.6,360.4,445.3,356.4,445.3z M356.4,456.3c-2,0-3.7-1.6-3.7-3.7c0-2,1.6-3.7,3.7-3.7c2,0,3.7,1.6,3.7,3.7
		C360,454.7,358.4,456.3,356.4,456.3z"/>
	<circle class="st1" cx="312.4" cy="367.5" r="20"/>
	<path class="st2" d="M312.4,358.3c-4,0-7.3,3.3-7.3,7.3c0,5.9,7.1,10.8,7.3,11c0,0,7.4-5.1,7.3-11
		C319.7,361.6,316.4,358.3,312.4,358.3z M312.4,369.3c-2,0-3.7-1.6-3.7-3.7c0-2,1.6-3.7,3.7-3.7c2,0,3.7,1.6,3.7,3.7
		C316,367.7,314.4,369.3,312.4,369.3z"/>
	<circle class="st1" cx="273.4" cy="281.5" r="20"/>
	<path class="st2" d="M273.4,272.3c-4,0-7.3,3.3-7.3,7.3c0,5.9,7.1,10.8,7.3,11c0,0,7.4-5.1,7.3-11
		C280.7,275.6,277.4,272.3,273.4,272.3z M273.4,283.3c-2,0-3.7-1.6-3.7-3.7c0-2,1.6-3.7,3.7-3.7c2,0,3.7,1.6,3.7,3.7
		C277,281.7,275.4,283.3,273.4,283.3z"/>
	<circle class="st1" cx="809.4" cy="502.5" r="20"/>
	<path class="st2" d="M809.4,493.3c-4,0-7.3,3.3-7.3,7.3c0,5.9,7.1,10.8,7.3,11c0,0,7.4-5.1,7.3-11
		C816.7,496.6,813.4,493.3,809.4,493.3z M809.4,504.3c-2,0-3.7-1.6-3.7-3.7c0-2,1.6-3.7,3.7-3.7c2,0,3.7,1.6,3.7,3.7
		C813,502.7,811.4,504.3,809.4,504.3z"/>
	<circle class="st1" cx="190.4" cy="361.5" r="20"/>
	<path class="st2" d="M190.4,352.3c-4,0-7.3,3.3-7.3,7.3c0,5.9,7.1,10.8,7.3,11c0,0,7.4-5.1,7.3-11
		C197.7,355.6,194.4,352.3,190.4,352.3z M190.4,363.3c-2,0-3.7-1.6-3.7-3.7c0-2,1.6-3.7,3.7-3.7c2,0,3.7,1.6,3.7,3.7
		C194,361.7,192.4,363.3,190.4,363.3z"/>
</g>
</svg>
