<svg width="25" height="25" fill="none" xmlns="http://www.w3.org/2000/svg"><path d="M22.5 5.989l-2.467 8.823H7.506L4.833 1.468H0V3.47h3.189l2.673 13.344H21.41L25 5.989h-2.5zM9.358 17.481a3.009 3.009 0 00-3.008 3.002 3.009 3.009 0 006.016 0 3.009 3.009 0 00-3.008-3.002zm0 4.003a1.003 1.003 0 01-1.003-1 1.003 1.003 0 012.006 0c0 .551-.45 1-1.003 1zm8.69-4.003a3.009 3.009 0 00-3.008 3.002 3.009 3.009 0 006.016 0 3.009 3.009 0 00-3.008-3.002zm0 4.003a1.003 1.003 0 01-1.003-1 1.003 1.003 0 012.006 0c0 .551-.45 1-1.003 1z"/><path d="M8 5.989h16v1.996H8z"/></svg>