<svg width="16" height="16" fill="none" xmlns="http://www.w3.org/2000/svg"><path d="M14.88 7.23l-.414-1.657a.25.25 0 00.198-.245V5.06c0-.58-.472-1.053-1.052-1.053h-1.888v-.55a.518.518 0 00-.517-.519h-9.62a.518.518 0 00-.518.518V8a.25.25 0 00.5 0V3.457c0-.009.008-.016.018-.016h9.62c.009 0 .016.007.016.016V8a.25.25 0 00.501 0v-.284h2.957a.82.82 0 01.779.568h-.78a.25.25 0 00-.25.25v.535c0 .433.352.785.785.785h.284v1.102h-.655a1.589 1.589 0 00-1.5-1.069c-.693 0-1.284.448-1.499 1.07h-.12V9.068a.25.25 0 10-.502 0v1.887H6.026a1.59 1.59 0 00-1.5-1.069 1.59 1.59 0 00-1.5 1.07h-1.44a.017.017 0 01-.016-.018v-.55h1.086a.25.25 0 000-.502H.25a.25.25 0 000 .501h.818v.551c0 .286.232.518.518.518H2.94v.017a1.587 1.587 0 003.173 0v-.017h5.645v.017c0 .875.712 1.586 1.586 1.586.875 0 1.587-.711 1.587-1.586v-.017h.818a.25.25 0 00.251-.25V8.534c0-.66-.487-1.207-1.12-1.304zm-3.156-2.72h1.888a.55.55 0 01.55.55v.017h-2.438V4.51zm0 2.705V5.578h2.226l.41 1.637h-2.636zM4.526 12.56a1.087 1.087 0 010-2.172 1.087 1.087 0 010 2.171zm8.819 0a1.087 1.087 0 010-2.172 1.087 1.087 0 010 2.171zm2.154-3.207h-.284a.284.284 0 01-.284-.284v-.284h.568v.568z" fill="#fff"/><path d="M4.526 10.956a.518.518 0 10.001 1.037.518.518 0 00-.001-1.037zm8.818 0a.518.518 0 10.001 1.037.518.518 0 000-1.037zm-2.939-1.069h-3.74a.25.25 0 100 .501h3.74a.25.25 0 000-.5zM3.992 8.818H.785a.25.25 0 000 .501h3.207a.25.25 0 000-.5zm4.719-3.4a.25.25 0 00-.354 0L6.129 7.646 4.97 6.486a.25.25 0 10-.354.355l1.336 1.336a.25.25 0 00.354 0l2.405-2.405a.25.25 0 000-.354z" fill="#fff"/></svg>