<svg xmlns="http://www.w3.org/2000/svg" viewBox="0 0 24 24"><path d="M12 23.5C5.7 23.5.5 18.3.5 12S5.7.5 12 .5 23.5 5.7 23.5 12 18.3 23.5 12 23.5zm0-21.3c-5.4 0-9.8 4.4-9.8 9.8s4.4 9.8 9.8 9.8 9.8-4.4 9.8-9.8-4.4-9.8-9.8-9.8z"/><path d="M11.4 11c-.4.4-.9.6-1.5.6s-1.1-.2-1.5-.6c-.4-.4-.5-.9-.5-1.4 0-.6.2-1 .6-1.4.4-.4.9-.6 1.5-.6s1.1.2 1.5.6c.3.3.5.8.5 1.4 0 .5-.2 1-.6 1.4zm-1.9 4.4l-.8-.4 5.6-6.2.7.4-5.5 6.2zm-.1-5.3c.1.1.3.2.6.2.2 0 .4-.1.6-.2.1-.2.2-.3.2-.6 0-.2-.1-.4-.2-.6-.1-.1-.3-.2-.6-.2-.3.1-.5.2-.6.3-.2.2-.2.3-.2.6 0 .2 0 .4.2.5zm6.7 4.3c0 .6-.2 1-.6 1.4-.4.4-.9.6-1.5.6s-1.1-.2-1.5-.6c-.3-.3-.5-.8-.5-1.4 0-.6.2-1 .6-1.4.4-.4.9-.6 1.5-.6s1.1.2 1.5.6c.4.4.5.9.5 1.4zm-1.5.6c.1-.2.2-.3.2-.6 0-.2-.1-.4-.2-.6-.1-.2-.3-.2-.5-.2s-.4.1-.6.2c-.1.1-.2.3-.2.6 0 .2.1.4.2.6.1.1.3.2.6.2.2 0 .4-.1.5-.2z"/></svg>