<svg width="25" height="23" fill="none" xmlns="http://www.w3.org/2000/svg"><path d="M12.5 22.957L2.095 12.36A7.253 7.253 0 010 7.23C0 3.244 3.184 0 7.095 0A7.02 7.02 0 0112.5 2.545 7.012 7.012 0 0117.905 0C21.815 0 25 3.244 25 7.229a7.238 7.238 0 01-2.099 5.131L12.5 22.957zM7.095 2.075c-2.79 0-5.059 2.312-5.059 5.154a5.17 5.17 0 001.498 3.66l8.97 9.14 8.966-9.135a5.178 5.178 0 001.498-3.66c-.004-2.847-2.274-5.16-5.063-5.16-1.902 0-3.624 1.074-4.499 2.797l-.902 1.782-.901-1.782c-.884-1.727-2.606-2.796-4.508-2.796z"/></svg>