<svg width="16" height="16" fill="none" xmlns="http://www.w3.org/2000/svg"><path d="M14.594.5H1.406C.631.5 0 1.13 0 1.906v9.375c0 .776.63 1.406 1.406 1.406h1.438v2.344a.469.469 0 00.8.332l2.675-2.675h8.275c.775 0 1.406-.631 1.406-1.407V1.906C16 1.131 15.37.5 14.594.5zm.469 10.781a.47.47 0 01-.47.469H6.126a.469.469 0 00-.331.137L3.78 13.9v-1.681a.469.469 0 00-.469-.469H1.407a.47.47 0 01-.468-.469V1.906a.47.47 0 01.468-.468h13.188a.47.47 0 01.469.468v9.375z"/><path d="M11.728 5.497a.469.469 0 00-.38-.321l-2.026-.287L8.418 3.1a.469.469 0 00-.836 0l-.904 1.788-2.025.287a.469.469 0 00-.257.804l1.458 1.388-.344 1.957a.469.469 0 00.676.498L8 8.893l1.814.93a.469.469 0 00.676-.498l-.344-1.957 1.458-1.388a.469.469 0 00.124-.483zm-2.41 1.365a.469.469 0 00-.139.42l.224 1.277-1.189-.61a.468.468 0 00-.428 0l-1.19.61.225-1.276a.469.469 0 00-.138-.421l-.94-.894 1.309-.186a.469.469 0 00.352-.252L8 4.352l.596 1.178c.069.137.2.231.352.252l1.309.186-.94.894z"/></svg>