<svg width="15" height="15" fill="none" xmlns="http://www.w3.org/2000/svg"><path d="M3.563 1.531a1.406 1.406 0 11-2.813 0 1.406 1.406 0 012.813 0zm0 5.625a1.406 1.406 0 11-2.813 0 1.406 1.406 0 012.813 0zm0 5.625a1.406 1.406 0 11-2.813 0 1.406 1.406 0 012.813 0zm5.625-11.25a1.406 1.406 0 11-2.813 0 1.406 1.406 0 012.813 0zm0 5.625a1.406 1.406 0 11-2.813 0 1.406 1.406 0 012.813 0zm0 5.625a1.406 1.406 0 11-2.813 0 1.406 1.406 0 012.813 0zm5.625-11.25a1.406 1.406 0 11-2.813 0 1.406 1.406 0 012.813 0zm0 5.625a1.406 1.406 0 11-2.813 0 1.406 1.406 0 012.813 0zm0 5.625a1.406 1.406 0 11-2.813 0 1.406 1.406 0 012.813 0z" fill="#fff"/></svg>