<svg xmlns="http://www.w3.org/2000/svg" viewBox="0 0 24 24"><path d="M22.3 8.7c-.3-.9-.2-2.4-1-3.4-.8-1.1-2.2-1.4-3-2-.8-.6-1.5-1.8-2.8-2.2-1.2-.5-2.5.1-3.5.1S9.7.6 8.4 1.1c-1.3.4-2 1.7-2.8 2.2-.8.6-2.2.9-3 2-.7 1-.6 2.4-.9 3.4-.3.9-1.2 2-1.2 3.3 0 1.4.9 2.5 1.2 3.3.3.9.2 2.4 1 3.4.8 1.1 2.2 1.4 3 2 .8.6 1.5 1.8 2.8 2.2 1.3.4 2.6-.1 3.6-.1s2.3.6 3.6.1c1.3-.4 2-1.7 2.8-2.2.8-.6 2.2-.9 3-2 .8-1.1.7-2.5 1-3.4.3-.9 1.2-2 1.2-3.3-.2-1.4-1.1-2.5-1.4-3.3zm-1.7 6.1c-.4 1.1-.3 2.3-.7 2.9-.5.6-1.6.9-2.6 1.6-.9.7-1.5 1.7-2.3 2-.7.2-1.8-.2-3-.2s-2.3.5-3 .2c-.7-.2-1.4-1.3-2.3-2-.9-.7-2.1-1-2.6-1.6-.4-.6-.4-1.8-.7-2.9-.3-1.1-1.1-2-1.1-2.8 0-.8.8-1.7 1.1-2.8.4-1.1.3-2.3.7-2.9.5-.6 1.6-.9 2.6-1.6C7.6 4 8.3 3 9 2.7c.7-.2 1.8.3 3 .3s2.3-.5 3-.2c.7.2 1.4 1.3 2.3 2 .9.7 2.1 1 2.6 1.6.4.6.4 1.8.7 2.9.3 1.1 1.1 2 1.1 2.8 0 .7-.8 1.6-1.1 2.7zm-4.5-5.7c.4.4.4.9 0 1.3l-4.5 4.5c-.4.4-.9.4-1.3 0l-2.5-2.5c-.4-.4-.4-.9 0-1.3s.9-.4 1.3 0L11 13l3.9-3.9c.3-.3.9-.3 1.2 0z"/></svg>