<svg width="19" height="19" fill="none" xmlns="http://www.w3.org/2000/svg"><path d="M13.757 0H5.243A5.25 5.25 0 000 5.243v8.514A5.25 5.25 0 005.243 19h8.514A5.25 5.25 0 0019 13.757V5.243A5.25 5.25 0 0013.757 0zm3.557 13.757a3.562 3.562 0 01-3.557 3.557H5.243a3.561 3.561 0 01-3.557-3.557V5.243a3.562 3.562 0 013.557-3.557h8.514a3.562 3.562 0 013.557 3.557v8.514z"/><path d="M9.5 4.604A4.901 4.901 0 004.604 9.5c0 2.7 2.196 4.896 4.896 4.896 2.7 0 4.896-2.197 4.896-4.896 0-2.7-2.197-4.896-4.896-4.896zm0 8.106c-1.77 0-3.21-1.44-3.21-3.21S7.73 6.29 9.5 6.29s3.21 1.44 3.21 3.21-1.44 3.21-3.21 3.21zm5.101-9.535a1.241 1.241 0 00-1.236 1.236c0 .325.132.644.363.875.229.229.548.362.873.362.326 0 .644-.133.874-.362a1.241 1.241 0 000-1.749 1.241 1.241 0 00-.874-.362z"/></svg>