<svg width="19" height="19" fill="none" xmlns="http://www.w3.org/2000/svg"><path d="M9.5 0C6.88 0 4.75 2.13 4.75 4.75S6.88 9.5 9.5 9.5s4.75-2.13 4.75-4.75S12.12 0 9.5 0zm0 7.125A2.377 2.377 0 017.125 4.75 2.377 2.377 0 019.5 2.375a2.377 2.377 0 012.375 2.375A2.377 2.377 0 019.5 7.125z"/><path d="M15.798 9.368a1.186 1.186 0 00-1.679 0 6.54 6.54 0 01-9.237 0 1.188 1.188 0 10-1.68 1.68 8.852 8.852 0 005.281 2.54l-3.385 3.385a1.186 1.186 0 101.679 1.679L9.5 15.929l2.723 2.723a1.185 1.185 0 001.679 0 1.186 1.186 0 000-1.68l-3.386-3.385a8.852 8.852 0 005.281-2.539 1.189 1.189 0 00.001-1.68z"/></svg>