<svg width="23" height="23" fill="none" xmlns="http://www.w3.org/2000/svg"><g fill="#AA161D"><path d="M19.675 9.652c.027-3.243-2.734-6.216-6.157-6.627a4.76 4.76 0 01-.22-.033 3.2 3.2 0 00-.522-.057c-.701 0-.889.493-.938.786-.048.286-.002.526.136.714.232.316.64.372.969.417.096.013.187.025.263.042 3.075.687 4.11 1.768 4.616 4.816.012.075.018.167.024.264.022.364.068 1.123.883 1.123a1.4 1.4 0 00.217-.018c.76-.115.735-.808.724-1.141a1.683 1.683 0 01.005-.286z"/><path d="M12.577 1.835c.091.006.177.013.249.024 5.05.776 7.371 3.168 8.015 8.257.01.087.012.192.014.304.007.398.02 1.225.908 1.242h.028c.278 0 .5-.084.658-.25.277-.29.257-.719.242-1.064-.004-.085-.008-.165-.007-.234.065-5.205-4.44-9.924-9.64-10.1-.022 0-.042 0-.063.004a.434.434 0 01-.062.003c-.052 0-.115-.004-.183-.009A3.67 3.67 0 0012.468 0c-.829 0-.986.589-1.006.94-.046.81.738.867 1.115.895zm8.02 14.858a15.918 15.918 0 01-.322-.25 30.882 30.882 0 00-1.705-1.249l-.353-.246c-.726-.51-1.38-.758-1.997-.758-.831 0-1.556.46-2.154 1.365-.265.401-.586.596-.983.596-.234 0-.5-.066-.79-.198-2.346-1.064-4.02-2.694-4.978-4.847-.463-1.04-.313-1.72.502-2.273.462-.314 1.323-.899 1.262-2.018-.069-1.272-2.874-5.097-4.055-5.531a2.302 2.302 0 00-1.566-.004C2.1 1.736 1.125 2.538.638 3.599.169 4.624.19 5.827.7 7.079c1.474 3.619 3.547 6.774 6.16 9.378 2.559 2.549 5.703 4.637 9.346 6.205.328.142.673.219.924.275.086.02.16.035.214.05a.35.35 0 00.09.013h.03c1.713 0 3.77-1.566 4.402-3.35.554-1.563-.457-2.336-1.269-2.957zM13.335 5.969c-.294.007-.904.022-1.118.644-.1.29-.089.543.035.75.182.304.53.397.848.448 1.149.184 1.74.82 1.857 2 .055.55.426.934.901.934a.899.899 0 00.107-.006c.572-.068.85-.489.825-1.25.009-.793-.407-1.695-1.114-2.413-.709-.72-1.564-1.126-2.341-1.107z"/></g></svg>