<svg width="16" height="16" fill="none" xmlns="http://www.w3.org/2000/svg"><path d="M15.838 4.771L10.463 1.82a.313.313 0 00-.3 0L8.14 2.93a.313.313 0 00-.125.068L4.787 4.77a.313.313 0 00-.162.274v.64H1.02a.313.313 0 000 .624h3.605v1.125H2.833a.313.313 0 000 .625h1.792v1.625H2a.313.313 0 000 .625h2.625v.64c0 .113.062.218.162.273l5.375 2.951a.312.312 0 00.3 0l5.376-2.951c.1-.055.162-.16.162-.274v-1.4a.313.313 0 00-.625 0v1.215l-4.75 2.608V8.18l1.51-.829v1.316a.312.312 0 00.464.274l1.152-.634c.1-.055.161-.16.161-.273V6.376l1.463-.803V7.05a.312.312 0 10.625 0V5.045a.313.313 0 00-.162-.274zM10 13.371l-4.75-2.608v-5.19L10 8.181v5.19zm.313-5.73L5.587 5.044l1.485-.815 4.726 2.595-1.486.815zm2.134-1.173L7.721 3.873l.513-.281 4.725 2.595-.512.281zm.84 1.382l-.526.29V7.009l.526-.29v1.13zm.322-2.02L8.883 3.235l1.43-.785 4.725 2.595-1.43.785z" fill="#fff"/><path d="M15.688 7.986a.313.313 0 000 .625A.315.315 0 0016 8.3a.314.314 0 00-.313-.313zM.76 9.684H.312a.313.313 0 000 .625H.76a.312.312 0 100-.625zm1.136-1.937a.314.314 0 00-.313-.313.314.314 0 00-.312.313.313.313 0 00.625 0z" fill="#fff"/></svg>