<svg width="16" height="16" fill="none" xmlns="http://www.w3.org/2000/svg"><path d="M12.688 10.375a2.81 2.81 0 00-2.262 1.143L6.01 9.262a2.804 2.804 0 00-.091-1.848l4.626-2.78a2.807 2.807 0 002.142.991A2.816 2.816 0 0015.5 2.812 2.816 2.816 0 0012.687 0a2.816 2.816 0 00-2.622 3.83L5.427 6.615a2.807 2.807 0 00-2.114-.96A2.816 2.816 0 00.5 8.47a2.81 2.81 0 005.1 1.635l4.4 2.249A2.816 2.816 0 0012.687 16a2.816 2.816 0 002.813-2.813 2.816 2.816 0 00-2.813-2.812zm0-9.438c1.033 0 1.874.842 1.874 1.875a1.877 1.877 0 01-1.874 1.876 1.877 1.877 0 01-1.876-1.875c0-1.034.842-1.876 1.876-1.876zm-9.376 9.407a1.877 1.877 0 01-1.874-1.875c0-1.034.84-1.875 1.875-1.875 1.033 0 1.874.84 1.874 1.875a1.877 1.877 0 01-1.875 1.875zm9.376 4.719a1.877 1.877 0 01-1.876-1.876 1.876 1.876 0 013.75 0 1.877 1.877 0 01-1.874 1.876z"/></svg>