<svg width="20" height="18" fill="none" xmlns="http://www.w3.org/2000/svg"><path d="M.915 6.3l5.824-.804L9.342.48a.713.713 0 01.332-.316.755.755 0 01.984.316l2.604 5.015 5.823.804c.16.022.307.094.42.202a.68.68 0 01.208.497.682.682 0 01-.222.49l-4.213 3.904.995 5.51a.664.664 0 01-.043.381.702.702 0 01-.248.302.757.757 0 01-.773.052L10 15.036l-5.209 2.602a.763.763 0 01-.465.07c-.4-.066-.668-.425-.599-.804l.996-5.511L.509 7.49a.684.684 0 01-.213-.4c-.062-.38.218-.734.62-.79z" fill="#AA161D"/></svg>