<svg width="23" height="23" fill="none" xmlns="http://www.w3.org/2000/svg"><path d="M19.551 3.344A11.29 11.29 0 0011.491 0C5.214 0 .098 5.115.092 11.394c0 2.01.526 3.967 1.52 5.7L0 23l6.043-1.584a11.403 11.403 0 005.448 1.387h.006c6.28 0 11.394-5.114 11.4-11.4a11.353 11.353 0 00-3.347-8.06h.001zm-8.06 17.53a9.449 9.449 0 01-4.824-1.322l-.345-.207-3.585.94.957-3.498-.224-.36a9.43 9.43 0 01-1.447-5.04c0-5.211 4.25-9.464 9.474-9.464A9.43 9.43 0 0118.196 4.7a9.426 9.426 0 012.771 6.699c-.005 5.231-4.256 9.476-9.476 9.476zm5.197-7.093c-.283-.142-1.682-.83-1.945-.928-.262-.094-.453-.143-.64.142-.19.283-.737.929-.901 1.114-.164.191-.334.213-.618.072-.283-.144-1.202-.443-2.289-1.416-.848-.755-1.416-1.689-1.585-1.972-.164-.285-.016-.437.126-.58.125-.126.284-.333.426-.497.144-.164.191-.284.284-.474.094-.193.05-.357-.021-.5-.072-.141-.64-1.546-.88-2.112-.23-.56-.464-.482-.64-.489-.163-.01-.355-.01-.546-.01a1.048 1.048 0 00-.76.355c-.262.285-.994.973-.994 2.378 0 1.404 1.021 2.754 1.165 2.945.14.191 2.004 3.065 4.863 4.301a15.83 15.83 0 001.623.601c.683.219 1.3.185 1.79.115.547-.083 1.684-.69 1.924-1.356.236-.667.236-1.236.164-1.355-.07-.12-.261-.191-.546-.334z" fill="#AA161D"/></svg>