<svg width="199" height="27" viewBox="0 0 199 27" fill="none" xmlns="http://www.w3.org/2000/svg">
<path d="M9.944 26.504C7.472 26.504 5.384 25.952 3.68 24.848C1.976 23.744 0.764 22.22 0.044 20.276L4.292 17.792C5.276 20.36 7.208 21.644 10.088 21.644C11.432 21.644 12.44 21.404 13.112 20.924C13.784 20.444 14.12 19.796 14.12 18.98C14.12 18.092 13.724 17.408 12.932 16.928C12.14 16.424 10.724 15.884 8.684 15.308C6.476 14.636 4.736 13.856 3.464 12.968C1.88 11.792 1.088 10.064 1.088 7.784C1.088 5.48 1.892 3.668 3.5 2.348C5.108 0.979999 7.064 0.295998 9.368 0.295998C11.384 0.295998 13.172 0.787998 14.732 1.772C16.292 2.756 17.504 4.148 18.368 5.948L14.192 8.36C13.184 6.2 11.576 5.12 9.368 5.12C8.36 5.12 7.556 5.36 6.956 5.84C6.356 6.296 6.056 6.896 6.056 7.64C6.056 8.432 6.38 9.08 7.028 9.584C7.748 10.088 9.02 10.616 10.844 11.168L12.572 11.744C12.884 11.84 13.424 12.044 14.192 12.356C14.912 12.62 15.44 12.872 15.776 13.112C16.952 13.832 17.744 14.576 18.152 15.344C18.776 16.352 19.088 17.54 19.088 18.908C19.088 21.236 18.236 23.084 16.532 24.452C14.828 25.82 12.632 26.504 9.944 26.504ZM22.1525 0.799998H31.5485C33.9485 0.799998 35.9885 1.616 37.6685 3.248C39.3245 4.88 40.1525 6.884 40.1525 9.26C40.1525 11.636 39.3245 13.64 37.6685 15.272C35.9885 16.904 33.9485 17.72 31.5485 17.72H27.1205V26H22.1525V0.799998ZM27.1205 13.076H31.5485C32.6045 13.076 33.4805 12.716 34.1765 11.996C34.8725 11.252 35.2205 10.34 35.2205 9.26C35.2205 8.156 34.8725 7.244 34.1765 6.524C33.4805 5.804 32.6045 5.444 31.5485 5.444H27.1205V13.076ZM64.4151 22.724C61.8711 25.244 58.7751 26.504 55.1271 26.504C51.4791 26.504 48.3831 25.244 45.8391 22.724C43.3191 20.156 42.0591 17.048 42.0591 13.4C42.0591 9.728 43.3191 6.632 45.8391 4.112C48.3831 1.568 51.4791 0.295998 55.1271 0.295998C58.7751 0.295998 61.8711 1.568 64.4151 4.112C66.9591 6.632 68.2311 9.728 68.2311 13.4C68.2311 17.072 66.9591 20.18 64.4151 22.724ZM49.3311 19.34C50.8671 20.876 52.7991 21.644 55.1271 21.644C57.4551 21.644 59.3871 20.876 60.9231 19.34C62.4831 17.78 63.2631 15.8 63.2631 13.4C63.2631 11 62.4831 9.02 60.9231 7.46C59.3631 5.9 57.4311 5.12 55.1271 5.12C52.8231 5.12 50.8911 5.9 49.3311 7.46C47.7711 9.02 46.9911 11 46.9911 13.4C46.9911 15.8 47.7711 17.78 49.3311 19.34ZM90.9108 26H85.5468L80.4708 17.252H76.6908V26H71.7228V0.799998H81.8028C84.1308 0.799998 86.1108 1.616 87.7428 3.248C89.3748 4.88 90.1908 6.848 90.1908 9.152C90.1908 10.712 89.7468 12.164 88.8588 13.508C87.9708 14.828 86.7948 15.824 85.3308 16.496L90.9108 26ZM81.8028 5.444H76.6908V12.896H81.8028C82.7388 12.896 83.5428 12.536 84.2148 11.816C84.8868 11.072 85.2228 10.184 85.2228 9.152C85.2228 8.12 84.8868 7.244 84.2148 6.524C83.5428 5.804 82.7388 5.444 81.8028 5.444ZM91.4368 0.799998H109.977V5.552H103.173V26H98.2048V5.552H91.4368V0.799998Z" fill="#1E1C1C"/>
<path d="M121.354 26.504C118.882 26.504 116.794 25.952 115.09 24.848C113.386 23.744 112.174 22.22 111.454 20.276L115.702 17.792C116.686 20.36 118.618 21.644 121.498 21.644C122.842 21.644 123.85 21.404 124.522 20.924C125.194 20.444 125.53 19.796 125.53 18.98C125.53 18.092 125.134 17.408 124.342 16.928C123.55 16.424 122.134 15.884 120.094 15.308C117.886 14.636 116.146 13.856 114.874 12.968C113.29 11.792 112.498 10.064 112.498 7.784C112.498 5.48 113.302 3.668 114.91 2.348C116.518 0.979999 118.474 0.295998 120.778 0.295998C122.794 0.295998 124.582 0.787998 126.142 1.772C127.702 2.756 128.914 4.148 129.778 5.948L125.602 8.36C124.594 6.2 122.986 5.12 120.778 5.12C119.77 5.12 118.966 5.36 118.366 5.84C117.766 6.296 117.466 6.896 117.466 7.64C117.466 8.432 117.79 9.08 118.438 9.584C119.158 10.088 120.43 10.616 122.254 11.168L123.982 11.744C124.294 11.84 124.834 12.044 125.602 12.356C126.322 12.62 126.85 12.872 127.186 13.112C128.362 13.832 129.154 14.576 129.562 15.344C130.186 16.352 130.498 17.54 130.498 18.908C130.498 21.236 129.646 23.084 127.942 24.452C126.238 25.82 124.042 26.504 121.354 26.504ZM133.563 0.799998H142.959C145.359 0.799998 147.399 1.616 149.079 3.248C150.735 4.88 151.563 6.884 151.563 9.26C151.563 11.636 150.735 13.64 149.079 15.272C147.399 16.904 145.359 17.72 142.959 17.72H138.531V26H133.563V0.799998ZM138.531 13.076H142.959C144.015 13.076 144.891 12.716 145.587 11.996C146.283 11.252 146.631 10.34 146.631 9.26C146.631 8.156 146.283 7.244 145.587 6.524C144.891 5.804 144.015 5.444 142.959 5.444H138.531V13.076ZM175.825 22.724C173.281 25.244 170.185 26.504 166.537 26.504C162.889 26.504 159.793 25.244 157.249 22.724C154.729 20.156 153.469 17.048 153.469 13.4C153.469 9.728 154.729 6.632 157.249 4.112C159.793 1.568 162.889 0.295998 166.537 0.295998C170.185 0.295998 173.281 1.568 175.825 4.112C178.369 6.632 179.641 9.728 179.641 13.4C179.641 17.072 178.369 20.18 175.825 22.724ZM160.741 19.34C162.277 20.876 164.209 21.644 166.537 21.644C168.865 21.644 170.797 20.876 172.333 19.34C173.893 17.78 174.673 15.8 174.673 13.4C174.673 11 173.893 9.02 172.333 7.46C170.773 5.9 168.841 5.12 166.537 5.12C164.233 5.12 162.301 5.9 160.741 7.46C159.181 9.02 158.401 11 158.401 13.4C158.401 15.8 159.181 17.78 160.741 19.34ZM179.82 0.799998H198.36V5.552H191.556V26H186.588V5.552H179.82V0.799998Z" fill="#AA161D"/>
</svg>
