<svg width="50" height="50" viewBox="0 0 50 50" fill="none" xmlns="http://www.w3.org/2000/svg">
<g>
<path d="M45.6057 40.0522H45.2493V35.7074C45.2493 34.4322 44.2119 33.3949 42.9369 33.3949H42.1478V29.3211C42.1478 27.912 41.0013 26.7654 39.5921 26.7654H37.2644V21.8065C37.2644 20.555 36.2463 19.5369 34.9948 19.5369H17.0884C15.837 19.5369 14.8188 20.555 14.8188 21.8065V26.7654H12.4911C11.082 26.7654 9.93542 27.912 9.93542 29.3211V33.3949H9.24432C7.96924 33.3949 6.9318 34.4322 6.9318 35.7074V40.0522H6.5754C5.13962 40.0522 3.97168 41.2201 3.97168 42.6559V49.2669C3.97168 49.6719 4.29993 50.0001 4.70482 50.0001H47.4764C47.8813 50.0001 48.2095 49.6719 48.2095 49.2669V42.6559C48.2094 41.2202 47.0414 40.0522 45.6057 40.0522ZM11.4018 29.3211C11.4018 28.7204 11.8906 28.2317 12.4912 28.2317H29.6517C30.0567 28.2317 30.3848 27.9035 30.3848 27.4986C30.3848 27.0936 30.0567 26.7654 29.6517 26.7654H16.2851V21.8065C16.2851 21.3636 16.6455 21.0031 17.0884 21.0031H34.9948C35.4377 21.0031 35.7981 21.3636 35.7981 21.8065V26.7654H32.7761C32.3711 26.7654 32.043 27.0936 32.043 27.4986C32.043 27.9035 32.3711 28.2317 32.7761 28.2317H39.5921C40.1929 28.2317 40.6815 28.7204 40.6815 29.3211V33.3949H11.4018V29.3211ZM46.7431 48.5338H5.43786V42.6559C5.43786 42.0287 5.94813 41.5184 6.5753 41.5184H15.2322C15.6371 41.5184 15.9653 41.1903 15.9653 40.7853C15.9653 40.3803 15.6371 40.0522 15.2322 40.0522H8.39798V35.7074C8.39798 35.2408 8.77765 34.8611 9.24422 34.8611H42.9367C43.4032 34.8611 43.7828 35.2408 43.7828 35.7074V40.0522H18.3566C17.9517 40.0522 17.6234 40.3803 17.6234 40.7853C17.6234 41.1903 17.9517 41.5184 18.3566 41.5184H45.6056C46.2328 41.5184 46.7431 42.0287 46.7431 42.6559V48.5338Z" fill="#1E1C1C"/>
<path d="M20.5444 11.7419L19.7039 16.6429C19.6152 17.1601 19.8237 17.6728 20.2482 17.9812C20.6726 18.2894 21.2247 18.3295 21.6891 18.0853L26.0906 15.7713L30.4921 18.0853C30.694 18.1914 30.9127 18.2439 31.1301 18.2439C31.4126 18.2439 31.6932 18.1554 31.9331 17.9811C32.3576 17.6728 32.5661 17.16 32.4772 16.6429L31.6366 11.7419L35.1976 8.27079C35.5733 7.90461 35.706 7.36717 35.5439 6.86815C35.3818 6.36912 34.9586 6.01233 34.4393 5.93696L33.3184 5.77411C32.9183 5.71507 32.5456 5.99346 32.4875 6.39425C32.4292 6.79493 32.7068 7.16688 33.1076 7.22514L34.0319 7.35945L30.5764 10.7278C30.2538 11.0422 30.1066 11.4948 30.1829 11.9389L30.9986 16.695L26.7274 14.4495C26.3287 14.2398 25.8525 14.2397 25.4539 14.4495L21.1826 16.695L21.9983 11.9388C22.0745 11.4947 21.9272 11.042 21.6048 10.7279L18.1492 7.35945L22.9247 6.66551C23.3705 6.6007 23.7556 6.32093 23.9549 5.91702L26.0906 1.58974L28.2263 5.91692C28.4255 6.32083 28.8106 6.6007 29.2564 6.66551L30.0038 6.77411C30.4047 6.83305 30.7765 6.55466 30.8348 6.15407C30.893 5.75329 30.6154 5.38134 30.2147 5.32308L29.5183 5.22191L27.3177 0.762856C27.0855 0.292278 26.6152 0 26.0906 0C25.5659 0 25.0958 0.292278 24.8636 0.762758L22.6628 5.22191L17.7418 5.93696C17.2226 6.01233 16.7994 6.36922 16.6373 6.86815C16.4752 7.36707 16.6079 7.90461 16.9835 8.27069L20.5444 11.7419Z" fill="#1E1C1C"/>
<path d="M26.0909 12.2927C26.4959 12.2927 26.8241 11.9646 26.8241 11.5596V7.49632C26.8241 7.09134 26.4959 6.76318 26.0909 6.76318H25.2224C24.8175 6.76318 24.4893 7.09134 24.4893 7.49632C24.4893 7.90131 24.8175 8.22946 25.2224 8.22946H25.3578V11.5596C25.3578 11.9645 25.686 12.2927 26.0909 12.2927Z" fill="#1E1C1C"/>
<path d="M38.6862 5.49887C38.8738 5.49887 39.0615 5.42731 39.2047 5.2842L40.4217 4.06719C40.708 3.78078 40.708 3.31665 40.4217 3.03034C40.1353 2.74412 39.6712 2.74412 39.3849 3.03034L38.1679 4.24735C37.8815 4.53376 37.8815 4.99789 38.1679 5.2842C38.3111 5.42721 38.4988 5.49887 38.6862 5.49887Z" fill="#1E1C1C"/>
<path d="M39.3848 16.5418C39.528 16.6849 39.7157 16.7564 39.9033 16.7564C40.0908 16.7564 40.2785 16.6849 40.4217 16.5418C40.708 16.2554 40.708 15.7912 40.4217 15.5049L39.2047 14.2879C38.9183 14.0017 38.4542 14.0017 38.1679 14.2879C37.8815 14.5743 37.8815 15.0384 38.1679 15.3248L39.3848 16.5418Z" fill="#1E1C1C"/>
<path d="M37.9531 9.78612C37.9531 10.1911 38.2813 10.5193 38.6863 10.5193H40.8668C41.2718 10.5193 41.6 10.1911 41.6 9.78612C41.6 9.38113 41.2718 9.05298 40.8668 9.05298H38.6863C38.2814 9.05298 37.9531 9.38123 37.9531 9.78612Z" fill="#1E1C1C"/>
<path d="M12.9767 5.28406C13.1198 5.42716 13.3075 5.49872 13.495 5.49872C13.6826 5.49872 13.8703 5.42716 14.0134 5.28406C14.2997 4.99764 14.2997 4.53352 14.0134 4.2472L12.7964 3.03009C12.5101 2.74388 12.0459 2.74388 11.7597 3.03009C11.4733 3.31651 11.4733 3.78063 11.7597 4.06695L12.9767 5.28406Z" fill="#1E1C1C"/>
<path d="M12.9767 14.2879L11.7597 15.5049C11.4733 15.7913 11.4733 16.2555 11.7597 16.5418C11.9028 16.6849 12.0905 16.7564 12.278 16.7564C12.4656 16.7564 12.6533 16.6849 12.7964 16.5418L14.0134 15.3248C14.2997 15.0383 14.2997 14.5742 14.0134 14.2879C13.7271 14.0017 13.2629 14.0017 12.9767 14.2879Z" fill="#1E1C1C"/>
<path d="M11.3142 10.5193H13.4947C13.8996 10.5193 14.2279 10.1911 14.2279 9.78612C14.2279 9.38113 13.8996 9.05298 13.4947 9.05298H11.3142C10.9093 9.05298 10.5811 9.38113 10.5811 9.78612C10.5811 10.1911 10.9093 10.5193 11.3142 10.5193Z" fill="#1E1C1C"/>
<path d="M48.4893 21.313L45.2049 17.5501C45.0313 17.3511 44.78 17.2371 44.5159 17.2371C44.2519 17.2371 44.0007 17.3511 43.827 17.5502L40.5427 21.3129C40.3074 21.5824 40.251 21.967 40.399 22.2927C40.547 22.6183 40.8737 22.8288 41.2316 22.8288H42.2948V25.8521C42.2948 26.2571 42.623 26.5853 43.0279 26.5853C43.4329 26.5853 43.7611 26.2571 43.7611 25.8521V22.277C43.7611 21.7728 43.3509 21.3626 42.8467 21.3626H42.4456L44.516 18.9905L46.5863 21.3626H46.1852C45.681 21.3626 45.2709 21.7728 45.2709 22.277V25.8521C45.2709 26.2571 45.599 26.5853 46.004 26.5853C46.409 26.5853 46.7371 26.2571 46.7371 25.8521V22.8288H47.8004C48.1582 22.8288 48.4849 22.6183 48.6329 22.2927C48.7809 21.9671 48.7245 21.5824 48.4893 21.313Z" fill="#1E1C1C"/>
<path d="M4.72899 29.7934V26.2182C4.72899 25.714 4.31873 25.3037 3.81452 25.3037H3.41344L5.48373 22.9318L7.55402 25.3037H7.15304C6.64884 25.3037 6.23857 25.714 6.23857 26.2182V29.7934C6.23857 30.1984 6.56682 30.5265 6.97171 30.5265C7.3766 30.5265 7.70485 30.1984 7.70485 29.7934V26.7699H8.7681C9.12577 26.7699 9.45256 26.5596 9.60065 26.234C9.74865 25.9082 9.69234 25.5237 9.45705 25.2542L6.17259 21.4912C5.99888 21.2923 5.74786 21.1782 5.48373 21.1782C5.21961 21.1782 4.96858 21.2923 4.79478 21.4913L1.51031 25.2542C1.27512 25.5238 1.21882 25.9082 1.36681 26.234C1.51491 26.5596 1.84159 26.7699 2.19937 26.7699H3.26261V29.7934C3.26261 30.1984 3.59086 30.5265 3.99575 30.5265C4.40064 30.5265 4.72899 30.1984 4.72899 29.7934Z" fill="#1E1C1C"/>
</g>
</svg>
