<svg width="50" height="50" viewBox="0 0 50 50" fill="none" xmlns="http://www.w3.org/2000/svg">
<g>
<path d="M34.8428 24.6112C34.7118 24.3094 34.6217 23.9911 34.5748 23.6652C34.453 22.8186 34.2189 21.9905 33.8791 21.204C33.7188 20.8329 33.2881 20.6618 32.9166 20.8223C32.5453 20.9827 32.3744 21.4136 32.5348 21.7848C32.8232 22.4524 33.0219 23.1553 33.1253 23.8738C33.1908 24.3285 33.3167 24.7727 33.4993 25.1939L35.0888 28.859C35.7601 30.4068 35.5457 32.1285 34.5153 33.4645C33.6374 34.6026 32.3379 35.2365 30.9415 35.2417C31.3463 34.389 31.5736 33.4363 31.5736 32.4313V25.6929C31.5736 24.8762 30.9341 24.2196 30.1175 24.198L25.9747 24.0888C24.5619 24.0515 23.1802 23.5399 22.084 22.6481L21.8113 22.4262C21.5569 22.2191 21.2372 22.1246 20.9109 22.1592C20.5848 22.194 20.2923 22.3542 20.0873 22.6103C19.0125 23.9532 18.4206 25.64 18.4206 27.36V32.4313C18.4206 33.4363 18.6479 34.3889 19.0527 35.2417C17.6564 35.2366 16.3568 34.6027 15.479 33.4645C14.4485 32.1285 14.2341 30.4069 14.9054 28.859L16.4949 25.194C16.6775 24.7727 16.8034 24.3285 16.8689 23.8738C17.1502 21.919 18.1272 20.1301 19.6198 18.8369C21.1124 17.5436 23.0221 16.8314 24.997 16.8314C27.2289 16.8314 29.3173 17.7123 30.8774 19.312C31.1597 19.6017 31.6233 19.6073 31.9128 19.325C32.2023 19.0428 32.2081 18.579 31.9258 18.2896C30.0877 16.4049 27.627 15.3669 24.9969 15.3669C22.6698 15.3669 20.4195 16.2062 18.6607 17.73C16.902 19.2538 15.7507 21.3617 15.4193 23.6651C15.3724 23.9911 15.2823 24.3094 15.1513 24.6112L13.5618 28.2762C12.6753 30.3205 12.9584 32.5944 14.3194 34.3589C15.4835 35.8682 17.2083 36.7094 19.0613 36.7093C19.3554 36.7093 19.6532 36.6873 19.952 36.6442C20.4686 37.2617 21.0962 37.7829 21.8039 38.1777V39.5908L18.06 41.0928C15.4369 42.1452 13.7419 44.6517 13.7419 47.4782V49.2676C13.7419 49.6721 14.0696 49.9999 14.4741 49.9999C14.8786 49.9999 15.2063 49.6721 15.2063 49.2676V47.4782C15.2063 45.2533 16.5406 43.2804 18.6054 42.452L21.9753 41.1C22.3962 42.3102 23.5477 43.1814 24.8994 43.1814C26.2511 43.1814 27.4025 42.3101 27.8234 41.1L31.1938 42.4522C31.2822 42.4876 31.3756 42.5287 31.4879 42.5816C31.5887 42.6289 31.6947 42.6514 31.7992 42.6514C32.074 42.6514 32.3375 42.4958 32.4623 42.2306C32.6344 41.8647 32.4772 41.4284 32.1113 41.2563C31.9726 41.1911 31.8541 41.1392 31.7388 41.0929L27.995 39.5908V38.2817C28.7826 37.8764 29.4786 37.318 30.0421 36.6442C30.341 36.6874 30.6385 36.7093 30.9328 36.7093C32.7857 36.7093 34.5107 35.8681 35.6747 34.3589C37.0356 32.5945 37.3189 30.3206 36.4323 28.2762L34.8428 24.6112ZM26.5305 40.0861C26.5305 40.9854 25.7988 41.717 24.8995 41.717C24.0001 41.717 23.2684 40.9854 23.2684 40.0861V38.7756C23.8197 38.926 24.3989 39.0078 24.9971 39.0078C25.5251 39.0078 26.0381 38.9435 26.5305 38.8254V40.0861ZM24.9971 37.5433C22.1784 37.5433 19.8851 35.2501 19.8851 32.4314V27.3601C19.8851 26.0534 20.3083 24.7705 21.0812 23.7203L21.1598 23.7842C22.5056 24.879 24.2018 25.507 25.9361 25.5528L30.0788 25.662C30.0959 25.6625 30.1093 25.6761 30.1093 25.693V32.4314C30.1091 35.2501 27.8158 37.5433 24.9971 37.5433Z" fill="#1E1C1C"/>
<path d="M33.7692 43.3288C33.4391 43.5624 33.3609 44.0195 33.5947 44.3494C34.2465 45.2704 34.5911 46.3523 34.5911 47.4782V49.2677C34.5911 49.6722 34.9188 50 35.3233 50C35.7278 50 36.0555 49.6722 36.0555 49.2677V47.4782C36.0555 46.0475 35.618 44.673 34.7898 43.5034C34.5562 43.1732 34.0992 43.0951 33.7692 43.3288Z" fill="#1E1C1C"/>
<path d="M11.1556 10.9661C9.52443 9.85151 7.48413 9.64287 5.55748 10.3945C4.15208 10.9426 3.02844 12.0591 2.47428 13.4576C2.11373 14.3678 1.96494 15.2986 2.0324 16.2243C2.06189 16.6276 2.41141 16.931 2.81589 16.9015C3.21921 16.8721 3.52235 16.5213 3.49306 16.118C3.44181 15.4141 3.55711 14.7006 3.83585 13.9971C4.24063 12.9755 5.06219 12.1598 6.08976 11.7589C7.55853 11.186 9.10393 11.3377 10.3294 12.1752C11.5271 12.9936 12.2421 14.3468 12.2421 15.7951C12.2421 16.704 11.9663 17.5755 11.4445 18.3156C11.4385 18.3242 11.4326 18.333 11.4269 18.3418L8.96666 22.1719C8.8909 22.29 8.85058 22.4273 8.85058 22.5677V22.9012H8.59371V19.2354C9.33747 19.1686 9.92247 18.5426 9.92247 17.7818V16.5803C9.92247 15.7751 9.26737 15.12 8.4622 15.12H7.26065C6.45549 15.12 5.80038 15.7751 5.80038 16.5803V17.7818C5.80038 18.5425 6.38549 19.1686 7.12914 19.2354V22.9013H6.87228V22.5678C6.87228 22.4274 6.83195 22.2901 6.75619 22.172L4.51731 18.6864C4.29882 18.3462 3.84581 18.2476 3.50546 18.4661C3.16532 18.6846 3.06661 19.1377 3.28511 19.4779L5.40781 22.7827V23.3072C5.40781 23.5167 5.46971 23.7115 5.57505 23.876V24.6342C5.57505 25.8122 6.5334 26.7706 7.71151 26.7706H8.01124C9.18926 26.7706 10.1477 25.8123 10.1477 24.6342V23.876C10.2531 23.7115 10.3149 23.5167 10.3149 23.3072V22.7827L12.6508 19.1462C13.3414 18.1607 13.7065 17.0023 13.7065 15.7952C13.7065 13.8628 12.7529 12.0576 11.1556 10.9661ZM8.45791 16.5803L8.46259 17.7776L7.90033 17.7796C7.88735 17.7789 7.87446 17.7776 7.86128 17.7776C7.84615 17.7776 7.83131 17.779 7.81647 17.7798L7.26475 17.7818L7.26056 16.5844L8.45791 16.5803ZM8.68324 24.6341C8.68324 25.0047 8.38175 25.306 8.01124 25.306H7.71151C7.341 25.306 7.03952 25.0047 7.03952 24.6341V24.3657H8.68324V24.6341Z" fill="#1E1C1C"/>
<path d="M24.8991 13.0013C28.4837 13.0013 31.3998 10.0851 31.3998 6.50058C31.3998 2.91615 28.4837 0 24.8991 0C21.3146 0 18.3984 2.91615 18.3984 6.50058C18.3984 10.0851 21.3146 13.0013 24.8991 13.0013ZM24.8991 1.46447C27.676 1.46447 29.9353 3.72366 29.9353 6.50058C29.9353 9.27751 27.676 11.5368 24.8991 11.5368C22.1222 11.5368 19.8629 9.27751 19.8629 6.50058C19.8629 3.72366 22.1222 1.46447 24.8991 1.46447Z" fill="#1E1C1C"/>
<path d="M23.6115 8.94421C23.7544 9.08714 23.9418 9.15861 24.1292 9.15861C24.3166 9.15861 24.504 9.08714 24.647 8.94421L28.0678 5.52341C28.3538 5.23735 28.3538 4.7738 28.0678 4.48784C27.7818 4.20197 27.3182 4.20197 27.0323 4.48784L24.1293 7.3909L23.6367 6.89835C23.3508 6.61249 22.8871 6.61239 22.6012 6.89845C22.3152 7.18441 22.3152 7.64806 22.6013 7.93392L23.6115 8.94421Z" fill="#1E1C1C"/>
<path d="M47.928 14.5642C47.7927 14.1474 47.4392 13.8495 47.0057 13.7865L43.9626 13.3443L42.6017 10.5867C42.4078 10.1939 42.0152 9.94995 41.5773 9.94995C41.1394 9.94995 40.7468 10.1939 40.5529 10.5867L39.1919 13.3443L36.1488 13.7865C35.7153 13.8495 35.3619 14.1474 35.2267 14.5641C35.0913 14.9807 35.2021 15.4293 35.5157 15.735L37.7178 17.8814L37.1979 20.9124C37.124 21.3441 37.2982 21.7722 37.6525 22.0296C38.0068 22.2871 38.4677 22.3204 38.8555 22.1166L41.5774 20.6856L44.2993 22.1166C44.4679 22.2052 44.6504 22.249 44.8319 22.249C45.0678 22.249 45.3021 22.1749 45.5024 22.0295C45.8567 21.7719 46.0308 21.3439 45.9567 20.9123L45.4369 17.8815L47.6388 15.7351C47.9524 15.4294 48.0633 14.9807 47.928 14.5642ZM44.2934 16.9508C44.0241 17.2132 43.9012 17.5913 43.9647 17.9621L44.4028 20.5166L42.1089 19.3105C41.9424 19.2231 41.7598 19.1792 41.5773 19.1792C41.3947 19.1792 41.212 19.223 41.0456 19.3104L38.7515 20.5166L39.1897 17.9619C39.2532 17.5912 39.1303 17.2131 38.8612 16.9509L37.0052 15.1419L39.5703 14.7692C39.9424 14.7149 40.2639 14.4813 40.4301 14.1443L41.5772 11.8201L42.724 14.1439C42.8903 14.4812 43.2119 14.7149 43.5844 14.7691L46.1491 15.1418L44.2934 16.9508Z" fill="#1E1C1C"/>
<path d="M32.6626 9.39248C33.78 9.8283 34.8626 10.3621 35.8939 10.982C35.5715 11.1334 35.399 11.501 35.5038 11.8528C35.5985 12.1706 35.8897 12.3761 36.2052 12.3761C36.2745 12.3761 36.3449 12.3661 36.4147 12.3454L37.8018 11.9323C38.1122 11.8399 38.3249 11.5544 38.3249 11.2305V9.73009C38.3249 9.3256 37.9972 8.99785 37.5927 8.99785C37.1882 8.99785 36.8604 9.3256 36.8604 9.73009V9.85661C35.6951 9.13873 34.4661 8.52405 33.1948 8.02808C32.818 7.88105 32.3935 8.06733 32.2465 8.44418C32.0997 8.82094 32.2858 9.24544 32.6626 9.39248Z" fill="#1E1C1C"/>
<path d="M13.3443 11.1959C13.475 11.1959 13.6074 11.1609 13.7269 11.0875C14.4105 10.6675 15.1223 10.2846 15.8498 9.94383L15.8117 10.0864C15.7072 10.477 15.9393 10.8784 16.33 10.9829C16.3933 10.9998 16.457 11.0079 16.5195 11.0079C16.8429 11.0079 17.139 10.7919 17.2265 10.4646L17.6736 8.79139C17.7732 8.41912 17.567 8.03328 17.2022 7.90919L15.8603 7.45248C15.4778 7.32184 15.0615 7.52677 14.9313 7.90978C14.8371 8.18647 14.9185 8.47985 15.1151 8.67082C14.3772 9.02141 13.6551 9.41291 12.9604 9.83976C12.6159 10.0515 12.5081 10.5024 12.7197 10.8469C12.858 11.0719 13.0982 11.1959 13.3443 11.1959Z" fill="#1E1C1C"/>
</g>
</svg>
