<svg width="33" height="20" viewBox="0 0 33 20" fill="none" xmlns="http://www.w3.org/2000/svg">
<path d="M33.0007 10C33.0007 15.5026 28.6007 20 23.1007 20C17.6531 20 13.2007 15.5026 13.2007 10C13.2007 4.49735 17.6007 0 23.0483 0C28.6007 0 33.0007 4.49735 33.0007 10Z" fill="#1E1C1C" fill-opacity="0.2"/>
<path d="M23.1007 0C28.5483 0 33.0007 4.49735 33.0007 10C33.0007 15.5026 28.6007 20 23.1007 20C17.6531 20 13.2007 15.5026 13.2007 10" fill="#1E1C1C" fill-opacity="0.2"/>
<path d="M23.1006 0C28.5482 0 33.0006 4.49735 33.0006 10C33.0006 15.5026 28.6006 20 23.1006 20" fill="#1E1C1C" fill-opacity="0.2"/>
<path d="M9.82122 0C4.41167 0.05291 0 4.49735 0 10C0 15.5026 4.41167 20 9.92626 20C12.4997 20 14.8106 18.9947 16.5963 17.4074C16.9639 17.0899 17.279 16.7196 17.5942 16.3492H15.5459C15.2833 16.0317 15.0207 15.6614 14.8106 15.3439H18.3294C18.5395 15.0265 18.7496 14.6561 18.9072 14.2857H14.2329C14.0753 13.9683 13.9178 13.5979 13.8127 13.2275H19.2748C19.5899 12.2222 19.8 11.164 19.8 10.0529C19.8 9.31217 19.695 8.62434 19.5899 7.93651H13.4976C13.5501 7.56614 13.6552 7.24868 13.7602 6.87831H19.2223C19.1172 6.50794 18.9597 6.13757 18.8021 5.82011H14.1804C14.3379 5.44974 14.548 5.13227 14.7581 4.7619H18.2769C18.0668 4.39153 17.8042 4.02116 17.4891 3.7037H15.5459C15.861 3.33333 16.1761 3.01587 16.5438 2.69841C14.8106 1.0582 12.4472 0.10582 9.87374 0.10582C9.87374 -1.02495e-07 9.87374 0 9.82122 0Z" fill="#1E1C1C" fill-opacity="0.2"/>
<path d="M0 9.94681C0 15.4787 4.41167 20 9.92626 20C12.4997 20 14.8106 18.9894 16.5963 17.3936C16.9639 17.0745 17.279 16.7021 17.5942 16.3298H15.5459C15.2833 16.0106 15.0207 15.6383 14.8106 15.3191H18.3294C18.5395 15 18.7496 14.6277 18.9072 14.2553H14.2329C14.0753 13.9362 13.9178 13.5638 13.8127 13.1915H19.2748C19.5899 12.1809 19.8 11.117 19.8 10C19.8 9.25532 19.695 8.56383 19.5899 7.87234H13.4976C13.5501 7.5 13.6552 7.18085 13.7602 6.80851H19.2223C19.1172 6.43617 18.9597 6.06383 18.8021 5.74468H14.1804C14.3379 5.37234 14.548 5.05319 14.7581 4.68085H18.2769C18.0668 4.30851 17.8042 3.93617 17.4891 3.61702H15.5459C15.861 3.24468 16.1761 2.92553 16.5438 2.60638C14.8106 0.957447 12.4472 0 9.87374 0H9.82122" fill="#1E1C1C" fill-opacity="0.2"/>
<path d="M10.0041 20C12.5573 20 14.8499 18.9894 16.6215 17.3936C16.9862 17.0745 17.2988 16.7021 17.6115 16.3298H15.5794C15.3188 16.0106 15.0583 15.6383 14.8499 15.3191H18.341C18.5494 15 18.7578 14.6277 18.9141 14.2553H14.2767C14.1204 13.9362 13.9641 13.5638 13.8599 13.1915H19.2788C19.5915 12.1808 19.7999 11.117 19.7999 10C19.7999 9.25532 19.6957 8.56383 19.5915 7.87234H13.5473C13.5994 7.5 13.7036 7.18085 13.8078 6.80851H19.2267C19.1225 6.43617 18.9662 6.06383 18.8099 5.74468H14.2246C14.381 5.37234 14.5894 5.05319 14.7978 4.68085H18.2888C18.0804 4.30851 17.8199 3.93617 17.5073 3.61702H15.5794C15.892 3.24468 16.2046 2.92553 16.5694 2.60638C14.8499 0.957447 12.5052 0 9.95201 0H9.8999" fill="#1E1C1C" fill-opacity="0.2"/>
<path d="M13.4092 12.5379L13.5663 11.6384C13.5139 11.6384 13.4092 11.6914 13.3044 11.6914C12.9378 11.6914 12.8854 11.4797 12.9378 11.3739L13.252 9.52205H13.8282L13.9854 8.51676H13.4616L13.5663 7.88184H12.5187C12.5187 7.88184 11.8901 11.3739 11.8901 11.7972C11.8901 12.4321 12.2568 12.6966 12.7282 12.6966C13.0425 12.6966 13.3044 12.5908 13.4092 12.5379Z" fill="white"/>
<path d="M13.7754 10.8447C13.7754 12.3262 14.7706 12.6965 15.6087 12.6965C16.3944 12.6965 16.7087 12.5378 16.7087 12.5378L16.9182 11.5325C16.9182 11.5325 16.3421 11.7971 15.8182 11.7971C14.6659 11.7971 14.8754 10.9505 14.8754 10.9505H17.023C17.023 10.9505 17.1802 10.2627 17.1802 9.99812C17.1802 9.31029 16.8135 8.46373 15.6611 8.46373C14.5611 8.35791 13.7754 9.52193 13.7754 10.8447ZM15.6087 9.31029C16.1849 9.31029 16.0802 9.99812 16.0802 10.051H14.9278C14.9278 9.99812 15.0325 9.31029 15.6087 9.31029Z" fill="white"/>
<path d="M22.2618 12.539L22.4713 11.375C22.4713 11.375 21.9475 11.6395 21.5809 11.6395C20.8475 11.6395 20.5332 11.0575 20.5332 10.4226C20.5332 9.15277 21.1618 8.46494 21.8951 8.46494C22.419 8.46494 22.838 8.7824 22.838 8.7824L22.9951 7.67129C22.9951 7.67129 22.3666 7.40674 21.7904 7.40674C20.5856 7.40674 19.3809 8.46494 19.3809 10.4755C19.3809 11.7983 20.0094 12.6977 21.2666 12.6977C21.6856 12.6977 22.2618 12.539 22.2618 12.539Z" fill="white"/>
<path d="M7.64673 8.35889C6.91339 8.35889 6.38958 8.57053 6.38958 8.57053L6.23244 9.47C6.23244 9.47 6.70387 9.25836 7.38482 9.25836C7.75149 9.25836 8.06577 9.31127 8.06577 9.62873C8.06577 9.84037 8.01339 9.89328 8.01339 9.89328C8.01339 9.89328 7.69911 9.89328 7.54196 9.89328C6.65149 9.89328 5.65625 10.2636 5.65625 11.4806C5.65625 12.433 6.28482 12.6446 6.65149 12.6446C7.38482 12.6446 7.69911 12.1684 7.75149 12.1684L7.69911 12.5917H8.64196L9.06101 9.68164C9.06101 8.4118 8.01339 8.35889 7.64673 8.35889ZM7.85625 10.7398C7.85625 10.8986 7.75149 11.7451 7.12292 11.7451C6.80863 11.7451 6.70387 11.4806 6.70387 11.3218C6.70387 11.0573 6.86101 10.6869 7.64673 10.6869C7.80387 10.7398 7.85625 10.7398 7.85625 10.7398Z" fill="white"/>
<path d="M10.0573 12.6438C10.3192 12.6438 11.6287 12.6967 11.6287 11.2681C11.6287 9.94539 10.3716 10.2099 10.3716 9.68084C10.3716 9.41629 10.5811 9.31047 10.9478 9.31047C11.1049 9.31047 11.6811 9.36338 11.6811 9.36338L11.8383 8.411C11.8383 8.411 11.4716 8.30518 10.843 8.30518C10.0573 8.30518 9.27159 8.62264 9.27159 9.68084C9.27159 10.8978 10.5811 10.7919 10.5811 11.2681C10.5811 11.5856 10.2144 11.6385 9.95254 11.6385C9.48111 11.6385 9.00968 11.4798 9.00968 11.4798L8.85254 12.4322C8.90492 12.538 9.16683 12.6438 10.0573 12.6438Z" fill="white"/>
<path d="M30.9554 7.5127L30.7459 8.94127C30.7459 8.94127 30.3269 8.41217 29.7507 8.41217C28.8078 8.41217 27.9697 9.57619 27.9697 10.9518C27.9697 11.7984 28.3888 12.6979 29.2793 12.6979C29.9078 12.6979 30.2745 12.2746 30.2745 12.2746L30.2221 12.645H31.2697L32.0554 7.56561L30.9554 7.5127ZM30.484 10.3169C30.484 10.8989 30.2221 11.6397 29.6459 11.6397C29.2792 11.6397 29.0697 11.3222 29.0697 10.7931C29.0697 9.94656 29.4364 9.41746 29.9078 9.41746C30.2745 9.41746 30.484 9.68201 30.484 10.3169Z" fill="white"/>
<path d="M1.93713 12.5923L2.5657 8.78278L2.67047 12.5923H3.4038L4.7657 8.78278L4.18951 12.5923H5.28951L6.12761 7.51294H4.39904L3.35142 10.6346L3.29904 7.51294H1.77999L0.941895 12.5923H1.93713Z" fill="white"/>
<path d="M18.1763 12.5928C18.4906 10.8468 18.543 9.4182 19.2763 9.68275C19.3811 8.99492 19.5382 8.73037 19.643 8.46582C19.643 8.46582 19.5906 8.46582 19.4334 8.46582C18.962 8.46582 18.5954 9.10074 18.5954 9.10074L18.7001 8.51873H17.7049L17.0239 12.6457H18.1763V12.5928Z" fill="white"/>
<path d="M24.6721 8.35889C23.9388 8.35889 23.415 8.57053 23.415 8.57053L23.2578 9.47C23.2578 9.47 23.7293 9.25836 24.4102 9.25836C24.7769 9.25836 25.0912 9.31127 25.0912 9.62873C25.0912 9.84037 25.0388 9.89328 25.0388 9.89328C25.0388 9.89328 24.7245 9.89328 24.5674 9.89328C23.6769 9.89328 22.6816 10.2636 22.6816 11.4806C22.6816 12.433 23.3102 12.6446 23.6769 12.6446C24.4102 12.6446 24.7245 12.1684 24.7769 12.1684L24.7245 12.5917H25.6674L26.0864 9.68164C26.1388 8.4118 25.0388 8.35889 24.6721 8.35889ZM24.934 10.7398C24.934 10.8986 24.8293 11.7451 24.2007 11.7451C23.8864 11.7451 23.7816 11.4806 23.7816 11.3218C23.7816 11.0573 23.9388 10.6869 24.7245 10.6869C24.8816 10.7398 24.8816 10.7398 24.934 10.7398Z" fill="white"/>
<path d="M26.9742 12.5928C27.2884 10.8468 27.3408 9.4182 28.0742 9.68275C28.1789 8.99492 28.3361 8.73037 28.4408 8.46582C28.4408 8.46582 28.3884 8.46582 28.2313 8.46582C27.7599 8.46582 27.3932 9.10074 27.3932 9.10074L27.498 8.51873H26.5027L25.8218 12.6457H26.9742V12.5928Z" fill="white"/>
<path d="M11.7837 11.7972C11.7837 12.4321 12.1504 12.6966 12.6218 12.6966C12.9885 12.6966 13.3027 12.5908 13.4075 12.5379L13.5646 11.6384C13.5123 11.6384 13.4075 11.6914 13.3027 11.6914C12.9361 11.6914 12.8837 11.4797 12.9361 11.3739L13.2504 9.52205H13.8265L13.9837 8.51676H13.4599L13.5646 7.88184" fill="#1E1C1C" fill-opacity="0.2"/>
<path d="M14.2974 10.8447C14.2974 12.3262 14.7688 12.6965 15.6069 12.6965C16.3926 12.6965 16.7069 12.5378 16.7069 12.5378L16.9164 11.5325C16.9164 11.5325 16.3402 11.7971 15.8164 11.7971C14.664 11.7971 14.8736 10.9505 14.8736 10.9505H17.0212C17.0212 10.9505 17.1783 10.2627 17.1783 9.99812C17.1783 9.31029 16.8116 8.46373 15.6593 8.46373C14.5593 8.35791 14.2974 9.52193 14.2974 10.8447ZM15.6069 9.31029C16.1831 9.31029 16.2878 9.99812 16.2878 10.051H14.9259C14.9259 9.99812 15.0307 9.31029 15.6069 9.31029Z" fill="#1E1C1C" fill-opacity="0.2"/>
<path d="M22.2619 12.539L22.4715 11.375C22.4715 11.375 21.9476 11.6395 21.581 11.6395C20.8476 11.6395 20.5334 11.0575 20.5334 10.4226C20.5334 9.15277 21.1619 8.46494 21.8953 8.46494C22.4191 8.46494 22.8381 8.7824 22.8381 8.7824L22.9953 7.67129C22.9953 7.67129 22.3667 7.40674 21.7905 7.40674C20.5857 7.40674 19.9048 8.46494 19.9048 10.4755C19.9048 11.7983 20.0095 12.6977 21.2667 12.6977C21.6857 12.6977 22.2619 12.539 22.2619 12.539Z" fill="#1E1C1C" fill-opacity="0.2"/>
<path d="M6.23244 9.52402C6.23244 9.52402 6.70387 9.31238 7.38482 9.31238C7.75149 9.31238 8.06577 9.36529 8.06577 9.68275C8.06577 9.89439 8.01339 9.9473 8.01339 9.9473C8.01339 9.9473 7.69911 9.9473 7.54196 9.9473C6.65149 9.9473 5.65625 10.3177 5.65625 11.5346C5.65625 12.487 6.28482 12.6986 6.65149 12.6986C7.38482 12.6986 7.69911 12.2224 7.75149 12.2224L7.69911 12.6457H8.64196L9.06101 9.73566C9.06101 8.51873 8.01339 8.46582 7.59434 8.46582L6.23244 9.52402ZM8.38006 10.741C8.38006 10.8997 7.75149 11.7462 7.12292 11.7462C6.80863 11.7462 6.70387 11.4817 6.70387 11.323C6.70387 11.0584 6.86101 10.688 7.64673 10.688C7.80387 10.741 8.38006 10.741 8.38006 10.741Z" fill="#1E1C1C" fill-opacity="0.2"/>
<path d="M8.90283 12.538C8.90283 12.538 9.21712 12.6438 10.1076 12.6438C10.3695 12.6438 11.679 12.6967 11.679 11.2681C11.679 9.94539 10.4219 10.2099 10.4219 9.68084C10.4219 9.41629 10.6314 9.31047 10.9981 9.31047C11.1552 9.31047 11.7314 9.36338 11.7314 9.36338L11.8885 8.411C11.8885 8.411 11.5219 8.30518 10.8933 8.30518C10.1076 8.30518 9.84569 8.62264 9.84569 9.68084C9.84569 10.8978 10.6314 10.7919 10.6314 11.2681C10.6314 11.5856 10.2647 11.6385 10.0028 11.6385" fill="#1E1C1C" fill-opacity="0.2"/>
<path d="M30.7464 8.94158C30.7464 8.94158 30.3274 8.41248 29.7512 8.41248C28.8083 8.41248 28.494 9.5765 28.494 10.9522C28.494 11.7987 28.3893 12.6982 29.2797 12.6982C29.9083 12.6982 30.275 12.2749 30.275 12.2749L30.2226 12.6453H31.2702L32.0559 7.56592L30.7464 8.94158ZM30.694 10.3172C30.694 10.8992 30.2226 11.64 29.6464 11.64C29.2797 11.64 29.0702 11.3225 29.0702 10.7934C29.0702 9.94687 29.4369 9.41777 29.9083 9.41777C30.275 9.41777 30.694 9.68232 30.694 10.3172Z" fill="#1E1C1C" fill-opacity="0.2"/>
<path d="M1.93713 12.5923L2.5657 8.78278L2.67047 12.5923H3.4038L4.7657 8.78278L4.18951 12.5923H5.28951L6.12761 7.51294H4.81808L3.35142 10.6346L3.29904 7.51294H2.72285L0.941895 12.5923H1.93713Z" fill="#1E1C1C" fill-opacity="0.2"/>
<path d="M17.0762 12.5928H18.1762C18.4905 10.8468 18.5428 9.4182 19.2762 9.68275C19.3809 8.99492 19.5381 8.73037 19.6428 8.46582C19.6428 8.46582 19.5905 8.46582 19.4333 8.46582C18.9619 8.46582 18.5952 9.10074 18.5952 9.10074L18.7 8.51873" fill="#1E1C1C" fill-opacity="0.2"/>
<path d="M23.2578 9.52402C23.2578 9.52402 23.7293 9.31238 24.4102 9.31238C24.7769 9.31238 25.0912 9.36529 25.0912 9.68275C25.0912 9.89439 25.0388 9.9473 25.0388 9.9473C25.0388 9.9473 24.7245 9.9473 24.5674 9.9473C23.6769 9.9473 22.6816 10.3177 22.6816 11.5346C22.6816 12.487 23.3102 12.6986 23.6769 12.6986C24.4102 12.6986 24.7245 12.2224 24.7769 12.2224L24.7245 12.6457H25.6674L26.0864 9.73566C26.0864 8.51873 25.0388 8.46582 24.6197 8.46582L23.2578 9.52402ZM25.4055 10.741C25.4055 10.8997 24.7769 11.7462 24.1483 11.7462C23.834 11.7462 23.7293 11.4817 23.7293 11.323C23.7293 11.0584 23.8864 10.688 24.6721 10.688C24.8816 10.741 25.4055 10.741 25.4055 10.741Z" fill="#1E1C1C" fill-opacity="0.2"/>
<path d="M25.876 12.5928H26.976C27.2903 10.8468 27.3426 9.4182 28.076 9.68275C28.1807 8.99492 28.3379 8.73037 28.4426 8.46582C28.4426 8.46582 28.3903 8.46582 28.2331 8.46582C27.7617 8.46582 27.395 9.10074 27.395 9.10074L27.4998 8.51873" fill="#1E1C1C" fill-opacity="0.2"/>
</svg>
