<svg width="53" height="15" viewBox="0 0 53 15" fill="none" xmlns="http://www.w3.org/2000/svg">
<path d="M19.4336 14.6096L22.1257 0.47168H26.332L23.7241 14.6096H19.4336Z" fill="#1E1C1C" fill-opacity="0.2"/>
<path d="M19.4336 14.6096L22.8828 0.47168H26.332L23.7241 14.6096H19.4336Z" fill="#1E1C1C" fill-opacity="0.2"/>
<path d="M38.951 0.628353C38.1098 0.314176 36.7637 0 35.0812 0C30.8748 0 27.8463 1.9636 27.8463 4.79119C27.8463 6.91188 29.9494 8.0115 31.632 8.7184C33.3145 9.4253 33.8193 9.89656 33.8193 10.5249C33.8193 11.4674 32.4732 11.9387 31.2955 11.9387C29.6129 11.9387 28.6875 11.7031 27.2574 11.1533L26.6685 10.9176L26.0796 14.1379C27.0891 14.5307 28.9399 14.9234 30.8748 14.9234C35.3336 14.9234 38.278 12.9598 38.278 9.97511C38.278 8.32568 37.1844 7.06897 34.6606 6.0479C33.1463 5.341 32.2209 4.94828 32.2209 4.24138C32.2209 3.61303 32.978 2.98468 34.6606 2.98468C36.0907 2.98468 37.1002 3.22031 37.8574 3.53449L38.278 3.69157L38.951 0.628353Z" fill="#1E1C1C" fill-opacity="0.2"/>
<path d="M38.951 0.628353C38.1098 0.314176 36.7637 0 35.0812 0C30.8748 0 28.6034 1.9636 28.6034 4.79119C28.6034 6.91188 29.9494 8.0115 31.632 8.7184C33.3145 9.4253 33.8193 9.89656 33.8193 10.5249C33.8193 11.4674 32.4732 11.9387 31.2955 11.9387C29.6129 11.9387 28.6875 11.7031 27.2574 11.1533L26.6685 10.9176L26.0796 14.1379C27.0891 14.5307 28.9399 14.9234 30.8748 14.9234C35.3336 14.9234 38.278 12.9598 38.278 9.97511C38.278 8.32568 37.1844 7.06897 34.6606 6.0479C33.1463 5.341 32.2209 4.94828 32.2209 4.24138C32.2209 3.61303 32.978 2.98468 34.6606 2.98468C36.0907 2.98468 37.1002 3.22031 37.8574 3.53449L38.278 3.69157L38.951 0.628353Z" fill="#1E1C1C" fill-opacity="0.2"/>
<path d="M46.1843 0.47168C45.1748 0.47168 44.4177 0.550225 43.997 1.49275L37.6875 14.6096H42.2304L43.0716 12.2533H48.4558L48.9605 14.6096H52.9986L49.4653 0.47168H46.1843ZM44.2494 9.89698C44.5018 9.19008 45.932 5.73414 45.932 5.73414C45.932 5.73414 46.2685 4.87015 46.5208 4.32034L46.7732 5.65559C46.7732 5.65559 47.6145 9.19008 47.7828 9.97552H44.2494V9.89698Z" fill="#1E1C1C" fill-opacity="0.2"/>
<path d="M47.1939 0.47168C46.1843 0.47168 45.4272 0.550225 45.0066 1.49275L37.6875 14.6096H42.2304L43.0716 12.2533H48.4558L48.9605 14.6096H52.9986L49.4653 0.47168H47.1939ZM44.2494 9.89698C44.5859 9.11154 45.932 5.73414 45.932 5.73414C45.932 5.73414 46.2685 4.87015 46.5208 4.32034L46.7732 5.65559C46.7732 5.65559 47.6145 9.19008 47.7828 9.97552H44.2494V9.89698Z" fill="#1E1C1C" fill-opacity="0.2"/>
<path d="M11.6943 10.3666L11.2737 8.32445C10.5165 5.96813 8.07683 3.37617 5.38477 2.11947L9.17048 14.6865H13.7133L20.5276 0.548584H15.9848L11.6943 10.3666Z" fill="#1E1C1C" fill-opacity="0.2"/>
<path d="M11.6943 10.3666L11.2737 8.32445C10.5165 5.96813 8.07683 3.37617 5.38477 2.11947L9.17048 14.6865H13.7133L20.5276 0.548584H16.8261L11.6943 10.3666Z" fill="#1E1C1C" fill-opacity="0.2"/>
<path d="M0 0.47168L0.757144 0.628769C6.14128 1.80693 9.84287 4.79161 11.273 8.32609L9.75875 1.64984C9.50636 0.707312 8.74922 0.47168 7.82382 0.47168H0Z" fill="#1E1C1C" fill-opacity="0.2"/>
<path d="M0 0.47168C5.38414 1.64984 9.84287 4.71306 11.273 8.24755L9.84287 2.67092C9.59049 1.72839 8.74922 1.17858 7.82382 1.17858L0 0.47168Z" fill="#1E1C1C" fill-opacity="0.2"/>
<path d="M0 0.47168C5.38414 1.64984 9.84287 4.71306 11.273 8.24755L10.2635 5.18433C10.0111 4.2418 9.67462 3.29927 8.49684 2.90655L0 0.47168Z" fill="#1E1C1C" fill-opacity="0.2"/>
<path d="M15.8986 9.89421L13.0382 7.22371L11.6922 10.2084L11.3557 8.24478C10.5985 5.88846 8.15886 3.2965 5.4668 2.03979L9.25252 14.6069H13.7954L15.8986 9.89421Z" fill="#1E1C1C" fill-opacity="0.2"/>
<path d="M33.3972 9.7373C33.7337 10.0515 33.9019 10.2871 33.8178 10.6013C33.8178 11.5438 32.4718 12.0151 31.294 12.0151C29.6115 12.0151 28.6861 11.7795 27.2559 11.2296L26.667 10.994L26.0781 14.2143C27.0877 14.607 28.9384 14.9998 30.8734 14.9998C33.5654 14.9998 35.7527 14.2929 37.0146 13.0362L33.3972 9.7373Z" fill="#1E1C1C" fill-opacity="0.2"/>
<path d="M38.2773 14.6069H42.2313L43.0726 12.2506H48.4567L48.9615 14.6069H52.9996L51.5694 8.87319L46.5218 4.31763L46.7742 5.57433C46.7742 5.57433 47.6155 9.10882 47.7837 9.89426H44.2504C44.5869 9.10882 45.9329 5.73142 45.9329 5.73142C45.9329 5.73142 46.2694 4.86744 46.5218 4.31763" fill="#1E1C1C" fill-opacity="0.2"/>
</svg>
