<svg width="50" height="50" viewBox="0 0 50 50" fill="none" xmlns="http://www.w3.org/2000/svg">
<path d="M12.2449 3.25439L20.1568 14.4018" stroke="#AA161D" stroke-width="5" stroke-linecap="round"/>
<path d="M19.5073 2.04077L24.2621 8.81967C25.3308 10.3432 24.9654 12.4507 23.4473 13.5202L20.6226 15.5102" stroke="#AA161D" stroke-width="2" stroke-linecap="round"/>
<path d="M16.3265 9.18359L14.2856 28.5713" stroke="#AA161D" stroke-width="5"/>
<path d="M34.5083 28.5715H26.7161C25.4865 28.5715 24.4897 29.4852 24.4897 30.6123V31.6328C24.4897 32.7599 25.4865 33.6736 26.7161 33.6736H34.5083C35.7379 33.6736 36.7346 32.7599 36.7346 31.6328V30.6123C36.7346 29.4852 35.7379 28.5715 34.5083 28.5715Z" fill="#AA161D"/>
<path d="M44.7124 36.7346H36.9202C35.6906 36.7346 34.6938 37.6483 34.6938 38.7754V39.7958C34.6938 40.923 35.6906 41.8367 36.9202 41.8367H44.7124C45.942 41.8367 46.9387 40.923 46.9387 39.7958V38.7754C46.9387 37.6483 45.942 36.7346 44.7124 36.7346Z" fill="#AA161D"/>
<path d="M2.04077 47.9592H47.9591" stroke="#AA161D" stroke-width="3" stroke-linecap="round"/>
<path d="M9.34401 27.551H15.3578C16.4645 27.551 17.3696 28.4332 17.398 29.5395L17.7994 45.1949C17.8303 46.4017 16.8125 47.3716 15.6085 47.2825L6.36103 46.5975C5.14607 46.5075 4.28008 45.3799 4.50654 44.1828L7.33877 29.2125C7.5211 28.2488 8.3632 27.551 9.34401 27.551Z" fill="#AA161D" stroke="#AA161D"/>
<path d="M27.551 46.9388V37.2607C27.551 36.685 27.7941 36.1361 28.2204 35.7494L31.6327 32.6531" stroke="#AA161D" stroke-width="2"/>
<path d="M28.0613 43.8776L40.8164 40.8164" stroke="#AA161D" stroke-width="2"/>
<path d="M40.8164 41.3264V46.9387" stroke="#AA161D" stroke-width="2"/>
</svg>
