<svg width="50" height="50" xmlns="http://www.w3.org/2000/svg" viewBox="0 0 50 50">
<style type="text/css">
	.st0{fill:#AA161D;}
</style>
<g>
	<path class="st0" d="M9.9,2.7c-1.3,0-2.4,1.1-2.4,2.4v2.5c0,1.3,1.1,2.4,2.4,2.4h1.7V8.6H9.9C9.4,8.6,9,8.2,9,7.7V5.2
		c0-0.5,0.4-0.9,0.9-0.9h11V2.7H9.9z"/>
	<path class="st0" d="M20.8,8.6l1.7,1.5h-6.7V8.6H20.8z"/>
	<path class="st0" d="M30.1,8.6L28,10.1h6.3V8.6H30.1z"/>
	<path class="st0" d="M42.7,5.2c0-1.3-1.1-2.4-2.4-2.4H30.1v1.5h10.1c0.5,0,0.9,0.4,0.9,0.9v2.5c0,0.5-0.4,0.9-0.9,0.9h-1.7v1.5h1.7
		c1.3,0,2.4-1.1,2.4-2.4V5.2z"/>
	<path class="st0" d="M20.1,3.5c0-1.3,1.1-2.4,2.4-2.4h5.9c1.3,0,2.4,1.1,2.4,2.4v4.2c0,1.3-1.1,2.4-2.4,2.4h-5.9
		c-1.3,0-2.4-1.1-2.4-2.4V3.5z"/>
	<path class="st0" d="M18.4,36.4c0-1.3,1.1-2.4,2.4-2.4h1.7h1.7H28h0.4c1.3,0,2.4,1.1,2.4,2.4V38c0,1.3-1.1,2.4-2.4,2.4h-7.6
		c-1.3,0-2.4-1.1-2.4-2.4V36.4z M20.8,35.4c-0.5,0-0.9,0.4-0.9,0.9V38c0,0.5,0.4,0.9,0.9,0.9h7.6c0.5,0,0.9-0.4,0.9-0.9v-1.7
		c0-0.5-0.4-0.9-0.9-0.9H20.8z"/>
	<path class="st0" d="M22.5,9.8h1.7v2.9l-1.7,0.8V9.8z"/>
	<path class="st0" d="M26.3,9.8H28v3.8l-1.7-0.8V9.8z"/>
	<path class="st0" d="M22.5,33.9h1.7v-11L22.5,22V33.9z"/>
	<path class="st0" d="M24.2,33.9H28V22l-3.8,0.8V33.9z"/>
	<path class="st0" d="M22.2,15c-0.6,0.6-1,1.6-1,2.8c0,1.2,0.4,2.2,1,2.8c0.6,0.6,1.6,1,2.8,1c1.2,0,2.2-0.4,2.8-1
		c0.6-0.6,1-1.6,1-2.8c0-1.2-0.4-2.2-1-2.8c-0.6-0.6-1.6-1-2.8-1C23.8,13.9,22.9,14.3,22.2,15z M21.2,13.9c1-1,2.3-1.5,3.9-1.5
		c1.6,0,2.9,0.5,3.9,1.5s1.5,2.3,1.5,3.9c0,1.6-0.5,2.9-1.5,3.9c-1,1-2.3,1.5-3.9,1.5c-1.6,0-2.9-0.5-3.9-1.5c-1-1-1.5-2.3-1.5-3.9
		C19.7,16.2,20.2,14.9,21.2,13.9z"/>
	<path class="st0" d="M33.6,7.7c0-0.9,0.7-1.6,1.6-1.6h2.5c0.9,0,1.6,0.7,1.6,1.6v5.1c0,0.9-0.7,1.6-1.6,1.6h-2.5
		c-0.9,0-1.6-0.7-1.6-1.6V7.7z"/>
	<path class="st0" d="M10.8,7.7c0-0.9,0.7-1.6,1.6-1.6h2.5c0.9,0,1.6,0.7,1.6,1.6v3.4c0,0.9-0.7,1.6-1.6,1.6h-2.5
		c-0.9,0-1.6-0.7-1.6-1.6V7.7z"/>
	<path class="st0" d="M34.5,12.8c-2.8,0-5.1,2.4-5,5.2l0.3,6.6l0,7.1v12.2c0,2.8,2.2,5,5,5h3.5c2.7,0,4.9-2.1,5-4.8l1-26.1
		c0.1-2.8-2.2-5.2-5-5.2H34.5z"/>
	<path class="st0" d="M10.9,11.3c-3-0.1-5.4,2.5-5.1,5.5l2.5,23.9c0.3,2.6,2.4,4.5,5,4.5h1.1c2.6,0,4.8-2,5-4.6l1.4-18l0.5-5.7
		c0.2-2.9-2-5.3-4.9-5.4L10.9,11.3z"/>
</g>
</svg>
