<svg width="33" height="20" fill="none" xmlns="http://www.w3.org/2000/svg"><path d="M33 10c0 5.503-4.4 10-9.9 10-5.447 0-9.9-4.497-9.9-10s4.4-10 9.848-10c5.553 0 9.953 4.497 9.953 10z" fill="#1E1C1C" fill-opacity=".2"/><path d="M23.1 0C28.549 0 33 4.497 33 10s-4.4 10-9.9 10c-5.447 0-9.9-4.497-9.9-10" fill="#1E1C1C" fill-opacity=".2"/><path d="M23.1 0C28.549 0 33 4.497 33 10s-4.4 10-9.9 10M9.821 0C4.411.053 0 4.497 0 10s4.412 10 9.926 10c2.574 0 4.885-1.005 6.67-2.593.368-.317.683-.687.998-1.058h-2.048a12.207 12.207 0 01-.735-1.005h3.518c.21-.317.42-.688.578-1.058h-4.674a6.332 6.332 0 01-.42-1.059h5.462c.315-1.005.525-2.063.525-3.174 0-.74-.105-1.429-.21-2.116h-6.092c.052-.37.157-.688.262-1.059h5.462a6.335 6.335 0 00-.42-1.058H14.18c.158-.37.368-.688.578-1.058h3.519a5.03 5.03 0 00-.788-1.058h-1.943c.315-.37.63-.688.998-1.006C14.81 1.058 12.447.106 9.874.106 9.874 0 9.874 0 9.82 0z" fill="#1E1C1C" fill-opacity=".2"/><path d="M0 9.947C0 15.479 4.412 20 9.926 20c2.574 0 4.885-1.01 6.67-2.606.368-.32.683-.692.998-1.064h-2.048a12.27 12.27 0 01-.735-1.01h3.518c.21-.32.42-.692.578-1.065h-4.674a6.388 6.388 0 01-.42-1.064h5.462c.315-1.01.525-2.074.525-3.191 0-.745-.105-1.436-.21-2.128h-6.092c.052-.372.157-.691.262-1.063h5.462a6.389 6.389 0 00-.42-1.064H14.18c.158-.373.368-.692.578-1.064h3.519a5.055 5.055 0 00-.788-1.064h-1.943a8.98 8.98 0 01.998-1.01C14.81.956 12.447 0 9.874 0H9.82" fill="#1E1C1C" fill-opacity=".2"/><path d="M10.004 20c2.553 0 4.846-1.01 6.618-2.606.364-.32.677-.692.99-1.064h-2.033a12.24 12.24 0 01-.73-1.01h3.492c.208-.32.417-.692.573-1.065h-4.637a6.417 6.417 0 01-.417-1.064h5.419c.313-1.01.52-2.074.52-3.191 0-.745-.103-1.436-.207-2.128h-6.045c.052-.372.157-.691.26-1.063h5.42a6.418 6.418 0 00-.417-1.064h-4.585c.156-.373.364-.692.573-1.064h3.49a5.051 5.051 0 00-.78-1.064h-1.929c.313-.372.626-.691.99-1.01C14.85.956 12.505 0 9.952 0H9.9" fill="#1E1C1C" fill-opacity=".2"/><path d="M13.41 12.538l.156-.9c-.052 0-.157.053-.262.053-.366 0-.419-.211-.366-.317l.314-1.852h.576l.157-1.005h-.523l.104-.635H12.52s-.629 3.492-.629 3.915c0 .635.367.9.838.9.315 0 .576-.106.681-.16zm.365-1.693c0 1.481.996 1.851 1.834 1.851.785 0 1.1-.158 1.1-.158l.21-1.005s-.577.264-1.1.264c-1.153 0-.944-.847-.944-.847h2.148s.157-.687.157-.952c0-.688-.366-1.534-1.519-1.534-1.1-.106-1.886 1.058-1.886 2.38zM15.61 9.31c.576 0 .471.688.471.741h-1.152c0-.053.104-.74.68-.74zm6.652 3.229l.21-1.164s-.524.264-.891.264c-.733 0-1.048-.582-1.048-1.216 0-1.27.629-1.958 1.362-1.958.524 0 .943.317.943.317l.157-1.11s-.628-.265-1.205-.265c-1.204 0-2.41 1.058-2.41 3.069 0 1.322.63 2.222 1.887 2.222.419 0 .995-.159.995-.159zM7.647 8.359c-.734 0-1.257.212-1.257.212l-.158.899s.472-.212 1.153-.212c.366 0 .68.053.68.37 0 .212-.052.265-.052.265h-.471c-.89 0-1.886.37-1.886 1.588 0 .952.629 1.164.995 1.164.734 0 1.048-.477 1.1-.477l-.052.424h.943l.419-2.91c0-1.27-1.048-1.323-1.414-1.323zm.21 2.38c0 .16-.106 1.006-.734 1.006-.314 0-.42-.264-.42-.423 0-.265.158-.635.944-.635.157.053.21.053.21.053zm2.2 1.905c.262 0 1.572.053 1.572-1.376 0-1.323-1.257-1.058-1.257-1.587 0-.265.21-.37.576-.37.157 0 .733.052.733.052l.157-.952s-.366-.106-.995-.106c-.786 0-1.571.318-1.571 1.376 0 1.217 1.31 1.11 1.31 1.587 0 .318-.368.37-.63.37-.47 0-.942-.158-.942-.158l-.157.952c.052.106.314.212 1.204.212zm20.898-5.131l-.21 1.428s-.418-.529-.994-.529c-.943 0-1.781 1.164-1.781 2.54 0 .846.419 1.746 1.31 1.746.628 0 .994-.423.994-.423l-.052.37h1.048l.785-5.08-1.1-.052zm-.471 2.804c0 .582-.262 1.323-.838 1.323-.367 0-.576-.318-.576-.847 0-.846.366-1.376.838-1.376.366 0 .576.265.576.9zM1.937 12.592l.629-3.81.104 3.81h.734l1.362-3.81-.576 3.81h1.1l.838-5.08H4.399l-1.048 3.123L3.3 7.513H1.78l-.838 5.08h.995zm16.239.001c.315-1.746.367-3.175 1.1-2.91.105-.688.262-.953.367-1.217h-.21c-.471 0-.838.635-.838.635l.105-.582h-.995l-.681 4.127h1.152v-.053zm6.496-4.234c-.733 0-1.257.212-1.257.212l-.157.899s.471-.212 1.152-.212c.367 0 .681.053.681.37 0 .212-.052.265-.052.265h-.472c-.89 0-1.885.37-1.885 1.588 0 .952.628 1.164.995 1.164.733 0 1.047-.477 1.1-.477l-.053.424h.943l.42-2.91c.052-1.27-1.048-1.323-1.415-1.323zm.262 2.38c0 .16-.105 1.006-.733 1.006-.315 0-.42-.264-.42-.423 0-.265.158-.635.944-.635.157.053.157.053.209.053zm2.04 1.854c.314-1.746.367-3.175 1.1-2.91.105-.688.262-.953.367-1.217h-.21c-.471 0-.838.635-.838.635l.105-.582h-.995l-.681 4.127h1.152v-.053z" fill="#fff"/><path d="M11.784 11.797c0 .635.366.9.838.9.367 0 .68-.106.786-.16l.157-.899c-.053 0-.157.053-.262.053-.367 0-.42-.211-.367-.317l.314-1.852h.576l.158-1.005h-.524l.105-.635m.732 2.963c0 1.481.472 1.851 1.31 1.851.786 0 1.1-.158 1.1-.158l.21-1.005s-.577.264-1.1.264c-1.153 0-.943-.847-.943-.847h2.147s.157-.687.157-.952c0-.688-.366-1.534-1.519-1.534-1.1-.106-1.362 1.058-1.362 2.38zm1.31-1.535c.576 0 .68.688.68.741h-1.361c0-.053.105-.74.68-.74zm6.655 3.229l.21-1.164s-.524.264-.891.264c-.733 0-1.048-.582-1.048-1.216 0-1.27.629-1.958 1.362-1.958.524 0 .943.317.943.317l.157-1.11s-.628-.265-1.204-.265c-1.205 0-1.886 1.058-1.886 3.069 0 1.322.104 2.222 1.362 2.222.419 0 .995-.159.995-.159zM6.232 9.524s.472-.212 1.153-.212c.366 0 .68.053.68.37 0 .212-.052.265-.052.265h-.471c-.89 0-1.886.37-1.886 1.588 0 .952.629 1.164.995 1.164.734 0 1.048-.477 1.1-.477l-.052.424h.943l.419-2.91c0-1.217-1.048-1.27-1.467-1.27L6.232 9.524zm2.148 1.217c0 .159-.629 1.005-1.257 1.005-.314 0-.42-.264-.42-.423 0-.265.158-.635.944-.635.157.053.733.053.733.053zm.523 1.797s.314.106 1.205.106c.261 0 1.571.053 1.571-1.376 0-1.323-1.257-1.058-1.257-1.587 0-.265.21-.37.576-.37.157 0 .733.052.733.052l.158-.952s-.367-.106-.996-.106c-.785 0-1.047.318-1.047 1.376 0 1.217.785 1.11.785 1.587 0 .318-.366.37-.628.37m20.743-2.696s-.419-.53-.995-.53c-.943 0-1.257 1.164-1.257 2.54 0 .847-.105 1.746.786 1.746.628 0 .995-.423.995-.423l-.052.37h1.047l.786-5.08-1.31 1.377zm-.052 1.375c0 .582-.471 1.323-1.048 1.323-.366 0-.576-.318-.576-.847 0-.846.367-1.375.838-1.375.367 0 .786.264.786.9zM1.937 12.592l.629-3.81.104 3.81h.734l1.362-3.81-.576 3.81h1.1l.838-5.08h-1.31l-1.467 3.123L3.3 7.513h-.576l-1.781 5.08h.995zm15.139.001h1.1c.315-1.746.367-3.175 1.1-2.91.105-.688.262-.953.367-1.217h-.21c-.471 0-.838.635-.838.635l.105-.582m4.558 1.005s.471-.212 1.152-.212c.367 0 .681.053.681.37 0 .212-.052.265-.052.265h-.472c-.89 0-1.885.37-1.885 1.588 0 .952.628 1.164.995 1.164.733 0 1.047-.477 1.1-.477l-.053.424h.943l.42-2.91c0-1.217-1.048-1.27-1.467-1.27l-1.362 1.058zm2.148 1.217c0 .159-.63 1.005-1.258 1.005-.314 0-.419-.264-.419-.423 0-.265.157-.635.943-.635.21.053.733.053.733.053zm.47 1.852h1.1c.314-1.746.367-3.175 1.1-2.91.105-.688.262-.953.367-1.217h-.21c-.471 0-.838.635-.838.635l.105-.582" fill="#1E1C1C" fill-opacity=".2"/></svg>