<svg width="53" height="15" fill="none" xmlns="http://www.w3.org/2000/svg"><path d="M19.434 14.61L22.126.472h4.206L23.724 14.61h-4.29z" fill="#1E1C1C" fill-opacity=".2"/><path d="M19.434 14.61L22.883.472h3.449L23.724 14.61h-4.29zM38.951.628C38.11.314 36.764 0 35.081 0c-4.206 0-7.235 1.964-7.235 4.791 0 2.12 2.103 3.22 3.786 3.927 1.683.707 2.187 1.179 2.187 1.807 0 .942-1.346 1.414-2.524 1.414-1.682 0-2.608-.236-4.038-.786l-.588-.235-.59 3.22c1.01.393 2.86.785 4.796.785 4.459 0 7.403-1.963 7.403-4.948 0-1.65-1.094-2.906-3.617-3.927-1.515-.707-2.44-1.1-2.44-1.807 0-.628.757-1.256 2.44-1.256 1.43 0 2.44.235 3.196.55l.421.157.673-3.064z" fill="#1E1C1C" fill-opacity=".2"/><path d="M38.951.628C38.11.314 36.764 0 35.081 0c-4.206 0-6.478 1.964-6.478 4.791 0 2.12 1.346 3.22 3.029 3.927 1.683.707 2.187 1.179 2.187 1.807 0 .942-1.346 1.414-2.524 1.414-1.682 0-2.608-.236-4.038-.786l-.588-.235-.59 3.22c1.01.393 2.86.785 4.796.785 4.459 0 7.403-1.963 7.403-4.948 0-1.65-1.094-2.906-3.617-3.927-1.515-.707-2.44-1.1-2.44-1.807 0-.628.757-1.256 2.44-1.256 1.43 0 2.44.235 3.196.55l.421.157.673-3.064zm7.233-.156c-1.01 0-1.766.078-2.187 1.02l-6.31 13.118h4.543l.842-2.357h5.384l.505 2.357h4.038L49.465.472h-3.28zM44.25 9.897c.253-.707 1.683-4.163 1.683-4.163s.337-.864.589-1.414l.252 1.336s.841 3.534 1.01 4.32H44.25v-.079z" fill="#1E1C1C" fill-opacity=".2"/><path d="M47.194.472c-1.01 0-1.767.078-2.187 1.02l-7.32 13.118h4.543l.842-2.357h5.384l.505 2.357h4.038L49.465.472h-2.271zm-2.945 9.425c.337-.785 1.683-4.163 1.683-4.163s.337-.864.589-1.414l.252 1.336s.841 3.534 1.01 4.32h-3.534v-.079zm-32.555.47l-.42-2.043c-.757-2.356-3.197-4.948-5.89-6.205L9.17 14.687h4.543L20.528.549h-4.543l-4.29 9.818z" fill="#1E1C1C" fill-opacity=".2"/><path d="M11.694 10.367l-.42-2.043c-.757-2.356-3.197-4.948-5.89-6.205L9.17 14.687h4.543L20.528.549h-3.702l-5.132 9.818z" fill="#1E1C1C" fill-opacity=".2"/><path d="M0 .472l.757.157c5.384 1.178 9.086 4.163 10.516 7.697L9.759 1.65C9.506.707 8.749.472 7.824.472H0z" fill="#1E1C1C" fill-opacity=".2"/><path d="M0 .472C5.384 1.65 9.843 4.713 11.273 8.248L9.843 2.67c-.253-.943-1.094-1.492-2.02-1.492L0 .472z" fill="#1E1C1C" fill-opacity=".2"/><path d="M0 .472C5.384 1.65 9.843 4.713 11.273 8.248l-1.01-3.064c-.252-.942-.588-1.885-1.766-2.277L0 .472z" fill="#1E1C1C" fill-opacity=".2"/><path d="M15.899 9.894l-2.86-2.67-1.347 2.984-.336-1.963c-.758-2.357-3.197-4.948-5.89-6.205l3.787 12.567h4.542L15.9 9.894zm17.498-.157c.337.315.505.55.42.864 0 .943-1.345 1.414-2.523 1.414-1.683 0-2.608-.236-4.038-.785l-.589-.236-.589 3.22c1.01.393 2.86.786 4.795.786 2.692 0 4.88-.707 6.142-1.964l-3.618-3.299zm4.88 4.87h3.954l.842-2.356h5.384l.505 2.356H53l-1.43-5.734-5.048-4.555.252 1.256s.841 3.535 1.01 4.32H44.25c.337-.785 1.683-4.163 1.683-4.163s.336-.864.589-1.413" fill="#1E1C1C" fill-opacity=".2"/></svg>