<svg width="20" height="20" viewBox="0 0 20 20" fill="none" xmlns="http://www.w3.org/2000/svg">
<path d="M19 16H1C0.447715 16 0 16.4477 0 17C0 17.5523 0.447716 18 1 18H19C19.5523 18 20 17.5523 20 17C20 16.4477 19.5523 16 19 16Z" fill="white"/>
<path d="M19 8.5H1C0.447715 8.5 0 8.94772 0 9.5C0 10.0523 0.447715 10.5 1 10.5H19C19.5523 10.5 20 10.0523 20 9.5C20 8.94772 19.5523 8.5 19 8.5Z" fill="white"/>
<path d="M19 1H1C0.447715 1 0 1.44772 0 2C0 2.55228 0.447715 3 1 3H19C19.5523 3 20 2.55228 20 2C20 1.44772 19.5523 1 19 1Z" fill="white"/>
</svg>
