<svg width="25" height="25" viewBox="0 0 25 25" fill="none" xmlns="http://www.w3.org/2000/svg">
<path d="M22.5 5.98889L20.0333 14.8121H7.50649L4.83267 1.46802H0V3.46961H3.18872L5.8625 16.8137H21.4105L25 5.98889H22.5Z"/>
<path d="M9.35811 17.481C7.69946 17.481 6.3501 18.8278 6.3501 20.4834C6.3501 22.139 7.69951 23.4858 9.35811 23.4858C11.0167 23.4858 12.3661 22.139 12.3661 20.4834C12.3661 18.8278 11.0167 17.481 9.35811 17.481ZM9.35811 21.4842C8.80522 21.4842 8.35542 21.0353 8.35542 20.4834C8.35542 19.9315 8.80522 19.4825 9.35811 19.4825C9.91099 19.4825 10.3608 19.9315 10.3608 20.4834C10.3608 21.0353 9.91099 21.4842 9.35811 21.4842Z"/>
<path d="M18.048 17.481C16.3894 17.481 15.04 18.8278 15.04 20.4834C15.04 22.139 16.3895 23.4858 18.048 23.4858C19.7067 23.4858 21.0561 22.139 21.0561 20.4834C21.0561 18.8278 19.7066 17.481 18.048 17.481ZM18.048 21.4842C17.4952 21.4842 17.0454 21.0353 17.0454 20.4834C17.0454 19.9315 17.4952 19.4825 18.048 19.4825C18.6009 19.4825 19.0507 19.9315 19.0507 20.4834C19.0507 21.0353 18.6009 21.4842 18.048 21.4842Z"/>
<rect x="8" y="5.98877" width="16" height="1.99628"/>
</svg>
