<svg width="20" height="20" viewBox="0 0 20 20" fill="none" xmlns="http://www.w3.org/2000/svg">
<path fill-rule="evenodd" clip-rule="evenodd" d="M10.364 8.36415L16.021 2.7072C16.4115 2.31668 17.0447 2.31668 17.4352 2.7072C17.8257 3.09772 17.8257 3.73089 17.4352 4.12141L11.7782 9.77837L17.435 15.4352C17.8256 15.8257 17.8256 16.4589 17.435 16.8494C17.0445 17.2399 16.4113 17.2399 16.0208 16.8494L10.364 11.1926L4.70726 16.8493C4.31673 17.2399 3.68357 17.2399 3.29304 16.8493C2.90252 16.4588 2.90252 15.8256 3.29304 15.4351L8.9498 9.77837L3.29289 4.12146C2.90237 3.73093 2.90237 3.09777 3.29289 2.70725C3.68342 2.31672 4.31658 2.31672 4.70711 2.70725L10.364 8.36415Z"/>
</svg>
