<svg width="16" height="16" viewBox="0 0 16 16" fill="none" xmlns="http://www.w3.org/2000/svg">
<path d="M14.8799 7.23011L14.4656 5.57277C14.5789 5.5487 14.6639 5.4482 14.6639 5.3278V5.06058C14.6639 4.48039 14.1918 4.00839 13.6117 4.00839H11.7244V3.4572C11.7244 3.1717 11.4922 2.93945 11.2067 2.93945H1.58662C1.30112 2.93945 1.06887 3.1717 1.06887 3.4572V8.00002C1.06887 8.13836 1.18103 8.25055 1.31941 8.25055C1.45775 8.25055 1.56994 8.13839 1.56994 8.00002V3.4572C1.56994 3.44798 1.57741 3.44052 1.58662 3.44052H11.2067C11.2159 3.44052 11.2233 3.44798 11.2233 3.4572V8.00008C11.2233 8.13842 11.3355 8.25061 11.4739 8.25061C11.6122 8.25061 11.7244 8.13845 11.7244 8.00008V7.71608H14.6797C14.6799 7.71608 14.6801 7.71614 14.6803 7.71614C14.6806 7.71614 14.6808 7.71611 14.681 7.71611C15.0447 7.71636 15.3535 7.95505 15.4595 8.28395H14.6805C14.5422 8.28395 14.43 8.39611 14.43 8.53448V9.06892C14.43 9.50177 14.7821 9.85389 15.215 9.85389H15.4989V10.9562H14.8438C14.6287 10.3348 14.038 9.88727 13.3444 9.88727C12.6508 9.88727 12.0601 10.3348 11.845 10.9562H11.7243V9.06889C11.7243 8.93055 11.6122 8.81836 11.4738 8.81836C11.3355 8.81836 11.2233 8.93052 11.2233 9.06889V10.9561H6.02553C5.81034 10.3348 5.21969 9.8872 4.52609 9.8872C3.8325 9.8872 3.24181 10.3348 3.02666 10.9561H1.58662C1.57741 10.9561 1.56994 10.9486 1.56994 10.9394V10.3883H2.65553C2.79387 10.3883 2.90606 10.2761 2.90606 10.1377C2.90606 9.99936 2.79391 9.8872 2.65553 9.8872H0.250531C0.112188 9.8872 0 9.99936 0 10.1377C0 10.2761 0.112156 10.3883 0.250531 10.3883H1.06891V10.9394C1.06891 11.2249 1.30116 11.4572 1.58666 11.4572H2.93991C2.93984 11.4627 2.93947 11.4683 2.93947 11.4739C2.93947 12.3487 3.65125 13.0605 4.52609 13.0605C5.40094 13.0605 6.11272 12.3487 6.11272 11.4739C6.11272 11.4682 6.11234 11.4627 6.11228 11.4572H11.7582C11.7582 11.4627 11.7578 11.4683 11.7578 11.4739C11.7578 12.3487 12.4696 13.0605 13.3444 13.0605C14.2192 13.0605 14.931 12.3487 14.931 11.4739C14.931 11.4682 14.9307 11.4627 14.9306 11.4572H15.7494C15.8878 11.4572 16 11.345 16 11.2066V8.53442C16 7.87467 15.5132 7.32652 14.8799 7.23011ZM11.7244 4.50942H13.6117C13.9156 4.50942 14.1628 4.75667 14.1628 5.06058V5.07727H11.7244V4.50942ZM11.7244 7.21505V5.5783H13.9505L14.3597 7.21505H11.7244ZM4.52609 12.5595C3.9275 12.5595 3.4405 12.0725 3.4405 11.4739C3.4405 10.8753 3.9275 10.3883 4.52609 10.3883C5.12469 10.3883 5.61169 10.8753 5.61169 11.4739C5.61169 12.0725 5.12469 12.5595 4.52609 12.5595ZM13.3445 12.5595C12.7459 12.5595 12.2589 12.0725 12.2589 11.4739C12.2589 10.8753 12.7459 10.3883 13.3445 10.3883C13.9431 10.3883 14.4301 10.8753 14.4301 11.4739C14.4301 12.0725 13.9431 12.5595 13.3445 12.5595ZM15.499 9.35283H15.215C15.0585 9.35283 14.9311 9.22545 14.9311 9.06889V8.78495H15.4989V9.35283H15.499Z" fill="white"/>
<path d="M4.52605 10.9563C4.24055 10.9563 4.0083 11.1885 4.0083 11.474C4.0083 11.7595 4.24055 11.9918 4.52605 11.9918C4.81155 11.9918 5.0438 11.7595 5.0438 11.474C5.0438 11.1885 4.81155 10.9563 4.52605 10.9563Z" fill="white"/>
<path d="M13.3444 10.9563C13.0589 10.9563 12.8267 11.1885 12.8267 11.474C12.8267 11.7595 13.0589 11.9918 13.3444 11.9918C13.6299 11.9918 13.8622 11.7595 13.8622 11.474C13.8622 11.1885 13.6299 10.9563 13.3444 10.9563Z" fill="white"/>
<path d="M10.4052 9.88721H6.66411C6.52576 9.88721 6.41357 9.99936 6.41357 10.1377C6.41357 10.2761 6.52573 10.3883 6.66411 10.3883H10.4052C10.5436 10.3883 10.6558 10.2761 10.6558 10.1377C10.6558 9.99936 10.5436 9.88721 10.4052 9.88721Z" fill="white"/>
<path d="M3.99189 8.81836H0.785199C0.646855 8.81836 0.534668 8.93052 0.534668 9.06889C0.534668 9.20727 0.646824 9.31942 0.785199 9.31942H3.99189C4.13023 9.31942 4.24242 9.20727 4.24242 9.06889C4.24242 8.93052 4.13023 8.81836 3.99189 8.81836Z" fill="white"/>
<path d="M8.71127 5.41784C8.61346 5.32003 8.4548 5.32003 8.35699 5.41787L6.12911 7.64571L4.97014 6.48674C4.8723 6.3889 4.71368 6.3889 4.61586 6.48674C4.51802 6.58459 4.51802 6.74318 4.61586 6.84103L5.95199 8.17715C6.00089 8.22609 6.06502 8.25053 6.12911 8.25053C6.19321 8.25053 6.25736 8.22609 6.30624 8.17715L8.71124 5.77215C8.80908 5.67428 8.80908 5.51568 8.71127 5.41784Z" fill="white"/>
</svg>
