<?xml version="1.0" encoding="utf-8"?>
<!-- Generator: Adobe Illustrator 19.2.1, SVG Export Plug-In . SVG Version: 6.00 Build 0)  -->
<svg version="1.1" id="Слой_1" xmlns="http://www.w3.org/2000/svg" xmlns:xlink="http://www.w3.org/1999/xlink" x="0px" y="0px"
	 viewBox="0 0 11 11" style="enable-background:new 0 0 11 11;" xml:space="preserve">
<style type="text/css">
	.st0{fill:none;}
</style>
<path d="M0.8,7.8h2.5C3.7,7.8,4,8.1,4,8.5S3.7,9.3,3.3,9.3H0.8C0.3,9.3,0,8.9,0,8.5C0,8.1,0.3,7.8,0.8,7.8z M0.8,4.8h6.5C7.7,4.8,8,5.1,8,5.5S7.7,6.3,7.3,6.3H0.8C0.3,6.3,0,5.9,0,5.5S0.3,4.8,0.8,4.8z M0.8,1.8h9.5c0.4,0,0.8,0.3,0.8,0.8s-0.3,0.8-0.8,0.8H0.8C0.3,3.3,0,2.9,0,2.5S0.3,1.8,0.8,1.8z"/>
</svg>
