<svg xmlns="http://www.w3.org/2000/svg" viewBox="0 0 24 24">
<path d="M12,23.5C5.7,23.5,0.5,18.3,0.5,12C0.5,5.7,5.7,0.5,12,0.5c6.3,0,11.5,5.2,11.5,11.5
	C23.5,18.3,18.3,23.5,12,23.5z M12,2.2c-5.4,0-9.8,4.4-9.8,9.8c0,5.4,4.4,9.8,9.8,9.8c5.4,0,9.8-4.4,9.8-9.8
	C21.8,6.6,17.4,2.2,12,2.2z"/>
<path d="M11.4,11c-0.4,0.4-0.9,0.6-1.5,0.6c-0.6,0-1.1-0.2-1.5-0.6C8,10.6,7.9,10.1,7.9,9.6c0-0.6,0.2-1,0.6-1.4
	c0.4-0.4,0.9-0.6,1.5-0.6c0.6,0,1.1,0.2,1.5,0.6C11.8,8.5,12,9,12,9.6C12,10.1,11.8,10.6,11.4,11z M9.5,15.4L8.7,15l5.6-6.2l0.7,0.4
	L9.5,15.4z M9.4,10.1c0.1,0.1,0.3,0.2,0.6,0.2c0.2,0,0.4-0.1,0.6-0.2c0.1-0.2,0.2-0.3,0.2-0.6c0-0.2-0.1-0.4-0.2-0.6
	c-0.1-0.1-0.3-0.2-0.6-0.2C9.7,8.8,9.5,8.9,9.4,9C9.2,9.2,9.2,9.3,9.2,9.6C9.2,9.8,9.2,10,9.4,10.1z M16.1,14.4c0,0.6-0.2,1-0.6,1.4
	c-0.4,0.4-0.9,0.6-1.5,0.6s-1.1-0.2-1.5-0.6C12.2,15.5,12,15,12,14.4c0-0.6,0.2-1,0.6-1.4c0.4-0.4,0.9-0.6,1.5-0.6s1.1,0.2,1.5,0.6
	C16,13.4,16.1,13.9,16.1,14.4z M14.6,15c0.1-0.2,0.2-0.3,0.2-0.6c0-0.2-0.1-0.4-0.2-0.6c-0.1-0.2-0.3-0.2-0.5-0.2
	c-0.2,0-0.4,0.1-0.6,0.2c-0.1,0.1-0.2,0.3-0.2,0.6c0,0.2,0.1,0.4,0.2,0.6c0.1,0.1,0.3,0.2,0.6,0.2C14.3,15.2,14.5,15.1,14.6,15z"/>
</svg>
