<svg width="16" height="16" viewBox="0 0 16 16" fill="none" xmlns="http://www.w3.org/2000/svg">
<g>
<path d="M14 16.0001H2C0.897333 16.0001 0 15.1027 0 14.0001V11.3334C0 10.9654 0.298667 10.6667 0.666667 10.6667C1.03467 10.6667 1.33333 10.9654 1.33333 11.3334V14.0001C1.33333 14.3674 1.63267 14.6667 2 14.6667H14C14.3673 14.6667 14.6667 14.3674 14.6667 14.0001V11.3334C14.6667 10.9654 14.9653 10.6667 15.3333 10.6667C15.7013 10.6667 16 10.9654 16 11.3334V14.0001C16 15.1027 15.1027 16.0001 14 16.0001Z"/>
<path d="M11.1375 8.47133L8.47081 11.138C8.21014 11.3987 7.78881 11.3987 7.52814 11.138L4.86148 8.47133C4.67081 8.28067 4.61348 7.994 4.71681 7.74467C4.82014 7.496 5.06348 7.33333 5.33281 7.33333H7.33281V0.666667C7.33281 0.298667 7.63148 0 7.99948 0C8.36748 0 8.66614 0.298667 8.66614 0.666667V7.33333H10.6661C10.9355 7.33333 11.1788 7.496 11.2821 7.74467C11.3855 7.994 11.3281 8.28067 11.1375 8.47133Z"/>
</g>
</svg>
