<svg width="25" height="23" viewBox="0 0 25 23" fill="none" xmlns="http://www.w3.org/2000/svg">
<path d="M12.5 22.9572L2.09455 12.3605C0.744528 10.9942 0 9.171 0 7.22896C0 3.24435 3.18443 0 7.09544 0C9.20793 0 11.1679 0.945888 12.5 2.54522C13.8321 0.945888 15.7876 0 17.9046 0C21.8156 0 25 3.24435 25 7.22896C25 9.171 24.2555 10.9942 22.901 12.3605L12.5 22.9572ZM7.09544 2.07456C4.3057 2.07456 2.03624 4.38673 2.03624 7.22896C2.03624 8.61352 2.56997 9.91583 3.53427 10.8891L12.5045 20.0281L21.4702 10.8937C22.4345 9.91583 22.9682 8.61809 22.9682 7.23353C22.9638 4.38673 20.6943 2.07456 17.9046 2.07456C16.0029 2.07456 14.2806 3.14839 13.406 4.87109L12.5045 6.6532L11.603 4.87109C10.7194 3.14382 8.99713 2.07456 7.09544 2.07456Z"/>
</svg>
