<svg width="16" height="16" viewBox="0 0 16 16" fill="none" xmlns="http://www.w3.org/2000/svg">
<path d="M14.5938 0.5H1.40625C0.630844 0.5 0 1.13084 0 1.90625V11.2812C0 12.0567 0.630844 12.6875 1.40625 12.6875H2.84375V15.0312C2.84375 15.2208 2.95797 15.3918 3.13313 15.4643C3.30831 15.5368 3.50991 15.4967 3.64397 15.3627L6.31916 12.6875H14.5938C15.3692 12.6875 16 12.0567 16 11.2812V1.90625C16 1.13084 15.3692 0.5 14.5938 0.5ZM15.0625 11.2812C15.0625 11.5397 14.8522 11.75 14.5938 11.75H6.125C6.00069 11.75 5.88147 11.7994 5.79356 11.8873L3.78125 13.8996V12.2188C3.78125 11.9599 3.57137 11.75 3.3125 11.75H1.40625C1.14778 11.75 0.9375 11.5397 0.9375 11.2812V1.90625C0.9375 1.64778 1.14778 1.4375 1.40625 1.4375H14.5938C14.8522 1.4375 15.0625 1.64778 15.0625 1.90625V11.2812Z"/>
<path d="M11.7277 5.49722C11.6729 5.326 11.5251 5.20125 11.3471 5.176L9.322 4.88869L8.41837 3.10103C8.33859 2.94322 8.17684 2.84375 8.00003 2.84375C7.82322 2.84375 7.66147 2.94325 7.58169 3.10103L6.67806 4.88869L4.65293 5.176C4.475 5.20125 4.32715 5.326 4.27234 5.49716C4.21753 5.66831 4.26543 5.85575 4.39562 5.97963L5.85425 7.36781L5.51043 9.32509C5.47965 9.50034 5.55075 9.67794 5.694 9.7835C5.83722 9.88906 6.02787 9.90447 6.18618 9.82322L8.00003 8.89222L9.81387 9.82328C9.97218 9.90453 10.1628 9.88916 10.3061 9.78356C10.4493 9.67797 10.5204 9.50041 10.4896 9.32516L10.1458 7.36788L11.6044 5.97969C11.7346 5.85578 11.7825 5.66837 11.7277 5.49722ZM9.3175 6.86194C9.20381 6.97013 9.15181 7.12803 9.17897 7.28259L9.40312 8.55863L8.21409 7.94828C8.1469 7.91378 8.07347 7.89656 8.00003 7.89656C7.92659 7.89656 7.85315 7.91381 7.78597 7.94828L6.59693 8.55863L6.82109 7.28259C6.84825 7.12803 6.79625 6.97013 6.68256 6.86194L5.74343 5.96816L7.0519 5.7825C7.20362 5.761 7.33528 5.66662 7.4044 5.52987L8.00003 4.35156L8.59565 5.52987C8.66478 5.66666 8.7964 5.761 8.94815 5.7825L10.2566 5.96816L9.3175 6.86194Z"/>
</svg>
