<svg width="15" height="15" viewBox="0 0 15 15" fill="none" xmlns="http://www.w3.org/2000/svg">
<path d="M3.5625 1.53125C3.5625 2.3079 2.9329 2.9375 2.15625 2.9375C1.3796 2.9375 0.75 2.3079 0.75 1.53125C0.75 0.7546 1.3796 0.125 2.15625 0.125C2.9329 0.125 3.5625 0.7546 3.5625 1.53125Z" fill="white"/>
<path d="M3.5625 7.15625C3.5625 7.9329 2.9329 8.5625 2.15625 8.5625C1.3796 8.5625 0.75 7.9329 0.75 7.15625C0.75 6.3796 1.3796 5.75 2.15625 5.75C2.9329 5.75 3.5625 6.3796 3.5625 7.15625Z" fill="white"/>
<path d="M3.5625 12.7812C3.5625 13.5579 2.9329 14.1875 2.15625 14.1875C1.3796 14.1875 0.75 13.5579 0.75 12.7812C0.75 12.0046 1.3796 11.375 2.15625 11.375C2.9329 11.375 3.5625 12.0046 3.5625 12.7812Z" fill="white"/>
<path d="M9.1875 1.53125C9.1875 2.3079 8.5579 2.9375 7.78125 2.9375C7.0046 2.9375 6.375 2.3079 6.375 1.53125C6.375 0.7546 7.0046 0.125 7.78125 0.125C8.5579 0.125 9.1875 0.7546 9.1875 1.53125Z" fill="white"/>
<path d="M9.1875 7.15625C9.1875 7.9329 8.5579 8.5625 7.78125 8.5625C7.0046 8.5625 6.375 7.9329 6.375 7.15625C6.375 6.3796 7.0046 5.75 7.78125 5.75C8.5579 5.75 9.1875 6.3796 9.1875 7.15625Z" fill="white"/>
<path d="M9.1875 12.7812C9.1875 13.5579 8.5579 14.1875 7.78125 14.1875C7.0046 14.1875 6.375 13.5579 6.375 12.7812C6.375 12.0046 7.0046 11.375 7.78125 11.375C8.5579 11.375 9.1875 12.0046 9.1875 12.7812Z" fill="white"/>
<path d="M14.8125 1.53125C14.8125 2.3079 14.1829 2.9375 13.4062 2.9375C12.6296 2.9375 12 2.3079 12 1.53125C12 0.7546 12.6296 0.125 13.4062 0.125C14.1829 0.125 14.8125 0.7546 14.8125 1.53125Z" fill="white"/>
<path d="M14.8125 7.15625C14.8125 7.9329 14.1829 8.5625 13.4062 8.5625C12.6296 8.5625 12 7.9329 12 7.15625C12 6.3796 12.6296 5.75 13.4062 5.75C14.1829 5.75 14.8125 6.3796 14.8125 7.15625Z" fill="white"/>
<path d="M14.8125 12.7812C14.8125 13.5579 14.1829 14.1875 13.4062 14.1875C12.6296 14.1875 12 13.5579 12 12.7812C12 12.0046 12.6296 11.375 13.4062 11.375C14.1829 11.375 14.8125 12.0046 14.8125 12.7812Z" fill="white"/>
</svg>
