<svg xmlns="http://www.w3.org/2000/svg" viewBox="0 0 24 24">
	<path d="M22.3,8.7c-0.3-0.9-0.2-2.4-1-3.4c-0.8-1.1-2.2-1.4-3-2c-0.8-0.6-1.5-1.8-2.8-2.2C14.3,0.6,13,1.2,12,1.2c-1,0-2.3-0.6-3.6-0.1c-1.3,0.4-2,1.7-2.8,2.2c-0.8,0.6-2.2,0.9-3,2C1.9,6.3,2,7.7,1.7,8.7c-0.3,0.9-1.2,2-1.2,3.3c0,1.4,0.9,2.5,1.2,3.3c0.3,0.9,0.2,2.4,1,3.4c0.8,1.1,2.2,1.4,3,2c0.8,0.6,1.5,1.8,2.8,2.2c1.3,0.4,2.6-0.1,3.6-0.1c1,0,2.3,0.6,3.6,0.1c1.3-0.4,2-1.7,2.8-2.2c0.8-0.6,2.2-0.9,3-2c0.8-1.1,0.7-2.5,1-3.4c0.3-0.9,1.2-2,1.2-3.3C23.5,10.6,22.6,9.5,22.3,8.7z M20.6,14.8c-0.4,1.1-0.3,2.3-0.7,2.9c-0.5,0.6-1.6,0.9-2.6,1.6c-0.9,0.7-1.5,1.7-2.3,2c-0.7,0.2-1.8-0.2-3-0.2c-1.2,0-2.3,0.5-3,0.2c-0.7-0.2-1.4-1.3-2.3-2c-0.9-0.7-2.1-1-2.6-1.6c-0.4-0.6-0.4-1.8-0.7-2.9c-0.3-1.1-1.1-2-1.1-2.8c0-0.8,0.8-1.7,1.1-2.8c0.4-1.1,0.3-2.3,0.7-2.9c0.5-0.6,1.6-0.9,2.6-1.6C7.6,4,8.3,3,9,2.7C9.7,2.5,10.8,3,12,3c1.2,0,2.3-0.5,3-0.2c0.7,0.2,1.4,1.3,2.3,2c0.9,0.7,2.1,1,2.6,1.6c0.4,0.6,0.4,1.8,0.7,2.9v0c0.3,1.1,1.1,2,1.1,2.8C21.7,12.8,20.9,13.7,20.6,14.8z M16.1,9.1c0.4,0.4,0.4,0.9,0,1.3l-4.5,4.5c-0.4,0.4-0.9,0.4-1.3,0l-2.5-2.5c-0.4-0.4-0.4-0.9,0-1.3c0.4-0.4,0.9-0.4,1.3,0L11,13l3.9-3.9C15.2,8.8,15.8,8.8,16.1,9.1z"/>
</svg>
