<svg width="19" height="19" viewBox="0 0 19 19" fill="none" xmlns="http://www.w3.org/2000/svg">
<path d="M13.7565 0H5.24317C2.35209 0 0 2.3522 0 5.24328V13.7566C0 16.6478 2.35209 18.9999 5.24317 18.9999H13.7565C16.6478 18.9999 18.9999 16.6477 18.9999 13.7566V5.24328C19 2.3522 16.6478 0 13.7565 0ZM17.3142 13.7566C17.3142 15.7183 15.7183 17.3141 13.7566 17.3141H5.24317C3.28162 17.3142 1.68576 15.7183 1.68576 13.7566V5.24328C1.68576 3.28173 3.28162 1.68576 5.24317 1.68576H13.7565C15.7182 1.68576 17.3141 3.28173 17.3141 5.24328V13.7566H17.3142Z"/>
<path d="M9.49979 4.60425C6.80021 4.60425 4.604 6.80046 4.604 9.50004C4.604 12.1995 6.80021 14.3956 9.49979 14.3956C12.1994 14.3956 14.3956 12.1995 14.3956 9.50004C14.3956 6.80046 12.1994 4.60425 9.49979 4.60425ZM9.49979 12.7097C7.72986 12.7097 6.28977 11.2699 6.28977 9.49992C6.28977 7.72987 7.72974 6.2899 9.49979 6.2899C11.2698 6.2899 12.7098 7.72987 12.7098 9.49992C12.7098 11.2699 11.2697 12.7097 9.49979 12.7097Z"/>
<path d="M14.601 3.17505C14.2762 3.17505 13.9571 3.30654 13.7277 3.53693C13.4972 3.76619 13.3647 4.08536 13.3647 4.41127C13.3647 4.73618 13.4974 5.05524 13.7277 5.28562C13.957 5.51489 14.2762 5.6475 14.601 5.6475C14.9269 5.6475 15.2449 5.51489 15.4753 5.28562C15.7057 5.05524 15.8372 4.73606 15.8372 4.41127C15.8372 4.08536 15.7057 3.76619 15.4753 3.53693C15.2461 3.30654 14.9269 3.17505 14.601 3.17505Z"/>
</svg>
