<svg width="29" height="29" viewBox="0 0 29 29" fill="none" xmlns="http://www.w3.org/2000/svg">
<path d="M25.3748 9.0625L21.7498 14.5H23.5623C23.5623 19.4967 19.4966 23.5625 14.4999 23.5625C11.4251 23.5625 8.71201 22.0154 7.07278 19.6668L4.95947 22.8368C7.28695 25.4968 10.696 27.1875 14.4999 27.1875C21.4959 27.1875 27.1873 21.4959 27.1873 14.5H28.9998L25.3748 9.0625Z" fill="black"/>
<path d="M5.4375 14.5C5.4375 9.50321 9.50323 5.43748 14.5 5.43748C17.5747 5.43748 20.2878 6.98457 21.9271 9.33319L24.0404 6.16323C21.7129 3.50323 18.3038 1.81256 14.5 1.81256C7.50397 1.81256 1.81252 7.50407 1.81252 14.5H0L3.62498 19.9375L7.24996 14.5L5.4375 14.5Z" fill="black"/>
</svg>
