<svg width="19" height="19" viewBox="0 0 19 19" fill="none" xmlns="http://www.w3.org/2000/svg">
<g>
<path d="M9.49993 0C6.88034 0 4.75 2.13034 4.75 4.74993C4.75 7.36951 6.88034 9.49985 9.49993 9.49985C12.1195 9.49985 14.2499 7.36951 14.2499 4.74993C14.2499 2.13034 12.1195 0 9.49993 0ZM9.49993 7.12489C8.19014 7.12489 7.12496 6.05972 7.12496 4.74993C7.12496 3.44013 8.19014 2.37496 9.49993 2.37496C10.8097 2.37496 11.8749 3.44013 11.8749 4.74993C11.8749 6.05972 10.8097 7.12489 9.49993 7.12489Z"/>
<path d="M15.7983 9.36801C15.334 8.9037 14.5835 8.9037 14.1192 9.36801C11.5733 11.914 7.42897 11.914 4.88182 9.36801C4.41751 8.9037 3.66703 8.9037 3.20272 9.36801C2.73842 9.83231 2.73842 10.5828 3.20272 11.0483C4.67995 12.5255 6.55261 13.3675 8.48345 13.5871L5.09794 16.9727C4.63364 17.437 4.63364 18.1874 5.09794 18.6518C5.56225 19.1161 6.31274 19.1161 6.77704 18.6518L9.49994 15.9289L12.2228 18.6518C12.4544 18.8833 12.7584 18.9997 13.0624 18.9997C13.3664 18.9997 13.6704 18.8833 13.9019 18.6518C14.3662 18.1874 14.3662 17.437 13.9019 16.9727L10.5164 13.5871C12.4473 13.3675 14.3199 12.5255 15.7972 11.0483C16.2615 10.584 16.2615 9.83231 15.7983 9.36801Z"/>
</g>
</svg>
