<svg width="23" height="20" viewBox="0 0 23 20" fill="none" xmlns="http://www.w3.org/2000/svg">
<path d="M15.141 6.582C15.2698 6.45187 15.3421 6.27614 15.3421 6.09301C15.3421 5.90987 15.2698 5.73414 15.141 5.60401C15.0777 5.53976 15.0023 5.48873 14.9191 5.4539C14.8359 5.41908 14.7467 5.40114 14.6565 5.40114C14.5663 5.40114 14.477 5.41908 14.3939 5.4539C14.3107 5.48873 14.2353 5.53976 14.172 5.60401L10.342 9.512C10.2133 9.64244 10.1412 9.81829 10.1412 10.0015C10.1412 10.1847 10.2133 10.3606 10.342 10.491L14.172 14.399C14.2353 14.4633 14.3107 14.5143 14.3939 14.5491C14.477 14.5839 14.5663 14.6019 14.6565 14.6019C14.7467 14.6019 14.8359 14.5839 14.9191 14.5491C15.0023 14.5143 15.0777 14.4633 15.141 14.399C15.2698 14.2689 15.3421 14.0931 15.3421 13.91C15.3421 13.7269 15.2698 13.5511 15.141 13.421L12 10L15.141 6.582Z"/>
<path d="M12.141 6.582C12.2698 6.45187 12.3421 6.27614 12.3421 6.09301C12.3421 5.90987 12.2698 5.73414 12.141 5.60401C12.0777 5.53976 12.0023 5.48873 11.9191 5.4539C11.8359 5.41908 11.7467 5.40114 11.6565 5.40114C11.5663 5.40114 11.477 5.41908 11.3939 5.4539C11.3107 5.48873 11.2353 5.53976 11.172 5.60401L7.34199 9.512C7.21332 9.64244 7.14117 9.81829 7.14117 10.0015C7.14117 10.1847 7.21332 10.3606 7.34199 10.491L11.172 14.399C11.2353 14.4633 11.3107 14.5143 11.3939 14.5491C11.477 14.5839 11.5663 14.6019 11.6565 14.6019C11.7467 14.6019 11.8359 14.5839 11.9191 14.5491C12.0023 14.5143 12.0777 14.4633 12.141 14.399C12.2698 14.2689 12.3421 14.0931 12.3421 13.91C12.3421 13.7269 12.2698 13.5511 12.141 13.421L8.99999 10L12.141 6.582Z"/>
</svg>
