<svg width="23" height="20" viewBox="0 0 23 20" fill="none" xmlns="http://www.w3.org/2000/svg">
<path d="M7.85901 6.582C7.73016 6.45187 7.65788 6.27614 7.65788 6.09301C7.65788 5.90987 7.73016 5.73414 7.85901 5.60401C7.92228 5.53976 7.9977 5.48873 8.08088 5.4539C8.16406 5.41908 8.25333 5.40114 8.34351 5.40114C8.43368 5.40114 8.52296 5.41908 8.60614 5.4539C8.68931 5.48873 8.76474 5.53976 8.82801 5.60401L12.658 9.512C12.7867 9.64244 12.8588 9.81829 12.8588 10.0015C12.8588 10.1847 12.7867 10.3606 12.658 10.491L8.82801 14.399C8.76474 14.4633 8.68932 14.5143 8.60614 14.5491C8.52296 14.5839 8.43369 14.6019 8.34351 14.6019C8.25333 14.6019 8.16406 14.5839 8.08088 14.5491C7.9977 14.5143 7.92228 14.4633 7.85901 14.399C7.73016 14.2689 7.65788 14.0931 7.65788 13.91C7.65788 13.7269 7.73016 13.5511 7.85901 13.421L11 10L7.85901 6.582Z"/>
<path d="M10.859 6.582C10.7302 6.45187 10.6579 6.27614 10.6579 6.09301C10.6579 5.90987 10.7302 5.73414 10.859 5.60401C10.9223 5.53976 10.9977 5.48873 11.0809 5.4539C11.1641 5.41908 11.2533 5.40114 11.3435 5.40114C11.4337 5.40114 11.523 5.41908 11.6061 5.4539C11.6893 5.48873 11.7647 5.53976 11.828 5.60401L15.658 9.512C15.7867 9.64244 15.8588 9.81829 15.8588 10.0015C15.8588 10.1847 15.7867 10.3606 15.658 10.491L11.828 14.399C11.7647 14.4633 11.6893 14.5143 11.6061 14.5491C11.523 14.5839 11.4337 14.6019 11.3435 14.6019C11.2533 14.6019 11.1641 14.5839 11.0809 14.5491C10.9977 14.5143 10.9223 14.4633 10.859 14.399C10.7302 14.2689 10.6579 14.0931 10.6579 13.91C10.6579 13.7269 10.7302 13.5511 10.859 13.421L14 10L10.859 6.582Z"/>
</svg>
