<svg width="20" height="20" viewBox="0 0 20 20" fill="none" xmlns="http://www.w3.org/2000/svg">
<g>
<path d="M18.4212 19.9629H16.3947C16.3947 16.5505 13.5271 13.7752 9.9999 13.7752C6.47269 13.7752 3.60614 16.5515 3.60614 19.9629H1.57959C1.57959 15.4339 5.35809 11.7524 10.0009 11.7524C14.6427 11.7524 18.4212 15.4339 18.4212 19.9629Z" fill="white"/>
<path d="M10.0011 11.0949C6.938 11.0949 4.44434 8.60489 4.44434 5.54746C4.44332 2.48903 6.93699 0 10.0011 0C13.0663 0 15.5599 2.48801 15.5599 5.54746C15.5599 8.60691 13.0663 11.0949 10.0011 11.0949ZM10.0011 2.02278C8.05362 2.02278 6.46987 3.60357 6.46987 5.54746C6.46987 7.49135 8.05362 9.07215 10.0011 9.07215C11.9497 9.07215 13.5334 7.49135 13.5334 5.54746C13.5334 3.60357 11.9476 2.02278 10.0011 2.02278Z" fill="white"/>
</g>
</svg>
