<svg width="23" height="23" viewBox="0 0 23 23" fill="none" xmlns="http://www.w3.org/2000/svg">
<g>
<path d="M19.6748 9.6516C19.7024 6.40888 16.9406 3.43617 13.5182 3.0251C13.4501 3.01703 13.376 3.00474 13.2975 2.99174C13.1281 2.96367 12.9529 2.93481 12.7761 2.93481C12.0746 2.93481 11.8871 3.42753 11.8378 3.72139C11.7898 4.0071 11.8356 4.24703 11.9736 4.43481C12.2059 4.75067 12.6146 4.80674 12.9429 4.85167C13.0391 4.86496 13.1299 4.87731 13.2059 4.89439C16.2808 5.58146 17.3161 6.66167 17.8221 9.71038C17.8345 9.78488 17.8401 9.87667 17.846 9.97403C17.8681 10.3385 17.9141 11.0967 18.7292 11.0967H18.7293C18.7971 11.0967 18.8701 11.0908 18.946 11.0792C19.7051 10.9639 19.6813 10.2708 19.6699 9.93781C19.6666 9.84403 19.6636 9.75531 19.6715 9.69631C19.6736 9.68145 19.6747 9.66653 19.6748 9.6516Z" fill="#AA161D"/>
<path d="M12.5769 1.83486C12.668 1.84143 12.7542 1.84771 12.826 1.85871C17.8752 2.63521 20.1973 5.0275 20.8408 10.1162C20.8517 10.2027 20.8534 10.3082 20.8552 10.4199C20.8616 10.8175 20.8749 11.6446 21.7631 11.6617L21.7906 11.662C22.0692 11.662 22.2908 11.578 22.4493 11.4121C22.7258 11.1229 22.7065 10.6933 22.6909 10.348C22.6871 10.2633 22.6835 10.1835 22.6844 10.1136C22.7486 4.90921 18.2436 0.189857 13.0439 0.0143571C13.0223 0.0136429 13.0017 0.0147857 12.9809 0.0177143C12.9707 0.0192143 12.9518 0.0210714 12.9194 0.0210714C12.8675 0.0210714 12.8037 0.0165714 12.7361 0.012C12.6543 0.00642857 12.5616 0 12.4676 0C11.6395 0 11.4821 0.588571 11.4619 0.939429C11.4155 1.75029 12.1999 1.80736 12.5769 1.83486Z" fill="#AA161D"/>
<path d="M20.5971 16.6932C20.4897 16.6112 20.3787 16.5263 20.2748 16.4426C19.7235 15.999 19.137 15.59 18.5698 15.1945C18.4521 15.1125 18.3344 15.0305 18.2171 14.9482C17.4905 14.4378 16.8373 14.1898 16.2201 14.1898C15.3889 14.1898 14.6642 14.6491 14.0661 15.5547C13.8011 15.9562 13.4796 16.1515 13.0834 16.1515C12.8491 16.1515 12.5829 16.0846 12.2922 15.9527C9.94699 14.8892 8.27235 13.2586 7.31471 11.1062C6.85178 10.066 7.00185 9.38596 7.81657 8.83253C8.27921 8.51853 9.14035 7.93396 9.07935 6.81453C9.01028 5.54332 6.20542 1.71839 5.02364 1.28396C4.52328 1.09996 3.99757 1.09825 3.45828 1.27968C2.09971 1.73639 1.12478 2.53846 0.638636 3.59903C0.168851 4.62382 0.190065 5.82711 0.699993 7.07882C2.17414 10.6978 4.24671 13.8531 6.86035 16.4569C9.41864 19.0057 12.563 21.0936 16.206 22.6622C16.5344 22.8035 16.8788 22.8806 17.1303 22.9368C17.216 22.9561 17.29 22.9725 17.3439 22.9873C17.3736 22.9954 17.4041 22.9997 17.4348 23L17.4636 23.0002C17.4636 23.0002 17.4636 23.0002 17.4637 23.0002C19.1771 23.0002 21.2345 21.4345 21.8664 19.6495C22.4199 18.0865 21.4092 17.3139 20.5971 16.6932Z" fill="#AA161D"/>
<path d="M13.3346 5.96889C13.0413 5.97632 12.4308 5.99146 12.2166 6.61324C12.1163 6.90381 12.1283 7.1561 12.2523 7.3631C12.4341 7.66681 12.7826 7.75989 13.0995 7.81096C14.2488 7.99539 14.8391 8.63096 14.9572 9.81096C15.0121 10.3612 15.3826 10.7454 15.8583 10.7454H15.8583C15.8935 10.7454 15.9294 10.7433 15.9652 10.739C16.5373 10.6709 16.8147 10.2505 16.7896 9.48967C16.7988 8.6956 16.3832 7.7941 15.6764 7.07603C14.9672 6.35574 14.1123 5.9501 13.3346 5.96889Z" fill="#AA161D"/>
</g>
</svg>
