<svg width="24" height="24" viewBox="0 0 24 24" fill="none" xmlns="http://www.w3.org/2000/svg">
<path d="M11.999 1.993C6.48502 1.994 1.99902 6.48 1.99902 11.994C1.99902 17.508 6.48502 21.994 12 21.994C17.513 21.994 21.999 17.508 22 11.994C22 6.48 17.514 1.994 11.999 1.993ZM12 19.994C7.58802 19.994 3.99902 16.405 3.99902 11.994C3.99902 7.583 7.58802 3.994 11.999 3.993C16.411 3.994 20 7.583 20 11.994C19.999 16.405 16.41 19.994 12 19.994Z"/>
<path d="M12 10.994H8V12.994H12V16L16.005 11.995L12 7.991V10.994Z"/>
</svg>
