<svg width="16" height="16" viewBox="0 0 16 16" fill="none" xmlns="http://www.w3.org/2000/svg">
<path d="M15.8379 4.77121L10.4629 1.81979C10.3693 1.7684 10.2557 1.7684 10.1621 1.81979L8.14087 2.92966C8.09521 2.94235 8.05261 2.96567 8.01648 2.99789L4.78711 4.77121C4.68713 4.82614 4.625 4.93112 4.625 5.04514V5.68405H1.01953C0.846924 5.68405 0.707031 5.82407 0.707031 5.99655C0.707031 6.16916 0.846924 6.30905 1.01953 6.30905H4.625V7.43405H2.83337C2.66077 7.43405 2.52087 7.57407 2.52087 7.74655C2.52087 7.91916 2.66077 8.05905 2.83337 8.05905H4.625V9.68405H2C1.82739 9.68405 1.6875 9.82407 1.6875 9.99655C1.6875 10.1692 1.82739 10.3091 2 10.3091H4.625V10.9481C4.625 11.0621 4.68713 11.1671 4.78711 11.222L10.1621 14.1734C10.209 14.1992 10.2607 14.212 10.3125 14.212C10.3643 14.212 10.416 14.1992 10.4629 14.1734L15.8379 11.222C15.9379 11.1671 16 11.0621 16 10.9481V9.54868C16 9.37619 15.8601 9.23618 15.6875 9.23618C15.5149 9.23618 15.375 9.37619 15.375 9.54868V10.7632L10.625 13.3714V8.18149L12.1356 7.35202V8.66843C12.1356 8.77902 12.194 8.88132 12.2891 8.93747C12.338 8.9664 12.3931 8.98093 12.4481 8.98093C12.4999 8.98093 12.5518 8.96811 12.5988 8.94223L13.7506 8.30832C13.8503 8.25339 13.9124 8.14853 13.9124 8.03452V6.37643L15.375 5.57333V7.04868C15.375 7.22128 15.5149 7.36118 15.6875 7.36118C15.8601 7.36118 16 7.22128 16 7.04868V5.04514C16 4.93112 15.9379 4.82614 15.8379 4.77121V4.77121ZM10 13.3714L5.25 10.7632V5.57333L10 8.18149V13.3714ZM10.3125 7.64011L5.58679 5.04514L7.07202 4.22958L11.7979 6.82455L10.3125 7.64011ZM12.4471 6.46799L7.72131 3.87302L8.23364 3.59177L12.9594 6.18674L12.4471 6.46799ZM13.2874 7.84982L12.7606 8.13974V7.00888L13.2874 6.71957V7.84982ZM13.6086 5.83017L8.88293 3.2352L10.3125 2.45029L15.0382 5.04514L13.6086 5.83017Z" fill="white"/>
<path d="M15.6875 7.98633C15.6053 7.98633 15.5247 8.01941 15.4666 8.07788C15.4084 8.13599 15.375 8.21631 15.375 8.29883C15.375 8.38098 15.4084 8.46167 15.4666 8.51978C15.5247 8.57788 15.6053 8.61133 15.6875 8.61133C15.7697 8.61133 15.8503 8.57788 15.9084 8.51978C15.9666 8.46167 16 8.38098 16 8.29883C16 8.21631 15.9666 8.13599 15.9084 8.07788C15.8503 8.01941 15.7697 7.98633 15.6875 7.98633Z" fill="white"/>
<path d="M0.760376 9.68408H0.3125C0.139893 9.68408 0 9.8241 0 9.99658C0 10.1692 0.139893 10.3091 0.3125 10.3091H0.760376C0.932983 10.3091 1.07288 10.1692 1.07288 9.99658C1.07288 9.8241 0.932983 9.68408 0.760376 9.68408Z" fill="white"/>
<path d="M1.89551 7.74658C1.89551 7.66443 1.86206 7.58386 1.80383 7.52576C1.74573 7.46753 1.66516 7.43408 1.58301 7.43408C1.50073 7.43408 1.42017 7.46753 1.36206 7.52576C1.30359 7.58386 1.27051 7.66443 1.27051 7.74658C1.27051 7.82886 1.30359 7.90942 1.36206 7.96753C1.42017 8.02563 1.50073 8.05908 1.58301 8.05908C1.66516 8.05908 1.74573 8.02576 1.80383 7.96753C1.86206 7.90942 1.89551 7.82886 1.89551 7.74658Z" fill="white"/>
</svg>
