<svg width="20" height="20" viewBox="0 0 20 20" fill="none" xmlns="http://www.w3.org/2000/svg">
<path d="M13.4181 7.85907C13.5482 7.73022 13.7239 7.65794 13.9071 7.65794C14.0902 7.65794 14.2659 7.73022 14.3961 7.85907C14.4603 7.92234 14.5113 7.99777 14.5462 8.08094C14.581 8.16412 14.5989 8.2534 14.5989 8.34357C14.5989 8.43375 14.581 8.52302 14.5462 8.6062C14.5113 8.68938 14.4603 8.7648 14.3961 8.82807L10.4881 12.6581C10.3576 12.7867 10.1818 12.8589 9.99856 12.8589C9.81534 12.8589 9.63949 12.7867 9.50906 12.6581L5.60106 8.82807C5.53681 8.7648 5.48578 8.68938 5.45096 8.6062C5.41613 8.52302 5.39819 8.43375 5.39819 8.34357C5.39819 8.2534 5.41613 8.16412 5.45096 8.08094C5.48578 7.99777 5.53681 7.92234 5.60106 7.85907C5.73119 7.73022 5.90692 7.65794 6.09006 7.65794C6.27319 7.65794 6.44892 7.73022 6.57906 7.85907L10.0001 11.0001L13.4181 7.85907Z"/>
</svg>
