<svg width="20" height="18" viewBox="0 0 20 18" fill="none" xmlns="http://www.w3.org/2000/svg">
<path d="M0.91522 6.29981L6.73861 5.49569L9.34183 0.481407C9.41293 0.344119 9.5299 0.232981 9.67439 0.165427C10.0368 -0.00454903 10.4771 0.137097 10.6583 0.481407L13.2616 5.49569L19.0849 6.29981C19.2455 6.3216 19.3923 6.39351 19.5047 6.50247C19.6405 6.63516 19.7154 6.81366 19.7128 6.99876C19.7102 7.18387 19.6304 7.36042 19.4909 7.48964L15.2776 11.3925L16.273 16.9037C16.2964 17.0319 16.2814 17.1637 16.2299 17.2843C16.1784 17.4048 16.0924 17.5093 15.9816 17.5857C15.8708 17.6622 15.7397 17.7076 15.6031 17.7169C15.4665 17.7261 15.3299 17.6988 15.2088 17.6381L10.0001 15.0361L4.79137 17.6381C4.64917 17.71 4.48403 17.7339 4.32577 17.7078C3.92669 17.6424 3.65834 17.2829 3.72715 16.9037L4.72256 11.3925L0.509256 7.48964C0.394577 7.38286 0.31889 7.24339 0.295954 7.09085C0.234028 6.70949 0.513844 6.35647 0.91522 6.29981Z" fill="#AA161D"/>
</svg>
