<svg width="23" height="23" viewBox="0 0 23 23" fill="none" xmlns="http://www.w3.org/2000/svg">
<g>
<path d="M19.5514 3.3437C18.497 2.27948 17.2413 1.43577 15.8575 0.861716C14.4737 0.287666 12.9895 -0.00523864 11.4914 7.09126e-05C5.21381 7.09126e-05 0.09775 5.1147 0.092 11.3937C0.092 13.4048 0.618125 15.3612 1.61144 17.0934L0 23.0001L6.04325 21.4159C7.71507 22.3258 9.58803 22.8026 11.4914 22.8031H11.4971C17.7761 22.8031 22.8908 17.6885 22.8965 11.4038C22.8979 9.90595 22.603 8.42265 22.0286 7.03933C21.4543 5.65602 20.6119 4.40002 19.55 3.3437H19.5514ZM11.4914 20.874C9.79368 20.8746 8.1272 20.4177 6.66713 19.5515L6.32212 19.3445L2.737 20.2846L3.69437 16.7872L3.47012 16.4264C2.5211 14.9175 2.01918 13.1705 2.02256 11.3879C2.02256 6.17557 6.27325 1.92345 11.4971 1.92345C12.7416 1.92121 13.9743 2.16534 15.124 2.64175C16.2737 3.11816 17.3177 3.81744 18.1959 4.69926C19.0771 5.57764 19.7757 6.62181 20.2514 7.77153C20.7271 8.92125 20.9704 10.1538 20.9674 11.398C20.9616 16.6291 16.7109 20.874 11.4914 20.874ZM16.6879 13.7814C16.4048 13.6391 15.0061 12.9505 14.743 12.8528C14.4814 12.7593 14.2902 12.7104 14.1033 12.9951C13.9121 13.2783 13.3659 13.9237 13.202 14.1091C13.0381 14.3003 12.8685 14.3219 12.5839 14.181C12.3007 14.0373 11.3821 13.7383 10.2954 12.7651C9.44725 12.0104 8.87944 11.076 8.70981 10.7928C8.54594 10.5082 8.694 10.3558 8.83631 10.2135C8.96138 10.087 9.1195 9.88001 9.26181 9.71613C9.40556 9.55226 9.453 9.43151 9.54644 9.24176C9.63987 9.04913 9.59531 8.88526 9.52487 8.74295C9.453 8.60063 8.88519 7.1962 8.64512 6.62982C8.41512 6.07063 8.18081 6.14826 8.00544 6.14107C7.84156 6.13101 7.65038 6.13101 7.45919 6.13101C7.31481 6.1346 7.17273 6.16799 7.04187 6.22909C6.91101 6.29019 6.79419 6.37768 6.69875 6.48607C6.43712 6.7707 5.70544 7.45926 5.70544 8.8637C5.70544 10.2681 6.72606 11.6179 6.86981 11.8091C7.01069 12.0003 8.87369 14.8739 11.7329 16.1101C12.4085 16.4048 12.9404 16.5788 13.3558 16.711C14.0386 16.9295 14.6553 16.8964 15.1469 16.826C15.6932 16.7426 16.8302 16.136 17.0703 15.4704C17.3061 14.8034 17.3061 14.2342 17.2342 14.1149C17.1637 13.9941 16.9726 13.9237 16.6879 13.7814Z" fill="#AA161D"/>
</g>
</svg>
