<svg width="50" height="50" viewBox="0 0 50 50" fill="none" xmlns="http://www.w3.org/2000/svg">
<g>
<path d="M32.6906 27.4694C32.374 27.2171 31.9126 27.2692 31.6602 27.5858L29.8044 29.9143C29.7008 30.0441 29.6445 30.2052 29.6445 30.3712V45.493C29.6445 45.8979 29.9728 46.2262 30.3777 46.2262C30.7827 46.2262 31.1109 45.8979 31.1109 45.493V30.6276L32.8069 28.4997C33.0594 28.183 33.0072 27.7218 32.6906 27.4694Z" fill="#1E1C1C"/>
<path d="M47.992 5.60385H46.8195C46.6298 5.60385 46.4468 5.63211 46.2728 5.68147C46.22 4.62097 45.3432 3.77368 44.2698 3.77368H42.2703C41.1631 3.77368 40.2622 4.67445 40.2622 5.78178V12.8026H34.0427V10.305C34.0427 8.58906 32.6467 7.19304 30.9307 7.19304C30.118 7.19304 29.3774 7.50656 28.8225 8.01853C28.2738 7.13028 27.2916 6.53688 26.1732 6.53688C25.0227 6.53688 24.0169 7.16479 23.4784 8.09547C22.9288 7.60784 22.2065 7.31084 21.4157 7.31084C20.3755 7.31084 19.4536 7.82428 18.8883 8.61047C18.3224 8.02841 17.532 7.66581 16.6582 7.66581C14.9422 7.66581 13.5462 9.06183 13.5462 10.7778V12.7069C13.5462 12.739 13.5476 12.7708 13.5486 12.8026H9.73771V10.7282C9.73771 10.3232 9.40943 9.99495 9.00451 9.99495C8.59958 9.99495 8.27131 10.3232 8.27131 10.7282V25.6665C8.27131 25.9652 8.02837 26.2082 7.72961 26.2082H5.73022C5.43156 26.2082 5.18853 25.9653 5.18853 25.6665V5.78178C5.18853 5.48312 5.43147 5.24009 5.73022 5.24009H7.72971C8.02837 5.24009 8.2714 5.48302 8.2714 5.78178V7.60344C8.2714 8.00837 8.59968 8.33664 9.0046 8.33664C9.40953 8.33664 9.73781 8.00837 9.73781 7.60344V5.78178C9.73781 4.67454 8.83704 3.77368 7.72971 3.77368H5.73022C4.65681 3.77368 3.78 4.62097 3.72721 5.68147C3.5531 5.63211 3.37019 5.60385 3.18053 5.60385H2.00809C0.900764 5.60385 0 6.50471 0 7.61195V23.8362C0 24.9435 0.900764 25.8443 2.00809 25.8443H3.18063C3.37029 25.8443 3.55329 25.8161 3.72731 25.7667C3.7801 26.8272 4.65691 27.6745 5.73032 27.6745H7.72981C8.83704 27.6745 9.7379 26.7738 9.7379 25.6664V18.6455H13.7975V23.1398C13.7975 24.8794 14.3717 26.6044 15.4144 27.997L15.9253 28.6793V45.4929C15.9253 45.8978 16.2535 46.2261 16.6585 46.2261C17.0634 46.2261 17.3917 45.8978 17.3917 45.4929V28.4353C17.3917 28.2768 17.3403 28.1226 17.2454 27.9958L16.5883 27.1182C15.7342 25.9776 15.264 24.5647 15.264 23.1398V18.6455H24.9006C25.2672 18.9656 25.7035 19.2075 26.1837 19.3451C24.6602 20.6458 23.7472 22.5796 23.7472 24.6089V25.2017C23.7472 25.6066 24.0754 25.9349 24.4804 25.9349C24.8853 25.9349 25.2136 25.6066 25.2136 25.2017V24.6089C25.2136 22.7241 26.2133 20.9435 27.8224 19.962L28.6173 19.4773C28.6182 19.4768 28.6188 19.4761 28.6197 19.4756H29.2689C29.6739 19.4756 30.0021 19.1474 30.0021 18.7424C30.0021 18.3375 29.6739 18.0092 29.2689 18.0092H27.1089C26.0639 18.0092 25.2136 17.159 25.2136 16.1139C25.2136 15.0687 26.0639 14.2185 27.1089 14.2185H32.3257C33.7935 14.2185 34.9876 15.4126 34.9876 16.8804V18.868C34.9876 21.0496 34.432 23.2135 33.3806 25.1257C33.1855 25.4806 33.3151 25.9264 33.6699 26.1215C33.782 26.1831 33.9031 26.2123 34.0224 26.2123C34.2812 26.2123 34.5322 26.075 34.6656 25.8322C35.8355 23.7042 36.4539 21.296 36.4539 18.8681V18.6456H40.2625V25.6665C40.2625 26.7737 41.1632 27.6746 42.2706 27.6746H44.2701C45.3435 27.6746 46.2203 26.8273 46.2731 25.7668C46.4472 25.8162 46.6301 25.8444 46.8198 25.8444H47.9923C49.0995 25.8444 50.0004 24.9437 50.0004 23.8363V7.61195C50 6.50471 49.0992 5.60385 47.992 5.60385ZM3.18053 24.3779H2.00809C1.70944 24.3779 1.4664 24.135 1.4664 23.8362V7.61195C1.4664 7.31329 1.70934 7.07026 2.00809 7.07026H3.18063C3.47929 7.07026 3.72232 7.31319 3.72232 7.61195V23.8362C3.72222 24.1349 3.47919 24.3779 3.18053 24.3779ZM19.7702 10.4228C19.7702 9.51554 20.5084 8.77725 21.4158 8.77725C22.3232 8.77725 23.0614 9.51544 23.0614 10.4228V13.1077C23.0614 14.0151 22.3232 14.7533 21.4158 14.7533C20.5084 14.7533 19.7702 14.0151 19.7702 13.1077V10.4228ZM15.0127 10.7779C15.0127 9.8706 15.7508 9.13232 16.6583 9.13232C17.5657 9.13232 18.3039 9.8705 18.3039 10.7779V12.707C18.3039 13.6144 17.5657 14.3526 16.6583 14.3526C15.7508 14.3526 15.0127 13.6144 15.0127 12.707V10.7779ZM9.73771 14.269H13.9684C14.5081 15.1949 15.5113 15.8189 16.6582 15.8189C17.5224 15.8189 18.3052 15.4645 18.8696 14.8938C19.4332 15.6948 20.364 16.2196 21.4157 16.2196C22.4781 16.2196 23.4175 15.6841 23.9792 14.8692C23.982 14.8685 23.9847 14.8678 23.9874 14.867C23.8328 15.2529 23.7468 15.6734 23.7468 16.1139C23.7468 16.4861 23.8084 16.844 23.9207 17.1791H9.73771V14.269ZM24.5277 13.9626V9.64888C24.5277 8.74157 25.2659 8.00328 26.1733 8.00328C27.0807 8.00328 27.8189 8.74147 27.8189 9.64888V12.7522H27.1086C26.0727 12.7522 25.1449 13.2234 24.5277 13.9626ZM29.2853 12.7522V10.305C29.2853 9.39773 30.0235 8.65945 30.9309 8.65945C31.8383 8.65945 32.5765 9.39764 32.5765 10.305V12.7522H29.2853ZM36.4537 17.1791V16.8804C36.4537 15.8905 36.1032 14.981 35.5201 14.269H40.2623V17.1791H36.4537ZM48.5336 23.8362C48.5336 24.1349 48.2907 24.3779 47.9919 24.3779H46.8194C46.5207 24.3779 46.2777 24.135 46.2777 23.8362V20.2885C46.2777 19.8836 45.9494 19.5553 45.5445 19.5553C45.1396 19.5553 44.8113 19.8836 44.8113 20.2885V25.6664C44.8113 25.9651 44.5683 26.2081 44.2696 26.2081H42.2701C41.9714 26.2081 41.7284 25.9652 41.7284 25.6664V5.78178C41.7284 5.48312 41.9713 5.24009 42.2701 5.24009H44.2696C44.5682 5.24009 44.8113 5.48302 44.8113 5.78178V17.1639C44.8113 17.5688 45.1396 17.8971 45.5445 17.8971C45.9494 17.8971 46.2777 17.5688 46.2777 17.1639V7.61195C46.2777 7.31329 46.5206 7.07026 46.8194 7.07026H47.9919C48.2906 7.07026 48.5336 7.31319 48.5336 7.61195V23.8362Z" fill="#1E1C1C"/>
</g>
</svg>
