<svg width="50" height="50" viewBox="0 0 50 50" fill="none" xmlns="http://www.w3.org/2000/svg">
<g>
<path d="M2.60683 34.7396C3.00938 34.7396 3.33574 34.4133 3.33574 34.0107V1.73868C3.33574 1.58376 3.46179 1.45781 3.6167 1.45781H30.2977V8.7998C30.2977 9.75855 31.0778 10.5386 32.0365 10.5386H39.34V15.0213C39.34 15.424 39.6664 15.7502 40.0689 15.7502C40.4715 15.7502 40.7978 15.424 40.7978 15.0213V9.79043C40.7978 9.59712 40.7211 9.41179 40.5843 9.27495L31.5228 0.213423C31.3861 0.0767778 31.2007 0 31.0074 0H3.6167C2.65795 0 1.87793 0.779926 1.87793 1.73868V34.0108C1.87793 34.4133 2.20428 34.7396 2.60683 34.7396V34.7396ZM31.7556 8.7998V2.50781L38.3284 9.08067H32.0364C31.8816 9.08077 31.7556 8.95471 31.7556 8.7998V8.7998Z" fill="#1E1C1C"/>
<path d="M40.0688 42.5238C39.6663 42.5238 39.3399 42.85 39.3399 43.2527V48.2611C39.3399 48.416 39.214 48.5421 39.0591 48.5421H3.6167C3.46179 48.5421 3.33574 48.416 3.33574 48.2611V37.1168C3.33574 36.7142 3.00938 36.3879 2.60683 36.3879C2.20428 36.3879 1.87793 36.7142 1.87793 37.1168V48.2611C1.87793 49.2198 2.65795 49.9999 3.6167 49.9999H39.0592C40.0179 49.9999 40.7978 49.2199 40.7978 48.2611V43.2527C40.7977 42.85 40.4714 42.5238 40.0688 42.5238V42.5238Z" fill="#1E1C1C"/>
<path d="M48.1221 26.2769C48.1221 21.2483 44.031 17.1572 39.0024 17.1572C33.9739 17.1572 29.8828 21.2483 29.8828 26.2769C29.8828 29.4333 31.4949 32.22 33.9388 33.8577V40.5192C33.9388 40.9788 34.1679 41.4041 34.5515 41.6572C34.9352 41.9103 35.4164 41.9532 35.8388 41.7723L39.0024 40.4166L42.1662 41.7723C42.339 41.8464 42.5217 41.883 42.7035 41.883C42.966 41.883 43.2268 41.8068 43.4534 41.6573C43.837 41.4042 44.0661 40.9789 44.0661 40.5193V33.8578C46.5099 32.22 48.1221 29.4333 48.1221 26.2769V26.2769ZM42.6083 40.3757L39.5393 39.0605C39.1981 38.9143 38.8067 38.9143 38.4656 39.0605L35.3966 40.3757V34.6526C36.5032 35.1309 37.7223 35.3965 39.0024 35.3965C40.2826 35.3965 41.5017 35.1309 42.6083 34.6526V40.3757ZM39.0024 33.9387C34.7777 33.9387 31.3406 30.5017 31.3406 26.2769C31.3406 22.052 34.7777 18.615 39.0024 18.615C43.2272 18.615 46.6643 22.052 46.6643 26.2769C46.6643 30.5017 43.2272 33.9387 39.0024 33.9387Z" fill="#1E1C1C"/>
<path d="M44.5059 23.4169C44.3197 23.06 43.8796 22.9216 43.5224 23.1078C43.1656 23.2939 43.0271 23.7341 43.2133 24.0911C43.5688 24.7727 43.7491 25.5081 43.7491 26.277C43.7491 28.8942 41.6199 31.0233 39.0029 31.0233C36.3858 31.0233 34.2566 28.8942 34.2566 26.277C34.2566 23.6599 36.3858 21.5308 39.0029 21.5308C39.8189 21.5308 40.6255 21.7436 41.3354 22.1464C41.6853 22.3449 42.1303 22.2222 42.329 21.8721C42.5276 21.522 42.4048 21.077 42.0546 20.8784C41.1259 20.3514 40.0706 20.073 39.0029 20.073C35.582 20.073 32.7988 22.8561 32.7988 26.277C32.7988 29.6979 35.582 32.4811 39.0029 32.4811C42.4237 32.4811 45.2069 29.6979 45.2069 26.277C45.2069 25.2852 44.9645 24.2962 44.5059 23.4169V23.4169Z" fill="#1E1C1C"/>
<path d="M41.8048 24.7506L40.4485 24.5536L39.8421 23.3247C39.6831 23.0026 39.3612 22.8025 39.002 22.8025C38.6428 22.8025 38.3209 23.0026 38.1619 23.3247L37.5555 24.5536L36.1993 24.7506C35.8438 24.8022 35.554 25.0465 35.443 25.3882C35.332 25.7299 35.4229 26.0978 35.6801 26.3484L36.6615 27.3052L36.4298 28.656C36.3691 29.01 36.512 29.361 36.8026 29.5721C36.9667 29.6914 37.1589 29.7519 37.3522 29.7519C37.501 29.7519 37.6507 29.7161 37.7889 29.6434L39.0019 29.0056L40.2148 29.6434C40.5327 29.8104 40.9109 29.7831 41.2013 29.5721C41.4919 29.361 41.6348 29.0099 41.5741 28.6559L41.3424 27.3053L42.3237 26.3486C42.5808 26.0979 42.6718 25.73 42.5607 25.3883C42.45 25.0465 42.1603 24.8022 41.8048 24.7506V24.7506ZM40.1289 26.4524C39.9082 26.6676 39.8074 26.9773 39.8595 27.2814L39.959 27.8616L39.4377 27.5876C39.3013 27.5161 39.1518 27.4803 39.0022 27.4803C38.8525 27.4803 38.7028 27.5162 38.5662 27.5878L38.0452 27.8616L38.1446 27.2817C38.1969 26.9777 38.0961 26.6677 37.8753 26.4524L37.4538 26.0414L38.0367 25.9568C38.3417 25.9123 38.6052 25.7207 38.7416 25.4444L39.0021 24.9166L39.2627 25.4445C39.3991 25.7209 39.6626 25.9123 39.9679 25.9568L40.5504 26.0414L40.1289 26.4524Z" fill="#1E1C1C"/>
<path d="M32.5386 15.8012V13.3361C32.5386 12.9334 32.2123 12.6072 31.8097 12.6072C31.4072 12.6072 31.0808 12.9334 31.0808 13.3361V15.0723H15.0697C14.6672 15.0723 14.3408 15.3986 14.3408 15.8012C14.3408 16.2039 14.6672 16.5301 15.0697 16.5301H31.8098C32.2123 16.5301 32.5386 16.2039 32.5386 15.8012V15.8012Z" fill="#1E1C1C"/>
<path d="M8.35199 8.50248H26.0575C26.4601 8.50248 26.7864 8.17623 26.7864 7.77358C26.7864 7.37093 26.4601 7.04468 26.0575 7.04468H8.35199C7.39654 7.04468 6.61914 7.82208 6.61914 8.77752V14.7971C6.61914 15.7525 7.39654 16.5299 8.35199 16.5299H11.9541C12.3567 16.5299 12.683 16.2037 12.683 15.801C12.683 15.3984 12.3567 15.0721 11.9541 15.0721H8.35199C8.20037 15.0721 8.07695 14.9487 8.07695 14.7971V8.77752C8.07704 8.62591 8.20037 8.50248 8.35199 8.50248V8.50248Z" fill="#1E1C1C"/>
<path d="M7.34902 22.7246H26.5009C26.9035 22.7246 27.2298 22.3984 27.2298 21.9957C27.2298 21.5931 26.9035 21.2668 26.5009 21.2668H7.34902C6.94647 21.2668 6.62012 21.5931 6.62012 21.9957C6.62012 22.3984 6.94637 22.7246 7.34902 22.7246Z" fill="#1E1C1C"/>
<path d="M7.34902 27.5914H26.5009C26.9035 27.5914 27.2298 27.2651 27.2298 26.8624C27.2298 26.4598 26.9035 26.1335 26.5009 26.1335H7.34902C6.94647 26.1335 6.62012 26.4598 6.62012 26.8624C6.62012 27.2651 6.94637 27.5914 7.34902 27.5914Z" fill="#1E1C1C"/>
<path d="M28.3339 31.0005H7.34902C6.94647 31.0005 6.62012 31.3267 6.62012 31.7294C6.62012 32.132 6.94647 32.4583 7.34902 32.4583H28.3339C28.7365 32.4583 29.0628 32.132 29.0628 31.7294C29.0628 31.3267 28.7365 31.0005 28.3339 31.0005Z" fill="#1E1C1C"/>
<path d="M30.612 35.8677H7.34902C6.94647 35.8677 6.62012 36.1939 6.62012 36.5966C6.62012 36.9992 6.94647 37.3255 7.34902 37.3255H30.612C31.0145 37.3255 31.3409 36.9992 31.3409 36.5966C31.3409 36.1939 31.0145 35.8677 30.612 35.8677Z" fill="#1E1C1C"/>
<path d="M6.62012 41.4635C6.62012 41.8662 6.94647 42.1924 7.34902 42.1924H31.8104C32.213 42.1924 32.5393 41.8662 32.5393 41.4635C32.5393 41.0609 32.213 40.7346 31.8104 40.7346H7.34902C6.94637 40.7346 6.62012 41.0609 6.62012 41.4635V41.4635Z" fill="#1E1C1C"/>
</g>
</svg>
