<svg width="1221" height="662" xmlns="http://www.w3.org/2000/svg" viewBox="0 0 1221.4 662.8"><style>.st0{fill:#f2f3f5}.st1{fill:#aa161d}.st2{fill:#fff}</style><path class="st0" d="M957.5 137.3l-.9 3 2.7 1.5 2.7-1.9-1.2-3.5-3.3.9zm-237.2 94.1l4.9 3.4 1.8-3.5.6-2.8-2.7-1.4-3.1-.2-1.5 4.5zM712 243l1.7 1.7 4.9-3.6-1.5-3-3.1.1-1.6 3.1-.4 1.7zm111-56.2l8 .5.6 3.8-3 1.1-3.7-2.1-1.9-3.3zm19.6-14.2l1.8 6.1 3.2-.2.2-5.6-3.4-2.4-1.8 2.1zm7.5 4.7l.5 7.1 7.9-2.3 7.1-4.4-2.9-5.7-5-.3-3.8-.5-2.5 4.2-1.3 1.9zm-.2-39.8l2.7 4.9 15.3-.9 3.9-8.5-3.4-6-3 3.8-6.4-.2-1.5 3.1-3.4.2-.2 3.4-4 .2zm-7.8-25.1l-.7 3.8 3.1.6.9-3.3-3.3-1.1zm-5.7 33.4l3.9 5.2 6.7.9-.4-7.6-2.6-3.5-7.8-.1-4 3.2-6.3-.6-.2 4.4 4 3.6-1.8 2.5-6.4-4.4-7.1 1.1-.1 5.7 1 6 3.5 3.8 1.6 4.5 6.6 1.4 6.1-.9-.9-6.4 4.4.2 3-5.8 4.2.5 2.4-3.1-2.8-2.6-6.1-1.3-5.2-5.2 4.3-1.5zm-28.9 16.3l1.4 4.6 4.3 4.5 2.5-1.3-3.5-5.3-4.7-2.5zm175.3-22.3l-1.7 4.2-10.7 7-8.6-7-8.1-.2-11.1 8.2-7.2 10.3-2.1 10.1-5.1 1.9-6.7-2.8-6.1 1.1-2.9 4.4-2.9-2.1-2.4 3-3.5-2.9 4.3-5h-11l-5.8 5.8 4.2 11.5-5.8 6.5-.6-9-4.3.3-3.9 4-1.4-4.6 5.9-6-6.6.8-19 11.6 4 4.4-5.2 5.8 2.4 3.9 3.9-2.3.9 5.8 5.2 5.2-7.3 2.4-1.9 3.2 2.3 4.6-5.9 1.5-8.4-1.9-1.7 9.3-13.9-1.5 1.4 20.1-9.8-.9-15.9-12.5 5.1-4.2-10.1-12.9-6.1-2.4-8.6 3.7-10.2-3.2-.3 15.4-17.4 9-7.3-4.1.8-3.8-18.4 1.1-4.3 6.8-.9 4.3-1.7-6.1-3.6-2.8-3.7 4.4-5.5 3.2v3.9l2.9 3.4h.2v.2l1.7 6.1 9.3 11.6.2.1v.2l.6 7.9 4.7 4.9.3.3-.3.3-9.5 8.7-.3 4.7v.2l-2.2 3.7-1.1 8.6-.1.5-.3-.1-5-.1-7.4 7h-.2l-2.5 1.6 7 9.1v.2l4.1 26.9v.4l-5.1 6.6 3.7 2.5.3.1-.1.3-.9 7.2 3.5 3.3v.4l.3 4.9 4 2.4.3.1-.1.3-1.5 5.1v.2l-5.4 7.4-.1 5 9.4-.7.2.1 4.2 2.8 4.3-3.1.3-.3.2.3 2.7 2.9.2.3 3.6 4.6.2.3-.3.3-3.4 2.6.3 4.3h4l3.2-2.7.3-.2.2.3 4.7 7.7v.2l.4 9.6 5.6 2.6.2.1v.3l-1.8 10.1 3.6 6.4 6.9 1.7h.3l-.1.5-4.3 12.4v15.2l5.6 5.2 5.3-4.7.1-.2h.2l8.5-.9 2.6-5.6.3-.5.3.4 4.9 4.1 5.4-7.4 8-20.7v-.2h.3l6.1-1.5h.2l12.5 4.1h.2l.2.1 3.2 7.8 7-3.9h.4l4.7 2.9h.2v.2l9.5 17.9 12 18.9 6.3-4.8h.2l6.8-3.3.1-.2.2.1 5.7 3.9 2.6-2.8.3-.2.2.3 4.6 3.6 3.6-4.1.1-.2h.2l9.7-.4h.2l.2.1 6.3 4.2 11.6-5.2.3-.2.2.1 4.2 3 15.8-8.6.1-.2h.2l4.7.8 5.1-2.4-.9-3.8-.2-.1.3-.2 12.2-7.5-3.7-8.7-.2-.1.1-.3 4-4.8-2-4.4-8.6-4.7-.3-.3.1-.3 3.7-8.5-8.4-5-.3-.1.3-.3 3.4-4.6-1.3-18.4v-.2l.1-.2 15.3-7 .1-7.1v-.3h.3l9.2-1.3 1.6-5.9-.7-6v-.2l.3-.2 4.3-2.5-4.2-11.6-6.5-3.9-.3-.1.1-.3 3-14.8-6.6-14.6-.2-.3.1-.2 2.8-4.2.1-.3.3.1 11.2 2.9 7-2 2.2-4.3v-.2l.1-.2 8.3-1.8 1.2-5.4-15.9-27.7v-.4l.9-7v-.2l.1-.2 8.8-7.1-3.9-6.6-.2-.1.1-.3 8.4-9 .1-.2h.2l8-1.3 4.1-5.4.3-9-5.6-4.3-.2-.1v-.2l-.7-5.8-3.6-4.7-.2-.3.1-.2 3.8-4-4.7-4.8-.2-.1.1-.3 9.8-10.3 4.6-2.3 3-5.3-7.4-13.1-8.2.6h-.2l-6.7-2.3-.2-.1v-.2l-4-8.4-.2-.1.1-.2 12-16.4-.5-7.6-17.3-11.6zM996.1 38l9.4 9.6 1.7-2 1.6-12.1 2.4-5.8-3.4-3.9-8 1.2-4.1 7.4.4 5.6z"/><path class="st0" d="M1137.5 132.1l-3.5-21.6-6.3-3 13.5-10.9-2.5-6.5-26.7-.4-2.9 4.5-7.2 1-.4 5.8-5.9-.1-.5-7.7 6.5-2.8 2.2-5.6-2.4-14.3-2.7-.7-3.1 2.2-.5-5.2-6.2 2.8-4.5-4.5 1-8 5.6 4.3 2.9-2.5 4.8 4.5 2.2-6.2-1.1-7.2 4.5-4.3 8.5.2 13.3-11.6-3.7-3.8 7.2.4-.8-6.8-7.5 1.9-2.7-4.6-10.3-1.3 3.7-5.4-5.5-3.5 4.5-3.7-6.6-7.4-16.4 11.2-.3 8.4-4.2 6.3 11.8 3.8-6 3.2-18.9-3.6-20.6 15.7-31 19.9-7.7 14.7 1.1 4.3-5.8 2-7.7 8 6.4 6.8 5.1-1.9 8 3.9-.2 7.9-7.2 1.3-4.6 3.1-10.8-5.8.9 13.1-9.9 8.6-3.5 8.2 18.4 11.7.2.1v.2l.6 7.9v.2l-.1.2-11.9 16.2 3.8 8.1 6.4 2.2 8.3-.6h.3v.3l3.9 6.6 5.5.4h.1l.2.1 3.8 5.9 7-3.9.1-.2.2.1 6.9 1.7 4.9-5v-.2h.2l8-1.2 5.4-6.6-1.5-5.9v-.3h.3l5.9-2.4 1.1-5.8.1-.2h.2l5-1 1.4-4.9v-.2l.3-.2 9.1-2.8 2.2-4.5.1-.2h.2l14-1.9h.3v.3l4 8.7 9.5-3.8h.1l10.7-.4 6.9-25.3v-.5l.5.1 5.4 2.4 6.6-2.5zm73.7 106.1l3.3 2.9 5.8-5.4-2.7-.4-6.4 2.9zm-16.9 134.1l.6 2.3 3.2 1.8 1.1-3.8-1.9-2.7-3 2.4zm9.2-5.2l-.3 2.2 3.3 1.2 1.7-2.1-3.5-2.7-1.2 1.4zm-1.6 4.9l-.3 9.5 4 4.4 3.3-1.8-1.4-9.2-2.8-2.1-2.8-.8zm6.5 20.4l-.2 3.6 1.8 3.3 4.2-2.3.5-2.2-6.3-2.4zm7.5 26.9l-1.3 3.2 2.6 3.2 2.7-3-2.1-3.3-1.9-.1zm1.8 45.5l-2.7 3 .6 5.9.6 6.2.3 2.8 2.9-.2 2-7.1-1.1-6.7-2.6-3.9zm-6.9 23.5l2.9-.2 1.2 3.9-1.9 3.4-2.5 4.2v4.5l-.4 5.5-.2 4.2-1.4-.5-1.6-7.2-.9-8.9 3.4-4 1.9-1.8-.5-3.1zm-7.3 48.6l1.5-.9-.3-10.4 1.7-2.3.1-2.6-1.9-1.1-2.8 1.6-1.6 1.4 1.9 4.5-.2 5.9 1.6 3.9zm10.4-11.2l1.1 2.1 2.9-1.3-.8-3-1.9-2.2-1.4 1.8.1 2.6zm-78.4-303.2l-2 7.3 9.7 9.4.2-14.6-4.9-1.8-3-.3zm60.7 22.1l2.7 3.5 8.9.8 3.6-2.1-2.4-3.7-6.7-.3-6.1 1.8z"/><path class="st0" d="M1039.5 335.5l5.2-3.9 3.3-3.3 5-1.6-2.4-10.1 8.8-3.6 6.4-6.5 6.3-.6-4.2 7 4.6 3.6 6-7.7.9-11.7 5.6-2.6 4.2-6.3-5-3.4-3.8 5.5-4.8-3.9-2.7-20.6-4.7-12.1.6-9.2 6.8-11.2 4.2-.4 1.6-6.2 9.5 11.3 5.9-1.5.2-4.5-2-8.9-2-6.4-6.1-2.8-.2-.1v-.2l-1.5-5.6-4.1-3.3-6 1h-.3v-.3l-4.4-9.2-5.2-.7h-.2l-.2-.1-9-11.5-5.4 6.6h-.4l-8 1.2-4.9 5-.1.2h-.2l-7.1-1.8-7.2 4.2-.3.2-.2-.3-4-6.1-4.8-.4 3.5 6.3.2.1-.1.2-3.3 5.7h-.1l-4.5 2.3-9.5 10 4.7 4.8.2.3-.1.2-3.8 4 3.6 4.6v.2l.7 5.8 5.6 4.3.2.1-.2.2-.1 9.3v.2h-.1l-4.3 5.7-.1.2h-.2l-8 1.3-8.1 8.8 4 6.5.2.1-.3.3-9 7.3-.9 6.7 15.6 27.4 6-4.6.1-.2.2.1 14.7 3.6.2.1v.2l2.3 7.8v.2l-.1.2-3 6.4 3 4.9 5.4-4.6h.2l7.3-.5h.3l.2.1 3.7 6.2zm28.1 243.5l.9 23.5 4.7 7-16.4 2.5-4.6 12.3 16.4 14.7.9 5.8 7.9-8.6 14.5-.9 9.9-9.2 5.3-12.9.7-34.5 2.9-18.2-4.3-20.8-4.3-.9h-.2l-.2-.1-1.3-5-7.3-4.5-7.3 6.4 5 4.6 7.3.1h.5l-.1.5-.8 11.4-.1.3h-.3l-5.1.5 1.3 7.2v.3l-.1.2-7.1 5.5h-.4l-12.1 1.8-2.8 4.2 2.8 4.5.2.5-.5.2-5.9 1.6z"/><path class="st0" d="M1059 554.1l6 8.4-1.6 6.6 3.9 9.2 5.6-1.6-2.7-4.5v-.2l.2-.2 2.9-4.5.1-.2h.2l12.1-1.8 6.9-5.3-1.3-7.4-.2-.3h.5l5.2-.7.8-10.8h-7.2l-.2-.1-5.3-5.1-.3-.3.3-.3 7.9-6.8.1-.2.3.1 7.5 4.7h.2v.2l1.4 4.9 3.8.8.2-23.9-3.1-7.2-13.4-22.9-4.2-4.4-4.6-16.6-2.7-5.4-.8-.9-9-2.9-3.3-3.3 2.3-5.4-6.5-2.2-13.8-1.5-10.1 6.1-2.4 16.1-4.9-5.2-4.6 6.8-5-12.1-8.4 6-7.7-.7v-7l8-24.9.6-24.4 2-11.8-3-9.6 2.6-8.9-2-9.2 18.8-21.3 6.6.6.5-2.4-2.1-2.6 2.8-2.2-4-5.8-7 .5-5.6 4.7-.4.3-.2-.5-3.2-5.5-.2-.1.2-.2 3-6.4-2.1-7.6-14.2-3.5-6 4.6-1.2 5.7-.1.3h-.2l-8.4 1.8-2 4.5-.1.2h-.2l-7.1 2.1h-.4l-11.1-2.9-2.4 4.4 6.6 14.7v.2l-3 14.6 6.3 3.9h.2v.2l4.4 12.1.2.3-.3.2-4.5 2.5.7 5.7v.2l-1.7 6.2-.1.2h-.2l-9.2 1.3-.1 7.1v.2l-.1.2-15.2 7 1.3 18.1v.2l-.1.2-3.3 4.4 8.3 4.8.3.1-.1.3-3.7 8.6 8.4 4.5.2.1v.2l2.2 4.5.2.3-.1.2-4 4.9 3.7 8.4 12.2-7.5.1-.2.3.3 4.5 4.2.2.1-.1.3-5.2 13.9 1.1 6.4v.2l-.1.2-4.4 2.9.7 5.4 10.3-.7h.3v.2l5.3 6.8 5.2-.7 7.9-8.5 1-5.8v-.3h.3l6.3-.4 1.7-4.2.1-.2h.3l4.5.3.2.1.2.1 5.1 12.5v.3l-.1.2-2.6 3h-.2l-10.2 2.4 3 5.2.2.3-.1.2-3.9 4.8-.7 5.8v.4l-5.5 7.4 2.7 3.1.3.3-.3.2-3.6 5.7.5 6.6 11.3 4.6v.2l9.7 11.6 5.2-5.6h.4l11.7-.7h.2l5.6 4 15.4-6.5.6-.2-.1.6-1.8 6.2z"/><path class="st0" d="M1015.3 568.1l6.7 9.1 6.7 5.1 13.3-7.6 1.5-5.7 9.4-12.3 5.5-2.9 1-6.1-14.9 6.3h-.2l-.2-.1-5.5-3.8-11.6.5-5.2 5.8-6.5 11.7zM903.1 540l13.3-7.9 10.7 2.8 12.5-2.9 19.8 17.1 24.7 22.2 8.8-4.3 5.7 2.2 4-2.3 7.7 1.9 4.1-.9 6.5-11.5-9.7-11.6-11.5-4.8-.2-.1v-.2l-.5-6.9v-.2l.1-.2 3.5-5.5-2.7-3.1-.3-.3.3-.2 5.7-7.7.5-5.9h.1v-.2l3.7-4.6-3-5.5-.3-.4h.5l10.5-2.4 2.4-2.8-4.9-12.1-4-.3-1.7 4-.1.3h-.2l-6.3.4-1 5.7v.2l-8.2 8.6v.2h-.2l-5.5.7h-.2l-.2-.1-5.3-6.8-10.5.7h-.5v-.5l-.7-5.8v-.2l.1-.2 4.4-2.9-1.1-6.3v-.4l5.2-13.7-4.2-3.9-24.5 15.1.9 4v.3h-.3l-5.3 2.5h-.4l-4.9-.7-16 8.7-.1.2-.2-.1-4.2-3-11.7 5.2-.1.2-.2-.1-6.5-4.3-9.4.4-3.7 4.3-.3.3-.3-.3-4.4-3.6-2.8 2.7-.1.2-.3-.1-5.7-3.9-6.5 3.1-6.2 4.8 8.6 4.8.3.3-.1.3-2.2 3.6 4 3.6 6.7-4.3.3-.2.2.3 3.7 5.6 5.3-1.6.3-.2.2.5 1.5 10.3 5.5 2.7.5.1-.3.3-2.6 4.5 9.5 12.1zm175.5-81.5l-.4-.6 12.3 5.6 4.6 9.8 6.4 7 7.7 10.8 5.7 8 6.2 4.1 2.2 5 1.9 4.7 7.5 2.9 1.6 7.2 8.1 8.9v-8.2l-1.5-6.3 5.8-.9 2.1-1.1 5.8 2.4-5.1-8.9-6.5.5-7-2.5-8.3-5.2-6-12.6-3.3-8 5.8-3.8 11.2-1.4-26.5-15.4-19-14.9-9.4-14.8-11.8-7.1-5.7-6.3-3.5 1.8-.6 3.9 7 4.2 4.1 5.1-1.8 2.8-3.3-.5-.8 4.7 6.8 4.5 7.5 14.2-.5-.3.7.7zm-970.3-21.3l1.8 3.1.4 7.4 5.3 2.4 3.9 2.1 3.2-2.6.1-.2h5.3l5.3-3.8.3-4.1v-.5h.3l6.2.5 3.2-1.3h.3l.2.1 2.7 4.8 5.5 1.5 1.2-1.2v-6.1l-3.7-2.4-.2-.1v-.2l-.6-3.8-2.3-2-3.6-2.2h-.2v-.3l.1-5.9-7.2-4.8-.2-.1v-.2l-.9-4-2.7-.9-.2-.1v-.3l-.2-2.5-1.2-1.8-3.9.1-.5 1.6v.2h-.3l-1.5.4h-.2l-.2-.1-1.2-1.2-1.6.3-2.3 2.5.3 4.2v.4l-1.4 2.1 1.3.8.2.1v.2l.3 2.2v.3h-3.1l-1.1 2.1 1 3.6v.4l-7.9 9.3z"/><path class="st0" d="M92.1 397.4l-2.5 3.9-1.4 2.3.8 3 3.2 1.2-.1 4.7 8.1 4.2.8 8.9 6.8 11 7.7-9.1-1-3.6v-.2l.1-.2 1.1-2.2.1-.3h2.8l-.3-1.5-1.5-1-.3-.1.3-.3 1.4-2.4-.3-4.2-5.9-5.2-5.5-.9h-.2l-4.2-2.3v-.2l-.2-.1-1.2-3.2-2-.2-1.9 1.2-.1.2-.2-.1-4.4-3.3z"/><path class="st0" d="M96.2 377.4l-3.3 1.8-1.5 3.4-2.3.8v4l3.7 1.8-.4 7.5 4.4 3.3 1.8-1.2h.2l2.3.3h.3v.2l1.3 3.3 3.9 2.2 5.6.8h.2v.2l5.9 5.2 2.3-2.3v-.2h.2l2-.1h.2l.2.1 1.2 1.2 1.1-.2.5-1.6-2.7-3.1v-.4l-.5-3.2-2.7-.6-.2-.1h-.2l-.9-1.6v-.4l-.2-2.6-1.4-1.6v-.2l-.4-5.9-9.6-11-11 .2zm10.4-27.7l-5.6-.1-4.3-3.6.2-3.6-3.9-.4-1.8 5.6-7.6 7.4.9 4.4 4.2-.4 3.4 2.4 1.6 5.5 3.5-.7 4.4.6.2 2.8-4.9 7.3 10.1-.4 11.9-10-1.2-1.5v-.2l-.1-2v-.2l.1-.2 1.3-1.6h.2l1.9-1.4-.3-1.7h-2.6l-1.2 1.2-.3.2-.2-.1-2.2-1.1h-.2v-.2l-1.6-2.5-.2-.1-.2-2.5v-.2l1.1-2.4-5.9.1h-.2v-.2l-.5-.2z"/><path class="st0" d="M121.8 314.4l-.8 1.6-6.4 4.3-3 5.8-3.2 7.7.1 6 1.2 3.5-2.4 3.4v2.6h6.6l2.5-1.4h.2l5-.2 2.6-2.8h.4l3.7-.1h.2l.2.3 1.9 5.3 1.3-1h.2l2.8.3h.2l.2.1 1.5 1.8 7.1-1.1 4.1-3.1 4.3-7.3v-1.6l-3.5-3.8-.2-.1-.7-3.7-8.1-.8h-.2v-.2l-4.1-2.5h-.2v-.2l-5.9-9.4-1.8-3.7-1.6-.8-3.2 1.2h-.2l-.8-.1zm-14.1 62.4l9.6 10.8.2.1v.2l.4 5.9 1.3 1.5v.4l.2 2.8.7 1.5 2.8.6 4-.1 1.1-2.2v-.2h.2l7.3-6.7.3-6.4-3.6-2.8v-.2l-2-3.6h-.2v-.2l-.1-6.3-10.6-4.7-11.6 9.6z"/><path class="st0" d="M135.9 391.7l-7.1 6.7-1.2 2.4v.2h-.3l-3.9.1.4 2.9 2.7 3.2 4.2-.1h.2l.2.3 1.2 1.9.2.1.2 2.5 2.6 1.1h.2v.2l1.1 4.1 6.8 4.6 3.1-1.8.8-2.1-.8-3.2-1.1-1.8v-.2l.1-.2 1.1-2.6.1-.2h.2l5.4-3 3.2-3.3-.5-3.5-.9-2.4-3.1-2.1h-.2v-.2l-1.1-2.6-3-.1-4.2 2.5h-.4l-3.1-.1h-.2l-.2-.1-2.7-3.2z"/><path class="st0" d="M156 403.3l-.1.5v.4l-3.3 3.5-5.5 3-1.1 2.2 1.1 1.8.9 3.4v.2l-.1.2-.8 2.2v.2h-.2l-3.3 1.8.1 5.7 3.4 2.2 2.5 2 .2.1v.2l.6 3.8 3.6 2.2 4.9-1.1 9.5-5.8 1.1-1.9-.4-8.2.5-5.8v-.2l4.1-5.4-3.8-3.6-1.9 1.5h-.2l-1.8.6-.1.2v-.2l-2.9-1.3-.2-.1-2.8-4.3h-4zm-25.2-31.7l.1 6.3 1.9 3.4 3.6 2.8.2.1v.2l-.5 6.5 3 3.2 3 .1 4.3-2.5h.2l3 .1v-1.7l.1-.2 1.8-2.9 3.7-4.6-.2-2.6v-.2l.1-.2 2.1-2.6-.8-4.9-3.1-1.5v-.2h-.2l-1.4-2.5-6.2.7-1.3 1.8-.3.3-.2-.1-5.6-2.9-1.6-.4-5.7 4.5z"/><path class="st0" d="M155.8 383l-3.6 4.6-1.8 2.9-.2 1.7 1.1 2.7 3.3 2.1.2.1 1 2.6v.2l.2 2.6 4.2-.1h.2l.2.1 2.8 4.5 2.6 1.2 1.5-.6 2.2-1.6.3-.2.2.1 4.2 4 2.7.7 2.3-.3 7.2-7.5 4-3.1-1.1-2.6-2-4.2-8.8-12.7h-4.8l-1.6 1.7-.1.2-.3-.1-1.9-1.1-2.1-1.2-.9.8v.2h-.2l-3.2 1-.1.2-.2-.1-1.9-.6-1.3 1.3h-.2l-4.1.5zm-3.9-15.8l1.1-1.5 1.7-2.9-.4-6.2-3-1.3-.2-.1-2.4-3.4-.9-3.5-3.8 2.8h-.2l-7.4 1.3h-.3l-.2-.1-1.5-1.9-2.3-.1-1.6 1-.4.3-.2-.5-1.9-5.4-3.4.1-2.5 2.7-.1.2h-.2l-5.1.2-2.4 1.3-1.2 2.7.2 2.2 1.6 2.4 1.9 1 1.2-1 .1-.2h.2l2.9-.1.3.1v.2l.5 2.3.2.1-.3.2-2.2 1.6-1.1 1.5.1 1.7 1.2 1.6 10.6 4.7 6.4-4.2.1-.2.2.1 1.7.3 5.3 2.7 1.3-1.6.1-.2h.2l6.1-.9z"/><path class="st0" d="M148.4 347.6l.9 3.8 2.4 3.2 3.1 1.5h.3v.3l.5 6.5v.2l-.1.2-1.7 2.8-1.1 1.6 1.4 2.4 3.2 1.6.2.1v.2l.8 5.2v.2l-.1.2-2.1 2.6.2 2.3 3.4-.5 1.3-1.3.1-.2.2.1 2.1.6 3.2-1 1-.8.1-.3.3.1 2.1 1.4 1.8 1 1.4-1.5.1-.2h5.2l1.6-3.1 1.1-3.6-1.3-1v-.2l-2.5-2.6v-.2l-2.2-5.3v-.4l1-3.9.1-.2 3.8-5.1 2.3-2.5.4-3-3.5-3.6-7.7.7h-.2l-.2-.1-8.9-4.8-.2-.1v-.2l-.1-3.3-1-.6-.9 1-.1.2-7.3 1.4.1.8-.1.2-4.4 7.2z"/><path class="st0" d="M182.4 352.8l-1.9 2-3.7 5.1-1 3.8 2.1 5.1 2.4 2.6 1.5 1.1.2.1v.3l-1.1 4v.2L179 380l8.6 12.6 5.2-3.6.1-.2 6.9-.6 7.1-5-1.9-4.4-7.9-8.9-3.8-1.3h-.2v-.2l-3-2.7-.2-.3.1-.2 1.8-2.9.7-3.5-1.8-1.6-3.5 3.2-.3.3-.3-.3-3.7-3.5-.2-.1v-.2l-.3-3.8z"/><path class="st0" d="M192.8 357.9l.5.4.2.1v.2l-.7 3.9h-.2l-1.7 2.8 2.7 2.6 3.8 1.3h.2v.2l8.1 8.9v.2h.2l1.9 4.4 2.3-.6 1.7-2.8.1-.2h.2l4.5-.6h.2l.2.1 1.8 1.4 2.7-1.7.2-9.8-4.7-2.2-.2-.1v-.2l-.6-4-2.1-1.7-3.2 1.3h-.4l-11.2-5.1-6.5 1.2z"/><path class="st0" d="M203.9 358.1l6.7 2.9 3.3-1.3.1-.2.2.1 2.5 2h.2v.2l.4 4 4.7 2.2.3.1v.2l-.2 9.9 13.4-.8 1.5-1.2.1-.2h.2l4.3-.1h.3v.3l1.5 3.3 3.7 1.3h.2l3.3 2.9 4.4-5.3.1-.2h.2l12.1-.5-.4-7.6v-.2l.1-.2 2.1-2.6-2.8-2.4-6.2 2h-.4l-10-4.9v-.2h-.2l-6.5-10.2-9-4.6-13.3.3-4.3 3.4-.1.2h-.2l-5.1.5-1.4 2.6h-.2l-5.6 4.3zm-20.7-9.9l5.5-2.9-1-2.7v-.2l1-9.7.1-.3h5.3l5.8-6.5-1.3-7.2-6 .4-.1.5-.5-.4-7.2-5.5-4 .4-.1.2-.2-.1-5.1-3.7-.2-.1-1-3.5-3.7-2.2-1.3 1-.4 3.3v.5l-.3-.1h-9l-.2-.1-3.1-2.4-8.8-1.7h-.2l-4.9-2.9v-.2l-2.6-2.1-2.2 2.5-1 5.8v.2l-2.4 4v.2h-.2l-5.9 1.7 1.8 3.4 5.8 9.2 3.9 2.5 8.4 1h.3v.3l.7 3.7 3.7 3.8v.9l6.9-1.4.9-1 .3-.2h.2l1.6.7.2.1v.2l.1 3.4 8.6 4.7 7.9-.7h.2l.2.1 3.5 3.1z"/><path class="st0" d="M220.1 346.7l-5.1-4.3-.2-.1v-.3l1.4-6.9-3.9-4.2-3.1.4h-.4l-8.6-4.7-5.8 6.5-.1.2h-5l-1 9.4 1 2.7.2.3-.3.2-5.8 3.2-.4 3 .6 4.6 3.3 3.2 3.5-3.3.3-.2.3.3 1 .9 7-1.4h.2v.2l3.7 1.6 6.2-4.5 1.4-2.6.1-.2h.2l5.2-.5 4.1-3.5zm1.2 144.8v4.7l2.9 5.5 2.7-.7 1.9-2 4.5 1.7-.1 2.8-.9 2.7 1.5 1.6 4.1 1.1 1.9 5.4 2.2 7-1.5 4.6 2.1 3.4 4.4-3.1 2.1.5 1.6 2.8 1.3 5.2 3.3 2.1 3.4-2.7 3.6-.1 6.5 2.5.1 2.9 1.6 2.4 3.3.4 2.4-3.1 3 2.7 3.9 1.9-.4 5.8 1 3.2 3.8 3.8 3.2.7 3-2.1 2.4.8 2.1 3.4 7.6 1.9 3.1-2.7 2.9-4.9-6.6-12.1-.5-.3h-.2v-.2l-1.5-3.6-.2-.3.3-.2 2.9-2.7.5-2.2-1.6-3.3-8.2-1.9-3.6 1.3-1.7 4.6v.3h-.3l-4.8-.1-.2-.1h-.2l-4.6-4.2-8.3-1.3h-.2l-.2-.1-1.9-3.3-.2-.3.1-.2 3-3.6-2.1-1.9-.2-.1v-2.7h.3l2.9-1.1v-5l-4.1.6-1.9 1.4-.6.5v-.6l-1.2-5.8v-.3l.3-.2 1.8-.9-.1-3.4-2-2-.2-.1v-.2l-.3-8.2-2.5-3.1v-.2l-.8-11-2.7-4.8v-.2l.8-4.6-3.2-3-.1.5v.2l-1 5h-.2l-.9 2.2v.2h-.2l-8.3 5.4-1.7 4.2-.1.2h-.2l-5.7 2.3-3.1.7-5.7 5.7h-.2v.2l-8.8 1.2-.3.6zm-42.7-.6l4.1 3.4v4l-.9 3.3 2.4 3.9 4.3-2.3 2-4.6 2.4-3 6.3.8 3.2-3.2 2.5-.3 1.9 1.3 6.2-.7 4.5-1.6 3-1 .1-.2v-2.8l-.5-2.3-3.4-4.3v-.2l.1-5.4-3.9-4.1v-.2l-1.7-5-.4-2.9-3-.7-8.8-4-.3-.1v-.2l-.3-4.6-8.6-.8v-.2l-9.3-4.5-.2-.1v-.3l-.2-2.8-1.4-2.1-4.4-.2h-.2l-.2-.1-7-9.6-8 4.9h-.2l-4.9 1.3.1 6.2v.2h-.2l-1.3 1.3.8 4.8 2.7 3.2 3.9.5h.2v.2l7.2 6 .2.1v.2l.3 4.9v.2l-.1.2-2.7 3.6.1 3.3h2.3l2.7-1.4.6-.2v.5l.5 5.5 1.9 2.3 4.1.5h.3v.3l1.2 9.1z"/><path class="st0" d="M211.7 463.6l.4 2.8 1.6 4.9 3.9 4.2h.2v.2l-.1 5.4 3.2 4.3h.2v.2l.5 2.4v2.5l8.3-1.2 5.7-5.7.1-.2h.2l3.1-.7 5.6-2.1 1.7-4.2h.2v-.2l8.3-5.4.9-2.1 1.2-5 .3-2.2-4.8-5.9-1.8-1.6-1.9 1.5h-.2l-1.7.4-.3.2-.2-.3-3.7-4.7-1 .8-4 4.9h-.2l-2.4 1.7-.1.2-.2-.1-3.3-.5h-.2l-5.3-4.1-3.6-2.2-3.1.7-5.1 1-1.8 3.1-.1 1.2 1.8.7.2.1v.3l-.4 3.3v.3h-.2l-1.9 1.1z"/><path class="st0" d="M199.1 453.8l.5 4.6 8.7 3.9 3 .7 2.1-1.1.3-2.8-1.6-.8h-.3V456l2.1-3.2v-.2h.2l5.4-1 3.2-.7h.2v.2l3.7 2.2v.2l5.2 4 3 .4 2.4-1.6 4-4.8v-.2l1-.8-3.5-3.8-.2-.1.1-.3 1.3-1.6-.5-3.4h-6.7l-.2-.1-4.1-5h-4.9l-.2-.1-2-4.2-5.5-5.7-.7.8-.4 4.7h-.2v.2l-1 1.8-.1.2h-.3l-8.1-2.2.6 8.2v.2l-1.6 2.1 1.6 2.7.2.1v.2l-.6 2.1v.2l-6.1 6.3z"/><path class="st0" d="M179.1 411.3l-2.2.3h-.2v-.2l-2.5-.6-4 5.4-.5 5.5.4 8.3v.2l-.1.2-1.1 1.9h-.2v.2l-1 .5 7 9.3 4.4.2h.2v.2l1.6 2.4h.2v.2l.2 2.8 9 4.5 8.4.8 5.9-6.3.5-1.7-1.8-3-.2-.1.1-.2 1.6-2.1-.6-8.2-2.9.1h-.2l-.2-.3-2.5-4.3-4.9-.6-1.4 1.5-.4.3-.2-.3-3.3-4.9h-.2v-.2l-.9-5.5-5.1.4h-.2l-.2-.1-2.5-6.6z"/><path class="st0" d="M190.7 400.6l-3.8 3.1-7.1 7.3 2.6 6.2 5.2-.4h.3v.3l.9 5.7 3.1 4.4 1.3-1.3.1-.2h.2l5.2.6h.3v.3l2.5 4.3h2.6v-.2l.6.1 8.2 2.4.8-1.6.6-4.5v-.2l1-1.3 1.5-2.9-.1-2-2.2-1.1-.2-.1v-.2l-.5-2.3-1.4-.7-.7 1.1-.1.2h-.2l-5.4.7-.5 1.6-.1.2h-.3l-2.8-.3h-.2v-.2l-3.3-5.2v-.2l-1.3-8-6.8-5.6zm26.9 19.9l.2 2.2h-.2v.2l-1.4 2.7 5.7 5.8v.2l.9 1.8 3.8-1.4h.2l5-1.1.2-4 .1-.2h.2l2.5-1.7 5.3-1.8.2-4.4-1.9-7.8-10.3-2.5-5.7 2.1-.1 5.9v.2l-.1.2-4.6 3.6z"/><path class="st0" d="M188.2 393.1l1.7 3.9 1.3 2.7 6.9 6.2v.2l1.5 8 3 5.1 2.3.1.5-1.4.1-.3h.2l5.5-.5.7-1.4.1-.3.3.1 1.9 1h.2v.3l.5 2.3 2.2 1.1 4.3-3.6.2-6.2v-.2l.1-.2 5.8-2-.3-8.8v-.3h.3l5.4-.7 2.6-2.5.1-.2.3.1 6 3.1 4-6.5.1-.3.3.1 5.7 3.5 3.6-2 1.6-2-3.5-3.9-7-6.2-3.8-1.3-.2-.1v-.2l-1.5-3.2-4 .1-1.5 1.2-.1.2h-.2l-13.8.8-3 2.1h-.3l-.2-.1-2-1.6-4.1.6-1.5 2.6-.1.2h-.2l-2.7.8-7.4 5.2-.1.2h-.2l-6.8.6-4.8 3.6z"/><path class="st0" d="M241.7 399.5l-5.8-3.2-2.6 2.4-.1.2-5.1.5.3 8.5 10.4 2.5h.2v.3l2.1 7.9v.2l-.2 4 2.5-1.3h.2l8.4-1.7v-.2l.2.1 6.2 1.4h.2v.2l2.1 3 2.9-3-.6-6.8-1.6-3.1-4.5-4.3L246 406h-.2l-2.6-1.8-.2-.1-1.3-4.6z"/><path class="st0" d="M263.5 422.3l-2.7 3-.3.3-.2-.5-2.4-3.2-5.8-1.5-8.3 1.8-3 1.5h-.2l-5.5 1.8-2.4 1.6-.3 4.2v.3h-.3l-5.4 1-3.6 1.3.7 1.5h4.9l.2.1 4.1 5h7v.3l.6 4v.2l-1.3 1.6 3.3 3.5.2.3 3.9 4.8 1.5-.4 1.9-1.5.3-.2.2.1 2.3 1.7v.2l4.9 6v.4l-.2.9 3.7 3.6.2.1v.2l-.8 4.6 2.5 4.5.9-.1 1-3 1.4-3.8.1-.2h.2l2.8-.2h.2l.2.1 3.9 2.1.7-1.3-.9-4.1-2.8-2.4-.2-.1v-.2l.3-4.1.1-.5h.3l6.9.4 5.4-2.2.5-4.5-2-.2-.2-.1-1.5-1.4-.2-.3.3-.3 2.8-2.4.1-.9-2.6-.1h-.2l-.2-.3-.4-1.7v-.2l1.4-2.7-1-.7-4.8 3-.1.2h-.2l-6-.8h-.2l-.2-.1-2.8-3.8-1.9-4.8-.8-11.4z"/><path class="st0" d="M266.1 435.6l.9 2.3 2.6 3.7 5.6.7 4.9-3.1.1-.2.2.1 1.5 1 .3.1-.1.3-1.3 2.9.4 1.2 2.7.3h.3v1.9l-.1.2v.2l-2.6 2.2 1 1 2.2.2 3.6-.2 3.3-3.5-.6-8v-.5l.5.1 3.3-.1 3.1-3.9 1.6-5.5v-.2h.2l3-3.8 3-9.8-2-1.4h-.2l-2.3-2.3-2.9.7h-.2l-.2-.1-4.3-3.3-6 .1v2.2l-.1 3v.2l-.1.2-4.1 3.9-.1.2h-.2l-3.7-1.4h-2.6l-2.1 10.1v.3h-.3l-5.8 1.3-2.4 6.7z"/><path class="st0" d="M291.9 447.3l-3.5 3.5v.2h-.2l-3.4.2-.4 4.8v.3h-.3l-5.7 2.3v.2h-.2l-6.5-.3-.4 3.6 2.8 2.3.2.1v.2l.9 4.3v.4l-1.1 1.6-.1.3-.3-.1-4-2.2-2.5.2-1.3 3.5-1.2 3.2-.1.3h-.3l-.9.1.7 10.5 2.4 3.1h.2v.2l.3 8.2 2.2 2v.4l.1 3.9v.3h-.3l-1.8.9 1 4.9 1.6-1.2h.2l4.6-.6h.5v.5l-.1 5.6v.3l-.1.2-2.9 1v1.7l2.3 2.2.3.1-.3.3-3 3.6 1.8 3 8.2 1.3h.4l4.6 4.2 4.4.2 1.7-4.6v-.2l.1-.2 3.8-1.2.2-3.4.2-3.6.1-.3h.2l4.7-1.4.3-3.9v-.2l3.5-7.1v-.2h.2l6.4-4.3h.5l3.4 1.6 1.7-.1.9-4.4v-.3h.2l3.3-1.3 1.8-1.5-2.8-2.6-1.5.9-2.4 1.4v.2l-.2-.1-11-2.6v-.2l-3-2.5h-.2v-.2l-3.2-6.1-.2-.1v-.2l1.1-3.8v-.2h.2l4.9-3.4v-.2l.2.1h3l.2.1 2.5 2.8v.4l.5 4.8 2.1 1.6 2.5-1.4h2.9v.2l1.8 1v.2l4.1 3.3 1.6-1 1.1-2.6-2.5-2.9v-.2l-.5-2.4v-.4l2.2-4.6.2-3.7-2-.2-7.2-2.6h-.2L315 467l-.2-.1-1.3-3.2-2.7 1h-.3l-.2-.1-1.4-1.8v-.2l-.7-3.1-.6-1.8-3.3-.5h-.2l-.2-.3-.6-4.1-7.4.2h-.3v-.3l-.4-5.6-3.3.2zm18.4-65.4l-4.8 2.5-.1.2-.2-.1-14.4-4.4-4.4 5.7-.3.3-.3-.3-2.3-1.7h-.2v-.2l-.6-8.5-1.4-2.7v-.3l.1-.2 10.4-13.4-.8-5.4-3.5-3.8-4.4 1.1-6 4.6h-.4l-5.7.2-.6 2.1 4.3 3.6.3.1-.3.3-4.6 5.4-2.3 3 .2 7.7v.5l-.3-.1-12.2.7-4.4 5.3 3.3 2.9 3.7 4.1.2.3-.1.3-1.9 2.3v.2l-3.9 2-.3.2-.2-.1-5.5-3.5-3.9 6.5 1.2 4.4 2.4 1.7 10.8 1.1h.2v.2l4.6 4.3v.2l1.6 3.3h.2v.2l.6 6.9v.2l1 11.6.6 1.4 2-6.5v-.3h.3l5.8-1.3 2.1-10.1v-.3h.3l3.1-.1.2.1 3.4 1.3 3.8-3.7.3-2.8-.2-2.5v-.5h.5l6.7-.2.2.1 4.1 3.3 2.9-.8h.3l.2.1 2.5 2.6 2 1.3 2.8-3.8 2.1-3.4-2.9-2.1v-.4l-.3-4v-.2l.1-.2 10.2-5.2-.9-5.5-7-7.8zm225.1-128.4l2.8.1.5-2-2-1.9-2.3.9 1 2.9zm9.9 13.8l3.5 1 3.4-.9-1.7-5-4 2.6-1.2 2.3z"/><path class="st0" d="M553.4 269.3l-4 .4-1.5 7.4-7.1-5.6-1.4 6.3 7.5 7.2.9 6.6-13.6-10.5-1-7.2 4.9-7V256l-2.1 1.2-2.1 7.4-3.8 3.8-4.1 1.5-3.7 6.3 1.4 16-8.8 16.1 1.3 9.4 10-.7 9 9.3.7 9.6-5.4 7.4 1.8 3.1 4.8 2.3-8.5 2.6-3.1-8.8 5.7-11.9-3.4-8.1-10-.8-5 5.6.2 11.9-8.5 9.9-8.1 3.7-5.1 6.4-19.8-10.2-.4-5.7 13.1 5 6.6-3.1 10.2-7.7 6.2-15-1.8-7.6 10.1-30.2 1.2-5-2-6.5 7.6-8.3.8-10.8-6.8-7.9 6.3-1.2-1.5-7.8h-6.4l-.1 5.7 1.6 3.3-4.1-1.3-5.9 5.1-6.6 9.8-5.2 5.8-8.4 2.6-4.2 4.6 4.9 5.4-4.2 9.1-6.5 2.5-.1 3 6.3 5.6-1.6 5.9 1.3 3.5 2.4 3.1-6.9 7.5-2.7-3.7-2.6-8.5-8.8-12.1-4.2 4 3 4.6.2.1-.1.2-4.9 10.3 2.6 6.8v.4l-3 5.5-.1.2h-.2l-5.3 2.2-3.4 4.6-.1.2h-.2l-13.9 1.6-6.5 6.2-.1.2h-.2l-4.5.3.4 11.9v.2l-5 8.1 4.1 7.2h13.7v.2l6.7 4.5.2.1v.2l.8 6.3 2.3 2 15.3-.3h.2l.2.1 5.2 5.7v.2l1.1 9.7 2.9 3.2v.4l.3 6.3 10.2-.7h.2v.2l9.8 7.7 13.1 4.7h.2v.2l5.3 7.4 8.5 4.5 8.5.2 6.4-5.6.3-.2.2.3 6.7 5.3 6.5-.6h.2l.2.1 5.3 6.8h2.7l.2.1 5 4.3 8.7-12.9.1-7.9v-.2l5.7-9.2-1.6-7-7.6-4.9-.2-.1v-.2l1.1-10.5-5.3-6.3h-.2v-.2l.5-14.5-6.6-7.4-.2-.1v-.2l2-7.4-2.7-5.5-.3-.3.5-.2 7.7-2.7 2.7-8.6-2.4-9.8-8.3-1.4h-.2v-.2l-8.3-9.3-.2-.1.1-.2 1-6.1.1-.2h.2l10.8-5.9.9-4.6L553 288v-.4l.8-6.6v-.3h.3l4.7-1.1-5.2-9.6h-.2v-.7zM402.3 520.9l5.7-.6 5.2 7.5 3.7.4.1-.2 1-3.3v-.2h.2l6.1-6.6.7-4.9v-.2h.2l3.7-4.8v-.2l.3.1 5 .6 1.1-2.1.7-3.6-1.6-3.6-4.4-1.4h-.2v-.3l-.8-2.1-.2-.3.1-.2 1.8-2.5.2-6.2v-.2l.1-.2 6.6-7.4.3-.2.3.1 4.1 3.7.3.3-.1.2-1.9 3.2 2.8.4h.2l7.5 4.6 5.5-1.2h.2l5.5 2.6 5-.2 6.6-5.1-12.8-8.2h-.2v-.2l-6.7-11-5-9.4-3.5-.5-7.3-2.4-.2-.1-3.8-3.1-.9 2.9-.1.3h-.3l-5.6.2-1.3 1.6h-.2l-3.4 2.1-.1.2h-.2l-2.7-.4-1.8 1.5h-.2l-3.6.2h-.2l-4.8-1.7-1.6 3.8-.1.2h-.2l-6.2 1.7-3.7 7.4v.3h-.3l-11.3.3-2.8 6.9.8 6.3v.3h-.3l-3 1.1-.6 5.2 2.9 5.7v.2l1.4 3.8 4.9 1.2h.2l4.8 3.7.2.1v.2l.4 4.2 6.9 5.3h.2v.2l.7 4z"/><path class="st0" d="M348 517.8l11.5 1.8 6.8 3.6 3.6-3.4 5.8 2.7 19.2 2.2 6.6-3.6.1-.2-.7-3.5-6.9-5.3-.2-.1v-.2l-.4-4.2-4.6-3.6-4.9-1.1-.3-.1v-.2l-1.4-4.1-3-5.8v-.4l.7-5.2-5.6-2.1-3.9 2.3h-.3l-.2-.1-3.5-3.9-7.3-2-7.7 3 .6 2.1v.2l.3 7.1v.3h-.2l-10.2 8.8v4l8.5 4.2.3.1-.1.3-2.6 6.4z"/><path class="st0" d="M304.8 540.7l2.1-3.2 7.5-1.1.2-5.4 3.6-2.3 3.9-.1 4.9 3.4 2.6-2.8-3.8-5.5-2.1-5.4 3.6-4.4 3.3-1.2 5.6 5.2h11v-.2l2.6-5.6-8.2-4.2-.3-.1v-4.7l.1-.2 10.2-8.8-.3-7-1.3-4.9-3.1-2.6-1.5 1h-.4l-2.8-.4-.2-.1-12.1-8.9-2 .6-.3 3.9v.2l-2 4.6.5 2.1 2.5 3.1.2.1-.1.3-1.2 2.9v.2h-.2l-1.9 1.4h-.3l-.2-.1-4.3-3.6-1.6-1h-2.3l-2.5 1.4h-.3l-.2-.1-2.4-1.7-.2-.1v-.2l-.5-4.9-2.2-2.5-2.6-.1-4.6 3.3-1 3.6 3.2 6 2.4 1.7 10.7 2.7 2.2-1.2 1.8-1.1.1-.2.3.3 3.2 2.9.3.3-.3.3-2 1.8-.1.2-3.2 1.2-.9 4.6-.1.2h-.2l-2 .1h-.2l-3.4-1.5-6.2 4.2-3.4 6.9-.3 4.1v.3h-.3l-4.7 1.4-.2 3.4-.2 3.3 8 1.9h.2l.2.1 1.8 3.4.2.1-.1.2-.6 2.5v.2l-.1.2-2.8 2.5 1.3 3.1z"/><path class="st0" d="M375 389l-1.8 3.5-1.2 3.3-5.9 9.1-9.1 10.3h-.2l-7.9 4.3.1 3.7 3 4.9.2.1-.3.2-3.1 4.4-.2 5.4v.2h-.2l-2 3.1h-.2l-.1.2-7.7.9-.7 4.9v.2l-.1.2-3.1 2.2-.3.3-.2-.3-3.3-3.2-3.7 7.1-.1.2h-.2l-7 1.3-5.5 7.5 1.3 3.3 2.9 2.1 7 2.5 2.3.1 2.3-.8h.2l.2.1 12.3 9.1 2.5.4 1.6-1 .3-.2.2.1 3.5 2.9.2.1.5 2.1 7.9-3h.2l7.4 2 .2.1 3.4 3.8 3.9-2.1.1-.2.2.1 5.7 2.2 2.9-1-.6-6.2v-.2l2.8-7v-.3h.3l11.5-.3 3.5-7.2-3.2-4.1-.2-.1v-.2l.2-4.2.6-7.6-8.2-4.4v-.2h-.2l-1.5-3.5-.2-.1.1-.2 4.1-5.7-1.3-4.6-2.1-8.1v-.2l.1-.2 3.3-5.5-.6-6-5.1-10-7.7-3.8h-.2v-.2l-1.4-5-2.4-1.6z"/><path class="st0" d="M422.1 341.5l-4.3.3-5.9 6-.1.2h-.2l-5.5.7h-.3l-.2-.1-2.1-2.8-8.5 8.7-1 5.5h-.2v.2l-9.1 9.3-9.4 18.8 2.5 2.2v.2h.2l1.4 5 7.6 3.8h.2v.2l5.1 10.2h.2l.6 6.3v.2l-.1.2-3.3 5.4 2.1 7.9 1.3 4.7v.4l-4.1 5.7 1.5 3 8.2 4.5.2.1v.2l-.5 7.9-.2 4 3.2 4.1 5.9-1.7 1.7-4 .1-.3.3.1 4.9 1.7 3.4-.2 1.6-1.5h.4l3 .4 3.1-2.1 1.4-1.7v-.2h.3l5.6-.2.9-3.2.3-.5.3.3 4.3 3.4 7.2 2.4 3.6.5.2.1.2.1 5 9.4 6.7 11.2 13 8.2 6.5-4.3.5-4.2v-.2h.2l4-3.1h.2l5 .3 3.2-13.7v-.2l.1-.2 5.6-4.9.1-.2.3.1 6.5 1.4h.2l8.9 5.1 13-.8h.2l.2.1 9.6 6 10.4-7.1.3-.2.2.1 5.8 3.6 6.4-1.2 6.7-3.4 1-3.3-8.2-4.1-.2-.1v-.2l-.7-9.9-5.1-4.4h-2.8v-.2l-5.4-6.8-6.3.6h-.4l-6.4-5.4-6.4 5.6h-.4l-8.7-.2-.2-.1-8.7-4.5h-.2v-.2l-5.2-7.4-13-4.5-.2-.1-9.7-7.7-10.3.7h-.5v-.3l-.3-6.8-2.7-3.1-.2-.1v-.2l-1-9.7-5-5.4-15.4.1h-.2l-2.6-2.1-.2-.1v-.2l-.6-6.3-6.5-4.3h-13.7l-.2-.1-.2-.1-4.3-7.6v-.2l.1-.2 4.9-8.1-.7-11.2zm-268.8-67l-1.8 1.5-.9 3 1 9.4v.3l-.3.2-6.8 2.6-.2 3.3v.3h-.3l-2.3.5-.5 2.4-.1.2-.9 1 2.5 2.3 4.7 2.9 8.8 1.6.2.1 3.1 2.4h8.5l.4-3.1v-.2l1.6-1.4.3-.2.2.1 4.1 2.5h.2v.2l1.2 3.5 4.9 3.5 4-.6h.2l.2.1 6.6 5.1.1-3-1.3-3.5-3-2.9-.2-.1.1-.3 2.3-4.4-.8-4.6-2.8-4.8h-.2l.1-.2.4-3.4-2.5-.1-.2-.1-.2-.1-.6-2.3-4.3.2h-.2l-.2-.1-1.4-2.2-.2-.1.1-.2.9-2.1-.5-2.8-3.3-.9-.8 1.5-.1.2-.3-.1h-2.4l-.2-.1-2.3-1.9-3.7.7h-.3v-.2l-2.4-3.6-2.4-.9-4 2.3-.5.2-.2-.3-1.1-3.3z"/><path class="st0" d="M200.7 325.7l8.6 4.7 3.2-.4h.2l.2.1 4.2 4.5.2.1-.3.3-1.4 6.9 5.3 4.4 13.5-.3h.2l9.2 4.8h.2v.2l6.5 10.2 9.8 4.7 6.2-2 .1-.2.2.1 3 2.6 4.2-4.9-4.3-3.4-.2-.1.1-.2.7-2.7.1-.2h.3l5.7-.1 6-4.6-.3-4.3-4.5-1.7-.3-.1.1-.3 1.1-3.8-4.1-1.1-2.5 1.4-.3.2-.2-.3-3.8-7.8-7.7.2h-.4l-5.3-5.4-4.8-2.6v-.2l-4.8-3.9h-.2l-14.2-14-.2-.1v-.2l.6-7.6v-.2l4.6-5.9-3.3-.9h-.3v-.3l-.4-5.1-3.9.3-2.6 2.8v.2l-.2-.1-5.7.2-.2-.1-2.8-2.6-2.5.2-3.6 1.5-5.7 4.9-3.3 8.5-.1.2h-6.7l-3.6 2.1-2.2 4.2 2.8 2.7.2.1 1.3 3.6v.2l-.1 3.3 6.3-.4h.3l.2.3 1.6 7.4zM150.9 256l-3.8.7-6 5.2-3.2 5.3h-7.1l-3.8 7.4-4.9 1 .2 5.4-7.2 5.3 1 7.1 3.2 3.7-3.1 4.4 1 3.3 5 .9 1.3 5-1.4 2.7.5.1 3-1.1h.2l.2.1 1.8.7 6.1-1.5 2.2-4 1-5.8v-.2l3.6-4.1.6-2.5v-.3h.3l2.1-.3.2-3.3v-.3h.3l6.8-2.8-.9-9.1v-.2h.2l.9-3.2v-.2h.2l2-2 1.8-7.1-3.3-4.4v-.2l-1-5.7z"/><path class="st0" d="M188.4 243.5l-6.6.8-8 3.5v6.7l1 3-2.2 2.2-2.2-4.5-3.3-.1-5.4-4.4-5.9 4.4-4.1.8.6 5.9 3.4 4.6v.4l-1.8 7.3 1.3 3.3 3.7-2.1.3-.2.2.1 2.7 1h.2v.2l2.3 3.4 3.5-.7h.2l.2.1 2.5 1.8 2 .2.8-1.5.1-.3.3.1 3.8 1 .3.1v.2l.5 3.1v.2h-.2l-.8 2.1 1.2 1.9 4.3-.3h.3v.3l.8 2.3 2.5.1.5.1-.1.3-.5 3.8 2.8 4.6.2.1.8 4.3 3.1-2.1h6.6l3.3-8.3.1-.2 5.7-4.9h.2v-.2l3.8-1.5 5.4-.2 2.6-2.5-5.7-6.3-3.3-.4h-.2l-.2-.3-1.9-5-2 .3-.1 3.1-.1.5h-.3l-1.7-.3h-.2v-.2l-1.5-2.1-1.5.6v4.2l-.3-.1-2.3-.3h-.2l-.2-.1-1.4-2.7-6.3.6h-.3v-.2l-2.9-3.7-6 .4h-.2l-.2-.1-1.7-1.9-.3-.1.3-.3 9.3-13.1-1.6-12.8zm87.1-31.4l.8-10.4 2.7 3.4-.4 7.3 3.4 6.1 1.5 10.7 4.8 6 1.4 6.6 16.4 8.5 9.6-2.5 6.6-10.4 1.3-10.6-4.1-12.3-.8-18.1-2.5-6.5-5.7-7.7-1.2-6.3 2.1-1.5 3.4 3.9 2.8-2.2-3.2-5.2-11.2-6.5-15.4-.3-2.9 2.4-7.4 5 .7 6-4.7 8.9-10.3.9-3.1 4.6 8.3 9.5v.4l-.8 6.1 6.5 2.6.2.1 1.2 1.5z"/><path class="st0" d="M259.6 255.4l-.7-3.2.4-3-2.9-3.4 2-4.6 6.9-9.8 6-2.4 3.3-6.4.6-9.2-1.6-2.4-6.6-2.8-.3-.1v-.3l.8-6.1-7.9-9.2-7.9 11.4-4.5.2-5.3 4.2h-4l-1.4 4.1-1.4 3.7-3.1 2.5 1.9 3.3-2 2.5-7.5-.7-1.5 7.2-.6 10.7-4.3 2.2-19.9-1.2-8.9.9.7 5.7 4.7-1.3h.2l6.4.5h.2l.2.1 2.7 3.4h.2v.2l.2 4.5v.2h-.2l-2 2.8.7 4.9-.3 4.4-.1.2v.2l-3.1 2.7-.8 2.4 1.4 2.5 1.7.3-.1-3.6v-.3h.3l2.1-.8.3-.2.2.3 1.4 2.2 1.1.1.1-3 .1-.3h.3l2.6-.5h.3v.3l2.1 5.1 3.1.2.2.1h.2l5.4 6.3.6-2.2-.9-6.1v-.2l2-4.6v-.2l7.7-9.4.1-.2h.2l4.9.7.2.1.2.1 1.7 2.7v.2l-.4 4.8v.2l-.1.2-3.3 3.6-5.5 7.2-1.1 5.8 4-.3h.3v.3l.4 5.2 3.3.9 2.1-2.6.1-.2h.2l2.9-.2.9-5.5v-.2l.1-.2 5-6.1-1.4-2.1v-.2l-2.1-2.8v-.4l.9-4.6.1-.2 5-5.8.3-2.8v-.5l.5.1 3.8.7 2.3.3 2.6-3.3h.2v-.2l.1.3zm87.8 34.8l-6.9 10.3 2.9 3.8.2.1-.1.2-1.5 3.2 1.6 5 .2.3-.3.2-4.4 3.1h-.5l-6.5-3.6-5.8.7h-.3v-.3l-1.2-4.3-15.6-10.4-1.5 2.6 4.6 6.5v.4l-.8 5.8-.1.2-3.1 3.8 1.7 2.7v.2l.5 2.9v.3l-.3.2-5.9.6-4.2 6.3.1 3.6 5.6 1.9 2.1-2.9h.2l.1-.2 5-2.1.3-.2.2.3 3.7 6.3.2.3-.1.2-11.5 10.6.2 5.3v.2l-.1.2-4.1 3.5-.1.2-.2-.1-5.4-1.8-3.6 3.4-10.2 13.3 1.3 2.5v.2l.6 8.3 2 1.4 4.3-5.6.1-.3.3.1 14.6 4.6 4.8-2.7 2.3-7.1.1-.2h.2l9.6.3h.2l7.5 7.4 8 3.5 10.7.5 4.2-2.6.1-.2.3.1 12.2 8.6 7.2.6 11.3-23 .1-.2 9-9.2 1.2-5.5v-.2l9-9.2.3-.3.3.4 2.2 2.9 5.2-.7 5.9-6 .1-.2h.2l9.6-.8 6.7-6.4h.2l13.9-1.6 3.3-4.4.1-.2h.2l5.3-2.2 2.9-5.3-2.6-6.8v-.4l2.3-4.7-2.7-.3-1.7 2.8v.2h-.3l-3.2.2-3.9 4.2-.1.2h-.2l-5.2-.9-3.5 4.7-.1.2h-.2l-11.5 1.7h-.2l-52.5-32.1-4.7 1.7v.2h-.2l-22.2-1zm-80.1-49.3l1.7 1.6 2.1-1.5-.8-2.4-1.8-1.1-1.1 1.8-.1 1.6zm150.3-5l2.3-2-.3-4.3-3-.4 1 6.7z"/><path class="st0" d="M463.4 293.5l-4.4-6.8-11-10.2-7.6.5-.8 4.6.3 6.6-5.2 3.6-3.1-.4-1.8 3.2-4.1-2.8 4.2-4.3-.3-4.5-14.4.9-7.3-4.8L397 281l-4.2-5 6.4-1.1 2.9-6.9-8.8-1.4-3.7 5.1-2.3-3.4-22.6-4-2.6 3.1-3.5-2.9-11.1 7.6-6.6-5.4 1.5-5.2-2.2-5.1 7.1-3 7 4.2 2.9-5.5-.8-9.4-9.5-9.1-2 9.6-11.6 8.7-.5 6.1-5.5 5.7 3.2 12 7 9 5.9.4h.2l.2.1 3.4 4.4 21.6.8 4.8-1.9.1-.2.2.1 52.5 32.1 11.1-1.7 3.7-4.8.1-.2h.2l5.2.9 4.1-4.2v-.2h.2l3.2-.2 1.7-2.8v-.2h.3l3.1.4 2.3-4.8-3-4.6-.2-.3.1-.2 4.9-4.1z"/><path class="st0" d="M444.2 273.7l-4.4.8-4-5.6.5-5.5 5.6-1.8 2 6.1.3 6zM373.1 251l3.7 4.2 8.2-.3.7-3.2-.8-4.6-4.6-4.3-6 2.6-1.2 5.6zm61.1 1.7l.6-18 .9-6.9 5.4-6.7 6.9-3 2.7-4.2-2-4.8 5.3 3 4.8-.8 1-3.6 2.9-.1.1-3.6 3.8 1.3.5-3.6 3 2.7 2-2.9.5-4.2 4.1 2.5 2.5-2.5 5.5.7 4.1-5.4 34.4-3.2 8-5.1.5-6.1-3.9-4.1-8.2 2.7-1.2 3.2-14.1-.2-6.5-4.8-5.2 3.5-5.6-1.9-6.5 5-5.7.4-2.6 2.5-4.1-3.7-1.3 8.5-4.3.5-.2 3.4-10.3 4-4-1.4-2.1 3.1 3.3 2.7-4 4.3-7-2.3-.6 5.3h-5l.1 4-6.7 4-4.3-1.1-4.5 3.9.2 5.1 4.8 4.2.6 6.9-3.9 4.5 3.8 7 3.9.2.4 3.4 4.4.6 2.8 1.1zM327 264.3l-5.6 6-3.1-5.1 3.9-1.2-5.8-9.1-7.6 1.8-7.8-2.1-9.3 2.1-4.3 13.5-4-1.9-6.3-12.4.1-9.9-8.9 1.7-1.7 8.6 4 4.4-3.2 5-6.1-2.8-1.4-6.7-.3.2-2.7 3.3-.1.2h-.2l-2.5-.3-3.5-.7-.3 2.7v.2l-5 5.8-.9 4.4 1.9 2.7 1.7 2.4v.3l-.1.2-5.1 6.3-.8 5.8-.1.3h-.3l-3.1.2-2.1 2.8-4.8 6.2-.4 7.2 14.2 13.9 4.8 4 4.8 2.6h.2l5.2 5.4 7.9-.4h.3v.3l3.6 7.7 2.4-1.3.1-.2v.2l4.7 1.1.3.1-.1.3-1.1 3.8 4.3 1.9h.3v.3l.3 4.3 4.1-1.1h.3l.2.1 3.7 4.1h.2v.2l.8 5.1 3.2-3.2h.4l5.6 1.8 3.7-3.2-.1-5.4v-.2l.1-.2 11.2-10.2-3.4-5.8-4.7 2-2.3 3.1-.1.2-.3-.1-6.2-2h-.2v-4.5l4.3-6.7v-.2h.3l5.5-.5-.5-2.6-1.9-2.7-.2-.3.3-.2 3.3-4 .8-5.6-4.6-6.5-.2-.1.1-.3 1.8-3.1.3-.3.3.3 15.9 10.5.2.1v.2l1.2 4.1 5.7-.7h.2v.2l6.3 3.4 4.1-2.8-1.4-4.9-.2-.1.1-.2 1.3-3.2-2.9-3.8-.2-.3.3-.2 6.7-10.2-3.2-4.1-5.9-.4h-.2v-.2l-7.2-9.3v-.2h-.2l-2.8-11.9zm192-151.7l2.6 2.1 3.2-3.2-1.9-2.3-2.4.8-1.5 2.6zm5.5 1.7l2 1.6 3.3-2.1.7-3.9-2.7-.4-3.3 4.8zm8.9-1.1l3.5 2.9 6.4-3.9-1.5-3.6-4.8-1.6-3.6 3.5v2.7zm6.5-7.5l3 1.2 1.7-2.3-2.5-2-2.2 3.1zm11.8-8.7l1.1 2.9 2.9-1.3-1.3-3.5-2.7 1.9zm-9.8-6.6l1.6 1.3 1.9-1.7-3.1-2.7-1.5 1.3 1.1 1.8zm-8.3 2.4l.6 2.3 3.2 1.8 1.7-2.9-1.9-3.3-3.6 2.1zm-6 2.9l6.4 4.8-.4 4.7-6.2-1.6-4.2-4.4 4.4-3.5zm17.8 15.8l1 3.5 6.5-.6 2.5-4.7-2.6-3.4-2.5 4.2-4.2-.8-.7 1.8zm-17.5 9.2l1.9 2.3 1.6-2.1-1.9-2.5-1.6 2.3zm-17.4-16l2.9 4.3 2.9-3.1-1.8-3.8-4 2.6zm7.6-2.1l.8 2.7 1.6-1.4-1.6-3-.8 1.7zm-4-14.6l2.4 2.6 1.7-2-3.4-2.6-.7 2zm-18.7-4.3l1.2 3.6 2.9 2 4.1-.6 2.6 1.8 1.4-2-3.3-2.6-2.9 1.1-6-3.3zm1.4 9.5l-.1 3.3 3.1 2.7 3.2 3.5.8-1.8-1-3.5 4.1-1.2 5.2 1.3 3-3.5-3.2-3.3-2.5-.8-2.5 2.2-3.7.9-2.1 1.1-4.3-.9zm7.2 11.9l-.5 2.2 2.6 1.2-.1-2.9-2-.5zM110.3 448.6l.1 2-6.3.3-2.1 3.7-3.2.7-3.4 7.1-6.3 2.9-5.1-6.5-10.9-.6-4.7 5.6 11.4 5.6-3.1 2.5-6-3-3.1 2.7 2.3 3.7 3.9-.3h.3v.2l5.2 5.5.2.1-.1.2-2.9 7 4.9 5.4.2.1v.3l-.9 2.2v4.5l2.9 3.2 2.4-3.1.1-.2h.2l4.3 1.3 1.4-2.6.1-.3.3.1 3.5 1.1.3.1v.2l.4 5.1 4 1.6.3.1v.3l.3 4.8 2.2 3.3 4.9-.8 1.3-3 .1-.2h.2l8-.6 4.4-5.7-.5-2.6-4.5-.1-.3-.1v-.3l-.4-3.7-4.6-5.6-.2-.1v-.2l1.8-8-3.1-4-.2-.3.3-.2 5.6-3.8.3-.2.2.3 2.3 1.9 4-.4 2.1-5-1.5-8v-.2l.1-.2 6-4.6-1.8-9.6h-5l-3.4 2.7-.1.2-.2-.1-4.2-2.2-4.7-2.2z"/><path class="st0" d="M156.6 505.3l6.6-2.8.7-5.3 5.5-3.6 6.2-2 2.1-.8-.8-8.6-3.9-.5h-.2v-.2l-2-2.5-.2-.1v-.2l-.5-4.9-2.2 1.2h-.2l-3-.1h-.5l.1-.3-.1-3.7v-.2l.1-.2 2.7-3.6-.3-4.6-7.1-5.9-3.9-.7h-.2l-2.9-3.4-.2-.1-.7-4.9-5.7-1.6h-.2l-.2-.1-2.6-4.5-2.9 1.1h-.2l-5.9-.4-.3 3.9v.2l-.1.2-5.2 3.8 1.8 10v.3l-.1.2-6 4.5 1.3 7.8.2.1h-.2l-2.1 5.3-.1.2h-.2l-4 .7h-.4l-2.2-2-5 3.5 2.7 3.7.2.1v.2l-1.8 8 4.4 5.4 10 .4.9-3 .1-.2h.2l3.4.1h.3v.3l1.4 4.9 3.9.3 3.2-2.4.1-.2.2.1 12.1 1.6h.2l.2.1 3.5 5.4z"/><path class="st0" d="M130.5 553.4l6.5 1.9 16.8-1.6-1.9-6.5 4.3-1.1 2-18.3-3.2-3.8-4.2-.8.4-3.4 4.9-5.2-5.1-6.2 2.1-1.4 2.8-1.4-3.3-5.2-11.8-1.7-3.1 2.2 2.6 5.4.2.1-.1.2-1.4 10.6 3.1 4.7v.4l-2.2 8.1 1.4 4.9.2.6-.6-.1-5-.1-2.4 1.3-.3.2-.2-.3-2-2.5-1.4 2 3.1 6v.3l-.1.2-3.3 3.2-3.1 1.9 4.3 5.4z"/><path class="st0" d="M117.4 556.9l6.3-.3 5.8-3.2-4.4-5.4-.3-.3.5-.2 3.3-2.1 3.1-2.9-2.9-6-.2-.1.1-.3 1.8-2.6.3-.3.3.4 2.2 2.6 2.2-1.2h.2l4.7.1-1.4-4.4v-.2l2.2-8.2-3.1-4.7v-.2l1.4-10.8-2.4-5.4-4-.2h-.3v-.3l-1.4-5h-2.8l-.9 2.9v.3h-.3l-10-.4.4 3.1 4.5.3h.3v.3l.5 3.1v.2h-.2l-4.5 6.1-.1.2h-.2l-7.9.6-1.5 2.9v.2l-.1.2-5.4.8h-.2l-.2-.1-2.6-3.5v-.2l-.3-4.8-4.1-1.6-.2-.1v-.2l-.4-5.1-3-1-1.2 2.7-.1.2h-.3l-4.4-1.4-2.1 2.9 2.9 3.2 2.9-.7h.2l.2.1 2 2.5 3.9.8.2.1.2.1 1.9 4.4 4.5 6.4v.4l-.6 6.6 4.7 7.1v.2l1.8 5.8v.2l.1 6 6.8 5.9h.2l1.4 3.5z"/><path class="st0" d="M80 580.5l-2 2.3.9 6 6.1 7.8.1 8.5-.6 4.1L90 615l2.3-1.1 1.2-2.6 3.2 1.3 3.3.9 3.7-2.7-.7-10.6 1.6-15.3 8.9-9.9.2-9.8-1.4-4.1 4.4-3.9-1.6-3.5-6.5-5.8-2.2 1.9-.1.2h-.2l-6.5.1-3.4 3 1.4 2.4.2.3-.3.3-3.1 2.1 4.4 5.6 4.5.5h.2v.3l1.9 5.1v.3l-.3.2-3.3 1.6h-.2l-3.4.1-3.7 8.6-.1.5-.5-.3-3.6-2.5-1.7 2.3-.1.2h-.2l-8.3-.2z"/><path class="st0" d="M77.6 573.1l1.8 3.8.8 3 7.9.1 1.8-2.5.3-.3.3.1 3.4 2.5 3.7-8.5v-.2h.3l3.6-.1 2.8-1.4-1.6-4.7-4.2-.5h-.2l-.2-.1-6.3-7.8h-4.5l-2.1 1.1 3.1 9.1v.3l-.3.2-10.4 5.9z"/><path class="st0" d="M74.7 569.4l.3 1.7 2.1 1.6 10.6-6-2.9-8.6-1.9 1.1-1.4 6.1v.2h-.2l-2.6 2.5h-.2l-3.8 1.4z"/><path class="st0" d="M65.3 557.3l.8 6.9 8.3 3.3.2 1.1 3.6-1.5 2.5-2.2 1.4-6.1v-.2l.1-.2 4.5-2.3-3.7-2.5-1.2 2.4-.1.2h-.2l-9.4-1.7-6.6 2.6-.2.2z"/><path class="st0" d="M58.5 543.8l4.5 4.5.6 6.3 1.5 1.9 6.9-2.8h.2l9.1 1.7 2.4-5.1-1.5-4.1-4.2.3h-.4l-8.7-7-6 .3-4.4 4z"/><path class="st0" d="M46.6 525.3l5.5 8 .3 4.9 5.3 5.2 4.8-4.4h.4l5.7-.2-.7-6v-.2l.1-.2 2.9-2.2-4.9-8-1.3 3-.1.3h-.2l-5.4-.2h-.2v-.2l-3.2-3.8-9 4z"/><path class="st0" d="M33.7 473l1 7.1-2 2.8 1.3 3 3.4 2.2.2 5.1 2.4 7.9-.1 7.5-.5 12.4 1.7 2.1 3.1-1.6 2.4 3.4 9.3-4.1.3-.2.2.1 3.2 3.8 5 .1 3.1-7.3v-.2h.2l3.6-1.8-1.5-2.1-.2-.1.1-.2 1.9-4-2.5-1.8-.3-.3.3-.3 2.6-3 .1-2.3v-.2l.1-.2 3-1.6.3-.2.2.3 2.3 3.4 2.5-2.3v-4.7l.9-2.1-5-5.4-.2-.1.1-.2 3.1-7-4.9-5.2-4 .3h-.3l-.2-.1-2.8-4.6-7.9-6.1-.4 9.8-4.2-1.7-7.7 1-2.5 3.9-6.4-9-4.3 3.8zm10.6 43.8l-.6-4.8v-.6h.6l4.9-.8-.2-2.9v-.4l.1-.2.1-.2 5.3-4.6-3.7-1.9-4.8-4.9-.2-.1-.2-.1v-.4l.3-4.2v-1l.5.1.5.1 4 1.1h.4v.4l3.4 4.7 4.3-.3h.9v.6l.6 4.5 3.3 2.4.2.1.2.1v.4l.1 6.2v.8l-4.1 6.2-.6.8-.6.8-.2-.9-.2-.9-1-5-6.4 8.2-.1.2-.1.2-.3-.1-.3-.1-5.4-2.1-.2-.1-.2-.1v-.2l-.3-1z"/><path class="st0" d="M80.2 501.2l-2.6 2.5-.3.3-.3-.4-2.3-3.4-2.5 1.4v2.3l-.1.2-2.3 2.6 2.3 1.9.2.1v.3l-1.9 4.2 1.7 2.2.2.5-.3.2-4.1 1.8-1.3 3.5 5.4 8.8.2.1-.3.3-3.1 2.2.7 6.2 8.7 6.7 4.3-.3h.3v.3l1.7 4.4.2.1-.1.2-1.2 2.4 4.2 3h4.9l.2.1 1.5 1.8 2.7-1.9-1.4-2.4v-.3l.1-.2 3.6-3.4.1-.2h.2l6.7-.2 2-2-.1-5.9-1.8-5.6-4.7-7.3v-.4l.6-6.6-4.3-6.4v-.2l-2-4-3.8-.8-.2-.1-2-2.5-2.7.7-.3.2-.2-.3-6.5-6.7zM44.5 512l.6 4.8 5.4 2.1 7-8.9.6-.7.1.8 1.2 6 4.1-6.2-.1-6.2-3.4-2.6h-.2v-.2l-.6-4.6-4.5.3h-.3v-.2l-3.6-5-4.1-1.1-.2 4.4 4.8 4.9 4.2 2.2.5.3-.4.3-5.7 4.9.2 3.2v.5h-.3l-5.3 1zM684 615.1l17.6 5.7 16 2.4 4.1 12.3 11.8 5.2 8-.7 11.1-7.6 9 2.2 9.2-1.3 2.8 4 5.3-.1 1.4-6.6v-.2l.1-.2 4.9-3-5.8-5.6-.3-.3.3-.2 4.9-4.7-2.4-6-.2-.5h.6l10-.7 6-5.7h.4l5.6.4 9.5-14.6v-.2h.2l6.8-.9 1.8-3.4v-.2h.2l5.5-2.7 3.9-5.7.1-5.7-4.7-2.8-.2-.1v-.2l-.5-5.4v-.2l.1-.2 9.3-8.3 2.8-8.1v-.2h.2l8.6-3.7-1-6.9-5.8-4.6-6.1-.5-.2-.1-.2-.1-6-14.6-3.3-2.6-.3-.3.3-.3 2.8-4.5-.8-4.3-3.4 4.4-.1.2h-.2l-3.1-.2-1.2 6.9-.1.2h-.2l-16.3 5.8h-.3l-.2-.1-3-3.7-3.7.3h-.2l-3.8-1.7-1.5 4.8-.1.2-.1.2-7.7 3.2h-.4l-4.1-1.3-.6 4.7-.1.3h-.2l-8.1 1.7 1 3.8 5.2 3.8.3.3-.3.3-3.8 5.2-.3 7.5 3.2 6.1.2-1.4 1-10.3v-.2l2.5-4.8v-.3h.3l3.6.2h.2l.2.3.9 3.8v.2l-1 9.4 1.2 8.9 1.7 4.8h.2l-.1.2-1.5 4.9v.2l-2.7 2.8-.8 1.8 1.3 3v.4l-1 3.2-.1.2h-.2l-3 1 .1 3.4v.2l-3.6 6.8-.1.2-5.7 2.1-3.5 5.5-.1.2h-4.5l-.8 6.7v.2l-3.1 3.9v.2h-.2l-10.2 5.4-1.1 4.9v.2l-.3.2-6.6 2.6-.3.2-.2-.5-1.2-3.8-7.2-.9h-.3v-.3l-1-5.2-5.4-6-6.6.5h-.2l-.2-.1-14.5-9.8v-.2l-4.7-5.6-6.6 5.4-.1.2h-.2l-3.9.1.2.9.2.1-.1.2-2 2.3 1 3v.2l-.1.2-2.7 3.4 2.9 4.4z"/><path class="st0" d="M588.6 651.2l25.3-11.5 9.2-1.3 1.7 2.2 14.1 2.1 1.5 6.1 5.4 2.3 14.8.7 5.9.4 3.1 2.6 4.5-1.9 4.1-4 2.4-7.6-5.4-5.7v-9.3l3.2-1.3-.1-4.2 4.2-.4.9-4.7-3.1-5.1v-.2l.1-.3 2.7-3.4-1-3-.2-.3.1-.2 2-2.3-.6-2.1-6 .9h-.4l-15.9-9.6-.6 4.2v.3h-.3l-18.4 3-.7 4.9-.1.3h-.2l-3.5 1.2.5 3.4v.2l-.1.2-4.7 3.6-.1 3.3v.3l-.3.2-3.3 1-5.7 5.5h-.4l-14.3-.9h-.2l-9.2-5.6h-4l-2 7-.1.3h-.3l-10 1.3 1.1 6.9 6.8 10.4.2.3-.1.2-4.1 3.2 1.6 6.4z"/><path class="st0" d="M531.1 634.6l1.3 6.9 6.7 3.2.6 6.8 6.6.9 2.9 3.1 7-4.4 1.7 5 5.1 6.5 7.3.3 1.8-4.9 9.7-1.1 6.1-5.2-1.6-7v-.2l.1-.2 4-3.1-6.6-10.1v-.2l-1.1-6.7-5 4.4-.3.2-.2-.3-5.2-5.7-.2-.1v-.2l1.2-7.4-2.8-2.9-8.1.3v.2h-.3l-5 1.4h-.2l-.3-.1-4.4-2.9-.1 3.4v.4l-3.6 6.3-.1.2h-.2l-7.5-.1-5.7 2.4-2.1 3.4 3.8 1.6h.2v.2l1.4 4.2.2.5h-.5l-6.6 1zm42.3-20.2l4.4-1.9 3.1-1.9 5.2-5.9-1.5-3.5v-.4l.6-4.1-1.8-5.1v-.2l.1-.2 3.4-4.9 1.5-5.8-5.5-1.5h-.2v-.2l-1.3-3.3v-.2l.1-.2 3.9-5.9-2.7-5.4v-.4l.8-4.4v-.2l.1-.2 5.5-3 2.6-3-6.8-11.2v-.4l.6-4.1-6.3 3.2h-.4l-8.6-3.1-9.5 2.1-3.2 4.6-.1.2h-.2l-9.9.7L549 571l3.5-.7h.3v.3l1 5.2 5.3 4.9 2 4.5 4.9 2.9.3.3-.3.3-3.3 4.4 3 2.9.2.1v.2l-1 5.5v.2l-.1.2-3.4 2.6.1 6.3 8.2-.3h.2l.2.1 3.3 3.5z"/><path class="st0" d="M476 578.3l13 45.9 5.2-1.1 3.3-5.5 3.5 1.2 1.3 5.3 11.6 5.4 8.4-3.8 4.8 1.7 3.9 6.6 6.3-1.2-1.2-3.6-4-1.7-.3-.1.1-.5 2.5-3.9h.2l5.9-2.6h.2l7.3.3 3.4-6.1v-4l.1-.6.5.4 4.9 3.2 4.6-1.3-.2-6.8v-.2l.1-.2 3.4-2.6 1-5.2-3.2-3-.3-.1.3-.3 3.1-4.3-4.5-2.9h-.2v-.2l-2-4.5-5.5-5v-.2l-1-5-3.5.7-4.2 4.5-.1.2h-.2l-8.7-.3-2.5 2.2-.3.2-.2-.1-2.8-1.8-7.1 7.8-.3.3-.2-.3-6.4-5.3v-.2l-1.4-4.2-5.2-6-19.4 8.2h-.2l-4.5-1.5-1.8 1.5-.3.2-.2-.1-3.2-1.8-3.8 2.3z"/><path class="st0" d="M459.4 559.4l10.4-.4-3.9 4.8 9.7 13.7 4-2.8.3-.2.2.1 3.2 1.8 1.9-1.5.1-.2.2.1 4.5 1.5 19.4-8.3h.3l.2.1 5.4 6.4h.2v.2l1.2 4.1 5.9 5 7.1-7.8.1-.3.3.3 2.8 1.8 2.5-2v-.2h.2l8.7.3 4.2-4.3-1.7-26.7-3.6.3-4.5 4.5-.3.2-.3-.3-2.3-2.5v-.4l-.1-10.1-14.5.6h-.2l-.2-.1-3-4.8-7.5.8h-.3v-.3l-1.9-5.3-5.1-5.8-26.3-10.2.6 8.2v.3h-.2l-4.6 3.1 1.8 5.3.2.5h-.5l-6.2.1-4.8 2.4-2.4 5.1 1.6 14.6v.2l-2.8 8.1z"/><path class="st0" d="M417.7 528.4l3 .6.7 5.2-1.7 2.1 1.5 3.6-3.7 4.9 1 3.3 8.8 1.4.8 4.6h4.2l3.3.5 3.5 3.3-4.4 4.2.2 3.2 4.5-1.7 4.2 1.9 3.5-1 2.9-2.8 8.5-2.2 2.8-8.4-1.6-14.5v-.2l.1-.2 2.6-5.5.1-.2 4.8-2.4h.2l5.9-.1-1.7-5v-.3l.1-.2 4.7-3.1-1.4-20.4-3.8-3.5-.2-.3.1-.2 3.4-4.7-.5-2.8-6.5 5.1h-.4l-5.3.2h-.2l-5.3-2.6-5.5 1.2-.1.2-.2-.1-7.6-4.7-3.3-.4h-.6l.3-.5 2.2-3.6-3.8-3.3-6.3 7.1-.2 6.2v.2l-1.8 2.5.6 2 4.4 1.2.2.1v.2l1.7 3.9h.2v.2l-.7 3.8v.2l-1.4 2.4-.1.3-.2-.1-5.2-.6-3.4 4.4-.8 4.7v.2l-.1.2-6.2 6.6-.8 3.7z"/><path class="st0" d="M554.8 465.3l-5.8-3.5-10.4 7.1h-.5l-9.6-6.2-13.1.8h-.2v-.2l-9-5.1-6.3-1.3-5.4 4.7-3.2 13.9-.1.3h-.3l-5.1-.3-3.7 2.7-.5 4.2v.2l-.1.2-6.7 4.5.7 3.2v.2l-.1.2-3.2 4.6 3.6 3.3v.4l.8 11.7 26.6 10.4h.2v.2l5.4 5.8v.2l1.8 5.1 7.4-.8h.3l.2.3 3 4.6 14.7-.6h.3v.3l.1 10.4 1.9 2.2 4.5-4.2.1-.2h.2l3.9-.3h.5l9.6-.7 3.4-4.4v-.2h.2l9.8-2.1h.2l8.6 3.1 6.4-3.4-.2-6.8v-.2l.1-.2 6.7-5.7.5-3.3-6.2-1.6h-.2l-4.6-4.2h-.2v-.2l-1.2-5.8v-.2l.1-.2 7.3-7.2v-3.9l-5.1-.3h-.2l-.2-.1-6.4-11.3-19.7-1.6-.3-.1v-.3l-.4-5.4v-.2l2.4-3.4-3.3-9.1zm31.6 93.1l-2.2 1.2-.8 4.2 2.9 5.4v.3l-.1.2-3.9 5.9 1.1 2.9 5.7 1.6.5.1-.1.3-1.6 6.3h-.2l-3.2 4.9 1.6 5.2h.2l-.1.2-.6 4.1 1.6 3.5v.2l-.1.2-5.3 6.3h-.2l-3.3 1.9-4.4 2-1.2 7.1 4.9 5.4 5.1-4.5.6-.5v.3l9.8-1.3 2.1-7v-.3h4.5l2.5-6.4v-.2h.2l5.1-2.4 1.4-3.7-.3-3.9v-.3h.2l4.6-3-.6-4.1-2.4-5.9-1.3-5.6-4.9-6.3v-.5l1.6-4.1-3.4-1.9-5.5 1h-.2l-6 .4h-.3v-.2l-4-9zm-30.2-298.3l3.7 4.2 2.4-1.3-1.2-6.1-2.6-1.1-2.3 4.3zm7.5-29l1.9 2.2 1.7-2.1-1-3-2.3.9-.3 2zm57.9-114.7l7.7.9-2.1-5.6-5.2.5-.4 4.2zm7.4 13.8l3.8-5.8-1.3-4.9 3.8-2.9 3.7-4.3 4.8 3.7 3 6.9 1.8 3.1-4 2.5.3 4-10 5.4-5.6-4.4-.3-3.3zm-3.3 6.3l8.1 2.5-.8 3.8-3.6 2.3-5.5-3.2-1.2-3.5 3-1.9zm7.8 12.1l2.9-8.9 9.4-5.5 2.2 6.5 2.6-1 .1-3 4.6 4 .1 5.7-2.9 5.5 3 3-.4 5-3.4 2.1-7.4-4.4-6.9-5.1-3.7-1.3-.2-2.6zm25.7 3.2l-.1 11.3-3.6 8 2 5.9 6.7-6.2 7.4-1 3.6-4.3-.2-9-4.5-5-3.2 3.6-2.1-1.9-.2-5.2-5.8 3.8zm21.8 14.7l.8 3 5.6.8-.3-2.2-5.8-3-.3 1.4zm-40.4 25.7l3.1 2 2.1-1.4-1.8-3.1-3.4 2.5zm-25.8-2.4l3.8 1.7-.1-2.9-2.5-2.5-1.6 1.5.4 2.2zm23.4 10.4l1.5 1.4 1.6-1.8-2.1-1.9-1 2.3zm-58.8 42.3l3 2.4 1.7-2-.8-2.9-2.5-.4-1.4 2.9zm7.1 2.9l1.6 1 .9-2.1-2-1.9-.5 3zm3.5-8l1.6 1 .8-1.8-2.4-1.4v2.2zm2.4-4.3l2 1.3 1.5-2.4-2.9-1.8-1.3 1.2.7 1.7zm-13.5-13.3l2.1 1.1 2.8-1.9-1.9-2.8-2.5-.6-2.3 2.3 1.8 1.9zm5.5-10.7l-.5 1.7 1.7 2.1 1.4-1.8v-2h-2.6zm-9.7-71.2l-.3 2.3 2.6 2.3 3.4-.1-.4-3.1-2.5-2.9-2.8 1.5zm13.9-19.5l3.3.9 3.5-1.2-2.3-4.5-2.8-1.8-1.7 1.8-.3 3 .3 1.8zm151.2 286.4l-2.3 3-.1.2h-.2l-5.8 1.6-5.1 2.7.7 5.8 1.8 3.8v.4l-2.5 6.8 3.3 4.6v.4l1.1 7.1v.4l-4 9.3v.2h-.2l-7.4 5.3 3.3 4.7.2.1-.1.2-2.9 4.7 2.1 5.6 6.6 1.7h.2v.2l1.2 4.3v.2l-.1.2-4.4 5.4-.1 3.6 3.1.6h.2v.2l1.9 4.5v.2l-.1.2-3.3 3.8-1.2 5.5-.1.5-.5-.3-7.1-3.5h-.2v-.2l-3.7-6.7-6 3.2-.5 5.9v.2l-.1.2-12.7 15.9 1.1 6.9v.3l-.3.2-3.6 1.8-.3.2-.2-.3-6.1-11.1-3.2 5-.1.2h-.2l-14.2 1.6-4.8 10.7 7 9.4.2.1v.2l-.8 5.6v.3h-.3l-6.1 1.4-3.1 7 .1 18.5v.3h-.3l-6.1-.2-4.2 2.3.2 3.6 11 8.5 16.2 9.7 6.1-.9h.3v.3l.4 1.1 4-.1 6.7-5.6.3-.2.2.3 4.9 5.9 14.3 9.8 6.6-.5h.2l.2.1 5.6 6.3v.4l1 5 7.2.9h.3v.2l1.2 3.6 6-2.4.9-4.4-6.5.5h-.3l-.2-.1-1.6-3-.2-.3.3-.2 3-2.1 4.1-.9 8.1-6.5 2.8-4.8 5.9-6.2 1.1-4.3 3.3-6.6 4-7.3 3.1-10.9 2.3-8.7-3.6-6.9v-.4l.2-7.8v-.4l3.7-5.1-5.1-3.7-.2-.1v-.2l-1.1-4.4v-.5h.5l8.1-1.7.6-4.8.1-.5.5.1 4.4 1.2 7.4-3 1.7-5.1.1-.3.3.1 4 1.7 3.9-.3h.2l.2.1 3 3.5 15.9-5.5 1.4-7.1.1-.3h.3l3.3.2 3.7-4.9.6-.7.2.9.8 4.9 10 .8 5.6-4.4-.2-7.6-6.5-3.9-.2-.1v-.2l-1.1-9.5v-.2l.1-.2 3.2-2.9h.4l8.5-.9-9.1-17.3-4.5-2.6-7.2 3.9-.3.2-.2-.5-3.4-8-12.2-3.9-6 1.3-7.9 20.6-5.7 7.7-.3.3-.3-.3-4.8-4.2-2.6 5.3-.1.2h-.2l-8.5.9-5.6 4.9-.3.2-.2-.3-6-5.5-.2-.1v-15.6l4.3-12.1-6.6-1.6h-.2v-.2l-3.6-6.7v-.4l1.6-9.9-5.5-2.6-.2-.1v-.2l-.4-9.6-4.4-7.3-2.9 2.4-.1.2h-5v-.3l-.4-5.4v-.2l.1-.2 3.4-2.4-2-3.8zM716.4 593l-1-3.6v-.3l.3-.2 3.5-1.3-1.9-5.3-.3-.3.3-.2 4.2-1.8.3-.2.2.3 3.9 6.4 8-5.5.3-.2.2.3 3.2 3.8 2.6 2.1 3.2-1.5 4.5-.3h.2l.2.1 2.4 3.4.2.1-.1.2-7.9 11.6-.1.3-.3-.1-5.5-3.3-6.4 1.1h-.4l-4-2-4.7-2.9-4.7-.1h-.3l-.1-.6z"/><path class="st0" d="M716.1 589.5l.8 3h4.5l.2.1h.2l4.7 3.1 3.9 2.1 6.3-1.1h.4l.2.1 5.2 3 7.6-11.1-2.2-2.9-4.2.3-3 1.3-.3.2-.1.2-.2-.1-.2-.1-2.6-2.1h-.2v-.2l-2.9-3.5-7.7 5.3-.5.2-.3.2-.2-.3-.2-.3-3.7-6.3-3.6 1.6 1.9 5v.5l.2.3-.3.2h-.3l-3.4 1.3zm63.6 47.8l3.4-.1 3.9 6.2 26.6.6 17-11.9 5.7-.6 1.4-6 8.1-8.6 12-1.5 3.8 3.1 4.8-5 21.5 1.9 2.5-8.6 6.9-5.6-3.6-7.2 1.8-20.4 5-5.8-4.4-9.5-7.8-.2 4.7-10.4 9.1-7.3-9.6-12.4-.2-.1.1-.2 2.6-4.4-5.5-2.6-.2-.1v-.2l-1.5-10.1-5 1.6h-.3l.1-.3-3.6-5.5-6.5 4.3-.3.2-.2-.1-4.5-3.9-.2-.1.1-.3 2.2-3.6-8.7-5h-.2v-.2l-12.1-19.2-8.8.6-3.1 2.7 1.1 9.1 6.5 3.9.2.1v.2l.2 7.9v.2l-.1.2-5.7 4.6-.1.2h-.2l-10.1-.8-2.5 4.2 3.1 2.4v.2l6 14.5 5.9.7h.4l5.9 4.5.2.1v.2l1 7.4v.3l-.3.2-8.6 3.7-2.9 8v.2l-9.4 8.3.4 5.1 4.8 2.8.2.1v6.7l-4.1 5.9h-.2l-5.5 2.7-1.8 3.5-.1.2h-.2l-6.6.9-9.5 14.6-.1.2h-.2l-5.8-.4-5.8 5.7-.1.2h-.2l-9.7.7 2.4 5.7.2.3-.1.2-5 4.5 6 5.6.3.3-.5.2-5.2 3.2-1.2 6.4zm43.9-26.8l1.5-4.9.1-.2.1-.2h.4l10.4-2 2.5-6.4.1-.5.1-.5.3.3.3.3 2.5 2 2.1-6v-.2l.1-.2h.4l5.2-1.4h.4l.2.1.2.1 6.6 3.6.2.1.2.1v.6l-.5 4.2v.6h-.6l-3 1 5.6 4.4.5.3.5.3-.4.3-.4.3-21.2 12-.1.2-.1.2-.2-.1-.2-.1-13.2-7-.3-.1-.3-.1.1-.3-.1-.8z"/><path class="st0" d="M825.9 605.8l-1.5 4.9 13.2 7 21.2-12-6.2-5-.5-.4.6-.2 3.8-1.2.5-4.2-6.6-3.6-5.2 1.4-2.3 6.7-.1.5-.3-.4-3-2.3-2.6 6.5-.1.3h-.2l-10.7 2zM733 405l-.3.2-.2-.1-4.4-2.9-10.2.7.1-.5.2-5.4v-.4l5.4-7.4 1.4-4.7-4-2.4h-.2l-.4-5.2-3.5-3.5h-.2l.1-.3.9-7.2-3.9-2.7-.5-.1.3-.3 5.3-6.7-3.9-26.7-7.5-9.7 3.3-1.9 7.6-7.2.1-.2.2.1 4.8.1 1.1-8.5v-.2l2.1-3.7.3-4.7v-.2l.1-.2 9.3-8.4-4.4-4.7-.2-.1-.6-8.2-9.5-11.6-1.7-6.2-2.9-3.2-.2-.1.1-.2-.1-3.6-5.1 3-5.7 5.1-8.2 3.1-2.9 5.8-.3-8 15.5-18.5 8.1-17.3 3.3-15.3-14-13.8-12.1.4-3.9 6.3-4.7 1.3 2.8-10.6-10-.5 2.9-4.9-6.4-4.7-5.3 2.5-7.7 13.4 2.5 7.6-9.2 1.3.3 2.3 3.8 4.9-6.7-.9-3.2 3.5-7.8-.8-1.2-3.5-10.9 1.1.7 6.2-13 2.8-8.5 7.7-6.8.6-4.8 4.8-1.5 9.1 4.7 7.4-6.2 2-17.3-1.6-9.9.5-2.7 5.6.7 14.1 6.6 5.7 3.6 6.7-8.6.6-8.5-13.4-5.4.7.1.8 5.5 9.7.2.5-.5.2-5 1.1-.6 6.4 5.3 9.7.2.1-.9 4.9v.3h-.3l-10.8 5.9-1 5.7 7.9 9.2 8.3 1.4h.3v.3l2.6 10.2-.4 1.3-2.4 7.6-.1.3h-.2l-7.4 2.5 2.7 5.2v.4l-2 7.3 6.6 7.4.2.1v.2l-.5 14.3 5.3 6.3.2.1v.2l-1.1 10.3 7.6 4.9v.2l.2.1 1.6 7.2.2.1-.1.2-5.7 9.2-.1 7.9v.2h-.2l-8.8 13.2.7 9.9 8.3 3.9.2.3v.2l-1.3 3.8v.2l-.1.2-7 3.6-6.1 1.2 3.3 9.2v.4l-2.4 3.4.3 4.9 19.5 1.7h.2v.2l6.5 11.2 5.3.4h.3v5h-.2l-7.3 7.2 1.2 5.3 4.5 4 6.5 1.6h.3v.5l-.8 3.8v.2h-.2l-6.6 5.7.2 7v.3l-.6 4.4 6.8 11.3v.3l-.1.2-2.9 3.3-2.5 1.4 3.7 8.7 5.7-.4 5.7-1.2h.2l.2.1 3.9 2.1.3.1-.1.3-1.7 4.3 4.8 6.3v.2l1.5 5.6 2.4 5.9v.2l.6 4.3v.3h-.2l-4.8 3 .3 3.9v.2l-1.4 3.8v.2h-.2l-5.1 2.4-2.5 6.2 8.9 5.4 14.2.7 5.7-5.4v-.2h.2l3.2-1-.1-3.3v-.2h.2l4.7-3.6-.5-3.4-.2-.5h.3l3.6-1.2.9-5v-.3h.3l18.4-3 .6-4.2-11-8.5-.2-.1-.3-4.3.1-.2 4.5-2.5h.2l5.9.2-.2-18.1h.2v-.2l3.2-7.4v-.2h.2l6.1-1.4.9-5.2-7-9.4-.2-.3.1-.2 5-11 .1-.3h.2l14.3-1.6 3.5-5.4.3-.5.4.6 6.2 11.2 3-1.5-1.1-6.7v-.2l.1-.2 12.5-15.9.5-5.9v-.2l7.2-3.9.2.3 3.8 7 6.4 3.3 1.2-5.2v-.2l3.3-3.8-1.7-4.1-3.3-.7h-.3v-4.3l.1-.2v-.2l4.4-5.3-1.1-4-6.8-1.5h-.2v-.3l-2.3-5.9-.2-.3.1-.2 2.9-4.5-3.3-4.7-.2-.3.3-.3 7.5-5.3 3.9-9.1-1.1-6.7-3.3-4.6-.2-.1.1-.3 2.5-6.7-1.8-3.8v-.2l-.7-6.2v-.2l.3-.2 5.2-2.8h.2l5.6-1.6 2.3-3-2.2-2.3-3.8 3.1zm471.6-42.3l-3.1-20.1-2.8-9.1-7.1-6.2-.1-9.9 3.2-3-12.5-12.6-.3-9.3 4.4-5.6-1.6-5-9.8-2.3-11.1-16.7 2.2-1.9 3.4 4.1 4.6-3.4-7.9-6.6-3.8 2.6-6.8-3.7-.1.2-3.8-7.6-6.6.5-.6 4.7-4.2-.2-15.7-26.3.3-8.7 5.3-1.6-5.2-15.9 9.1 6.3-1.2-19.5 6.3-7.4 10.3-1-6.9-13.8-4.9-30.7-6.5 2.5h-.4l-5.1-2.3-6.8 25.1-.1.3h-.3l-10.8.4-9.8 3.8-.3.2-.2-.5-3.9-8.7-13.5 1.7-2.2 4.5v.2l-.3.2-9.1 2.8-1.4 4.9v.3h-.3l-5.1.8-1.1 5.8v.2l-.3.2-5.7 2.3 1.5 5.6 9.3 11.6 5.3.7.2.1v.2l4.4 9.2 5.8-1h.2l.2.1 4.3 3.4v.2l1.6 5.6 5.6 2.7 3.5-3.8-11-11.5 1.9-8.2 9.5-4.2-4.5 8.2 1.5 5.9 8.3 5 3.7-.1.1 5.6 3.6.7-2.1 16.3 4 5.8 2.6 18.7 3.6 11.8 4.7 11.8-4.1 5.3 1.9 4.5-2.2 3.4 6.7 6.8 1.9 11.3 9.2 9.1 11 10.7 58 33.5zm-839.3 29.5h-.2l-12.1-8.6-4 2.5-.1.2-11.5-.6h.2l-7.8-3.5h-.2l-7.5-7.4-9-.1-2.2 6.7 6.9 8v.2l.9 6v.3h-.3l-10.2 5.2.2 3.5 3.1 2.3.3.1-3.1 4.7-2.6 3.3-3.2 10.3h-.2l-3 3.8-1.6 5.5v.2h-.2l-3.1 4.1-.1.2h-.2l-3.1.1.4 7.4 3.4-.4h.5l.4 5.9 7.4-.1h.3v.3l.6 4.1 3.3.5h.2v.3l.6 2v.2l.7 2.9 1.2 1.3 2.9-.8 5.7-7.8.1-.2h.2l6.9-1.3 4-7.4.3-.3.3.3 3.5 3.3 2.6-2 .9-5v-.3h.3l7.7-.8 2-2.8.2-5.4v-.4l3.3-4.3-3-4.8v-.2l-.1-4v-.2l.3-.2 8.1-4.3 8.9-10.1 5.9-9.1.9-2.9-7-.4zM30.1 467.1l4-5.2-10.8-12.1 4.7-16.9-4.4-3.1-3.4 2.7-15-8.7-1.5 3.1L5 438.3l-5 6.1 2 7.9 9.4-1.3 11.4 12.4 7.3 3.7z"/><circle class="st1" cx="499.4" cy="401.5" r="20"/><path class="st2" d="M499.4 392.3c-4 0-7.3 3.3-7.3 7.3 0 5.9 7.1 10.8 7.3 11 0 0 7.4-5.1 7.3-11 0-4-3.3-7.3-7.3-7.3zm0 11c-2 0-3.7-1.6-3.7-3.7 0-2 1.6-3.7 3.7-3.7 2 0 3.7 1.6 3.7 3.7-.1 2.1-1.7 3.7-3.7 3.7z"/><circle class="st1" cx="691.4" cy="558.5" r="20"/><path class="st2" d="M691.4 549.3c-4 0-7.3 3.3-7.3 7.3 0 5.9 7.1 10.8 7.3 11 0 0 7.4-5.1 7.3-11 0-4-3.3-7.3-7.3-7.3zm0 11c-2 0-3.7-1.6-3.7-3.7 0-2 1.6-3.7 3.7-3.7 2 0 3.7 1.6 3.7 3.7-.1 2.1-1.7 3.7-3.7 3.7z"/><circle class="st1" cx="759.4" cy="310.5" r="20"/><path class="st2" d="M759.4 301.3c-4 0-7.3 3.3-7.3 7.3 0 5.9 7.1 10.8 7.3 11 0 0 7.4-5.1 7.3-11 0-4-3.3-7.3-7.3-7.3zm0 11c-2 0-3.7-1.6-3.7-3.7 0-2 1.6-3.7 3.7-3.7 2 0 3.7 1.6 3.7 3.7-.1 2.1-1.7 3.7-3.7 3.7z"/><circle class="st1" cx="964.4" cy="191.5" r="20"/><path class="st2" d="M964.4 182.3c-4 0-7.3 3.3-7.3 7.3 0 5.9 7.1 10.8 7.3 11 0 0 7.4-5.1 7.3-11 0-4-3.3-7.3-7.3-7.3zm0 11c-2 0-3.7-1.6-3.7-3.7 0-2 1.6-3.7 3.7-3.7 2 0 3.7 1.6 3.7 3.7-.1 2.1-1.7 3.7-3.7 3.7z"/><circle class="st1" cx="832.4" cy="359.5" r="20"/><path class="st2" d="M832.4 350.3c-4 0-7.3 3.3-7.3 7.3 0 5.9 7.1 10.8 7.3 11 0 0 7.4-5.1 7.3-11 0-4-3.3-7.3-7.3-7.3zm0 11c-2 0-3.7-1.6-3.7-3.7 0-2 1.6-3.7 3.7-3.7 2 0 3.7 1.6 3.7 3.7-.1 2.1-1.7 3.7-3.7 3.7z"/><circle class="st1" cx="468.4" cy="303.5" r="20"/><path class="st2" d="M468.4 294.3c-4 0-7.3 3.3-7.3 7.3 0 5.9 7.1 10.8 7.3 11 0 0 7.4-5.1 7.3-11 0-4-3.3-7.3-7.3-7.3zm0 11c-2 0-3.7-1.6-3.7-3.7 0-2 1.6-3.7 3.7-3.7 2 0 3.7 1.6 3.7 3.7-.1 2.1-1.7 3.7-3.7 3.7z"/><circle class="st1" cx="874.4" cy="249.5" r="20"/><path class="st2" d="M874.4 240.3c-4 0-7.3 3.3-7.3 7.3 0 5.9 7.1 10.8 7.3 11 0 0 7.4-5.1 7.3-11 0-4-3.3-7.3-7.3-7.3zm0 11c-2 0-3.7-1.6-3.7-3.7 0-2 1.6-3.7 3.7-3.7 2 0 3.7 1.6 3.7 3.7-.1 2.1-1.7 3.7-3.7 3.7z"/><circle class="st1" cx="571.4" cy="340.5" r="20"/><path class="st2" d="M571.4 331.3c-4 0-7.3 3.3-7.3 7.3 0 5.9 7.1 10.8 7.3 11 0 0 7.4-5.1 7.3-11 0-4-3.3-7.3-7.3-7.3zm0 11c-2 0-3.7-1.6-3.7-3.7 0-2 1.6-3.7 3.7-3.7 2 0 3.7 1.6 3.7 3.7-.1 2.1-1.7 3.7-3.7 3.7z"/><circle class="st1" cx="404.4" cy="386.5" r="20"/><path class="st2" d="M404.4 377.3c-4 0-7.3 3.3-7.3 7.3 0 5.9 7.1 10.8 7.3 11 0 0 7.4-5.1 7.3-11 0-4-3.3-7.3-7.3-7.3zm0 11c-2 0-3.7-1.6-3.7-3.7 0-2 1.6-3.7 3.7-3.7 2 0 3.7 1.6 3.7 3.7-.1 2.1-1.7 3.7-3.7 3.7z"/><circle class="st1" cx="911.4" cy="445.5" r="20"/><path class="st2" d="M911.4 436.3c-4 0-7.3 3.3-7.3 7.3 0 5.9 7.1 10.8 7.3 11 0 0 7.4-5.1 7.3-11 0-4-3.3-7.3-7.3-7.3zm0 11c-2 0-3.7-1.6-3.7-3.7 0-2 1.6-3.7 3.7-3.7 2 0 3.7 1.6 3.7 3.7-.1 2.1-1.7 3.7-3.7 3.7z"/><circle class="st1" cx="1042.4" cy="436.5" r="20"/><path class="st2" d="M1042.4 427.3c-4 0-7.3 3.3-7.3 7.3 0 5.9 7 10.8 7.3 11 0 0 7.4-5.1 7.3-11 0-4-3.3-7.3-7.3-7.3zm0 11c-2 0-3.7-1.6-3.7-3.7 0-2 1.6-3.7 3.7-3.7s3.7 1.6 3.7 3.7-1.7 3.7-3.7 3.7z"/><circle class="st1" cx="681.4" cy="365.5" r="20"/><path class="st2" d="M681.4 356.3c-4 0-7.3 3.3-7.3 7.3 0 5.9 7.1 10.8 7.3 11 0 0 7.4-5.1 7.3-11 0-4-3.3-7.3-7.3-7.3zm0 11c-2 0-3.7-1.6-3.7-3.7 0-2 1.6-3.7 3.7-3.7 2 0 3.7 1.6 3.7 3.7-.1 2.1-1.7 3.7-3.7 3.7z"/><circle class="st1" cx="744.4" cy="438.5" r="20"/><path class="st2" d="M744.4 429.3c-4 0-7.3 3.3-7.3 7.3 0 5.9 7.1 10.8 7.3 11 0 0 7.4-5.1 7.3-11 0-4-3.3-7.3-7.3-7.3zm0 11c-2 0-3.7-1.6-3.7-3.7 0-2 1.6-3.7 3.7-3.7 2 0 3.7 1.6 3.7 3.7-.1 2.1-1.7 3.7-3.7 3.7z"/><circle class="st1" cx="610.4" cy="441.5" r="20"/><path class="st2" d="M610.4 432.3c-4 0-7.3 3.3-7.3 7.3 0 5.9 7.1 10.8 7.3 11 0 0 7.4-5.1 7.3-11 0-4-3.3-7.3-7.3-7.3zm0 11c-2 0-3.7-1.6-3.7-3.7 0-2 1.6-3.7 3.7-3.7 2 0 3.7 1.6 3.7 3.7-.1 2.1-1.7 3.7-3.7 3.7z"/><circle class="st1" cx="936.4" cy="307.5" r="20"/><path class="st2" d="M936.4 298.3c-4 0-7.3 3.3-7.3 7.3 0 5.9 7.1 10.8 7.3 11 0 0 7.4-5.1 7.3-11 0-4-3.3-7.3-7.3-7.3zm0 11c-2 0-3.7-1.6-3.7-3.7 0-2 1.6-3.7 3.7-3.7 2 0 3.7 1.6 3.7 3.7-.1 2.1-1.7 3.7-3.7 3.7z"/><circle class="st1" cx="944.4" cy="491.5" r="20"/><path class="st2" d="M944.4 482.3c-4 0-7.3 3.3-7.3 7.3 0 5.9 7.1 10.8 7.3 11 0 0 7.4-5.1 7.3-11 0-4-3.3-7.3-7.3-7.3zm0 11c-2 0-3.7-1.6-3.7-3.7 0-2 1.6-3.7 3.7-3.7 2 0 3.7 1.6 3.7 3.7-.1 2.1-1.7 3.7-3.7 3.7z"/><circle class="st1" cx="614.4" cy="515.5" r="20"/><path class="st2" d="M614.4 506.3c-4 0-7.3 3.3-7.3 7.3 0 5.9 7.1 10.8 7.3 11 0 0 7.4-5.1 7.3-11 0-4-3.3-7.3-7.3-7.3zm0 11c-2 0-3.7-1.6-3.7-3.7 0-2 1.6-3.7 3.7-3.7 2 0 3.7 1.6 3.7 3.7-.1 2.1-1.7 3.7-3.7 3.7z"/><circle class="st1" cx="538.4" cy="578.5" r="20"/><path class="st2" d="M538.4 569.3c-4 0-7.3 3.3-7.3 7.3 0 5.9 7.1 10.8 7.3 11 0 0 7.4-5.1 7.3-11 0-4-3.3-7.3-7.3-7.3zm0 11c-2 0-3.7-1.6-3.7-3.7 0-2 1.6-3.7 3.7-3.7 2 0 3.7 1.6 3.7 3.7-.1 2.1-1.7 3.7-3.7 3.7z"/><circle class="st1" cx="226.4" cy="462.5" r="20"/><path class="st2" d="M226.4 453.3c-4 0-7.3 3.3-7.3 7.3 0 5.9 7.1 10.8 7.3 11 0 0 7.4-5.1 7.3-11 0-4-3.3-7.3-7.3-7.3zm0 11c-2 0-3.7-1.6-3.7-3.7 0-2 1.6-3.7 3.7-3.7 2 0 3.7 1.6 3.7 3.7-.1 2.1-1.7 3.7-3.7 3.7z"/><circle class="st1" cx="492.4" cy="480.5" r="20"/><path class="st2" d="M492.4 471.3c-4 0-7.3 3.3-7.3 7.3 0 5.9 7.1 10.8 7.3 11 0 0 7.4-5.1 7.3-11 0-4-3.3-7.3-7.3-7.3zm0 11c-2 0-3.7-1.6-3.7-3.7 0-2 1.6-3.7 3.7-3.7 2 0 3.7 1.6 3.7 3.7-.1 2.1-1.7 3.7-3.7 3.7z"/><circle class="st1" cx="356.4" cy="454.5" r="20"/><path class="st2" d="M356.4 445.3c-4 0-7.3 3.3-7.3 7.3 0 5.9 7.1 10.8 7.3 11 0 0 7.4-5.1 7.3-11 0-4-3.3-7.3-7.3-7.3zm0 11c-2 0-3.7-1.6-3.7-3.7 0-2 1.6-3.7 3.7-3.7 2 0 3.7 1.6 3.7 3.7-.1 2.1-1.7 3.7-3.7 3.7z"/><circle class="st1" cx="312.4" cy="367.5" r="20"/><path class="st2" d="M312.4 358.3c-4 0-7.3 3.3-7.3 7.3 0 5.9 7.1 10.8 7.3 11 0 0 7.4-5.1 7.3-11 0-4-3.3-7.3-7.3-7.3zm0 11c-2 0-3.7-1.6-3.7-3.7 0-2 1.6-3.7 3.7-3.7 2 0 3.7 1.6 3.7 3.7-.1 2.1-1.7 3.7-3.7 3.7z"/><circle class="st1" cx="273.4" cy="281.5" r="20"/><path class="st2" d="M273.4 272.3c-4 0-7.3 3.3-7.3 7.3 0 5.9 7.1 10.8 7.3 11 0 0 7.4-5.1 7.3-11 0-4-3.3-7.3-7.3-7.3zm0 11c-2 0-3.7-1.6-3.7-3.7 0-2 1.6-3.7 3.7-3.7 2 0 3.7 1.6 3.7 3.7-.1 2.1-1.7 3.7-3.7 3.7z"/><circle class="st1" cx="809.4" cy="502.5" r="20"/><path class="st2" d="M809.4 493.3c-4 0-7.3 3.3-7.3 7.3 0 5.9 7.1 10.8 7.3 11 0 0 7.4-5.1 7.3-11 0-4-3.3-7.3-7.3-7.3zm0 11c-2 0-3.7-1.6-3.7-3.7 0-2 1.6-3.7 3.7-3.7 2 0 3.7 1.6 3.7 3.7-.1 2.1-1.7 3.7-3.7 3.7z"/><circle class="st1" cx="190.4" cy="361.5" r="20"/><path class="st2" d="M190.4 352.3c-4 0-7.3 3.3-7.3 7.3 0 5.9 7.1 10.8 7.3 11 0 0 7.4-5.1 7.3-11 0-4-3.3-7.3-7.3-7.3zm0 11c-2 0-3.7-1.6-3.7-3.7 0-2 1.6-3.7 3.7-3.7 2 0 3.7 1.6 3.7 3.7-.1 2.1-1.7 3.7-3.7 3.7z"/></svg>