<svg width="199" height="27" fill="none" xmlns="http://www.w3.org/2000/svg"><path d="M9.944 26.504c-2.472 0-4.56-.552-6.264-1.656C1.976 23.744.764 22.22.044 20.276l4.248-2.484c.984 2.568 2.916 3.852 5.796 3.852 1.344 0 2.352-.24 3.024-.72.672-.48 1.008-1.128 1.008-1.944 0-.888-.396-1.572-1.188-2.052-.792-.504-2.208-1.044-4.248-1.62-2.208-.672-3.948-1.452-5.22-2.34-1.584-1.176-2.376-2.904-2.376-5.184 0-2.304.804-4.116 2.412-5.436C5.108.98 7.064.296 9.368.296c2.016 0 3.804.492 5.364 1.476s2.772 2.376 3.636 4.176L14.192 8.36c-1.008-2.16-2.616-3.24-4.824-3.24-1.008 0-1.812.24-2.412.72-.6.456-.9 1.056-.9 1.8 0 .792.324 1.44.972 1.944.72.504 1.992 1.032 3.816 1.584l1.728.576c.312.096.852.3 1.62.612.72.264 1.248.516 1.584.756 1.176.72 1.968 1.464 2.376 2.232.624 1.008.936 2.196.936 3.564 0 2.328-.852 4.176-2.556 5.544-1.704 1.368-3.9 2.052-6.588 2.052zM22.152.8h9.396c2.4 0 4.44.816 6.12 2.448 1.657 1.632 2.485 3.636 2.485 6.012 0 2.376-.828 4.38-2.484 6.012-1.68 1.632-3.72 2.448-6.12 2.448H27.12V26h-4.968V.8zm4.968 12.276h4.428c1.057 0 1.933-.36 2.628-1.08.697-.744 1.044-1.656 1.044-2.736 0-1.104-.347-2.016-1.044-2.736-.696-.72-1.572-1.08-2.628-1.08h-4.427v7.632zm37.295 9.648c-2.544 2.52-5.64 3.78-9.288 3.78-3.648 0-6.744-1.26-9.288-3.78-2.52-2.568-3.78-5.676-3.78-9.324 0-3.672 1.26-6.768 3.78-9.288C48.383 1.568 51.48.296 55.127.296c3.648 0 6.744 1.272 9.288 3.816 2.544 2.52 3.816 5.616 3.816 9.288 0 3.672-1.272 6.78-3.816 9.324zM49.331 19.34c1.536 1.536 3.468 2.304 5.796 2.304 2.328 0 4.26-.768 5.796-2.304 1.56-1.56 2.34-3.54 2.34-5.94 0-2.4-.78-4.38-2.34-5.94-1.56-1.56-3.492-2.34-5.796-2.34-2.304 0-4.236.78-5.796 2.34-1.56 1.56-2.34 3.54-2.34 5.94 0 2.4.78 4.38 2.34 5.94zM90.911 26h-5.364l-5.076-8.748h-3.78V26h-4.968V.8h10.08c2.328 0 4.308.816 5.94 2.448 1.632 1.632 2.448 3.6 2.448 5.904 0 1.56-.444 3.012-1.332 4.356a8.383 8.383 0 01-3.528 2.988L90.91 26zM81.803 5.444H76.69v7.452h5.112c.936 0 1.74-.36 2.412-1.08.672-.744 1.008-1.632 1.008-2.664 0-1.032-.336-1.908-1.008-2.628-.672-.72-1.476-1.08-2.412-1.08zM91.437.8h18.54v4.752h-6.804V26h-4.968V5.552h-6.768V.8z" fill="#1E1C1C"/><path d="M121.354 26.504c-2.472 0-4.56-.552-6.264-1.656-1.704-1.104-2.916-2.628-3.636-4.572l4.248-2.484c.984 2.568 2.916 3.852 5.796 3.852 1.344 0 2.352-.24 3.024-.72.672-.48 1.008-1.128 1.008-1.944 0-.888-.396-1.572-1.188-2.052-.792-.504-2.208-1.044-4.248-1.62-2.208-.672-3.948-1.452-5.22-2.34-1.584-1.176-2.376-2.904-2.376-5.184 0-2.304.804-4.116 2.412-5.436C116.518.98 118.474.296 120.778.296c2.016 0 3.804.492 5.364 1.476s2.772 2.376 3.636 4.176l-4.176 2.412c-1.008-2.16-2.616-3.24-4.824-3.24-1.008 0-1.812.24-2.412.72-.6.456-.9 1.056-.9 1.8 0 .792.324 1.44.972 1.944.72.504 1.992 1.032 3.816 1.584l1.728.576c.312.096.852.3 1.62.612.72.264 1.248.516 1.584.756 1.176.72 1.968 1.464 2.376 2.232.624 1.008.936 2.196.936 3.564 0 2.328-.852 4.176-2.556 5.544-1.704 1.368-3.9 2.052-6.588 2.052zM133.563.8h9.396c2.4 0 4.44.816 6.12 2.448 1.656 1.632 2.484 3.636 2.484 6.012 0 2.376-.828 4.38-2.484 6.012-1.68 1.632-3.72 2.448-6.12 2.448h-4.428V26h-4.968V.8zm4.968 12.276h4.428c1.056 0 1.932-.36 2.628-1.08.696-.744 1.044-1.656 1.044-2.736 0-1.104-.348-2.016-1.044-2.736-.696-.72-1.572-1.08-2.628-1.08h-4.428v7.632zm37.294 9.648c-2.544 2.52-5.64 3.78-9.288 3.78-3.648 0-6.744-1.26-9.288-3.78-2.52-2.568-3.78-5.676-3.78-9.324 0-3.672 1.26-6.768 3.78-9.288 2.544-2.544 5.64-3.816 9.288-3.816 3.648 0 6.744 1.272 9.288 3.816 2.544 2.52 3.816 5.616 3.816 9.288 0 3.672-1.272 6.78-3.816 9.324zm-15.084-3.384c1.536 1.536 3.468 2.304 5.796 2.304 2.328 0 4.26-.768 5.796-2.304 1.56-1.56 2.34-3.54 2.34-5.94 0-2.4-.78-4.38-2.34-5.94-1.56-1.56-3.492-2.34-5.796-2.34-2.304 0-4.236.78-5.796 2.34-1.56 1.56-2.34 3.54-2.34 5.94 0 2.4.78 4.38 2.34 5.94zM179.82.8h18.54v4.752h-6.804V26h-4.968V5.552h-6.768V.8z" fill="#AA161D"/></svg>